<?xml version="1.0" encoding="utf-8"?>
<!-- Generator: Adobe Illustrator 15.0.2, SVG Export Plug-In . SVG Version: 6.00 Build 0)  -->
<!DOCTYPE svg PUBLIC "-//W3C//DTD SVG 1.1//EN" "http://www.w3.org/Graphics/SVG/1.1/DTD/svg11.dtd">
<svg version="1.1" id="Layer_1" xmlns="http://www.w3.org/2000/svg" xmlns:xlink="http://www.w3.org/1999/xlink" x="0px" y="0px"
	 width="800px" height="450px" viewBox="0 0 800 450" enable-background="new 0 0 800 450" xml:space="preserve">
<g id="Layer_19">
	<g>
		<rect x="-1" y="299.678" fill="#FFFFFF" width="804.683" height="4.156"/>
		<g>
			<path fill="#FFFFFF" d="M64.118,397.371c-10.347,0-18.916-5.656-23.103-9.028l-0.421-0.339l0.034-0.54
				c0.427-6.513,4.832-9.268,8.721-11.698c2.549-1.594,4.961-3.102,6.408-5.516c-0.987-10.165-2.823-19.918-5.613-29.802
				c-0.123-0.437-0.072-1.001,0.028-1.965c0.045-0.441,0.12-1.144,0.102-1.485c-1.68-1.486-1.699-3.047-1.716-4.7
				c-0.013-0.933-0.024-1.993-0.325-3.26c-0.109-0.47-0.353-0.771-0.69-1.177c-0.505-0.617-1.131-1.382-1.228-2.782
				c-0.19-2.842,0.49-4.239,1.092-5.479c0.358-0.733,0.67-1.37,0.807-2.324c0.589-4.024,0.346-8.531,0.09-13.304
				c-0.247-4.617-0.505-9.395-0.13-14.597c-1.875-1.91-4.714-2.937-7.709-4.021c-3.376-1.221-6.868-2.481-9.077-5.172l-0.241-0.295
				l0.005-0.381c0.051-3.025,0.557-6.045,1.045-8.969c0.367-2.202,0.716-4.277,0.855-6.246l0.169-2.355
				c0.816-11.198,2.336-32.045-1.907-38.7c-0.424-0.664-0.79-1.294-1.141-1.9c-0.779-1.343-1.451-2.502-2.522-3.621
				c-1.027-1.07-1.499-2.688-2.049-4.561c-0.457-1.563-0.977-3.335-1.912-5.159c-0.16-0.302-1.147-1.149-1.738-1.658
				c-1.244-1.07-1.904-1.658-2.113-2.27c-0.281-0.818-0.17-1.685-0.07-2.448c0.07-0.548,0.137-1.064,0.047-1.429
				c-0.485-1.936-1.071-5.669-1.916-11.467c-0.724-4.967-1.938-13.279,0.004-24.953c0.092-0.61,0.614-0.819,0.924-0.944
				c0.606-0.245,0.938-0.449,0.958-0.835c0.822-15.622,6.606-30.045,15.473-38.587l0.192-0.189l0.262-0.066
				c0.806-0.215,1.65-0.408,2.514-0.605c2.889-0.662,5.878-1.344,8.566-3.058c0.469-0.3,1.311-0.469,3.419-0.842
				c1.244-0.221,3.563-0.628,4.006-0.928c-0.037-0.023,0.047-0.583,0.106-0.989c0.277-1.834,0.789-5.248,4.519-5.248
				c0.094,0,0.187,0.004,0.281,0.008c-2.1-6.922-3.743-14.272-5.212-21.224l-0.176-0.835l0.783-0.335
				c2.312-0.993,2.849-3.465,3.415-6.083c0.392-1.812,0.795-3.685,1.881-4.994c1.041-1.255,2.458-1.369,3.597-1.462
				c0.876-0.07,1.636-0.132,2.26-0.601c0.686-0.515,1.023-0.988,1.38-1.492c0.919-1.297,1.752-2.169,4.815-2.5
				c10.19-1.117,16.516,6.333,21.581,13.39c0.941,0.189,2.625,0.036,4.199-0.145c1.099-0.124,2.233-0.254,3.253-0.254
				c2.752,0,4.209,1.056,4.332,3.141c0.328,1.997,0,3.651-0.988,4.812c-1.552,1.824-4.428,2.07-7.035,2.07
				c-0.824,0-1.677-0.025-2.527-0.052c-0.253-0.008-0.505-0.016-0.759-0.023c0.454,9.017-0.759,16.7-3.695,23.437
				c1.858,2.212,5.418,2.913,9.174,3.651c3.36,0.662,6.834,1.344,9.226,3.252l0.275,0.337c4.282,8.34,7.855,18.592,10.417,29.846
				c0.13-0.463,0.26-0.93,0.393-1.403c1.208-4.336,2.581-9.249,4.704-13.73c0.4-0.847,1.191-0.978,1.569-1.04
				c0.056-0.008,0.132-0.02,0.184-0.033c-0.008-0.031,0.027-0.167,0.042-0.43c0.105-1.967,1.539-3.819,3.056-5.781
				c1.02-1.315,2.072-2.672,2.726-4.076l0.229-0.494l0.538-0.091c2.304-0.396,4.276-1.09,6.366-1.823
				c3.164-1.114,6.435-2.262,10.845-2.262c0.761,0,1.545,0.036,2.341,0.105c-3.007-9.726-6.639-22.397-3.3-31.36
				c1.628-4.365,1.997-4.751,5.483-7.595l0.521-0.426c0.36-0.293,0.92-0.92,1.464-1.528c0.903-1.011,1.755-1.967,2.477-2.367
				c0.541-0.297,1.403-0.232,2.466-0.07c0.414,0.062,0.83,0.13,1.159,0.13l0,0c0.014,0,0.025,0.002,0.031,0.004
				c1.896-1.975,7.429-2.843,14.02-2.081l0.548,0.062l0.254,0.491c0.863,1.66,2.16,3.233,3.538,4.903
				c3.709,4.501,8.325,10.102,6.033,20.433c-0.145,0.666-0.751,0.887-1.114,1.019c-0.621,0.226-0.738,0.337-0.759,0.706
				c-0.008,0.136,0.015,0.317,0.031,0.511c0.052,0.556,0.106,1.187-0.105,1.716c-0.188,0.471-0.422,1.088-0.695,1.811
				c-0.763,2.02-1.807,4.791-3.11,7.7c-0.378,0.844-1.162,0.984-1.541,1.05c-0.068,0.013-0.167,0.03-0.219,0.045
				c0.008,0.023-0.033,0.154-0.05,0.432l-0.016,0.321c-0.075,1.534-0.148,3-1.315,3.846c3.8,4.789,10.074,6.799,19.167,6.112
				l0.496-0.037l0.339,0.364c0.88,0.943,1.757,2.144,2.67,3.654l0.765-0.337c4.263-1.884,8.661-3.827,12.063-6.588
				c-1.029-1.904-3.034-2.953-5.148-4.056c-2.202-1.149-4.479-2.337-5.835-4.596c-5.331-5.971-5.593-7.026-7.644-15.228
				l-0.056-0.215c-0.034-0.14-0.089-0.312-0.151-0.515c-0.587-1.896-1.952-6.296,2.21-9.859c0-0.271-0.086-0.786-0.144-1.112
				c-0.167-0.999-0.329-1.941,0.13-2.615c0.843-1.245,2.385-2.055,3.875-2.839c0.774-0.41,1.509-0.794,2.049-1.199
				c0.373-0.278,1.096-1.076,1.735-1.778c1.074-1.181,1.706-1.86,2.217-2.111c1.156-0.564,3.007-0.443,4.762-0.207
				c1.2,0.166,2.351,0.292,3.035,0.128c0.625-0.147,1.161-0.293,1.704-0.442c1.698-0.463,3.455-0.944,7.886-1.474l0.281-0.016
				c0.257,0,0.674,0.033,1.146,0.07c0.658,0.056,1.551,0.105,1.875,0.089c1.52-1.712,3.382-2.322,6.391-2.042l0.544,0.052
				l0.267,0.478c0.709,1.267,1.576,2.504,2.498,3.817c3.045,4.348,6.488,9.261,3.484,15.562c3.385,5.171,3.902,9.485,4.45,14.043
				c0.25,2.089,0.51,4.251,1.048,6.647l0.249,1.104l-1.122,0.154c-0.688,0.095-0.831,0.855-0.891,2.95
				c-0.018,0.633-0.04,1.265-0.114,1.841l-0.126,0.959l-0.967-0.06c-0.674-0.04-1.348-0.081-1.981-0.081
				c-2.456,0-2.554,0.682-2.613,1.088c-0.031,3.3,3.429,4.479,7.954,5.664c1.009,0.262,1.954,0.511,2.734,0.788
				c3.149,1.119,6.304,1.787,9.354,2.436c1.985,0.42,3.86,0.818,5.725,1.328l0.432,0.118l0.213,0.395
				c1.411,2.65,2.264,6.422,2.979,10.627c0.471-6.245,1.3-12.052,2.375-16.343c2.398-9.605,9.977-16.791,20.389-19.423
				c-0.808-1.409-2.036-2.028-3.931-2.028l-1.019,0.025l-0.252-0.711c-0.527-1.477-0.552-2.981-0.582-4.576
				c-0.033-1.977-0.07-4.018-1.068-6.255c-0.315,0.02-0.646,0.075-0.981,0.124c-0.556,0.087-1.118,0.166-1.532,0.166
				c-0.229,0-0.92,0-1.346-0.524c-0.69-0.836-0.442-2.208-0.18-3.662c0.116-0.645,0.312-1.725,0.209-2.022
				c-1.699-1.334-1.699-2.712-1.701-4.616c0-1.22,0-2.891-0.443-5.326c-0.053-0.292-0.132-0.635-0.219-1.023
				c-0.678-2.969-1.939-8.498,2.381-13.135l0.581-0.641c1.287-1.429,3.439-3.821,5.235-5.167c0.563-0.419,1.517-0.366,2.674-0.16
				c0.396,0.069,0.792,0.146,1.105,0.148c1.619-1.661,5.948-2.258,9.551-2.258c2.94,0,7.457,0.369,12.279,2.126l0.314,0.18
				c7.727,6.482,10.642,24.539,5.993,37.156c-0.108,0.436-0.043,0.619-0.039,0.637l0,0c0.01,0,0.165,0.092,0.684,0.092
				c0.567,0,1.302-0.112,2.014-0.219c0.789-0.12,1.603-0.242,2.328-0.242c0.401,0,1.634,0,2.333,0.906
				c0.425,0.554,0.546,1.296,0.36,2.217c0.277,0.772,0.844,1.312,1.493,1.929c0.767,0.732,1.618,1.545,2.047,2.829
				c7.236,0.769,12.246,3.79,17.096,6.718l1.89,1.133l0.123,0.369c7.234,21.911,3.999,43.336,0.014,57.452
				c-0.012,0.128,0.054,0.749,0.095,1.158c0.159,1.493,0.271,2.572-0.438,3.153c-1.458,1.195-1.75,5.142-2.03,8.961
				c-0.242,3.292-0.493,6.695-1.433,9.511c-0.256,0.775-0.978,0.964-1.366,1.066c-0.453,0.118-0.453,0.118-0.477,0.554
				c-0.424,8.076,1.179,22.44,1.888,28.24c1.494,12.178,2.729,35.751,1.908,58.776c0.903,4.463-2.357,5.273-4.521,5.812
				c-1.955,0.482-2.861,0.818-3.054,1.895l0.234,2.652c1.273,14.313,2.477,27.83,1.647,42.844c-0.157,2.906-0.614,5.819-1.056,8.639
				c-0.755,4.801-1.468,9.333-0.844,13.902c0.652,4.806,2.781,8.685,4.84,12.433c2.469,4.499,4.8,8.746,4.644,14.268l-0.021,0.743
				l-0.709,0.219c-0.816,0.252-1.817,0.696-2.975,1.208c-3.013,1.332-6.764,2.992-10.893,2.992l0,0c-2.845,0-5.492-0.82-7.867-2.44
				c-3.031-1.488-1.888-4.182-1.131-5.961c0.263-0.61,0.528-1.239,0.639-1.785c-0.834-0.451-1.787-1.322-1.852-2.524
				c-0.091-1.706-0.176-3.914,0.002-5.837c0.204-2.257,1.044-4.647,1.856-6.959c0.949-2.706,1.934-5.498,1.925-8.101
				c-0.004-2.215-0.525-4.097-1.076-6.084c-0.287-1.046-0.579-2.093-0.795-3.189c-0.133-0.666-0.04-1.657,0.126-3.222
				c0.105-0.993,0.285-2.715,0.19-3.534c-0.058,0.008-0.116,0.012-0.176,0.019c-0.29,0.021-0.579,0.045-0.778,0.045
				c-0.951,0-1.193-0.598-1.251-0.854c-0.293-1.287-0.562-2.759-0.833-4.247c-0.327-1.797-0.666-3.659-1.059-5.2
				c-0.883-3.455-1.059-8.194-1.245-13.218c-0.386-10.478-0.828-22.325-7.456-27.598c-4.954,1.379-5.028,5.904-4.578,12.106
				c0.099,1.37,0.195,2.668,0.167,3.837c-0.081,3.645,0.467,6.959,1,10.161c0.498,3.018,0.972,5.869,0.896,8.792
				c-0.116,4.396-1.066,8.553-1.984,12.571c-0.95,4.147-1.847,8.068-1.805,12.022c0.064,6.158,1.764,12.023,3.405,17.697
				c2.099,7.25,4.082,14.099,2.235,20.493l-0.166,0.572l-0.575,0.146c-7.549,1.909-11.978,1.533-19.429-1.864h-11.583l-0.306-0.316
				c-1.76-1.844-3.666-3.745-5.657-5.656l-1.124-1.072l1.421-0.627c0.656-0.287,0.786-1.592,0.912-2.854
				c0.193-1.938,0.457-4.586,3.215-4.812c0.288,0.012,0.41,0.021,0.528,0.021c1.123,0,1.844-0.397,2.684-0.854
				c1.009-0.552,2.133-1.173,3.995-1.102c1.123-1.403,1.878-2.85,2.74-4.494c0.682-1.301,1.454-2.778,2.524-4.459
				c3.476-5.443,0.597-18.045-1.716-28.168l-0.31-1.36c-2.548-11.132-2.132-33.051-1.931-39.848
				c-1.082-2.726-4.588-3.319-8.295-3.945c-3.146-0.53-6.401-1.086-8.437-3.062l-0.315-0.309l0.002-0.439
				c0.016-4.051-0.017-7.98-0.046-11.823c-0.105-13.769-0.205-26.771,1.951-39.507c1.185-7.004,2.29-12.271,3.8-19
				c0.095-0.418,0.036-0.952-0.025-1.518c-0.077-0.709-0.166-1.512,0.033-2.3c0.167-0.664,0.306-1.464,0.484-2.495
				c0.284-1.62,0.67-3.839,1.408-6.962c0.221-0.938,0.713-1.537,1.108-2.018c0.412-0.502,0.711-0.867,0.767-1.608
				c0.159-2.221-0.428-4.588-1.05-7.097c-1.086-4.387-2.313-9.343,0.932-13.865c-0.306-0.546-1.13-0.871-3.348-0.871
				c-0.402,0-0.811,0.008-1.22,0.018c-0.075,0-0.149,0.002-0.227,0.004c0.015,1.187-0.093,2.332-0.313,3.418
				c-1.477,7.22-5.829,11.858-12.952,13.795c1.161,3.902,1.168,7.676,1.179,11.653c0.01,2.69,0.016,5.471,0.416,8.306
				c0.333,2.359,1.022,4.795,1.751,7.371c0.916,3.23,1.865,6.568,2.045,9.766c0.398,6.979-0.293,13.628-1.027,20.669
				c-0.821,7.881-1.668,16.032-0.875,24.771l0.101,1.104l-1.104,0.031c-0.323,0.01-0.473,0.076-0.666,1.599
				c-0.049,0.395-0.103,0.788-0.186,1.148c0.959,3.979-1.834,4.801-3.518,5.298c-1.793,0.525-2.359,0.812-2.206,2.17l0.02,0.165
				l-0.035,0.164c-1.612,7.731-1.1,14.953-0.507,23.313c0.451,6.375,0.964,13.602,0.526,21.998
				c-0.268,5.236-1.155,10.412-2.01,15.417c-1.315,7.688-2.674,15.637-1.817,23.926c1.566,2.005,4.193,3.057,6.966,4.168
				c3.019,1.212,6.141,2.462,8.035,5.095l0.143,0.197l0.04,0.239c0.345,2.104,0.018,3.763-0.97,4.922
				c-1.549,1.822-4.423,2.068-7.03,2.068c-0.827,0-1.679-0.021-2.529-0.054c-0.418-0.012-0.835-0.025-1.25-0.033
				c-2.081,3.415-6.742,3.871-10.642,3.871c-1.062,0-2.165-0.038-3.285-0.095l-0.389-0.022l-0.283-0.271
				c-3.914-3.805-3.989-7.12-4.088-11.32l-0.018-0.765c-0.062-2.374,0.504-4.381,1.053-6.317c0.49-1.731,0.953-3.368,0.841-5.014
				c-0.105-1.571-0.451-2.495-0.852-3.563c-0.381-1.019-0.815-2.172-1.034-3.959c-0.3-2.454-0.408-4.476-0.511-6.431
				c-0.172-3.194-0.331-6.214-1.364-10.504c-1.592-6.612-2.016-15.593-2.463-25.095c-0.617-13.095-1.257-26.631-4.864-36.723
				c-3.128-0.165-4.044,2.979-5.033,7.505c-0.252,1.155-0.488,2.243-0.798,3.22c-0.635,2.011-0.96,3.502-1.278,4.941
				c-0.186,0.861-0.368,1.691-0.604,2.585c-2.201,8.333-2.448,22.368-2.686,35.938c-0.155,8.903-0.314,18.104-1.021,25.843
				c1.032,0.932,1.154,2.254,1.262,3.439c0.075,0.82,0.145,1.596,0.479,2.262c0.546,1.096,1.576,2.081,2.667,3.119
				c2.655,2.532,5.955,5.688,5.01,12.645l-0.145,1.072l-1.066-0.189c-1.027-0.179-1.966-0.268-2.88-0.268
				c-3.104,0-5.146,1.054-7.303,2.166c-2.287,1.18-4.652,2.396-8.262,2.396c-1.356,0-2.773-0.171-4.338-0.52l-0.825-0.188
				l0.014-0.848c0.079-4.861,0.819-8.835,1.534-12.674c1.1-5.902,2.138-11.479,0.382-19.293c-0.354-1.587-0.635-3.145-0.903-4.624
				c-0.283-1.578-0.554-3.076-0.881-4.426c-0.62-0.205-1.933-0.691-2.028-2.491c-0.083-1.576-0.436-2.23-0.877-3.062
				c-0.333-0.623-0.709-1.328-0.986-2.424c-0.281-1.094-0.162-2.207-0.043-3.283c0.095-0.889,0.188-1.727,0.036-2.436
				c-0.002,0.047-0.079-0.085-0.203-0.317c-1.145-2.106-3.529-6.489-1.335-8.282c0.167-0.139,0.293-0.244,0.392-0.336
				c-0.438-0.511-0.887-1.305-0.771-2.736c0.225-2.768,0.544-5.567,0.869-8.438c0.951-8.364,1.937-17.018,1.025-27.388l-0.017-0.188
				l0.049-0.18c0.319-1.171,0.292-1.898,0.042-2.396c-0.112,1.554-0.238,3.078-0.378,4.562c-0.81,8.594-2.134,17.367-3.416,25.854
				c-2.022,13.375-4.111,27.204-4.16,40.37l-0.006,1.335l-1.291-0.329c-1.743-0.445-3.312-0.676-4.675-0.676
				c-5.837,0-7.4,4.091-9.209,8.817c-0.557,1.452-1.127,2.952-1.847,4.32c0.353,2.812,2.39,3.93,4.735,5.214
				c1.34,0.729,2.712,1.482,3.804,2.6c1.445-0.97,3.638-1.582,5.849-1.582c3.943,0,6.405,1.889,6.427,4.923
				c0.345,2.743-0.136,4.938-1.485,6.58c-2.457,2.999-7.25,3.36-11.887,3.707c-0.846,0.062-1.691,0.128-2.521,0.207
				c-6.224,3.3-13.096,4.522-21.237,3.812l-0.633-0.056l-0.241-0.592c-1.998-4.944,0.154-9.342,1.882-12.875
				c0.833-1.705,1.623-3.312,1.846-4.73c0.188-1.184-0.054-3.254-0.306-5.447c-0.469-4.048-0.999-8.634,0.376-11.847
				c0.36-0.85,1.184-0.959,1.623-1.021c0.065-0.012,0.151-0.021,0.219-0.035c-0.012-0.048-0.01-0.153-0.027-0.316
				c-0.177-1.636-0.966-2.849-1.805-4.131c-1.015-1.56-2.062-3.165-1.988-5.49l0.012-0.379l0.252-0.277
				c2.208-2.472,1.983-4.988,1.725-7.897c-0.136-1.523-0.275-3.104-0.087-4.787c0.221-1.976,0.61-3.629,1.025-5.374
				c0.306-1.297,0.623-2.639,0.875-4.152c0.124-0.743,0.049-1.579-0.034-2.462c-0.094-1.072-0.194-2.176,0.043-3.273
				c0.211-0.964,0.694-1.58,1.084-2.079c0.388-0.492,0.694-0.885,0.798-1.63c0.234-1.669,0.12-3.764,0.01-5.79
				c-0.11-2.02-0.213-3.932-0.014-5.564c0.122-0.987,0.429-1.75,0.752-2.56c0.574-1.428,1.225-3.048,1.135-6.765
				c-0.045-1.961-0.525-3.877-1.036-5.899c-0.443-1.754-0.895-3.547-1.056-5.401c-1.528,3.309-2.038,7.276-2.574,11.422
				c-0.244,1.886-0.494,3.835-0.852,5.729c-0.393,2.104-0.862,4.232-1.336,6.391c-1.027,4.658-2.091,9.479-2.436,14.338
				c-0.31,4.276-0.179,8.76-0.039,13.508c0.124,4.27,0.254,8.681,0.039,12.997l-0.061,1.247l-1.216-0.29
				c-2.287-0.538-3.561,0.04-4.919,0.836c-1.077,0.631-2.296,1.346-4.208,1.346c-0.402,0-0.816-0.026-1.25-0.091
				c-1.265,4.917-1.333,9.111-1.406,13.537c-0.033,1.975-0.064,4.015-0.207,6.169v0.004l-1.038-0.068l-0.023,0.021l-0.116,0.934
				c-0.155,0.024-0.538,0.221-0.798,0.399c2.659,2.666,3.087,10.386-0.14,14.449l-0.314,0.406l-0.504-0.003c-0.01,0-0.021,0-0.029,0
				c-1.029,0-1.886,0.021-2.746,0.037c-0.806,0.021-1.617,0.033-2.409,0.037c-2.739,3.833-8.44,4.354-13.66,4.354
				c-1.945,0-3.968-0.079-5.992-0.159l-1.41,0.411c-4.899,1.419-11,3.188-16.597,3.188c-4.817,0-8.495-1.271-11.246-3.894
				l-0.322-0.311v-0.442c-0.005-2.189,0.6-3.316,1.186-4.406c0.255-0.479,0.526-0.979,0.771-1.638
				c0.223-0.604,1.005-1.492,1.75-2.061c-0.19-0.229-0.54-0.385-0.66-0.399c0.001,0,0.005,0,0.007,0c0.355,0,0.752-0.24,0.878-0.688
				l-2.002-0.556c0.028-0.104,0.059-0.211,0.089-0.313l0.136-0.452c0.514-1.635,1.169-3.072,1.809-4.473
				c1.718-3.763,3.205-7.014,1.749-13.198c-0.115-0.485-0.357-0.789-0.692-1.21c-0.479-0.601-1.077-1.348-1.226-2.703
				c-0.333-3.113-0.486-6.081-0.637-8.949c-0.422-8.052-0.788-14.999-4.866-20.891l-0.139-0.198l-0.033-0.236
				c-0.766-5.132-0.128-9.493,0.436-13.348c0.609-4.15,1.135-7.735-0.355-11.012l-0.098-0.213l0.004-0.23
				c0.064-4.461-2.245-6.356-4.919-8.557c-0.787-0.646-1.604-1.314-2.352-2.062l-0.343-0.34l0.041-0.481
				c0.467-5.562,0.019-10.448-1.414-15.267c-0.847,1.375-0.607,4.367-0.357,7.496c0.218,2.729,0.442,5.552,0.041,8.021l-1.028-0.164
				l-0.004,0.026l0.322,0.896c-0.305,0.157-1.104,0.916-1.206,1.229c-0.48,1.928-0.608,3.479-0.755,5.275
				c-0.169,2.072-0.36,4.422-1.127,7.949c-0.21,0.959-0.714,1.562-1.119,2.051c-0.428,0.517-0.711,0.854-0.757,1.581
				c-0.096,1.535,0.376,3.521,0.875,5.619c0.441,1.854,0.895,3.77,1.023,5.614c0.63,9.253-0.618,18.812-1.831,28.061l-0.073,0.568
				c-0.214,1.641-0.551,3.337-0.876,4.978c-0.585,2.954-1.137,5.741-1.013,8.1c0.239,4.507,1.735,9.004,3.183,13.35
				c2.241,6.729,4.559,13.688,2.464,21.092l-0.152,0.535l-0.532,0.17C69.669,396.943,66.915,397.371,64.118,397.371z M42.75,387.066
				c4.112,3.226,11.998,8.226,21.368,8.226c2.392,0,4.749-0.337,7.008-1.003c1.662-6.586-0.399-12.78-2.582-19.329
				c-1.491-4.479-3.034-9.11-3.285-13.899c-0.138-2.608,0.464-5.655,1.049-8.605c0.318-1.608,0.648-3.271,0.853-4.844l0.075-0.568
				c1.198-9.144,2.433-18.602,1.816-27.646c-0.116-1.678-0.55-3.509-0.971-5.275c-0.535-2.254-1.04-4.387-0.926-6.229
				c0.085-1.406,0.723-2.172,1.234-2.785c0.338-0.408,0.584-0.703,0.686-1.164c0.736-3.394,0.921-5.664,1.085-7.674
				c0.154-1.89,0.288-3.52,0.812-5.613c0.187-0.758,1.122-1.815,1.958-2.363c0.248-2.107,0.051-4.576-0.14-6.971
				c-0.379-4.771-0.738-9.27,2.662-10.354l0.974-0.311l0.327,0.967c1.818,5.399,2.454,10.806,1.991,16.979
				c0.582,0.547,1.208,1.061,1.862,1.599c2.661,2.187,5.671,4.653,5.68,9.96c1.626,3.759,1.068,7.562,0.424,11.957
				c-0.533,3.646-1.136,7.771-0.47,12.506c4.283,6.324,4.66,13.479,5.091,21.757c0.15,2.842,0.305,5.782,0.628,8.837
				c0.084,0.751,0.377,1.12,0.785,1.63c0.387,0.485,0.867,1.086,1.09,2.032c1.618,6.876-0.161,10.773-1.882,14.536
				c-0.56,1.229-1.136,2.495-1.597,3.866c0.386,0.196,0.768,0.479,1.064,0.842c0.359,0.441,0.556,0.948,0.573,1.479l0.042,0.053
				l-0.065,0.38c-0.006,0.044-0.015,0.087-0.022,0.128l-1.017-0.19l0.417,0.914c-0.32,0.188-1.215,0.995-1.341,1.332
				c-0.285,0.774-0.605,1.37-0.889,1.9c-0.492,0.922-0.864,1.61-0.927,2.972c2.312,2.031,5.418,3.021,9.48,3.021
				c5.304,0,11.245-1.728,16.019-3.11l1.75-0.507l0.166,0.008c2.151,0.089,4.146,0.166,6.064,0.166
				c4.496,0,9.355-0.382,11.681-3.113l-0.366-1.266l2.124,0.024c0.849,0,1.716-0.021,2.585-0.036
				c0.769-0.019,1.537-0.031,2.295-0.035c2.389-3.532,1.76-9.903-0.124-11.415c-0.599-0.48-0.819-1.171-0.581-1.854
				c0.294-0.84,1.3-1.497,2.14-1.799c0.097-1.788,0.125-3.514,0.149-5.188c0.081-4.839,0.154-9.406,1.735-14.987l0.272-0.96
				l0.968,0.23c2.28,0.54,3.565-0.035,4.917-0.832c1.261-0.738,2.849-1.568,5.22-1.284c0.139-3.864,0.021-7.815-0.091-11.653
				c-0.14-4.801-0.273-9.333,0.043-13.714c0.357-5.012,1.438-9.905,2.479-14.641c0.469-2.131,0.936-4.243,1.326-6.325
				c0.343-1.836,0.591-3.757,0.831-5.611c0.728-5.646,1.48-11.485,5.079-15.709l2.648-3.104l-0.839,3.99
				c-0.61,2.905,0.083,5.654,0.816,8.562c0.517,2.048,1.05,4.169,1.102,6.361c0.097,4.141-0.669,6.053-1.284,7.59
				c-0.298,0.732-0.53,1.316-0.619,2.037c-0.18,1.455-0.079,3.271,0.025,5.192c0.116,2.127,0.236,4.324-0.027,6.192
				c-0.18,1.301-0.757,2.04-1.222,2.629c-0.335,0.428-0.58,0.734-0.688,1.234c-0.171,0.78-0.088,1.688-0.002,2.642
				c0.089,0.979,0.18,1.989,0.012,2.994c-0.264,1.586-0.589,2.962-0.903,4.292c-0.398,1.685-0.777,3.274-0.981,5.128
				c-0.166,1.479-0.034,2.946,0.093,4.369c0.269,3.01,0.544,6.114-1.98,9.159c0.06,1.491,0.8,2.634,1.651,3.938
				c0.891,1.367,1.9,2.917,2.128,5.041c0.254,2.327-1.421,2.56-1.971,2.637c-0.029,0.004-0.062,0.008-0.091,0.013
				c-1.039,2.729-0.538,7.062-0.132,10.562c0.282,2.44,0.525,4.55,0.295,6.013c-0.273,1.729-1.129,3.478-2.034,5.323
				c-1.624,3.318-3.301,6.745-2.037,10.588c7.54,0.562,13.86-0.64,19.603-3.727l0.389-0.118c0.91-0.091,1.84-0.161,2.771-0.23
				c4.201-0.312,8.545-0.645,10.438-2.95c0.968-1.185,1.301-2.856,1.021-5.13c-0.025-2.699-3.058-2.978-4.357-2.978
				c-2.124,0-4.317,0.697-5.214,1.661l-0.863,0.923l-0.741-1.021c-0.887-1.228-2.317-2.01-3.833-2.842
				c-2.58-1.407-5.5-3.013-5.835-7.161l-0.027-0.31l0.149-0.274c0.723-1.317,1.312-2.858,1.882-4.351
				c1.821-4.758,3.882-10.153,11.15-10.153c1.185,0,2.494,0.147,3.906,0.441c0.175-12.925,2.206-26.365,4.17-39.376
				c1.275-8.454,2.597-17.2,3.399-25.734c0.197-2.078,0.364-4.234,0.515-6.436l0.101-1.492l1.364,0.612
				c1.647,0.743,3.406,2.063,2.483,5.7c0.903,10.496-0.089,19.199-1.044,27.625c-0.325,2.847-0.643,5.628-0.867,8.376
				c-0.073,0.882,0.156,1.104,0.419,1.361c0.232,0.229,0.623,0.609,0.597,1.239c-0.031,0.671-0.514,1.188-1.395,1.908
				c-0.087,0.069-0.784,0.844,1.845,5.682c0.275,0.509,0.362,0.662,0.405,0.863c0.229,1.05,0.114,2.099,0.002,3.109
				c-0.101,0.935-0.195,1.814-0.008,2.547c0.215,0.854,0.502,1.389,0.806,1.956c0.497,0.933,1.013,1.896,1.117,3.93
				c0.024,0.406,0.112,0.464,0.658,0.646c0.38,0.126,1.021,0.337,1.208,1.033c0.396,1.533,0.695,3.206,1.018,4.979
				c0.26,1.451,0.534,2.979,0.885,4.539c1.851,8.228,0.772,14.01-0.369,20.125c-0.654,3.521-1.332,7.159-1.476,11.468
				c1.084,0.201,2.089,0.3,3.048,0.3c3.106,0,5.148-1.055,7.308-2.168c2.288-1.181,4.65-2.398,8.257-2.398
				c0.695,0,1.404,0.043,2.14,0.137c0.371-5.167-2.101-7.526-4.495-9.816c-1.226-1.166-2.384-2.273-3.09-3.688
				c-0.508-1.02-0.603-2.07-0.689-3c-0.121-1.332-0.229-1.91-0.811-2.257l-0.567-0.335l0.063-0.653
				c0.742-7.774,0.906-17.176,1.066-26.265c0.25-14.327,0.488-27.857,2.754-36.433c0.227-0.863,0.403-1.668,0.585-2.501
				c0.323-1.488,0.66-3.023,1.324-5.126c0.28-0.888,0.509-1.931,0.749-3.035c0.96-4.394,2.178-10.022,7.989-9.048l0.594,0.099
				l0.208,0.564c3.915,10.45,4.574,24.431,5.21,37.943c0.443,9.402,0.865,18.282,2.411,24.703c1.075,4.479,1.241,7.587,1.414,10.88
				c0.103,1.921,0.207,3.906,0.499,6.287c0.189,1.539,0.543,2.482,0.918,3.48c0.42,1.121,0.855,2.277,0.979,4.156
				c0.135,2.002-0.399,3.888-0.914,5.717c-0.507,1.787-1.029,3.638-0.974,5.69l0.018,0.774c0.093,4.042,0.149,6.525,3.183,9.604
				c0.947,0.047,1.88,0.07,2.783,0.07c5.207,0,8.013-1.014,9.089-3.289l0.288-0.604l0.667,0.008c0.631,0.01,1.271,0.029,1.912,0.052
				c0.831,0.021,1.661,0.051,2.467,0.051c2.131,0,4.447-0.156,5.446-1.338c0.55-0.646,0.728-1.628,0.54-2.996
				c-1.563-2.014-4.193-3.065-6.975-4.184c-3.019-1.208-6.143-2.459-8.041-5.096l-0.158-0.225l-0.029-0.271
				c-0.952-8.68,0.447-16.865,1.801-24.78c0.846-4.948,1.721-10.065,1.987-15.177c0.428-8.272-0.079-15.43-0.526-21.743
				c-0.602-8.466-1.117-15.778,0.515-23.731c-0.259-3.061,2.116-3.762,3.698-4.225c1.875-0.555,2.649-0.781,2.033-3.025
				l-0.077-0.285l0.081-0.275c0.099-0.346,0.143-0.735,0.195-1.124c0.126-1.017,0.325-2.583,1.584-3.179
				c-0.68-8.598,0.147-16.565,0.952-24.281c0.725-6.954,1.408-13.521,1.021-20.33c-0.171-2.973-1.087-6.2-1.971-9.317
				c-0.719-2.533-1.46-5.148-1.813-7.648c-0.416-2.978-0.426-5.832-0.434-8.591c-0.01-4.165-0.02-8.093-1.413-12.053l-0.386-1.104
				l1.139-0.256c7.001-1.575,11.083-5.65,12.472-12.457c0.252-1.234,0.331-2.564,0.232-3.956l-0.076-1.114l1.117,0.002
				c0,0,0.002,0,0.004,0c0.443,0,0.852-0.008,1.257-0.018c0.425-0.008,0.847-0.018,1.263-0.018c1.61,0,4.968,0,5.524,2.952
				l0.086,0.465l-0.292,0.371c-3.038,3.846-1.993,8.062-0.885,12.53c0.632,2.552,1.288,5.192,1.105,7.745
				c-0.105,1.402-0.731,2.165-1.233,2.777c-0.337,0.412-0.582,0.708-0.692,1.177c-0.722,3.064-1.102,5.248-1.379,6.842
				c-0.191,1.094-0.341,1.941-0.519,2.646c-0.11,0.428-0.049,0.979,0.016,1.565c0.073,0.676,0.155,1.443-0.01,2.198
				c-1.503,6.698-2.603,11.937-3.78,18.895c-2.126,12.557-2.026,25.471-1.923,39.146c0.029,3.697,0.06,7.482,0.048,11.377
				c1.627,1.312,4.365,1.771,7.017,2.226c4.212,0.715,8.567,1.45,9.975,5.479l0.064,0.182l-0.006,0.193
				c-0.408,13.375-0.131,30.779,1.871,39.523l0.312,1.362c2.401,10.5,5.386,23.569,1.445,29.748
				c-1.025,1.604-1.743,2.976-2.438,4.302c-1.001,1.92-1.871,3.577-3.335,5.286l-0.362,0.422l-0.55-0.062
				c-1.496-0.183-2.343,0.271-3.333,0.812c-1.046,0.57-2.244,1.232-4.196,1.086c-0.731,0.071-0.94,0.764-1.158,2.944
				c-0.128,1.277-0.269,2.681-1.003,3.649c1.598,1.554,3.133,3.091,4.576,4.595l11.357,0.097c6.929,3.188,10.896,3.594,17.666,1.975
				c1.403-5.676-0.442-12.044-2.386-18.768c-1.683-5.806-3.424-11.81-3.49-18.255c-0.042-4.198,0.881-8.233,1.859-12.509
				c0.896-3.917,1.823-7.972,1.933-12.159c0.071-2.729-0.386-5.482-0.869-8.401c-0.548-3.297-1.112-6.706-1.027-10.547
				c0.023-1.068-0.066-2.315-0.161-3.642c-0.391-5.355-0.922-12.688,6.653-14.398l0.461-0.104l0.382,0.276
				c7.804,5.714,8.273,18.344,8.685,29.49c0.182,4.901,0.353,9.536,1.181,12.778c0.412,1.609,0.757,3.51,1.091,5.343
				c0.209,1.155,0.418,2.304,0.641,3.355c0,0,0.002,0,0.004,0c0.298-0.023,0.593-0.048,0.802-0.048c0.19,0,0.639,0,0.984,0.346
				c0.859,0.854,0.736,2.654,0.438,5.513c-0.104,0.983-0.229,2.207-0.153,2.598c0.207,1.05,0.484,2.045,0.761,3.042
				c0.563,2.036,1.147,4.144,1.153,6.634c0.008,2.956-1.035,5.927-2.043,8.799c-0.806,2.292-1.567,4.456-1.748,6.458
				c-0.163,1.786-0.085,3.896,0.002,5.53c0.023,0.392,0.742,0.854,1.042,0.944l-0.199,0.987l1.048-0.083
				c0.006,0.076,0.012,0.151,0.013,0.229l0.017,0.257l-0.021,0.021c-0.039,0.984-0.453,1.951-0.849,2.885
				c-0.907,2.125-0.997,2.733,0.266,3.36c2.174,1.472,4.365,2.147,6.819,2.147l0,0c3.69,0,7.216-1.56,10.053-2.812
				c0.91-0.404,1.729-0.77,2.473-1.043c-0.075-4.632-2.175-8.458-4.391-12.496c-2.15-3.916-4.373-7.968-5.076-13.148
				c-0.667-4.876,0.105-9.771,0.847-14.509c0.434-2.765,0.885-5.622,1.037-8.425c0.818-14.867-0.378-28.313-1.644-42.546
				l-0.259-2.897l0.019-0.112c0.357-2.676,2.723-3.266,4.629-3.735c2.446-0.607,3.506-0.981,2.964-3.484l-0.029-0.128l0.004-0.13
				c0.823-22.955-0.399-46.456-1.886-58.577c-0.718-5.854-2.332-20.363-1.9-28.601c0.099-1.954,1.447-2.305,2.024-2.458
				c0.002,0,0.01-0.002,0.014-0.004c0.782-2.526,1.013-5.672,1.238-8.715c0.331-4.491,0.616-8.389,2.578-10.234
				c0.02-0.349-0.058-1.088-0.103-1.51c-0.101-0.949-0.151-1.507-0.03-1.939c3.887-13.762,7.047-34.59,0.133-55.875l-1.232-0.738
				c-5.029-3.038-9.782-5.905-16.937-6.496l-0.806-0.066l-0.132-0.798c-0.182-1.08-0.819-1.689-1.63-2.461
				c-0.816-0.778-1.745-1.663-2.136-3.124l-0.071-0.271l0.068-0.269c0.141-0.522,0.075-0.709,0.069-0.727
				c-0.002-0.002-0.036-0.093-0.683-0.093c-0.569,0-1.303,0.112-2.016,0.219c-0.786,0.12-1.602,0.242-2.325,0.242
				c-0.002,0-0.006,0-0.008,0c-0.414,0-1.629-0.006-2.326-0.908c-0.474-0.612-0.571-1.46-0.292-2.522
				c4.308-11.711,1.704-28.824-5.213-34.823c-3.5-1.247-7.539-1.936-11.395-1.936c-4.646,0-7.539,0.982-8.11,1.679
				c-0.516,0.634-1.568,0.634-2.909,0.398c-0.399-0.07-0.798-0.147-1.115-0.147c-1.58,1.15-3.731,3.536-4.888,4.82l-0.601,0.662
				c-3.571,3.835-2.513,8.484-1.88,11.261c0.099,0.422,0.182,0.796,0.24,1.114c0.475,2.619,0.476,4.396,0.476,5.696
				c0.002,1.812,0.002,2.295,1.056,3.159c0.954,0.786,0.688,2.274,0.4,3.851c-0.089,0.499-0.225,1.255-0.236,1.718
				c0.31-0.023,0.625-0.075,0.937-0.122c1.561-0.236,2.585-0.182,2.961,0.583c1.397,2.82,1.441,5.34,1.48,7.563
				c0.021,1.197,0.041,2.26,0.262,3.234c2.908,0.147,4.886,1.652,5.887,4.474l0.394,1.115l-1.158,0.246
				c-10.258,2.191-17.752,8.989-20.048,18.184c-1.625,6.492-2.68,16.576-2.747,26.317l-2.063,0.167
				c-0.31-1.813-0.587-3.636-0.859-5.423c-0.869-5.705-1.693-11.105-3.337-14.476c-1.667-0.442-3.372-0.802-5.165-1.182
				c-3.12-0.66-6.341-1.342-9.621-2.508c-0.736-0.261-1.619-0.491-2.562-0.737c-4.036-1.054-9.562-2.499-9.499-7.836
				c0.43-3.006,3.631-3.006,4.683-3.006c0.353,0,0.717,0.014,1.087,0.029c0.01-0.221,0.016-0.445,0.021-0.67
				c0.048-1.624,0.108-3.748,1.62-4.605c-0.433-2.132-0.664-4.065-0.888-5.944c-0.558-4.64-1.038-8.647-4.445-13.63l-0.353-0.519
				l0.293-0.556c2.891-5.449-0.002-9.582-3.068-13.957c-0.8-1.141-1.624-2.316-2.326-3.509c-2.349-0.118-3.417,0.53-4.257,1.559
				c-0.403,0.497-1.078,0.538-1.679,0.538c-0.528,0-1.197-0.054-1.78-0.103c-0.399-0.031-0.757-0.062-0.976-0.062
				c-4.315,0.513-5.994,0.972-7.623,1.417c-0.562,0.151-1.123,0.306-1.774,0.459c-1.015,0.238-2.452,0.091-3.792-0.093
				c-1.415-0.19-2.881-0.32-3.566,0.015c-0.232,0.147-1.051,1.048-1.59,1.642c-0.769,0.847-1.496,1.646-2.03,2.045
				c-0.672,0.5-1.513,0.944-2.326,1.371c-1.265,0.666-2.57,1.353-3.124,2.169c0.025,0.062,0.134,0.709,0.201,1.098
				c0.19,1.114,0.384,2.264-0.401,2.911c-3.305,2.707-2.281,6.017-1.729,7.795c0.075,0.246,0.14,0.455,0.184,0.625l0.054,0.215
				c2.024,8.102,2.191,8.763,7.295,14.509c1.168,1.91,3.094,2.915,5.13,3.979c2.584,1.35,5.256,2.744,6.429,5.812l0.258,0.678
				l-0.546,0.478c-3.711,3.234-8.525,5.362-13.18,7.42l-2.465,1.094l-0.465-0.816c-0.888-1.551-1.719-2.773-2.537-3.715
				c-10.157,0.652-17.24-2.062-21.272-8.074l-0.85-1.265l1.488-0.329c0.841-0.188,0.956-0.339,1.066-2.501l0.015-0.329
				c0.113-2.081,1.419-2.312,1.977-2.413c0.037-0.008,0.064-0.006,0.072,0.002c1.248-2.8,2.258-5.477,3-7.439
				c0.279-0.739,0.517-1.367,0.708-1.851c0.025-0.108-0.015-0.53-0.036-0.757c-0.025-0.299-0.047-0.585-0.036-0.802
				c0.087-1.707,1.396-2.283,2.014-2.515c1.853-9.05-1.988-13.708-5.703-18.218c-1.317-1.596-2.568-3.114-3.508-4.771
				c-1.36-0.141-2.669-0.213-3.9-0.213c-5.095,0-7.4,1.172-7.907,1.791c-0.467,0.571-1.224,0.571-1.472,0.571
				c-0.418,0-0.948-0.075-1.47-0.156c-0.408-0.061-0.811-0.128-1.127-0.128c-0.43,0.193-1.313,1.179-1.957,1.897
				c-0.623,0.695-1.21,1.354-1.695,1.75l-0.522,0.428c-3.244,2.646-3.372,2.75-4.848,6.71c-3.271,8.773,0.819,21.932,3.807,31.54
				l0.487,1.566l-1.625-0.229c-1.257-0.18-2.492-0.269-3.66-0.269c-4.056,0-7.019,1.04-10.155,2.142
				c-1.931,0.68-3.922,1.379-6.18,1.817c-0.739,1.419-1.746,2.719-2.723,3.98c-1.315,1.697-2.554,3.3-2.625,4.618
				c-0.099,1.863-1.1,2.262-1.964,2.404c-0.052,0.008-0.071,0.002-0.077-0.008c-2.018,4.288-3.296,8.86-4.529,13.285
				c-0.523,1.872-1.029,3.681-1.564,5.368l-1.216,3.821l-0.793-3.93c-2.499-12.366-6.396-24.111-10.981-33.105
				c-2.003-1.495-5.132-2.11-8.16-2.706c-4.235-0.833-8.613-1.695-10.831-4.975l-0.326-0.48l0.241-0.53
				c3.101-6.831,4.31-14.725,3.699-24.137l-0.073-1.122l1.124,0.016c0.63,0.008,1.271,0.027,1.912,0.047
				c0.828,0.026,1.659,0.052,2.462,0.052c2.132,0,4.447-0.16,5.452-1.338c0.583-0.684,0.749-1.745,0.508-3.238
				c-0.041-0.607-0.081-1.29-2.27-1.29c-0.903,0-1.977,0.124-3.017,0.242c-2.019,0.229-4.12,0.389-5.383-0.027l-0.325-0.105
				l-0.207-0.281c-4.779-6.691-10.687-13.812-19.886-12.836c-2.362,0.254-2.711,0.745-3.344,1.638
				c-0.394,0.552-0.882,1.241-1.828,1.951c-1.104,0.83-2.344,0.928-3.341,1.009c-1.075,0.089-1.706,0.166-2.166,0.717
				c-0.762,0.917-1.097,2.467-1.451,4.106c-0.57,2.637-1.21,5.6-3.854,7.164c1.533,7.212,3.261,14.812,5.495,21.859l0.574,1.813
				l-1.836-0.496c-0.563-0.153-1.068-0.231-1.5-0.231c-1.66,0-2.1,1.074-2.461,3.478c-0.136,0.913-0.245,1.632-0.672,2.121
				c-0.59,0.674-2.019,0.986-5.136,1.537c-1.012,0.178-2.397,0.421-2.699,0.566c-2.956,1.888-6.266,2.645-9.186,3.313
				c-0.745,0.169-1.479,0.337-2.183,0.518c-8.263,8.095-13.868,22.246-14.646,37.015c-0.085,1.561-1.295,2.239-1.996,2.542
				c-1.766,11.074-0.652,18.704,0.092,23.78c0.835,5.731,1.409,9.413,1.874,11.265c0.186,0.745,0.085,1.515-0.003,2.196
				c-0.076,0.591-0.148,1.149-0.022,1.511c0.122,0.18,0.952,0.895,1.501,1.367c1.18,1.013,1.917,1.673,2.23,2.284
				c1.024,2,1.576,3.873,2.057,5.522c0.474,1.613,0.879,3.002,1.557,3.708c1.244,1.3,2.009,2.619,2.816,4.015
				c0.34,0.583,0.691,1.19,1.099,1.829c4.612,7.234,3.12,27.725,2.226,39.962l-0.168,2.354c-0.146,2.065-0.503,4.191-0.879,6.44
				c-0.454,2.72-0.925,5.524-1.008,8.269c1.867,2.059,4.817,3.127,7.932,4.254c3.263,1.181,6.636,2.396,8.852,4.906l0.29,0.332
				l-0.035,0.438c-0.411,5.246-0.151,10.091,0.102,14.777c0.263,4.879,0.51,9.479-0.107,13.714
				c-0.187,1.271-0.616,2.153-0.996,2.937c-0.558,1.146-1.04,2.136-0.887,4.424c0.048,0.739,0.332,1.084,0.761,1.604
				c0.395,0.479,0.887,1.082,1.106,2.018c0.353,1.494,0.367,2.727,0.378,3.715c0.019,1.577,0.026,2.367,1.167,3.303
				c0.703,0.581,0.59,1.646,0.436,3.131c-0.042,0.414-0.109,1.043-0.084,1.224c2.844,10.071,4.714,20.049,5.704,30.458l0.03,0.319
				l-0.156,0.28c-1.684,3.048-4.527,4.821-7.278,6.544C46.777,379.825,43.301,381.999,42.75,387.066z M126.894,376.775l-2.03-0.743
				c-1.636-0.603-3.417-1.113-5.139-1.61c-2.892-0.838-5.881-1.701-8.428-3.018l-0.475-0.244l-0.076-0.53
				c-0.318-2.19-1.632-3.356-3.15-4.712c-0.807-0.719-1.644-1.462-2.338-2.395l-0.185-0.246l-0.021-0.311
				c-0.621-9.629,0.138-18.915,0.873-27.896c0.554-6.777,1.076-13.182,1.02-19.532c-0.014-1.541-0.434-3.372-0.881-5.309
				c-0.458-1.993-0.933-4.055-1.014-6.028l-0.078-1.563c-0.216-3.943-0.46-8.41,2.076-12.215c1.093-3.005,4.352-3.675,7.236-4.265
				c3.756-0.772,6.054-1.408,5.929-4.7c-1.359-7.707-1.758-16.641-2.146-25.284c-0.49-10.948-0.998-22.271-3.5-31.323l-0.211-0.763
				l0.678-0.406c1.652-0.987,2.627-4.496,3.153-6.382l0.166-0.591c0.559-1.902,1.356-5.993,1.777-8.697l0.426-2.743l0.019,0.031
				l0.377-4.962c0.292-3.831,0.406-7.841,0.339-11.918l-0.015-0.865l0.85-0.169c1.44-0.29,4.194-0.643,7.136-0.317l1.387,0.153
				l-0.546,1.285c-1.07,2.533-2.552,4.822-3.985,7.036c-1.105,1.706-2.251,3.474-3.204,5.349l-2.288,4.493l1.409,2.233
				c0.451,0.715,0.519,0.977,0.542,1.077c1.341,5.359,0.258,9.869-0.611,13.494c-0.871,3.626-1.256,5.58,0.253,6.789
				c1.047,0.834,0.293,2.096-0.503,3.431c-0.836,1.396-1.979,3.312-1.209,4.337c1.331,2.168,3.684,2.588,6.175,3.033
				c2.934,0.523,6.259,1.117,7.261,4.904c2.992,19.147,5.832,40.559,1.886,53.616c-1.247,4.126-1.847,7.302-2.479,10.657
				c-0.376,1.992-0.765,4.048-1.296,6.332c-0.371,1.584-0.755,3.115-1.133,4.621c-1.464,5.812-2.848,11.309-2.627,17.848
				c0.097,2.926,0.963,3.706,1.879,4.534c0.709,0.639,1.512,1.366,1.876,2.828c0.949,3.788,0.527,7.188,0.124,10.479
				c-0.358,2.894-0.695,5.624-0.114,8.517c0.953,3.553-0.879,4.771-2.217,5.664c-1.011,0.672-1.541,1.068-1.548,2.126l-0.006,0.775
				l-0.745,0.218c-0.749,0.215-1.249,0.499-1.405,0.794c-0.042,0.081-0.166,0.316,0.07,1.024L126.894,376.775z M112.703,369.783
				c2.277,1.104,4.98,1.884,7.598,2.641c1.231,0.356,2.491,0.719,3.721,1.119c0.047-0.284,0.136-0.556,0.27-0.81
				c0.361-0.69,1.013-1.22,1.985-1.602c0.296-1.677,1.5-2.478,2.411-3.084c1.202-0.801,1.929-1.283,1.344-3.461
				c-0.66-3.285-0.288-6.312,0.074-9.245c0.4-3.243,0.778-6.306-0.079-9.722c-0.211-0.847-0.646-1.239-1.249-1.785
				c-1.088-0.98-2.44-2.201-2.568-6.009c-0.227-6.832,1.19-12.463,2.692-18.426c0.375-1.492,0.757-3.011,1.121-4.584
				c0.525-2.243,0.908-4.274,1.281-6.243c0.643-3.423,1.251-6.646,2.533-10.878c3.818-12.643,1.006-33.771-1.928-52.59
				c-0.61-2.278-2.524-2.735-5.597-3.285c-2.595-0.465-5.521-0.983-7.309-3.575c0.597,5.788,0.868,11.866,1.136,17.837
				c0.384,8.574,0.781,17.441,2.133,25.16c0.211,5.355-4.105,6.242-7.576,6.953c-2.605,0.533-5.067,1.039-5.729,3.024l-0.129,0.261
				c-2.219,3.244-2.003,7.211-1.793,11.041l0.081,1.592c0.07,1.785,0.523,3.752,0.961,5.648c0.471,2.05,0.917,3.985,0.934,5.755
				c0.059,6.45-0.47,12.896-1.028,19.725c-0.721,8.807-1.465,17.908-0.891,27.271c0.538,0.662,1.188,1.239,1.873,1.854
				C110.467,365.693,112.142,367.184,112.703,369.783z M116.752,224.993c0.755,2.868,1.321,5.932,1.759,9.118
				c0.367-1.008,0.942-1.979,1.416-2.764c0.205-0.348,0.465-0.781,0.61-1.076c-2.153-2.082-1.429-5.101-0.6-8.562
				c0.53-2.206,1.144-4.76,1.18-7.609c-0.26,1.224-0.527,2.363-0.773,3.195l-0.16,0.567
				C119.604,219.955,118.669,223.318,116.752,224.993z M123.378,189.273c0.021,2.313-0.01,4.603-0.103,6.848
				c0.364-0.573,0.732-1.141,1.094-1.703c1.174-1.811,2.294-3.543,3.211-5.394C126.13,188.953,124.829,189.034,123.378,189.273z"/>
			<path fill="#FFFFFF" d="M657.527,392.084c-6.172,0-12.688-0.538-18.984-1.061c-6.265-0.52-12.182-1.008-17.796-1.016
				c-4.44,1.158-9.889,1.679-17.638,1.679c-3.236,0-6.562-0.089-9.885-0.176c-5.822-0.146-11.862-0.254-16.391-0.018
				c-1.967,0.826-3.266,0.765-4.106-0.087c-0.854-0.86-0.848-2.217-0.834-3.527c0.009-0.674,0.017-1.797-0.229-2.046
				c-0.146-0.146-0.404-0.057-0.579-0.027l-0.966,0.162l-0.217-0.956c-0.172-0.745-1.06-1.021-3.269-1.021l-1.604,0.012
				c-0.63,0-1.243-0.016-1.812-0.081l-0.946-0.104l0.023-0.956c1.326-44.28,0.646-90.38-1.868-126.542
				c-2.239-2.822-6.791-3.526-11.602-4.271c-4.94-0.767-10.047-1.555-12.819-4.919l-0.284-0.341l0.061-0.443
				c0.5-4.164,2.242-7.072,3.928-9.885c1.646-2.745,3.198-5.339,3.646-9.066l0.055-0.22c0.785-2.237,3.361-2.289,5.635-2.332
				c2.69-0.051,3.668-0.249,3.792-1.242l0.049-0.214c3.327-9.526-1.59-16.045-6.797-22.947c-3.713-4.921-7.548-10.009-8.409-16.363
				c-0.505-3.719,0.666-7.673,1.903-11.858c0.712-2.396,1.445-4.876,1.891-7.408c0.486-2.762,0.668-5.405,0.841-7.96
				c0.197-2.907,0.402-5.914,1.062-9.123c0.972-4.735,2.079-8.419,3.465-11.467c-1.577,0.812-3.169,1.53-4.728,2.23
				c-3.315,1.496-6.453,2.909-8.331,4.846c-8.661,20.577,1.094,49.564,5.782,63.515c2.103,4.831-1.513,7.27-3.897,8.882
				c-0.82,0.554-1.591,1.076-1.926,1.535c-0.642,0.871-0.968,1.959-1.281,3.011c-0.544,1.814-1.204,4.012-3.742,4.753
				c2.956,7.076,1.698,14.42,0.479,21.537c-0.366,2.151-0.717,4.183-0.947,6.203c-0.327,2.789-0.146,5.647,0.029,8.412
				c0.188,2.883,0.374,5.863-0.035,8.674c-0.557,3.812-1.827,7.223-3.06,10.519c-1.067,2.863-2.077,5.563-2.631,8.478
				c-1.357,7.131-1.359,14.152-1.359,21.591c-0.003,5.25-0.003,10.681-0.522,16.207c-0.104,1.104-0.183,2.155-0.26,3.199
				c-0.254,3.366-0.52,6.852-1.655,12.081c-0.209,0.965-0.696,1.576-1.088,2.073c-0.404,0.51-0.695,0.873-0.786,1.622
				c-0.354,2.889-0.239,5.835-0.114,8.954c0.212,5.312,0.433,10.802-1.859,15.974c-1.118,4.083,0.653,4.903,3.108,6.034
				c2.307,1.066,5.174,2.393,4.545,6.948c-1.779,7.894-10.548,8.546-18.623,8.546c-1.26,0-2.536-0.016-3.815-0.036
				c-1.076-0.014-2.157-0.027-3.224-0.031l-1.647-0.008l0.717-1.483c1.515-3.125,0.009-5.902-1.584-8.848
				c-0.986-1.82-2.009-3.704-2.298-5.711c-1.777-12.354,0.709-24.916,3.342-38.217c2.497-12.606,5.075-25.644,4.229-39.56
				c-0.176-2.832-0.49-6.029-0.832-9.41c-0.873-8.733-1.954-19.524-1.158-31.053c-4.527,1.283-5.805,6.196-7.152,11.371
				c-0.595,2.293-1.21,4.668-2.134,6.721c-0.36,0.811-1.315,1.601-2.33,2.438c-0.524,0.436-1.319,1.09-1.456,1.346
				c-0.122,0.295-0.037,0.918,0.04,1.471c0.099,0.707,0.196,1.445,0.021,2.156c-0.271,1.082-0.906,2.155-1.646,3.403
				c-0.726,1.229-1.552,2.619-2.18,4.286c-0.011,0.122,0.063,0.757,0.117,1.184c0.168,1.362,0.301,2.446-0.432,3.047
				c-1.27,1.035-1.286,3.805-1.312,7.631c-0.018,1.979-0.027,4.225-0.203,6.795c-0.674,9.852-0.85,16.31-0.002,26.37
				c0.698,8.374,0.698,18.604,0,26.702c-0.323,3.747-1.302,7.212-2.249,10.562c-1.487,5.262-2.895,10.236-1.563,15.628l0.312,1.277
				l-3.945,0.035c-1.721,0.02-3.438,0.032-5.144,0.032c-9.338,0-19.757-0.467-25.194-6.062l-0.213-0.217l-0.062-0.303
				c-0.489-2.415-0.262-4.269,0.723-5.661c1.423-2.037,4.067-2.594,6.75-3.008c-0.106-3.2,1.793-4.543,3.349-5.639
				c1.249-0.881,2.236-1.576,2.436-3.088l-0.04-6.442c-0.268-51.164-0.477-91.617,13.178-129.712
				c-3.649-5.581-4.993-10.966-7.186-19.738l-0.242-0.991c-0.319-1.271-1.535-2.87-2.826-4.562c-1.2-1.584-2.542-3.346-3.521-5.295
				c-0.165,0.063-0.329,0.118-0.497,0.164c-0.69,1.902-2.877,2.2-4.521,2.422c-1.14,0.155-2.315,0.316-2.724,0.861
				c-0.188,0.254-0.247,0.66-0.184,1.21c1.061,2.221,1.111,3.829,1.166,5.684c0.044,1.509,0.098,3.222,0.729,5.739
				c0.1,0.388,0.344,1.128,0.661,2.096c1.167,3.525,3.121,9.428,3.158,13.303c0.002,0.273,0.047,0.808,0.104,1.466
				c0.38,4.688,0.294,6.162-0.402,6.856c-0.66,0.66-1.212,1.084-1.652,1.422c-1.022,0.785-1.403,1.078-1.852,3.707
				c-0.438,2.557-0.279,5.33-0.11,8.271c0.129,2.222,0.263,4.519,0.122,6.772c-0.51,8.349-1.774,17.569-3.005,26.486l-0.788,5.803
				c-0.693,5.172-1.532,9.879-2.419,14.864c-0.438,2.489-0.899,5.089-1.379,7.905c-0.068,0.43-0.021,0.953,0.033,1.508
				c0.07,0.73,0.15,1.562-0.049,2.36c-0.235,0.938-0.41,1.52-0.528,1.922c-0.19,0.645-0.19,0.645-0.04,1.483
				c0.125,0.685,0.327,1.787,0.592,3.785c0.4,3.021,0.238,6.889,0.071,10.98c-0.158,3.896-0.323,7.929-0.062,11.825
				c0.136,4.71-2.719,6.509-5.234,8.098c-2.146,1.354-3.993,2.522-4.241,5.324c-0.641,5.265,0.12,9.009,0.932,12.97
				c0.81,3.949,1.638,8.031,0.962,13.593l-0.048,0.391l-0.291,0.26c-1.699,1.527-3.644,2.271-5.938,2.271
				c-1.919,0-3.823-0.489-5.843-1.013c-2.489-0.643-5.067-1.312-7.737-0.999l-0.497,0.062l-0.354-0.354
				c-1.247-1.229-1.808-2.354-1.701-3.438c0.149-1.562,1.569-2.497,2.938-3.405c0.938-0.619,1.908-1.262,2.41-2.038
				c2.981-4.627,4.444-9.217,3.629-20.202l-0.017-0.18l0.048-0.173c0.729-2.669-0.282-3.068-2.123-3.796
				c-1.396-0.555-3.143-1.239-3.572-3.302l-0.022-0.138l0.008-0.137c0.896-15.218-0.942-27.982-2.718-40.325
				c-1.461-10.142-2.966-20.614-2.977-32.446c-0.253,0.075-0.398,0.201-0.505,0.315c-1.065,1.183-0.68,4.888-0.341,8.157
				c0.451,4.354,0.881,8.475-1.246,10.215c-1.071,0.877-0.938,2.484-0.607,4.838c0.318,2.309,0.684,4.923-1.283,6.533
				c-0.929,0.756-3.054,5.971-3.413,8.799c-0.559,4.35-0.46,8.827-0.358,13.156c0.139,6.229,0.28,12.67-1.498,18.977
				c0.792,4.543-2.209,5.699-4.413,6.547c-1.975,0.762-3.094,1.273-3.201,2.94l-0.055,0.271c-1.838,5.346-1.338,10.321-0.857,15.136
				c0.492,4.905,1,9.981-1.051,15.225l-0.176,0.451l-0.458,0.149c-1.917,0.648-4.419,0.977-7.432,0.977
				c-5.429,0-12.438-1.124-17.854-2.864l-0.652-0.211l-0.064-0.68c-0.359-3.793,2.378-5.23,4.795-6.497
				c1.092-0.569,2.221-1.163,3.141-1.963c0.666-0.585,1.229-1.023,1.741-1.42c1.318-1.026,2.191-1.704,3.758-4.06
				c0.091-0.139,0.141-0.359,0.19-0.6c0.1-0.474,0.312-1.481,1.373-1.762c-1.328-10.01-1.25-21.746-1.168-34.146
				c0.068-10.191,0.138-20.732-0.566-31.062c-0.296-4.383-1.133-8.621-1.94-12.724c-0.767-3.89-1.559-7.905-1.848-11.903
				c-0.471-6.465,0.062-13.164,0.573-19.643c0.726-9.163,1.414-17.818-0.544-25.656c-0.199-0.789-0.647-1.186-1.267-1.729
				c-1.149-1.012-2.58-2.271-2.556-6.111l0.006-0.809l0.785-0.192c1.546-0.383,1.661-1.508,1.22-4.696
				c-0.193-1.396-0.395-2.841-0.077-4.036c0.184-0.709,0.832-0.92,1.218-1.046c0.54-0.176,0.621-0.227,0.643-0.637
				c0.106-2.045,0.621-3.015,1.121-3.955c0.299-0.563,0.583-1.098,0.804-1.938c0.777-5.191-1.975-6.627-5.161-8.292l-0.339-0.283
				c-1.096-1.411-1.594-3.29-2.078-5.107c-0.449-1.691-0.875-3.288-1.712-4.365l-0.268-0.347l0.061-0.434
				c0.816-5.905,1.222-12.351,1.616-18.586c1.567-24.791,3.181-50.425,30.342-50.537c0.024-0.117,0.057-0.222,0.096-0.314
				c0.247-0.593,0.759-0.908,1.286-1.096c-0.419-0.116-0.866-0.38-1.077-0.986c-0.29-0.819-0.697-1.673-1.129-2.576
				c-1.561-3.265-3.504-7.33-2.716-14.929c0.599-5.788,3.723-10.354,6.479-14.382c1.182-1.729,2.298-3.36,3.104-4.931l0.418-0.818
				l0.861,0.317c2.021,0.74,4.057,0.049,6.124-0.798c1.579-0.647,3.235-1.313,4.981-1.156c7.431,0.664,13.345,6.941,18.095,11.986
				c0.521,0.55,1.023,1.083,1.509,1.592l0.354,0.366l-0.072,0.502c-0.282,1.932-0.504,3.922-0.725,5.912
				c-0.879,7.869-1.787,15.993-6.437,20.557c2.591,2.753,6.493,4.255,10.605,5.837c3.294,1.267,6.697,2.576,9.409,4.609l0.196,0.197
				c1.382,1.793,2.594,3.873,3.661,6.292c0.177-1.483,0.36-2.957,0.545-4.423c0.266-2.081,0.523-4.142,0.749-6.182l0.04-0.378
				l0.278-0.262c2.94-2.773,6.424-4.276,9.792-5.731c2.627-1.133,5.105-2.204,7.365-3.831c1.671-1.206,3.049-2.836,4.507-4.561
				c2.319-2.742,4.714-5.571,8.47-6.788c0.574-3.331-0.812-4.461-2.544-5.876c-1.295-1.059-2.761-2.256-3.258-4.442l-0.039-0.175
				l0.021-0.178c0.377-3.21,0.137-6.109-0.099-8.914c-0.241-2.924-0.477-5.688,0.112-8.25c1.833-7.93,8.24-13.258,15.944-13.258
				c3.441,0,6.986,1.084,10.252,3.135c0.683,0.426,1.495,0.632,2.288,0.832c2.681,0.678,4.7,1.614,4.096,6.422
				c0.683-0.064,1.341-0.096,1.999-0.096c3.736,0,6.395,1.07,8.963,2.104c2.494,1.005,4.85,1.954,8.176,1.954l0.984-0.021
				l0.316,0.458c6.928,9.91,18.1,15.778,28.021,20.499l0.651,0.314l-0.064,0.723c-0.364,3.908,0.972,5.286,2.517,6.877
				c1.817,1.876,3.873,3.995,3.217,9.816c1.152-0.502,2.443-0.916,3.788-1.348c4.073-1.303,8.282-2.651,9.415-6.751
				c0.843-3.744-0.604-4.927-2.436-6.42c-1.293-1.059-2.759-2.257-3.26-4.442c-0.734-6.621,0.176-11.558,1.053-16.334
				c0.296-1.608,0.589-3.217,0.826-4.887l0.049-0.353l0.256-0.25c4.396-4.247,10.796-6.786,17.124-6.786
				c6.237,0,11.479,2.458,14.755,6.918l0.278,0.381l-0.104,0.459c-0.973,4.348-0.049,7.948,0.851,11.43
				c0.648,2.533,1.266,4.925,1.064,7.378c-0.323,4.005-2.062,7.355-3.738,10.595c-1.827,3.523-3.711,7.164-3.829,11.74
				c1.768,2.365,5.246,3.198,8.924,4.077c1.218,0.292,2.435,0.583,3.594,0.935l0.76,0.229l-0.021,0.794
				c-0.063,2.51,0.883,3.949,3.074,4.667l0.249,0.081l0.179,0.185c0.753,0.785,1.067,1.663,1.343,2.438
				c0.19,0.53,0.37,1.03,0.677,1.512l-0.802,0.515l0.92-0.126c0.028,0.149,0.148,0.521,0.316,1.068
				c0.641,2.065,1.913,6.178,2.503,10.082c2.946-4.915,7.685-8.031,14.037-11.038c-2.231-4.405-0.604-10.007,0.976-15.439
				c0.526-1.807,1.022-3.514,1.377-5.165c0.313-1.458,0.516-3.027,0.727-4.69c0.282-2.239,0.573-4.557,1.185-6.738
				c0.443-1.594,1.184-2.988,1.896-4.336c0.877-1.66,1.705-3.229,1.857-4.952l0.063-0.739l0.724-0.177
				c2.718-0.672,4.71-1.479,6.46-2.191c2.922-1.185,5.482-2.123,9.092-1.62c2.562,0.366,10.084,3.182,10.369,8.553
				c0.037,0.731,0.691,1.135,1.756,1.712c0.843,0.455,1.705,0.924,1.984,1.829c2.729,8.808-1.182,19.895-4.034,27.99
				c-0.589,1.669-1.135,3.217-1.571,4.596c0.037,0.267,0.045,0.517,0.021,0.751c0.352-0.048,0.729-0.025,1.09,0.076
				c1.08,0.31,1.785,1.36,2.675,2.688c1.377,2.054,3.089,4.607,6.584,4.851l0.784,0.054l0.161,0.771
				c2.387,11.385,5.971,21.537,11.273,31.954c0.303,0.587,0.593,1.228,0.889,1.896c-0.257-1.129-0.441-2.252-0.438-3.323
				c0.014-1.759,0.453-3.35,0.92-5.033c0.391-1.409,0.789-2.866,0.98-4.555c0.38-3.368,0.195-7.418,0.014-11.335
				c-0.178-3.879-0.355-7.886-0.014-11.385l0.227-2.29l1.068,1.151c0.289-0.188,0.583-0.455,0.6-0.711
				c0.052-0.959,0.024-1.923,0.006-2.889c-0.021-0.928-0.045-1.856-0.008-2.785l0.041-0.96l0.959-0.035
				c1.654-0.062,2.14-1.163,2.852-3.104c0.646-1.77,1.441-3.933,3.959-4.389c0.757-1.756,3.018-1.821,4.722-1.871
				c0.223-0.006,0.443-0.014,0.66-0.021c0.019-2.245,1.2-3.226,2.207-3.656c0.44-1.248,0.242-1.606,0.217-1.646
				c-0.045-0.067-0.273-0.284-1.373-0.284c-0.479,0-0.993,0.037-1.508,0.073c-0.563,0.041-1.132,0.08-1.653,0.08
				c-0.959,0-2.157-0.11-2.914-0.963c-0.495-0.558-0.689-1.317-0.573-2.25c-0.093-1.131-0.036-2.574,0.016-3.969
				c0.183-4.967,0.079-7.991-2.828-8.135l-1.239-0.06l0.275-1.208c0.377-1.671,1.188-2.837,1.975-3.965
				c1.044-1.495,1.943-2.787,1.793-5.214c-0.262-1.029-2.004-1.12-4.633-1.124c-2.296-0.002-4.675-0.004-5.965-1.482
				c-0.66-0.761-0.929-1.799-0.791-3.091c-0.333-1.564-0.156-2.755,0.538-3.633c1.031-1.299,2.9-1.474,4.601-1.474
				c0.523,0,1.067,0.019,1.609,0.035c0.521,0.018,1.041,0.036,1.543,0.036c2.479,0,2.975-0.49,3.145-1.019l0.133-0.412L704,81.073
				c3.125-1.601,5.523-3.999,7.126-7.128l0.288-0.566h22.622l-0.104,1.137c-0.113,1.229,1.042,2.101,2.967,3.389
				c2.084,1.396,4.448,2.979,4.604,5.936c0.012,0.211,0.033,0.35,0.053,0.436c0.572,0.043,1.378,0.164,1.771,1.122
				c0.325,0.792,0.473,2.669,0.709,5.925c0.247,3.408,0.554,7.648,1.188,9.239c0.209,0.519,0.145,1.179,0.009,2.211
				c-0.05,0.395-0.129,1.021-0.112,1.33c2.47,2.291,2.019,7.343,0.393,11.668c1.513,1.313,2.554,3.021,3.562,4.681
				c0.512,0.836,0.993,1.632,1.53,2.374c1.03,0.382,1.996,0.51,3.016,0.645c1.37,0.181,2.79,0.37,4.381,1.186
				c0.974,0.499,1.77,1.46,2.536,2.391c0.479,0.583,0.979,1.187,1.384,1.476c0.686,0.488,1.425,0.928,2.176,1.369
				c1.249,0.737,2.544,1.498,3.616,2.513c3.591,3.384,3.849,3.802,3.967,4c0.396,0.658,0.255,1.521,0.099,2.521
				c-0.06,0.345-0.146,0.891-0.142,1.167c1.537,1.46,2.482,4.897,3.964,11.797c0.685,3.198,1.081,6.537,1.506,10.07
				c0.511,4.259,1.089,9.083,2.281,14.56c0.104,0.483,0.351,0.785,0.688,1.199c0.481,0.602,1.092,1.346,1.228,2.707
				c0.82,8.194,0.176,16.604-1.918,24.989c-0.08,0.321-0.01,0.856,0.062,1.371c0.111,0.818,0.24,1.746-0.111,2.576
				c-0.4,0.93-1.413,1.748-2.394,2.539c-0.566,0.461-1.276,1.034-1.441,1.336c-0.565,1.051-1.048,2.141-1.513,3.197
				c-1.061,2.396-2.062,4.674-3.914,6.202c2.713,11.517-1.16,19.95-5.798,28.241c0.548,7.995-0.241,14.729-1.009,21.244
				c-0.791,6.732-1.605,13.693-0.906,22.011c0.401,1.478,0.279,2.726-0.412,3.638c-1.114,1.469-3.246,1.494-5.309,1.522
				c-1.912,0.024-3.325,0.104-3.737,0.794c0.118,1.829,0.036,3.814-0.05,5.738c-0.175,4.139-0.355,8.417,1.627,10.396
				c1.994,1.996,0.084,5.417-1.061,7.463c-0.229,0.406-0.512,0.914-0.561,1.072c-0.221,1.243-0.438,2.556-0.656,3.892
				c-1.073,6.507-2.295,13.885-5.074,20.901c-0.232,0.594-0.736,0.826-1.111,1.002c-0.398,0.188-0.62,0.287-0.737,0.765
				c-0.483,1.942-1.129,3.618-1.808,5.395c-0.694,1.823-1.419,3.709-1.985,5.978c-0.459,1.841,1.22,8.012,3.372,10.235
				c0.372-0.006,0.74-0.082,1.111-0.151c1.188-0.227,2.349-0.279,2.891,0.372c0.35,0.429,0.625,1.13,0.947,1.941
				c0.22,0.556,0.588,1.484,0.783,1.693c0.592,0.41,1.836,0.688,3.157,0.979c3.444,0.768,8.165,1.812,8.605,7.333l0.062,0.78
				l-0.729,0.271c-3.938,1.485-10.806,2.37-18.367,2.37c-7.565,0-14.435-0.885-18.37-2.37l-0.423-0.157l-0.172-0.418
				c-1.553-3.807-0.163-8.138,1.304-12.722c1.067-3.328,2.168-6.771,2.411-10.479c0.314-4.771-0.302-10.331-0.952-16.216
				c-0.678-6.138-1.379-12.48-0.938-17.905c0.299-3.684,1.05-7.312,1.653-10.232l0.256-1.262c0.134-0.646,0.688-0.854,1.055-0.993
				c0.65-0.248,0.808-0.388,0.823-0.753c0.221-4.215,0.083-12.449-1.801-16.556c-0.902-1.955-2.454-2.747-4.603-3.843
				c-0.813-0.414-1.678-0.854-2.571-1.393c-1.217-0.734-1.08-1.994-1-2.753c0.021-0.221,0.062-0.578,0.025-0.716
				c-0.855,0.936-2.375,1.941-3.521,1.941c-0.364,0-0.707-0.086-1.012-0.25c-2.354-0.152-3.062,2.445-3.686,5.92
				c-0.193,1.098-0.38,2.132-0.68,2.916c-0.354,0.937-0.739,1.869-1.136,2.816c-1.98,4.735-4.021,9.642-2.597,17.469
				c0.102,0.562,0.371,1.055,0.692,1.623c0.562,1.002,1.254,2.249,1.216,4.268c-0.074,4.413-1.649,8.686-3.175,12.816
				c-1.044,2.854-2.037,5.546-2.53,8.194c-0.322,1.767-0.178,3.637-0.021,5.613c0.147,1.878,0.311,3.825,0.021,5.719
				c-0.132,0.925-0.48,1.729-0.854,2.576c-0.576,1.322-1.174,2.69-1.031,4.782c0.229,3.343,1.648,6.508,3.021,9.562
				c1.898,4.241,3.865,8.628,2.638,13.493l-0.138,0.54l-0.524,0.188c-2.929,1.027-7.584,2.136-11.854,2.136
				c-3.604,0-6.334-0.785-8.114-2.334l-0.414-0.36l0.189-1.622c1.652-13.938,2.958-24.951-0.106-38.355
				c-0.32-1.401-0.956-2.926-1.628-4.536c-0.943-2.251-1.916-4.584-2.188-6.945c-1.163-10.271,0.304-19.271,1.713-27.979
				c0.92-5.67,1.872-11.526,2.077-17.649l0.033-0.229c0.138-0.523,0.072-0.711,0.064-0.73c0,0-0.034-0.091-0.685-0.091
				c-0.565,0-1.305,0.106-2.014,0.221c-0.789,0.118-1.604,0.242-2.33,0.242c-0.295,0-1.036,0-1.688-0.354
				c-0.104,0.54-0.193,1.074-0.295,1.646c-0.241,1.405-0.521,3.005-1.041,5.254c-0.393,1.692-0.607,3.575-0.82,5.394
				c-0.268,2.312-0.521,4.494-1.108,6.101c-0.285,0.799-1.021,0.972-1.419,1.063c-0.104,0.025-0.285,0.069-0.327,0.104l0,0
				c0,0-0.066,0.097-0.089,0.428c-0.08,1.618-1.028,2.782-1.944,3.908c-0.905,1.111-1.763,2.161-1.841,3.669
				c-0.059,1.092-0.729,1.781-1.219,2.284c-0.556,0.569-0.742,0.817-0.685,1.324c0.375,22.924,0.188,41.487-5.627,55.165
				c0.646,2.104,3.282,2.339,7.466,2.463c3.312,0.099,6.734,0.194,8.512,2.309c0.963,1.145,1.308,2.745,1.021,4.759l-0.075,0.542
				l-0.491,0.24C674.131,390.787,667.067,392.084,657.527,392.084z M620.615,387.932c5.75,0,12.026,0.521,18.1,1.022
				c6.259,0.517,12.729,1.051,18.814,1.051c8.919,0,15.549-1.153,20.799-3.618c0.089-1.146-0.11-1.997-0.607-2.588
				c-1.178-1.396-4.13-1.481-6.985-1.566c-4.062-0.12-8.669-0.259-9.516-4.427l-0.062-0.316l0.13-0.305
				c6.243-14.38,5.899-35.7,5.599-54.521c-0.177-1.429,0.694-2.321,1.269-2.912c0.438-0.449,0.616-0.66,0.635-0.946
				c0.112-2.184,1.276-3.607,2.302-4.871c0.771-0.941,1.438-1.759,1.481-2.705c0.105-1.986,1.442-2.305,2.013-2.438
				c0.013-0.002,0.021-0.004,0.031-0.008c0.447-1.371,0.674-3.32,0.912-5.374c0.219-1.874,0.438-3.812,0.858-5.62
				c0.507-2.195,0.778-3.764,1.023-5.146c0.235-1.388,0.467-2.695,0.877-4.352c0.132-0.516,0.403-0.977,0.841-1.409l1.953-1.952
				l-0.197,3.125c-0.01,0.188-0.018,0.387-0.033,0.575c-0.164,0.693-0.104,0.89-0.099,0.906l0,0c0.01,0,0.164,0.095,0.683,0.095
				c0.569,0,1.305-0.109,2.019-0.221c0.788-0.12,1.604-0.244,2.329-0.244c0.4,0,1.632,0,2.334,0.908
				c0.453,0.59,0.562,1.396,0.316,2.402c-0.218,6.213-1.171,12.104-2.096,17.804c-1.394,8.562-2.836,17.426-1.702,27.413
				c0.234,2.064,1.15,4.259,2.035,6.377c0.71,1.699,1.38,3.299,1.74,4.872c3.146,13.758,1.821,24.928,0.146,39.062l-0.062,0.499
				c1.405,0.981,3.577,1.496,6.334,1.496c3.752,0,7.937-0.95,10.626-1.835c0.777-3.961-0.889-7.672-2.645-11.594
				c-1.444-3.226-2.938-6.562-3.192-10.273c-0.183-2.6,0.589-4.35,1.196-5.757c0.326-0.749,0.609-1.396,0.703-2.042
				c0.248-1.665,0.105-3.409-0.041-5.254c-0.16-2.025-0.328-4.118,0.049-6.156c0.523-2.824,1.595-5.725,2.623-8.533
				c1.461-3.971,2.974-8.077,3.049-12.14c0.022-1.455-0.447-2.31-0.954-3.215c-0.376-0.672-0.765-1.367-0.927-2.264
				c-1.532-8.438,0.729-13.858,2.727-18.646c0.386-0.926,0.768-1.835,1.115-2.753c0.229-0.604,0.396-1.543,0.57-2.542
				c0.576-3.213,1.438-8.177,6.217-7.596l0.298,0.037l0.229,0.188c0.605-0.012,1.937-1.129,2.237-1.562l0.771,0.539l0.118-0.054
				l0.147-1.038l0.955,0.133l-0.006,0.117c1.571,0.659,1.405,2.207,1.327,2.922c-0.023,0.236-0.067,0.636-0.021,0.739
				c0.873,0.521,1.693,0.938,2.463,1.33c2.237,1.14,4.349,2.211,5.546,4.82c2.532,5.508,2.058,16.327,1.992,17.541
				c-0.095,1.658-1.373,2.271-2.017,2.521l-0.159,0.789c-0.593,2.863-1.326,6.427-1.618,9.981
				c-0.425,5.229,0.267,11.472,0.935,17.51c0.636,5.716,1.285,11.626,0.964,16.58c-0.265,3.965-1.457,7.691-2.511,10.98
				c-1.346,4.199-2.513,7.854-1.514,10.879c3.784,1.305,10.151,2.072,17.196,2.072c6.841,0,13.043-0.728,16.855-1.963
				c-0.609-3.055-3.268-3.887-6.88-4.687c-1.595-0.356-2.971-0.658-3.942-1.345c-0.588-0.416-0.951-1.26-1.479-2.598
				c-0.146-0.37-0.354-0.889-0.503-1.187c-0.341,0.016-0.681,0.087-1.021,0.147c-1.11,0.217-2.221,0.298-2.799-0.253
				c-2.686-2.558-4.759-9.668-4.085-12.378c0.602-2.389,1.345-4.332,2.062-6.214c0.651-1.712,1.276-3.33,1.729-5.153
				c0.358-1.435,1.351-1.896,1.88-2.143c0.044-0.021,0.089-0.039,0.125-0.06c2.647-6.755,3.787-13.644,4.891-20.307
				c0.222-1.338,0.438-2.659,0.666-3.945c0.071-0.399,0.309-0.832,0.782-1.688c0.741-1.329,2.286-4.096,1.405-4.979
				c-2.629-2.63-2.428-7.37-2.23-11.959c0.082-1.953,0.17-3.975,0.03-5.754l-0.019-0.215l0.068-0.203
				c0.787-2.281,3.426-2.314,5.742-2.347c1.494-0.022,3.186-0.044,3.685-0.704c0.347-0.451,0.205-1.352,0.022-2.025
				c-0.746-8.701,0.084-15.771,0.89-22.604c0.765-6.504,1.555-13.229,0.976-21.166l-0.021-0.312l0.152-0.271
				c4.756-8.472,8.457-16.396,5.582-27.66l-0.183-0.709l0.607-0.409c1.743-1.173,2.684-3.297,3.766-5.758
				c0.482-1.092,0.979-2.221,1.584-3.344c0.364-0.668,1.104-1.269,1.967-1.963c0.67-0.543,1.591-1.288,1.785-1.742
				c0.127-0.298,0.042-0.924-0.033-1.477c-0.099-0.711-0.196-1.451-0.019-2.16c2.034-8.153,2.663-16.322,1.868-24.274
				c-0.073-0.741-0.368-1.104-0.775-1.605c-0.397-0.491-0.893-1.1-1.104-2.068c-1.213-5.57-1.8-10.448-2.312-14.75
				c-0.421-3.486-0.816-6.777-1.479-9.885c-1.312-6.121-2.29-9.85-3.43-10.786c-0.781-0.632-0.604-1.753-0.412-2.94
				c0.062-0.388,0.165-1.04,0.129-1.236c0,0.002-0.003,0.002-0.003,0.002c-0.034,0-0.579-0.635-3.51-3.399
				c-0.954-0.901-2.091-1.571-3.297-2.283c-0.808-0.473-1.604-0.946-2.331-1.47c-0.627-0.449-1.188-1.125-1.778-1.842
				c-0.604-0.731-1.286-1.562-1.88-1.865c-1.271-0.652-2.453-0.809-3.705-0.974c-1.188-0.158-2.416-0.319-3.798-0.889l-0.265-0.108
				l-0.17-0.227c-0.668-0.887-1.254-1.846-1.817-2.775c-1.088-1.786-2.117-3.472-3.646-4.586l-0.661-0.481l0.313-0.756
				c1.838-4.436,1.965-8.809,0.303-10.169c-0.735-0.604-0.596-1.729-0.431-3.029c0.055-0.422,0.132-1.059,0.103-1.25
				c-0.73-1.817-1.041-6.052-1.312-9.789c-0.141-1.947-0.314-4.33-0.509-5.118c-0.941-0.088-1.919-0.475-2.021-2.404
				c-0.103-1.917-1.845-3.084-3.688-4.32c-1.626-1.088-3.434-2.299-3.825-4.174H712.64c-1.733,3.135-4.218,5.583-7.381,7.282
				c-0.982,2.039-3.733,2.039-4.954,2.039c-0.523,0-1.067-0.019-1.611-0.036c-0.521-0.016-1.036-0.036-1.539-0.036
				c-1.04,0-2.482,0.071-2.973,0.688c-0.371,0.469-0.26,1.374-0.103,2.049l0.046,0.188l-0.028,0.19
				c-0.101,0.761-0.01,1.312,0.276,1.64c0.67,0.767,2.65,0.769,4.398,0.771c2.671,0.002,5.99,0.006,6.677,2.897
				c0.221,3.325-1.03,5.122-2.136,6.706c-0.491,0.708-0.971,1.39-1.31,2.174c3.819,1.078,3.642,6.028,3.492,10.08
				c-0.048,1.346-0.097,2.737-0.021,3.956c-0.041,0.486-0.02,0.72,0.062,0.811c0.069,0.079,0.343,0.262,1.358,0.262
				c0.479,0,0.987-0.037,1.509-0.072c0.562-0.042,1.126-0.079,1.651-0.079c0.98,0,2.375,0.126,3.099,1.202
				c0.812,1.21,0.289,2.872-0.181,4.015l-0.188,0.47l-0.488,0.138c-0.473,0.135-1.46,0.414-1.15,2.651l0.145,1.035l-1.035,0.136
				c-0.574,0.077-1.21,0.097-1.845,0.114c-2.089,0.062-2.848,0.205-2.94,0.894l-0.117,0.862l-0.871,0.033
				c-1.659,0.063-2.146,1.167-2.857,3.11c-0.629,1.718-1.396,3.81-3.742,4.342c-0.002,0.593,0.017,1.185,0.025,1.778
				c0.021,1.019,0.048,2.036-0.008,3.048c-0.067,1.282-1.098,2.166-1.957,2.593c-0.25,3.203-0.081,6.875,0.083,10.437
				c0.185,3.997,0.372,8.132-0.025,11.663c-0.209,1.853-0.647,3.459-1.043,4.876c-0.448,1.614-0.836,3.009-0.844,4.493
				c-0.012,1.478,0.438,3.163,0.915,4.948c0.447,1.677,0.91,3.414,0.997,5.07l0.153,3.035l-1.979-2.302
				c-1.489-1.729-2.501-4.024-3.39-6.052c-0.362-0.827-0.716-1.627-1.08-2.343c-5.275-10.361-8.878-20.463-11.298-31.737
				c-3.987-0.612-6.016-3.636-7.386-5.678c-0.521-0.778-1.17-1.748-1.519-1.848c-0.446-0.021-0.854,0.286-1.198,0.556
				c-0.441,0.355-0.905,0.721-1.524,0.721c-1.287,0-1.652-1.47-1.788-2.026l-0.289-1.171l1.2-0.112
				c0.574-0.056,0.92-0.124,1.017-0.205c-0.006-0.004,0.025-0.128-0.042-0.438l-0.057-0.267l0.08-0.26
				c0.455-1.462,1.034-3.118,1.672-4.911c2.759-7.822,6.535-18.534,4.011-26.685c-0.085-0.124-0.629-0.418-0.987-0.614
				c-1.092-0.589-2.745-1.483-2.84-3.431c-0.215-4.003-6.898-6.362-8.591-6.604c-3.208-0.451-5.145,0.321-8.013,1.488
				c-1.675,0.678-3.548,1.441-6.062,2.107c-0.312,1.83-1.17,3.439-1.996,5c-0.662,1.251-1.346,2.544-1.729,3.922
				c-0.565,2.034-0.853,4.276-1.121,6.442c-0.207,1.632-0.422,3.319-0.753,4.864c-0.37,1.724-0.902,3.547-1.413,5.309
				c-1.572,5.407-3.196,10.998-0.64,14.732l0.696,1.015l-1.12,0.517c-8.056,3.701-13.21,7.166-15.706,13.934l-0.732,2l-0.325,1.757
				c-1.496,7.825-1.105,22.687,0.29,28.493c0.68,2.824,1.198,5.626,1.661,8.097c0.668,3.61,1.247,6.728,2.081,8.812
				c0.211,0.53,0.152,1.156,0.104,1.709c-0.02,0.192-0.04,0.375-0.026,0.518c0.02,0.362,0.146,0.486,0.785,0.724
				c0.372,0.138,0.938,0.347,1.084,0.989c0.819,3.853,1.475,8.453,2.054,12.508c0.582,4.085,1.128,7.94,1.723,10.201
				c1.533,5.793,1.126,7.146-0.155,8.464c-0.265,1.017,0.002,5.776,0.173,6.777c0.288,1.637,0.702,3.152,1.229,5.077
				c0.2,0.731,0.415,1.528,0.65,2.416c0.891,3.366,3,6.59,3.518,7.108c1.229,1.228,1.188,2.933,1.146,4.438
				c-0.036,1.537-0.012,2.51,0.677,3.071c0.734,0.607,0.598,1.729,0.436,3.021c-0.055,0.424-0.138,1.062-0.104,1.252
				c0.962,2.391,1.078,4.771,1.197,7.303c0.098,1.936,0.189,3.938,0.717,6.029c2.213,8.854,1.382,18.062-0.005,23.256
				c-1.934,7.238-3.764,12.848-5.533,18.271c-0.709,2.178-1.397,4.286-2.062,6.406c-0.546,1.75-1.098,3.822-1.652,5.913
				c-1.639,6.137-2.758,10.053-4.158,11.454c-0.021,0.311,0.062,0.944,0.111,1.35c0.131,1.025,0.201,1.681-0.006,2.197
				c-1.797,4.482-3.088,8.993-3.729,13.046c-0.466,2.911-0.425,5.82-0.38,8.901c0.053,3.738,0.105,7.606-0.688,12.066l-0.378,2.127
				l-1.427-1.622c-0.351-0.396-0.854-0.724-1.389-1.064c-0.584-0.377-1.188-0.769-1.695-1.313c-0.688-0.733-0.46-1.839-0.264-2.814
				c0.055-0.262,0.135-0.649,0.154-0.916c-0.397-0.024-1.272,0.076-2.031,0.188c-1.302,0.188-2.561,0.317-3.244-0.021
				c-1.343-0.653-3.084-1.021-4.932-1.4c-3.646-0.758-7.42-1.539-8.833-4.805l-0.142-0.322l0.087-0.342
				c0.492-1.98,1.03-3.775,1.547-5.5c0.938-3.133,1.823-6.099,2.215-9.522c0.402-3.449,0.16-7.104-0.076-10.64
				c-0.269-4.005-0.546-8.146,0.082-12.146c0.251-1.562,1.188-3.056,2.091-4.499c0.67-1.064,1.358-2.174,1.754-3.268
				c1.586-4.42,2.067-8.696,2.542-12.833c0.312-2.766,0.605-5.378,1.216-7.9c0.061-0.249,0.302-0.842,1.253-0.842
				c0.199,0,0.485,0.021,0.774,0.041c0.06,0.004,0.105,0.008,0.163,0.017c0.067-0.813-0.101-2.476-0.192-3.44
				c-0.167-1.663-0.265-2.717-0.104-3.359c0.205-0.826,1.149-1.836,1.978-2.357c0.567-3.367,0.72-7.161,0.858-10.836
				c0.152-3.84,0.312-7.812,0.942-11.367c0.631-3.559,1.762-6.877,2.863-10.09c1.249-3.668,2.43-7.131,2.807-10.688
				c0.528-5.021,0.221-9.814-0.11-14.896c-0.345-5.31-0.699-10.782,0.003-16.5c-1.604-0.774-1.685-2.409-1.771-4.125l-0.016-0.315
				c-0.021-0.432-0.021-0.432-0.447-0.538c-0.396-0.099-1.121-0.282-1.394-1.071c-2.697-7.773-3.186-17.492-3.651-26.89
				l-0.191-3.706c-0.285-5.112-0.516-10.508,0.004-15.326c0.209-1.925,1.396-2.206,1.969-2.341c0.028-0.006,0.053-0.012,0.062-0.006
				c0.167-0.579,0.043-1.449-0.075-2.293c-0.146-1.041-0.301-2.117-0.021-3.104c0.062-0.241,0.318-0.816,1.243-0.816
				c0.198,0,0.49,0.023,0.784,0.054c0.064,0.004,0.135,0.01,0.194,0.018c0.065-0.757-0.118-2.568-0.225-3.608
				c-0.155-1.526-0.244-2.496-0.133-3.137c0.029-0.193,0.228-0.893,1.241-0.893c0.193,0,0.477,0.021,0.765,0.042
				c0.146,0.01,0.285,0.021,0.419,0.029l0.604-0.686l0.037-2.355c0.079-4.367-1.878-10.692-2.716-13.39
				c-0.167-0.544-0.283-0.917-0.347-1.193c-0.348-0.595-0.557-1.175-0.735-1.691c-0.217-0.605-0.396-1.098-0.734-1.524
				c-2.652-0.961-4.071-2.907-4.224-5.79c-0.9-0.25-1.825-0.472-2.753-0.694c-4.024-0.963-8.188-1.96-10.352-5.201l-0.175-0.266
				l0.002-0.316c0.035-5.229,2.085-9.184,4.067-13.01c1.657-3.198,3.222-6.219,3.516-9.807c0.169-2.105-0.401-4.333-1.009-6.692
				c-0.881-3.429-1.876-7.302-0.964-11.923c-2.894-3.685-7.422-5.707-12.804-5.707c-5.596,0-11.471,2.279-15.424,5.961
				c-0.229,1.571-0.511,3.092-0.788,4.613c-0.892,4.84-1.729,9.413-1.053,15.613c0.321,1.373,1.347,2.209,2.532,3.176
				c1.901,1.555,4.27,3.488,3.134,8.535c-1.44,5.233-6.409,6.825-10.796,8.226c-1.837,0.589-3.579,1.147-4.84,1.91l-2.621,1.58
				l0.634-2.458c0.119-0.447,0.217-0.944,0.295-1.535c0.671-5.127-0.847-6.689-2.601-8.496c-1.574-1.627-3.35-3.458-3.141-7.79
				c-9.856-4.715-20.798-10.595-27.875-20.433c-3.688-0.014-6.323-1.076-8.87-2.104c-2.498-1.005-4.855-1.955-8.188-1.955
				c-0.988,0-2,0.083-3.09,0.252l-1.468,0.229l0.287-1.458c0.915-4.59-0.171-4.863-2.331-5.409c-0.902-0.229-1.924-0.486-2.881-1.09
				c-2.938-1.841-6.101-2.816-9.146-2.816c-6.714,0-12.308,4.681-13.917,11.647c-0.519,2.245-0.312,4.731-0.069,7.609
				c0.228,2.719,0.48,5.796,0.11,9.141c0.376,1.391,1.363,2.2,2.503,3.132c1.903,1.555,4.271,3.488,3.143,8.533l-0.142,0.617
				l-0.608,0.162c-3.487,0.922-5.698,3.535-8.041,6.306c-1.478,1.743-3.004,3.546-4.879,4.901c-2.441,1.762-5.146,2.926-7.761,4.056
				c-3.233,1.395-6.299,2.717-8.914,5.076c-0.217,1.923-0.463,3.867-0.707,5.825c-0.356,2.85-0.724,5.729-1.008,8.636l-0.477,4.849
				l-1.546-4.621c-1.315-3.948-2.89-7.092-4.802-9.609c-2.465-1.813-5.683-3.052-8.797-4.249c-4.526-1.743-9.213-3.546-12.128-7.223
				l-0.632-0.798l0.786-0.648c4.691-3.858,5.604-12.011,6.479-19.896c0.203-1.84,0.41-3.683,0.66-5.479
				c-0.381-0.399-0.771-0.816-1.174-1.241c-4.511-4.786-10.123-10.744-16.767-11.339c-1.265-0.118-2.591,0.432-4.009,1.009
				c-1.481,0.609-3.161,1.293-5.021,1.295c-0.595,0-1.168-0.067-1.736-0.205c-0.805,1.435-1.791,2.878-2.827,4.392
				c-2.613,3.825-5.583,8.159-6.125,13.424c-0.73,7.018,0.999,10.63,2.523,13.819c0.403,0.848,0.79,1.658,1.104,2.479
				c0.021,0,0.045,0.002,0.063,0.002c0.442,0.021,1.187,0.055,1.682,0.688c0.502,0.645,0.406,1.482,0.296,2.055
				c-0.164,0.78-0.896,0.92-1.425,1.025c-0.146,0.027-0.397,0.077-0.597,0.134l1.088,1.624l-2.006-0.052
				c-26.459-0.717-27.929,23.241-29.529,48.577c-0.386,6.129-0.789,12.463-1.575,18.328c0.914,1.362,1.369,3.076,1.812,4.742
				c0.426,1.602,0.831,3.122,1.585,4.193c3.188,1.668,7.018,3.823,6.017,10.441c-0.304,1.18-0.676,1.877-1.003,2.493
				c-0.445,0.84-0.798,1.504-0.881,3.09c-0.093,1.786-1.368,2.272-1.996,2.479c-0.088,0.781,0.056,1.827,0.197,2.846
				c0.327,2.366,0.767,5.534-1.975,6.729c0.124,2.299,0.92,3.004,1.834,3.807c0.73,0.643,1.555,1.367,1.91,2.783
				c2.041,8.168,1.342,16.986,0.602,26.328c-0.509,6.396-1.035,13.016-0.573,19.323c0.28,3.87,1.025,7.649,1.813,11.649
				c0.822,4.166,1.669,8.474,1.977,12.986c0.708,10.402,0.639,20.983,0.57,31.216c-0.083,12.812-0.164,24.916,1.312,35.021
				l0.213,1.469l-1.454-0.3c-0.12-0.021-0.215-0.039-0.283-0.045c-0.015,0.061-0.026,0.12-0.038,0.173
				c-0.075,0.36-0.18,0.855-0.497,1.326c-1.751,2.631-2.835,3.476-4.209,4.545c-0.484,0.378-1.018,0.792-1.65,1.347
				c-1.106,0.963-2.343,1.609-3.543,2.238c-2.304,1.21-3.614,1.986-3.707,3.785c5.12,1.556,11.516,2.547,16.518,2.547
				c2.544,0,4.659-0.241,6.307-0.72c1.663-4.607,1.216-9.075,0.743-13.795c-0.502-5-1.019-10.169,0.917-15.896
				c0.26-2.966,2.617-3.872,4.517-4.604c2.217-0.854,3.682-1.417,3.074-4.456l-0.051-0.25l0.073-0.242
				c1.76-6.074,1.617-12.437,1.479-18.59c-0.099-4.406-0.199-8.963,0.379-13.464c0.359-2.832,2.509-8.797,4.157-10.146
				c0.991-0.812,0.859-2.363,0.54-4.643c-0.329-2.365-0.696-5.049,1.354-6.729c1.261-1.03,0.834-5.11,0.492-8.394
				c-0.422-4.059-0.816-7.891,0.862-9.762c0.769-0.851,1.816-1.207,3.225-1.021l0.91,0.114l-0.004,0.92
				c-0.086,12.115,1.459,22.839,2.949,33.209c1.786,12.402,3.631,25.229,2.743,40.589c0.232,0.83,0.991,1.167,2.271,1.673
				c1.804,0.71,4.516,1.78,3.413,6.1c0.832,11.445-0.752,16.327-3.97,21.309c-0.734,1.145-1.94,1.94-3.005,2.646
				c-0.964,0.639-1.963,1.296-2.019,1.87c-0.031,0.341,0.231,0.834,0.765,1.417c2.83-0.228,5.465,0.451,7.979,1.104
				c1.889,0.483,3.672,0.945,5.322,0.945c1.653,0,3.018-0.477,4.262-1.488c0.551-5.02-0.191-8.668-0.979-12.526
				c-0.809-3.95-1.64-8.037-0.96-13.603c0.335-3.793,2.919-5.429,5.198-6.863c2.342-1.479,4.364-2.756,4.268-6.243
				c-0.266-3.97-0.1-8.055,0.062-12.006c0.165-4.003,0.317-7.783-0.059-10.627c-0.257-1.941-0.45-3.019-0.571-3.68
				c-0.229-1.247-0.224-1.408,0.091-2.46c0.116-0.383,0.284-0.938,0.506-1.825c0.113-0.458,0.058-1.039-0.002-1.656
				c-0.062-0.666-0.133-1.354-0.015-2.055c0.474-2.828,0.938-5.43,1.381-7.926c0.886-4.966,1.718-9.654,2.403-14.779l0.793-5.81
				c1.223-8.882,2.482-18.062,2.987-26.327c0.13-2.139,0.002-4.369-0.12-6.529c-0.17-2.928-0.341-5.951,0.134-8.74
				c0.562-3.279,1.287-3.973,2.636-5.006c0.397-0.311,0.877-0.67,1.445-1.24c0.186-0.531-0.092-3.938-0.191-5.225
				c-0.062-0.729-0.104-1.314-0.106-1.613c-0.038-3.551-1.996-9.482-3.056-12.671c-0.342-1.032-0.604-1.826-0.705-2.241
				c-0.688-2.735-0.742-4.646-0.79-6.184c-0.057-1.789-0.095-3.083-1.026-4.979l-0.097-0.302c-0.188-1.197,0-2.178,0.552-2.917
				c0.927-1.243,2.617-1.474,4.105-1.677c2.091-0.285,2.804-0.524,2.916-1.385l0.105-0.789l0.784-0.106
				c0.497-0.066,0.941-0.232,1.436-0.538l1.03-0.636l0.472,1.119c0.886,2.107,2.396,4.092,3.729,5.843
				c1.483,1.95,2.762,3.631,3.186,5.315l0.249,0.993c2.188,8.783,3.511,14.083,7.183,19.521l0.298,0.438l-0.186,0.495
				c-13.704,37.891-13.497,78.312-13.229,129.487l0.031,6.58c-0.322,2.558-1.911,3.674-3.309,4.658
				c-1.623,1.146-2.797,1.97-2.391,4.666l0.154,1.03l-1.029,0.15c-2.799,0.412-5.273,0.777-6.328,2.284
				c-0.598,0.854-0.742,2.085-0.442,3.756c4.943,4.812,14.705,5.219,23.487,5.219c1.695,0,3.408-0.018,5.12-0.034l1.366-0.017
				c-0.974-5.408,0.402-10.278,1.854-15.411c0.92-3.258,1.872-6.624,2.181-10.175c0.689-7.99,0.689-18.088,0-26.354
				c-0.856-10.19-0.687-16.727-0.003-26.685c0.17-2.505,0.188-4.716,0.199-6.665c0.028-4.4,0.049-7.366,1.87-9.055
				c0.019-0.313-0.062-0.957-0.11-1.362c-0.123-1.015-0.189-1.66,0-2.166c0.688-1.837,1.563-3.312,2.334-4.61
				c0.655-1.105,1.223-2.064,1.42-2.853c0.08-0.317,0.008-0.854-0.063-1.367c-0.107-0.817-0.239-1.748,0.114-2.582
				c0.271-0.64,0.954-1.222,2.038-2.116c0.635-0.523,1.593-1.316,1.758-1.688c0.853-1.896,1.448-4.187,2.021-6.394
				c1.501-5.772,3.202-12.312,10.177-13.164l1.265-0.151l-0.104,1.269c-0.968,11.854,0.153,23.052,1.056,32.048
				c0.341,3.405,0.664,6.618,0.838,9.491c0.865,14.182-1.74,27.353-4.261,40.086c-2.6,13.125-5.051,25.52-3.321,37.521
				c0.234,1.64,1.124,3.277,2.063,5.018c1.483,2.737,3.142,5.794,2.188,9.263c0.584,0.009,1.169,0.017,1.754,0.021
				c1.271,0.019,2.539,0.034,3.788,0.034c9.282,0,15.293-1.146,16.582-6.839c0.401-2.944-1.186-3.678-3.374-4.688
				c-2.46-1.137-5.828-2.69-4.193-8.622c2.149-4.87,1.94-10.114,1.742-15.188c-0.122-3.066-0.248-6.233,0.127-9.29
				c0.163-1.328,0.748-2.069,1.223-2.662c0.338-0.424,0.578-0.731,0.688-1.223c1.107-5.095,1.351-8.349,1.61-11.796
				c0.08-1.062,0.155-2.122,0.266-3.24c0.51-5.432,0.51-10.812,0.512-16.018c0-7.535,0.002-14.654,1.398-21.979
				c0.585-3.08,1.673-5.992,2.729-8.81c1.189-3.194,2.428-6.497,2.945-10.093c0.379-2.595,0.205-5.338,0.021-8.241
				c-0.186-2.854-0.369-5.812-0.023-8.78c0.24-2.08,0.61-4.229,0.968-6.318c1.237-7.211,2.515-14.668-0.864-21.523l-0.69-1.398
				l1.558-0.099c2.214-0.138,2.64-1.239,3.322-3.516c0.354-1.163,0.743-2.479,1.591-3.64c0.548-0.752,1.467-1.374,2.441-2.03
				c2.759-1.867,4.468-3.32,3.123-6.414c-4.815-14.317-14.778-43.932-5.686-65.247l0.194-0.3c2.148-2.312,5.532-3.839,9.123-5.455
				c2.534-1.143,5.153-2.324,7.609-3.875l0.088-0.058l-0.023-0.184c-0.095-0.616-0.189-1.255,0.211-1.75
				c0.401-0.492,1.08-0.647,2.073-0.529l1.377,0.167l0.075-0.049l-0.033,0.053l0.407,0.049l-1.139,1.452
				c-0.354,0.455-0.703,0.926-1.03,1.411l-0.566,0.862c-2.101,3.403-3.609,7.721-4.896,13.998c-0.632,3.068-0.819,5.876-1.022,8.847
				c-0.177,2.607-0.361,5.308-0.868,8.178c-0.466,2.647-1.217,5.186-1.941,7.639c-1.174,3.963-2.281,7.71-1.84,10.987
				c0.788,5.816,4.461,10.684,8.013,15.392c5.289,7.011,10.756,14.262,7.134,24.785c-0.436,2.84-3.524,2.901-5.794,2.944
				c-1.927,0.039-3.332,0.123-3.683,0.86c-0.522,4.095-2.245,6.968-3.914,9.75c-1.575,2.63-3.068,5.122-3.585,8.604
				c2.359,2.482,6.872,3.184,11.239,3.855c5.146,0.801,10.463,1.623,13.146,5.34l0.174,0.24l0.021,0.295
				c2.517,36.004,3.216,81.893,1.923,126.06c0.205,0.004,0.416,0.008,0.627,0.008l1.604-0.018c1.442,0,3.979,0,4.977,1.797
				c0.619,0.041,1.134,0.264,1.531,0.663c0.854,0.859,0.844,2.216,0.834,3.525c-0.007,0.719-0.017,1.799,0.231,2.049
				c0.05,0.05,0.217,0.057,0.27,0.057c0.271,0,0.785-0.082,1.708-0.484l0.357-0.087c2.044-0.109,4.287-0.165,6.856-0.165
				c3.235,0,6.559,0.087,9.884,0.173c3.305,0.085,6.607,0.17,9.828,0.17c7.636,0,12.953-0.505,17.234-1.642L620.615,387.932z
				 M617.243,377.782c0.542,0,1.322,0.062,1.823,0.629c0.646,0.738,0.438,1.779,0.229,2.784c-0.073,0.357-0.193,0.964-0.152,1.15
				c0.231,0.188,0.702,0.492,1.2,0.815c0.104,0.062,0.197,0.126,0.294,0.19c0.474-3.56,0.427-6.786,0.386-9.921
				c-0.051-3.175-0.092-6.17,0.398-9.259c0.672-4.201,2.005-8.866,3.857-13.484c0.008-0.114-0.073-0.749-0.127-1.167
				c-0.165-1.31-0.312-2.435,0.43-3.039c1.092-0.896,2.58-6.481,3.668-10.562c0.567-2.119,1.125-4.222,1.679-5.995
				c0.666-2.131,1.358-4.247,2.069-6.433c1.76-5.399,3.587-10.979,5.499-18.158c1.324-4.956,2.116-13.75-0.004-22.22
				c-0.57-2.288-0.673-4.396-0.773-6.438c-0.112-2.348-0.223-4.562-1.072-6.699c-0.209-0.514-0.14-1.174-0.012-2.211
				c0.05-0.396,0.129-1.021,0.115-1.332c-1.323-1.236-1.277-3.071-1.24-4.559c0.029-1.191,0.062-2.318-0.538-2.914
				c-0.916-0.913-3.11-4.48-4.058-8.051c-0.232-0.885-0.447-1.673-0.648-2.4c-0.54-1.977-0.966-3.537-1.265-5.268
				c-0.015-0.069-0.89-7.307,0.281-8.49c0.616-0.613,1.169-1.163-0.269-6.58c-0.625-2.375-1.152-6.11-1.771-10.435
				c-0.55-3.863-1.167-8.219-1.924-11.892c-0.784-0.317-1.938-0.936-2.021-2.519c-0.014-0.225,0.012-0.508,0.034-0.808
				c0.021-0.227,0.06-0.649,0.027-0.782c-0.898-2.245-1.498-5.455-2.188-9.174c-0.455-2.448-0.97-5.223-1.636-7.993
				c-1.001-4.164-1.504-12.822-1.204-20.42c-0.471,0.07-0.66,0.008-1.026-0.025c0.01,0.461,0.082,0.986,0.155,1.498
				c0.172,1.206,0.35,2.454-0.13,3.559c-0.341,0.796-1.051,0.966-1.438,1.056c-0.092,0.021-0.229,0.056-0.266,0.077l0,0
				c0.002,0-0.076,0.108-0.114,0.467c-0.502,4.663-0.271,9.96,0.005,14.988l0.192,3.717c0.457,9.141,0.93,18.59,3.451,26.043
				c0.008,0.002,0.014,0.004,0.024,0.006c0.567,0.145,1.912,0.481,2.017,2.446l0.019,0.319c0.107,2.171,0.224,2.324,1.062,2.508
				l0.94,0.207l-0.135,0.953c-0.823,5.812-0.454,11.462-0.103,16.927c0.321,4.938,0.651,10.049,0.104,15.25
				c-0.397,3.782-1.62,7.354-2.911,11.135c-1.07,3.14-2.178,6.386-2.784,9.781c-0.604,3.418-0.759,7.316-0.904,11.086
				c-0.153,3.938-0.315,8.015-0.989,11.656l-1.021-0.189l-0.004,0.023l0.337,0.918c-0.34,0.174-1.137,0.896-1.221,1.205
				c-0.081,0.336,0.052,1.672,0.149,2.647c0.3,2.993,0.424,4.726-0.504,5.483c-0.515,0.408-1,0.272-1.688,0.228
				c-0.01-0.002-0.02-0.002-0.03-0.004c-0.465,2.172-0.723,4.46-0.991,6.866c-0.481,4.257-0.981,8.652-2.649,13.303
				c-0.469,1.307-1.222,2.505-1.948,3.667c-0.829,1.327-1.615,2.58-1.796,3.726c-0.595,3.763-0.324,7.784-0.062,11.677
				c0.243,3.631,0.495,7.381,0.068,11.019c-0.416,3.608-1.325,6.657-2.292,9.88c-0.473,1.59-0.966,3.239-1.427,5.041
				c1.119,2.035,4.075,2.648,7.205,3.299c1.886,0.396,3.837,0.799,5.412,1.566c-0.002-0.002,0-0.002,0-0.002
				c0.014,0,0.104,0.016,0.289,0.016c0.487,0,1.116-0.092,1.754-0.183C615.834,377.889,616.599,377.782,617.243,377.782z
				 M595.161,184.018c-0.575,0-1.041-0.466-1.041-1.041c0-0.573,0.466-1.038,1.041-1.038c0.571,0,1.038,0.465,1.038,1.038
				C596.199,183.552,595.732,184.018,595.161,184.018z M536.488,116.837c-1.08,0-2.319-0.337-3.628-0.695
				c-1.279-0.347-2.604-0.709-3.817-0.771c-2.03-0.105-4.231-0.062-6.442-0.023c-1.181,0.021-2.36,0.042-3.522,0.042
				c-5.356,0-11.266-0.335-13.606-4.318l-0.128-0.215l-0.016-0.249c-0.288-4.706,1.034-8.955,2.203-12.705
				c0.714-2.293,1.386-4.458,1.591-6.413c0.051-0.495-0.148-0.899-0.479-1.517c-0.564-1.076-1.431-2.703,0.793-4.814l0.273-0.258
				l0.37-0.026c2.493-0.166,4.251,0.85,5.968,1.829c1.577,0.899,3.21,1.828,5.532,1.96c4.267,0.24,5.541,1.908,8.082,5.229
				c0.604,0.792,1.299,1.699,2.14,2.731c1.005,1.23,2.723,2.82,3.979,3.983c1.491,1.388,1.741,1.637,1.878,2.006
				c0.688,1.919,0.318,3.825-0.004,5.506c-0.514,2.63-0.679,4.063,1.445,5.32l0.693,0.412l-0.225,0.775
				C539.275,115.634,538.5,116.837,536.488,116.837z M526.054,113.228c1.062,0,2.102,0.018,3.099,0.066
				c1.438,0.073,2.938,0.481,4.259,0.842c1.636,0.445,3.216,0.798,3.771,0.497c-2.511-2.02-1.987-4.71-1.563-6.91
				c0.294-1.507,0.564-2.934,0.134-4.276c-0.215-0.236-0.831-0.809-1.381-1.317c-1.299-1.204-3.076-2.852-4.173-4.193
				c-0.86-1.052-1.564-1.975-2.184-2.783c-2.482-3.25-3.233-4.229-6.549-4.418c-2.812-0.157-4.744-1.257-6.442-2.229
				c-1.481-0.844-2.764-1.575-4.4-1.575c-0.006,0-0.016,0-0.021,0c-0.775,0.823-0.587,1.178-0.115,2.067
				c0.364,0.694,0.821,1.557,0.704,2.704c-0.229,2.161-0.93,4.422-1.675,6.815c-1.145,3.678-2.325,7.479-2.128,11.701
				c2.234,3.333,8.938,3.161,15.184,3.05C523.739,113.248,524.91,113.228,526.054,113.228z"/>
		</g>
		<g>
			<path fill="#FFFFFF" d="M268.268,446.775h-2.078v-10.393h2.078V446.775z M268.268,425.994h-2.078v-10.393h2.078V425.994z
				 M268.268,405.215h-2.078v-10.392h2.078V405.215z M268.268,384.436h-2.078v-10.39h2.078V384.436z M268.268,363.654h-2.078
				v-10.394h2.078V363.654z M268.268,342.872h-2.078v-10.39h2.078V342.872z M268.268,322.093h-2.078v-10.392h2.078V322.093z
				 M268.268,301.312h-2.078v-10.392h2.078V301.312z M268.268,280.532h-2.078v-10.39h2.078V280.532z M268.268,259.753h-2.078v-10.39
				h2.078V259.753z M268.268,238.973h-2.078v-10.391h2.078V238.973z M268.268,218.193h-2.078v-10.39h2.078V218.193z
				 M268.268,197.412h-2.078v-10.39h2.078V197.412z M268.268,176.632h-2.078v-10.39h2.078V176.632z M268.268,155.852h-2.078v-10.39
				h2.078V155.852z M268.268,135.072h-2.078v-10.39h2.078V135.072z M268.268,114.292h-2.078V103.9h2.078V114.292z M268.268,93.51
				h-2.078V83.122h2.078V93.51z M268.268,72.732h-2.078v-10.39h2.078V72.732z M268.268,51.95h-2.078V41.56h2.078V51.95z
				 M268.268,31.17h-2.078V20.78h2.078V31.17z M268.268,10.39h-2.078V0h2.078V10.39z"/>
			<path fill="#FFFFFF" d="M536.494,447.645h-2.079v-10.388h2.079V447.645z M536.494,426.867h-2.079v-10.396h2.079V426.867z
				 M536.494,406.084h-2.079v-10.39h2.079V406.084z M536.494,385.305h-2.079v-10.39h2.079V385.305z M536.494,364.524h-2.079v-10.393
				h2.079V364.524z M536.494,343.743h-2.079v-10.393h2.079V343.743z M536.494,322.964h-2.079v-10.39h2.079V322.964z
				 M536.494,302.184h-2.079v-10.391h2.079V302.184z M536.494,281.402h-2.079v-10.389h2.079V281.402z M536.494,260.622h-2.079
				v-10.388h2.079V260.622z M536.494,239.843h-2.079v-10.39h2.079V239.843z M536.494,219.064h-2.079v-10.392h2.079V219.064z
				 M536.494,198.283h-2.079v-10.39h2.079V198.283z M536.494,177.504h-2.079v-10.39h2.079V177.504z M536.494,156.722h-2.079v-10.39
				h2.079V156.722z M536.494,135.943h-2.079v-10.39h2.079V135.943z M536.494,115.161h-2.079v-10.39h2.079V115.161z M536.494,94.382
				h-2.079v-10.39h2.079V94.382z M536.494,73.601h-2.079v-10.39h2.079V73.601z M536.494,52.821h-2.079v-10.39h2.079V52.821z
				 M536.494,32.04h-2.079V21.65h2.079V32.04z M536.494,11.26h-2.079V0.871h2.079V11.26z"/>
			<path fill="#FFFFFF" d="M799.041,151.917h-10.39v-2.078h10.39V151.917L799.041,151.917z M778.26,151.917h-10.39v-2.078h10.39
				V151.917z M757.48,151.917h-10.395v-2.078h10.395V151.917z M736.699,151.917h-10.393v-2.078h10.393V151.917z M715.92,151.917
				h-10.392v-2.078h10.392V151.917z M695.141,151.917h-10.392v-2.078h10.392V151.917z M674.359,151.917h-10.393v-2.078h10.393
				V151.917z M653.578,151.917h-10.396v-2.078h10.396V151.917z M632.798,151.917h-10.39v-2.078h10.39V151.917z M612.019,151.917
				h-10.392v-2.078h10.392V151.917z M591.237,151.917h-10.393v-2.078h10.393V151.917z M570.458,151.917h-10.392v-2.078h10.392
				V151.917z M549.679,151.917h-10.392v-2.078h10.392V151.917z M528.896,151.917h-10.394v-2.078h10.394V151.917z M508.115,151.917
				h-10.393v-2.078h10.393V151.917z M487.336,151.917h-10.39v-2.078h10.39V151.917z M466.557,151.917h-10.392v-2.078h10.392V151.917
				z M445.775,151.917h-10.393v-2.078h10.393V151.917z M424.996,151.917H414.6v-2.078h10.396V151.917z M404.215,151.917h-10.388
				v-2.078h10.388V151.917z M383.436,151.917h-10.39v-2.078h10.39V151.917z M362.656,151.917h-10.39v-2.078h10.39V151.917z
				 M341.875,151.917h-10.389v-2.078h10.389V151.917z M321.094,151.917h-10.39v-2.078h10.39V151.917z M300.314,151.917h-10.39
				v-2.078h10.39V151.917z M279.534,151.917h-10.39v-2.078h10.39V151.917z M258.754,151.917h-10.39v-2.078h10.39V151.917z
				 M237.974,151.917h-10.39v-2.078h10.39V151.917z M217.194,151.917h-10.39v-2.078h10.39V151.917z M196.414,151.917h-10.39v-2.078
				h10.39V151.917z M175.632,151.917h-10.39v-2.078h10.39V151.917L175.632,151.917z M154.853,151.917h-10.39v-2.078h10.39V151.917z
				 M134.072,151.917h-10.391v-2.078h10.39L134.072,151.917L134.072,151.917z M113.292,151.917h-10.391v-2.078h10.391V151.917z
				 M92.512,151.917H82.121v-2.078h10.391V151.917z M71.731,151.917H61.342v-2.078h10.39L71.731,151.917L71.731,151.917z
				 M50.952,151.917H40.561v-2.078h10.391V151.917z M30.17,151.917H19.78v-2.078h10.39V151.917L30.17,151.917z M9.39,151.917H-1
				v-2.078H9.39V151.917z"/>
		</g>
	</g>
</g>
</svg>
