<?xml version="1.0" encoding="utf-8"?>
<!-- Generator: Adobe Illustrator 15.0.2, SVG Export Plug-In . SVG Version: 6.00 Build 0)  -->
<!DOCTYPE svg PUBLIC "-//W3C//DTD SVG 1.1//EN" "http://www.w3.org/Graphics/SVG/1.1/DTD/svg11.dtd">
<svg version="1.1" id="Layer_3" xmlns="http://www.w3.org/2000/svg" xmlns:xlink="http://www.w3.org/1999/xlink" x="0px" y="0px"
	 width="800px" height="450px" viewBox="0 0 800 450" enable-background="new 0 0 800 450" xml:space="preserve">
<g>
	<g>
		<path d="M721.689,333.297c-0.273-0.527-6.762-13.232-7.674-41.957c-0.945-29.777,1.799-61.705,6.67-77.645l1.969,0.601
			c-4.811,15.749-7.518,47.403-6.58,76.979c0.895,28.182,7.375,40.941,7.439,41.068L721.689,333.297z"/>
		<path d="M516.334,448.256c0,0-4.039-20.885-6.324-32.32c-2.193-10.98-11.971-20.646-12.068-20.744l1.441-1.471
			c0.418,0.408,10.326,10.197,12.646,21.811c2.287,11.441,6.328,32.334,6.328,32.334L516.334,448.256z"/>
		<path d="M735.279,123.177c-0.23-11.418-7.414-33.816-7.488-34.042c-5.973-21.722-32.824-62.946-61.832-87.44l1.328-1.572
			c29.293,24.734,56.439,66.453,62.477,88.425c0.287,0.887,7.336,22.871,7.574,34.587L735.279,123.177z"/>
		<path d="M509.752,395.842c-4.547,0-8.734-0.145-12.52-0.279c-4.76-0.164-8.869-0.305-12.348-0.135
			c-23.803,1.244-35.322-41.176-42.199-66.477c-1.385-5.094-2.58-9.492-3.582-12.355c-5.625-16.066-17.645-74.127-21.596-93.206
			l-0.326-1.579c-1.762-8.516-1.158-16.724-0.625-23.968c0.611-8.312,1.141-15.488-1.672-21.551
			c-5.773-12.452-12.018-43.861-10.256-57.728c1.799-14.136,9.877-36.035,9.955-36.255l0.072,0.026
			c2.021-4.544,26.875-54.323,79.197-82.336l0.973,1.815c-53.494,28.64-78.098,80.761-78.34,81.284
			c-0.051,0.144-8.045,21.823-9.812,35.724c-1.727,13.575,4.41,44.375,10.08,56.602c3.035,6.548,2.463,14.33,1.855,22.568
			c-0.547,7.457-1.115,15.166,0.59,23.398l0.326,1.58c3.943,19.046,15.941,77.005,21.521,92.942
			c1.027,2.934,2.232,7.365,3.625,12.496c6.195,22.793,17.662,64.98,39.287,64.98c0.273,0,0.547-0.006,0.824-0.021
			c3.562-0.174,7.717-0.029,12.521,0.139c23.535,0.822,62.932,2.191,106.188-35.326c47.459-41.164,54.512-70.818,59.658-92.471
			c0.691-2.904,1.344-5.646,2.055-8.234l0.178-0.357c0.287-0.371,7.246-9.174,28.268-18.51c17.74-7.877,33.4-29.797,46.547-65.149
			c6.992-18.797,6.176-37.416-2.076-47.432c-4.859-5.896-11.885-8.274-20.314-6.883c-23.518,3.893-25.199,9.688-25.215,9.746
			l-2.029-0.338c0.104-0.732,1.736-7.273,26.908-11.439c9.197-1.521,16.889,1.108,22.238,7.604
			c8.715,10.572,9.664,29.987,2.42,49.461c-13.539,36.396-29.121,58.089-47.643,66.313c-19.014,8.443-26.352,16.557-27.354,17.74
			c-0.68,2.494-1.311,5.148-1.979,7.955c-5.213,21.924-12.354,51.951-60.312,93.549C567.938,391.744,533.84,395.842,509.752,395.842
			z"/>
		<path d="M503.773,149.211l-1.713-1.142c0.264-0.396,6.574-9.701,16.24-10.42c8.277-0.609,20.1,2.471,27.17,4.313
			c1.008,0.264,1.918,0.5,2.699,0.696l-0.498,1.996c-0.787-0.195-1.703-0.435-2.721-0.699c-6.945-1.81-18.555-4.837-26.498-4.254
			C509.779,140.348,503.832,149.122,503.773,149.211z"/>
		<path d="M511.281,140.956c0,0-1.494,13.197,8.812,13.54c10.305,0.343,13.645-5.024,12.318-14.544
			C532.412,139.952,522.74,136.36,511.281,140.956z"/>
		<path d="M516.938,155.892c-6.611,0-10.404-1.724-10.68-1.854l0.875-1.864c0.111,0.055,11.539,5.169,29.713-3.097l0.854,1.875
			C529.234,154.802,522.193,155.892,516.938,155.892z"/>
		<path d="M418.326,164.89l-1.531-1.377c12.184-13.541,30.574-8.678,30.76-8.628l-0.547,1.985
			C446.836,156.821,429.646,152.305,418.326,164.89z"/>
		<path d="M422.941,159.594c0,0-1.021,11.341,9.48,11.739c0,0,10.109-0.975,6.938-16.337
			C439.359,154.996,431.889,153.801,422.941,159.594z"/>
		<path d="M426.402,172.645c-2.207,0-3.557-0.272-3.703-0.304l0.428-2.016c0.092,0.019,9.078,1.793,19.658-4.627l1.068,1.761
			C436.672,171.817,430.24,172.645,426.402,172.645z"/>
		<path d="M446.949,248.367c-18.322-6.227-14.467-25.642-12.848-31.444c1.029-3.692,3.537-12.11,6.189-21.021
			c3.221-10.828,6.875-23.102,8.33-28.427c2.598-9.519,4.648-18.869,4.67-18.962l2.01,0.44c-0.02,0.093-2.08,9.493-4.693,19.065
			c-1.461,5.348-5.117,17.631-8.344,28.47c-2.648,8.903-5.152,17.312-6.178,20.987c-1.496,5.363-5.086,23.298,11.525,28.94
			L446.949,248.367z"/>
		<path d="M494.836,242.795l-1.021-1.789c5.354-3.061,8.324-9.205,7.941-16.435c-0.412-7.859-16.014-12.284-16.172-12.328
			l0.551-1.984c0.703,0.195,17.191,4.881,17.68,14.203C504.236,232.486,500.881,239.338,494.836,242.795z"/>
		<path d="M485.861,241.9c0,0-10.066-7.318-16.928-4.574C462.074,240.072,468.479,247.391,485.861,241.9z"/>
		<path d="M456.584,246.984c0,0-4.803-6.16-9.254-3.498C442.877,246.148,446.133,251.25,456.584,246.984z"/>
		<path d="M491.203,448.783c-3.375-23.51,0.457-53.91,0.498-54.215l2.043,0.264c-0.041,0.303-3.836,30.43-0.502,53.656
			L491.203,448.783z"/>
		<path d="M724.934,448.777l-1.479-1.436c31.42-32.342,42.104-66.156,41.707-85.285c-0.107-5.215-1.119-7.994-2.029-8.855
			c-3.879-3.676-5.68-6.371-9.625-12.279c-2.146-3.213-4.816-7.213-8.809-12.885c-6.229-8.854-8.666-14.148-10.279-17.654
			c-1.4-3.041-2.244-4.875-4.502-6.865c-3.812-3.367-10.598-3.721-13.268-3.721c-0.02,0-0.039,0-0.057,0
			c0.156,1.605,0.445,4.516,0.584,5.656c0.307,2.537,1.775,4.197,3.475,6.121c2.791,3.16,5.953,6.74,4.777,14.98
			c-1.871,13.078-23.959,49.16-40.75,66.564c-6.955,7.209-23.881,22.352-65.01,53.555c-0.98,0.746-1.631,1.236-1.889,1.438
			l-1.264-1.627c0.26-0.203,0.916-0.699,1.906-1.451c41.023-31.123,57.869-46.188,64.775-53.344
			c16.576-17.186,38.365-52.65,40.189-65.428c1.043-7.297-1.662-10.361-4.281-13.324c-1.766-2-3.59-4.064-3.973-7.236
			c-0.197-1.621-0.699-6.809-0.699-6.809l-0.102-1.061l1.064-0.064c0.42-0.025,10.439-0.6,15.881,4.205
			c2.584,2.279,3.551,4.375,5.012,7.549c1.676,3.643,3.971,8.631,10.094,17.33c4.004,5.693,6.684,9.703,8.834,12.926
			c3.975,5.949,5.619,8.412,9.33,11.928c1.617,1.531,2.566,5.193,2.672,10.307C767.625,381.539,756.797,415.98,724.934,448.777z"/>
		<path d="M796.109,376.723c-9.111-1.779-23.188-18.215-27.012-23.678c-1.291-1.842-2.635-2.836-3.992-2.959
			c-1.535-0.125-2.67,0.93-2.68,0.941l-1.451-1.463c0.072-0.07,1.807-1.756,4.316-1.529c1.99,0.178,3.838,1.467,5.492,3.83
			c4.252,6.072,17.693,21.27,25.721,22.836L796.109,376.723z"/>
		<path d="M758.584,449.422l-1.33-1.572c0.188-0.16,19.01-16.268,38.168-48.951l1.775,1.041
			C777.848,432.955,758.773,449.26,758.584,449.422z"/>
		<path d="M466.193,447.51l-1.227-1.656c7.576-5.607,24.688-15.807,24.861-15.91l1.055,1.77
			C490.711,431.812,473.686,441.965,466.193,447.51z"/>
		<path d="M682.098,227.978c-1.562,0-2.572-0.409-2.676-0.453l0.795-1.899c0.217,0.084,5.318,2.034,10.666-5.37
			c2.973-4.117,7.516-6.156,12.33-8.315c5.357-2.405,10.898-4.892,15.52-10.492c8.748-10.605,18.154-53.797,17.697-62.78
			c-0.152-3.049-1.498-5.377-3.887-6.734c-4.061-2.303-10.49-1.555-17.199,2.004c-7.84,4.156-16.818,21.266-21.873,32.058
			c2.02-2.292,4.148-4.164,5.957-4.083c0.699,0.02,1.672,0.312,2.346,1.588c0.512,0.963,1.312,2.223,2.246,3.682
			c4.113,6.444,10.332,16.185,5.432,22.299c-3.176,3.969-7.391,6.184-11.463,8.326c-3.184,1.674-6.475,3.406-9.23,5.967
			c-3.479,3.228-8.365,6.381-10.695,4.631c-1.582-1.184-1.307-3.844,0.838-8.133c4.842-9.686,4.928-20.192,1.975-23.566l1.551-1.355
			c3.455,3.947,3.6,15.273-1.684,25.843c-1.982,3.968-1.717,5.361-1.445,5.563c0.639,0.482,3.879-0.611,8.059-4.492
			c2.957-2.746,6.371-4.543,9.674-6.279c4.066-2.139,7.906-4.158,10.816-7.791c3.977-4.964-1.764-13.955-5.562-19.904
			c-0.957-1.496-1.781-2.789-2.33-3.825c-0.254-0.483-0.479-0.491-0.584-0.493c-2.055-0.033-7.211,6.657-9.975,11.22l-1.836-0.92
			c0.59-1.453,14.549-35.646,26.818-42.153c7.336-3.891,14.508-4.627,19.182-1.975c2.99,1.699,4.74,4.688,4.93,8.421
			c0.477,9.414-8.951,53.021-18.166,64.196c-4.93,5.972-10.951,8.675-16.268,11.06c-4.75,2.132-8.854,3.973-11.502,7.642
			C688.621,226.903,684.635,227.978,682.098,227.978z"/>
		<path d="M498.701,93.103c0,0-6.961,4.888-4.359,7.709c2.596,2.822,5.066,6.35,6.125,5.998c1.059-0.354,10.324-3.177,14.863-7.057
			c4.541-3.881,20.062-8.819,25.707-9.879c5.645-1.057,22.932-6.35,28.928-3.881c5.996,2.471-4.234-8.466-17.287-6.35
			C539.625,81.761,507.971,85.993,498.701,93.103z"/>
		<path d="M432.959,115.276c0,0,3.438,5.288,2.135,8.111c-1.305,2.824-6.244-3.527-15.414-2.468c-9.174,1.058-14.193,3.2-14.193,3.2
			s1.262-10.865,1.729-12.59S426.486,110.688,432.959,115.276z"/>
		<path d="M501.814,279.252c-20.232-6.615-24.75,2.207-33.287,1.615c-8.539-0.592-12.084,9.975-12.084,9.975
			c-2.699,5.023-0.441,5.234,6.656,13.049c7.102,7.811,37.301,7.172,51.699-1.732c14.396-8.904,16.652-14.287,16.652-14.287
			S522.049,285.869,501.814,279.252z M508.729,283.305c-17.055,4.947-51.09,9.746-51.09,9.746s3.545-10.562,12.084-9.971
			s13.057-8.232,33.287-1.617c2.025,0.662,3.91,1.268,5.719,1.84V283.305z"/>
		<path d="M489.156,324.096c-12.631,0-23.785-4.174-29.844-11.166c-4.5-5.195-6.225-11.707-5.125-19.355
			c0.65-3.426,4.139-20.344,9.873-21.338c1.42-0.246,2.684-0.738,4.148-1.311c2.945-1.146,6.609-2.574,13.348-2.574
			c1.816,0,3.803,0.105,5.906,0.312c14.723,1.453,43.289,17.623,44.498,18.311l0.686,0.391l-0.199,0.764
			c-0.238,0.914-6.025,22.479-23.496,31.723C503.852,322.547,496.637,324.096,489.156,324.096z M481.557,270.412
			c-6.35,0-9.67,1.291-12.602,2.434c-1.502,0.586-2.92,1.137-4.543,1.42c-3.184,0.553-6.707,11.822-8.193,19.648
			c-1.004,6.984,0.557,12.943,4.65,17.666c5.67,6.547,16.246,10.457,28.287,10.457c7.154,0,14.018-1.461,18.832-4.008
			c14.869-7.867,21.049-25.762,22.244-29.662c-4.559-2.535-29.932-16.367-42.973-17.654
			C485.225,270.514,483.307,270.412,481.557,270.412z"/>
		<path d="M546.926,287.023c-0.066-0.248-6.699-25.004-19.73-38.928c-13.258-14.164-35.574-44.239-35.799-44.54l1.656-1.227
			c0.223,0.301,22.471,30.28,35.646,44.358c13.391,14.311,19.943,38.777,20.217,39.812L546.926,287.023z"/>
		<path d="M444.504,296.738c-9.527-15.971,1.336-48.311,1.803-49.682l1.947,0.668c-0.109,0.326-11.021,32.805-1.982,47.957
			L444.504,296.738z"/>
		<path d="M724.195,336.594"/>
	</g>
	<g>
		<path d="M266.861,442.83h-2.061v-10.299h2.061V442.83z M266.861,422.234h-2.061v-10.299h2.061V422.234z M266.861,401.639h-2.061
			v-10.295h2.061V401.639z M266.861,381.047h-2.061v-10.299h2.061V381.047z M266.861,360.451h-2.061v-10.297h2.061V360.451z
			 M266.861,339.857h-2.061v-10.299h2.061V339.857z M266.861,319.262h-2.061v-10.297h2.061V319.262z M266.861,298.668h-2.061
			v-10.299h2.061V298.668z M266.861,278.072h-2.061v-10.297h2.061V278.072z M266.861,257.479h-2.061v-10.297h2.061V257.479z
			 M266.861,236.885h-2.061v-10.299h2.061V236.885z M266.861,216.288h-2.061v-10.297h2.061V216.288z M266.861,195.694h-2.061
			v-10.297h2.061V195.694z M266.861,175.099h-2.061v-10.297h2.061V175.099z M266.861,154.505h-2.061v-10.298h2.061V154.505z
			 M266.861,133.91h-2.061v-10.298h2.061V133.91z M266.861,113.315h-2.061v-10.297h2.061V113.315z M266.861,92.721h-2.061V82.423
			h2.061V92.721z M266.861,72.126h-2.061V61.829h2.061V72.126z M266.861,51.531h-2.061V41.233h2.061V51.531z M266.861,30.937h-2.061
			V20.64h2.061V30.937z M266.861,10.343h-2.061V0.045h2.061V10.343z"/>
		<rect x="528.57" y="0.907" width="6.18" height="447.151"/>
		<rect y="146.487" width="797.492" height="6.178"/>
		<g>
			<rect y="298.076" width="5.148" height="2.059"/>
			<path d="M782.121,300.135h-10.223v-2.059h10.223V300.135z M761.674,300.135h-10.225v-2.059h10.225V300.135z M741.227,300.135
				h-10.223v-2.059h10.223V300.135z M720.781,300.135h-10.223v-2.059h10.223V300.135z M700.334,300.135h-10.223v-2.059h10.223
				V300.135z M679.889,300.135h-10.225v-2.059h10.225V300.135z M659.439,300.135h-10.223v-2.059h10.223V300.135z M638.994,300.135
				h-10.223v-2.059h10.223V300.135z M618.549,300.135h-10.227v-2.059h10.227V300.135z M598.1,300.135h-10.223v-2.059H598.1V300.135z
				 M577.654,300.135H567.43v-2.059h10.225V300.135z M557.207,300.135h-10.223v-2.059h10.223V300.135z M536.762,300.135h-10.223
				v-2.059h10.223V300.135z M516.312,300.135H506.09v-2.059h10.223V300.135z M495.867,300.135h-10.223v-2.059h10.223V300.135z
				 M475.42,300.135h-10.225v-2.059h10.225V300.135z M454.973,300.135H444.75v-2.059h10.223V300.135z M434.527,300.135h-10.225
				v-2.059h10.225V300.135z M414.08,300.135h-10.223v-2.059h10.223V300.135z M393.635,300.135H383.41v-2.059h10.225V300.135z
				 M373.188,300.135h-10.223v-2.059h10.223V300.135z M352.74,300.135h-10.223v-2.059h10.223V300.135z M332.293,300.135H322.07
				v-2.059h10.223V300.135z M311.848,300.135h-10.223v-2.059h10.223V300.135z M291.402,300.135h-10.227v-2.059h10.227V300.135z
				 M270.953,300.135H260.73v-2.059h10.223V300.135z M250.508,300.135h-10.225v-2.059h10.225V300.135z M230.061,300.135h-10.223
				v-2.059h10.223V300.135z M209.615,300.135h-10.223v-2.059h10.223V300.135z M189.166,300.135h-10.223v-2.059h10.223V300.135z
				 M168.721,300.135h-10.223v-2.059h10.223V300.135z M148.275,300.135h-10.225v-2.059h10.225V300.135z M127.828,300.135h-10.223
				v-2.059h10.223V300.135z M107.381,300.135H97.156v-2.059h10.225V300.135z M86.934,300.135H76.711v-2.059h10.223V300.135z
				 M66.488,300.135H56.266v-2.059h10.223V300.135z M46.041,300.135H35.818v-2.059h10.223V300.135z M25.594,300.135H15.371v-2.059
				h10.223V300.135z"/>
			<rect x="792.344" y="298.076" width="5.148" height="2.059"/>
		</g>
	</g>
</g>
</svg>
