<?xml version="1.0" encoding="utf-8"?>
<!-- Generator: Adobe Illustrator 15.0.2, SVG Export Plug-In . SVG Version: 6.00 Build 0)  -->
<!DOCTYPE svg PUBLIC "-//W3C//DTD SVG 1.1//EN" "http://www.w3.org/Graphics/SVG/1.1/DTD/svg11.dtd">
<svg version="1.1" id="Layer_3" xmlns="http://www.w3.org/2000/svg" xmlns:xlink="http://www.w3.org/1999/xlink" x="0px" y="0px"
	 width="800px" height="450px" viewBox="0 0 800 450" enable-background="new 0 0 800 450" xml:space="preserve">
<g>
	<g>
		<path d="M595.242,375.122c-0.122-0.142-3.111-3.675-11.807-20.345c-2.969-5.691-5.516-11.121-8.21-16.87
			c-5.183-11.05-11.054-23.573-21.629-41.36c-15.339-25.797-11.19-42.668-4.42-57.057c10.112-21.476,12.347-36.573,6.639-44.873
			c-1.746-2.54-4.258-5.928-7.166-9.849c-10.593-14.287-26.604-35.877-35.182-55.893c-4.665-10.887-5.734-18.744-3.262-24.019
			c2.398-5.125,7.66-6.694,11.501-7.841l0.425-0.127c7.854-2.353,13.07,11.414,13.614,12.918c0.93,1.48,12.562,19.892,20.52,28.147
			c8.664,8.988,15.883,19.164,18.842,26.558c2.781,6.951,11.271,14.09,11.359,14.16l-1.32,1.582
			c-0.365-0.304-8.975-7.537-11.952-14.978c-2.821-7.054-10.049-17.218-18.41-25.892c-8.405-8.719-20.339-27.773-20.845-28.582
			l-0.099-0.203c-1.331-3.794-5.902-13.295-11.117-11.738l-0.426,0.129c-3.663,1.092-8.22,2.451-10.228,6.738
			c-2.177,4.648-1.07,12.164,3.29,22.336c8.483,19.793,24.408,41.267,34.942,55.476c2.921,3.938,5.442,7.339,7.21,9.91
			c6.152,8.946,3.975,24.73-6.471,46.916c-6.083,12.924-11.266,28.911,4.325,55.128c10.625,17.872,16.522,30.445,21.724,41.537
			c2.684,5.729,5.222,11.139,8.171,16.792c8.511,16.313,11.514,19.921,11.543,19.955L595.242,375.122z"/>
		<path d="M632.168,170.274c-0.631-1.758-24.59-46.945-39.677-57.721c-7.161-5.114-14.04-10.576-20.108-15.395
			c-6.95-5.52-12.953-10.287-17.391-12.973c-7.502-4.541-14.635,6-14.707,6.108l-1.714-1.142
			c2.844-4.268,10.161-11.163,17.488-6.729c4.549,2.753,10.601,7.558,17.604,13.121c6.051,4.805,12.904,10.248,20.024,15.332
			c15.317,10.941,40.497,57.307,40.497,59.117h-2.06h1.029L632.168,170.274z"/>
		<path d="M654.089,342.376l-5.1-10.197c-5.804-14.769-3.012-35.948-0.975-51.411c0.854-6.489,1.595-12.094,1.595-16.069
			c0-8.015,4.212-21.926,7.929-34.2c2.666-8.808,5.185-17.125,5.185-20.435c0-4.867-4.707-14.055-10.154-24.69
			c-3.204-6.253-6.518-12.72-9.425-19.335c-8.483-19.275-14.127-29.142-25.136-36.657c-11.513-7.856-25.335-16.709-25.475-16.798
			l1.111-1.733c0.139,0.089,13.986,8.956,25.523,16.829c11.428,7.801,17.214,17.882,25.86,37.53
			c2.886,6.56,6.184,12.999,9.374,19.225c5.569,10.874,10.38,20.266,10.38,25.63c0,3.614-2.444,11.687-5.274,21.031
			c-3.674,12.138-7.84,25.896-7.84,33.604c0,4.111-0.748,9.778-1.612,16.339c-2.008,15.241-4.76,36.114,0.815,50.305l5.06,10.113
			L654.089,342.376z"/>
		<path d="M718.311,448.181c-0.156-0.286-15.53-28.718-29.889-48.102c-13.208-17.83-27.751-50.895-30.318-56.838
			c-7.569,3.015-58.871,23.811-64.074,35.517c-3.835,8.629-2.632,13.102,6.43,23.926c0.652,0.781,2.211,2.309,4.183,4.243
			c8.318,8.164,25.626,25.149,29.507,39.167l-1.984,0.551c-3.732-13.487-20.775-30.21-28.966-38.247
			c-2.089-2.052-3.599-3.533-4.32-4.391c-8.979-10.729-11.212-16.002-6.729-26.086c5.933-13.344,63.676-36.006,66.131-36.966
			l0.931-0.363l0.392,0.923c0.16,0.378,16.146,37.995,30.476,57.338c14.446,19.504,29.89,48.065,30.045,48.351L718.311,448.181z"/>
		<path d="M601.554,447.799l-2.049-0.213c1.23-11.9,0.308-21.341-0.432-28.926c-0.574-5.869-1.071-10.935-0.424-15.462l2.04,0.291
			c-0.614,4.282-0.129,9.235,0.433,14.97C601.872,426.137,602.805,435.691,601.554,447.799z"/>
		<path d="M586.271,446.367c-2.915-10.369-7.319-18.017-10.857-24.161c-4.487-7.793-7.729-13.423-5.123-19.504
			c3.498-8.162,15.014-24.006,21.566-32.723l0.386-0.517l0.829,0.593l0.965-0.414c0.235,0.55,0.042,0.808-0.535,1.575
			c-11.055,14.707-18.824,26.479-21.317,32.295c-2.201,5.137,0.669,10.12,5.016,17.667c3.594,6.243,8.068,14.012,11.054,24.63
			L586.271,446.367z"/>
		<path d="M678.661,378.927l-1.693-1.173l17.387-25.118c-0.797-3.324-5.452-23.064-6.135-33.234
			c-0.472-7.093-6.247-9.974-9.695-11.068c2.544,4.349,6.063,14.282-5.226,25.57l-10.424,10.418c-0.902,0.902-1.514,1.51-1.95,1.896
			l-0.708-0.703l0.708,0.703c-0.037,0.032-0.07,0.063-0.105,0.091l0.026,0.033l-0.029-0.027c-0.808,0.688-0.977,0.522-1.448,0.051
			l-0.729-0.726l0.845-0.851l0.005,0.001c0.447-0.443,2.662-2.65,12.354-12.342c13.666-13.666,3.954-24.587,3.536-25.045
			l-1.929-2.104l2.825,0.387c0.134,0.019,13.226,1.948,14,13.579c0.719,10.717,6.135,33.111,6.188,33.336l0.108,0.449
			L678.661,378.927z"/>
		<path d="M797.332,412.593c-44.358-7.009-59.495-26.475-67.627-36.934c-1.519-1.954-2.83-3.642-4.042-4.896
			c-7.766-8.032-30.346-16.871-30.572-16.96l0.746-1.918c0.943,0.366,23.229,9.089,31.306,17.446
			c1.29,1.335,2.634,3.063,4.189,5.063c8.515,10.952,22.768,29.282,66.321,36.165L797.332,412.593z"/>
		<path d="M671.544,333.216c-0.264-6.759-2.338-66.248,5.568-73.641c2.155-2.015,4.812-4.145,7.89-6.609
			c8.164-6.538,18.325-14.677,26.713-26.737c8.894-12.784,9.146-15.535,9.825-22.892c0.204-2.208,0.435-4.711,0.927-7.999
			c1.006-6.695,3.595-29.132-5.291-36.743c-3.142-2.693-7.53-3.184-13.049-1.46c-22.474,7.026-27.689,21.781-27.74,21.931
			l-0.149,0.285l-3.235,4.369c-0.549,0.742-1.32,1.039-2.108,0.82c-4.753-1.33-10.673-27.405-11.822-39.947
			c-0.614-6.691-3.499-12.585-6.835-19.408c-4.451-9.102-9.99-20.426-12.09-37.996c-3.674-30.729-24.388-36.947-44.422-42.961
			c-24.413-7.332-64.035,2.328-85.482,8.74c-28.489,8.518-42.853,35.698-42.996,35.972l-0.288,0.556h-0.625
			c-2.105,0-4.54-1.99-6.509-5.324c-3.583-6.061-5.791-16.73-0.22-26.859c1.185-2.152,2.421-4.725,3.73-7.447
			c7.676-15.953,19.275-40.061,52.925-51.775l0.678,1.945C484.095,11.468,472.72,35.11,465.19,50.757
			c-1.321,2.748-2.571,5.345-3.782,7.548c-5.152,9.368-3.12,19.224,0.188,24.817c1.491,2.521,3.071,3.864,4.182,4.219
			c2.424-4.275,17.066-28.332,43.874-36.347c21.668-6.479,61.739-16.227,86.666-8.739c20.668,6.205,42.04,12.62,45.874,44.688
			c2.058,17.224,7.283,27.909,11.894,37.335c3.428,7.008,6.386,13.059,7.036,20.125c1.421,15.488,7.716,37.31,10.326,38.153
			l3.037-4.296c0.628-1.727,6.444-16.031,29.026-23.09c6.238-1.953,11.287-1.327,15.003,1.859c9.688,8.302,7.033,31.653,5.99,38.613
			c-0.486,3.23-0.712,5.703-0.913,7.884c-0.694,7.53-0.982,10.647-10.185,23.877c-8.562,12.306-18.85,20.548-27.118,27.169
			c-3.045,2.439-5.673,4.544-7.771,6.506c-6.107,5.712-5.621,53.951-4.916,72.057L671.544,333.216z"/>
		<path d="M675.2,268.31l-0.553-1.983c16.321-4.56,31.913-16.915,45.082-35.729c8.472-12.1,9.646-21.502,11.425-35.736
			c1.371-10.963,3.078-24.607,8.828-44.098c8.496-28.791,4.672-61.943-11.363-98.532l-0.247-0.563
			c-3.957-9.043-33.243-10.334-44.198-10.061l-1.278,0.031l0.242-1.256c0.045-0.234,4.25-23.531-16.208-39.9l1.287-1.609
			c18.68,14.947,17.711,35.44,17.117,40.656c6.92-0.077,40.065,0.205,44.925,11.313l0.248,0.562
			c16.235,37.047,20.089,70.672,11.45,99.943c-5.704,19.328-7.396,32.88-8.758,43.77c-1.753,14.018-3.019,24.144-11.782,36.661
			C707.97,250.987,691.989,263.619,675.2,268.31z"/>
		<path d="M260.208,378.896l-1.733-1.111c2.392-3.727,5.052-9.135,8.136-15.397c8.416-17.097,18.891-38.377,32.555-43.296
			c13.744-4.948,34.745-28.184,48.641-43.561c4.288-4.742,7.99-8.84,10.713-11.562c6.668-6.668,8.67-14.809,10.985-24.237
			c1.591-6.469,3.394-13.802,7.03-21.376c9.271-19.32,20.994-33.338,28.504-34.089c5.015-0.501,5.505-8.093,5.505-11.048
			l-30.538,5.768c-2.521,1.455-37.3,22.089-38.67,51.519l-2.057-0.096c1.469-31.534,38.297-52.427,39.863-53.301l0.311-0.113
			l33.035-6.24l0.082,1.155c0.037,0.555,0.86,13.588-7.325,14.406c-6.618,0.661-18.161,14.818-26.854,32.931
			c-3.543,7.382-5.243,14.293-6.884,20.977c-2.392,9.727-4.457,18.126-11.53,25.202c-2.686,2.684-6.371,6.764-10.641,11.487
			c-14.035,15.526-35.243,38.993-49.473,44.113c-12.881,4.64-23.152,25.505-31.404,42.271
			C265.347,369.616,262.662,375.072,260.208,378.896z"/>
		<path d="M188.302,330.549l-1.524-1.385c0.412-0.453,41.144-45.457,43.971-61.729c2.204-12.668-3.688-37.417-7.21-52.204
			c-1.072-4.493-1.916-8.042-2.259-10.101c-1.504-9.012,22.994-33.148,25.794-35.873l1.436,1.477
			c-7.389,7.19-26.322,27.325-25.197,34.057c0.329,1.99,1.168,5.51,2.23,9.963c3.557,14.94,9.513,39.948,7.236,53.035
			C229.847,284.645,189.997,328.682,188.302,330.549z"/>
		<path d="M516.048,335.996c-8.521,0-14.532-2.729-20.695-5.524c-2.182-0.99-4.438-2.015-6.794-2.89
			c-16.427-6.099-21.256-30.114-25.134-49.409l-0.768-3.799c-2-9.74-5.463-19.999-8.813-29.918
			c-3.237-9.593-6.299-18.652-8.186-27.378c-3.907-18.079-0.106-27.425,0.056-27.814l1.901,0.797
			c-0.039,0.091-3.699,9.212,0.057,26.583c1.862,8.611,4.903,17.618,8.124,27.153c3.37,9.979,6.855,20.297,8.879,30.163l0.77,3.805
			c3.776,18.795,8.479,42.187,23.832,47.888c2.423,0.899,4.713,1.939,6.928,2.944c13.517,6.132,26.282,11.926,69.091-13.173
			l1.041,1.776C541.835,331.565,526.905,335.995,516.048,335.996z"/>
		<path d="M528.045,449.524l-0.633-0.903c-1.22-1.737-29.814-42.775-28.838-63.29c0.088-1.847,0.184-3.791,0.286-5.804
			c-1.259,5.923-2.222,17.502-2.356,30.147l-0.013,1.227l-1.206-0.226c-0.492-0.092-12.128-2.381-21.34-13.465
			c-9.26-11.144-11.057-35.51-5.586-44.886c5.21-8.934,32.199-20.542,33.346-21.031l0.385-0.166l0.392,0.151
			c0.994,0.388,0.994,0.388-0.626,30.569c-0.435,8.089-0.892,16.557-1.224,23.581c-0.866,18.186,23.582,54.859,27.839,61.1
			c5.736-4.638,38.116-30.838,42.407-34.745l1.388,1.522c-4.731,4.309-41.789,34.252-43.364,35.523L528.045,449.524z
			 M501.147,333.789c-5.613,2.505-26.772,12.311-31.009,19.573c-5.104,8.748-3.178,32.222,5.392,42.533
			c7.044,8.475,15.777,11.571,18.932,12.456c0.133-8.791,0.851-30.837,4.688-34.449c0.209-3.999,0.43-8.129,0.647-12.165
			C500.432,349.941,501.085,337.802,501.147,333.789z"/>
		<path d="M476.074,216.063c-2.994-3.574-4.302-7.491-3.891-11.641c0.861-8.702,8.943-15.287,9.289-15.562l1.29,1.605
			c-0.077,0.062-7.761,6.334-8.531,14.168c-0.353,3.576,0.801,6.977,3.421,10.108L476.074,216.063z"/>
		<path d="M536.57,208.868l-1.989-0.53c2.204-8.272-4.507-11.292-4.795-11.417l0.821-1.888
			C530.693,195.069,539.227,198.901,536.57,208.868z"/>
		<path d="M532.743,263.248c-6.27-2.497-17.184-6.225-19.778-5.562c-0.828,0.208-1.518,0.464-2.178,0.708
			c-2.547,0.936-4.745,1.744-11.498-0.237c-7.777-2.281-21.029,4.962-21.163,5.035l-0.994-1.803
			c0.573-0.316,14.145-7.727,22.736-5.21c6.104,1.795,7.916,1.126,10.206,0.281c0.725-0.266,1.481-0.543,2.389-0.771
			c4.098-1.035,19.318,4.958,21.042,5.645L532.743,263.248z"/>
		<path d="M503.981,268.411c-7.591,0-13.117-1.894-13.464-2.015l0.682-1.943c0.123,0.043,12.307,4.199,25.079-0.007l0.642,1.957
			C512.348,267.908,507.891,268.411,503.981,268.411z"/>
		<path d="M489.488,213.169c-0.188-1.357-3.639-1.996-7.709-1.432c-4.074,0.566-7.223,2.121-7.033,3.477
			c0.187,1.354,3.641,1.994,7.711,1.428C486.532,216.078,489.678,214.521,489.488,213.169z"/>
		<path d="M523.942,213.628c0.221-1.348-2.885-2.988-6.937-3.66c-4.057-0.67-7.528-0.121-7.752,1.227
			c-0.221,1.352,2.887,2.988,6.94,3.66C520.25,215.524,523.719,214.976,523.942,213.628z"/>
		<path d="M276.201,171.024c-13.958,0-25.311-15.004-25.311-33.447s11.353-33.447,25.311-33.447s25.312,15.004,25.312,33.447
			S290.159,171.024,276.201,171.024z M276.201,106.19c-12.821,0-23.251,14.079-23.251,31.387c0,17.307,10.43,31.389,23.251,31.389
			s23.253-14.082,23.253-31.389C299.454,120.27,289.022,106.19,276.201,106.19z"/>
		<path d="M276.201,190.692c-20.946,0-37.985-22.594-37.985-50.366s17.039-50.366,37.985-50.366s37.987,22.594,37.987,50.366
			S297.147,190.692,276.201,190.692z M276.201,92.02c-19.81,0-35.926,21.671-35.926,48.307c0,26.637,16.116,48.308,35.926,48.308
			c19.811,0,35.928-21.671,35.928-48.308C312.129,113.69,296.012,92.02,276.201,92.02z"/>
		<path d="M453.346,190.692c-20.947,0-37.988-22.594-37.988-50.366s17.041-50.366,37.988-50.366
			c20.944,0,37.984,22.594,37.984,50.366S474.29,190.692,453.346,190.692z M453.346,92.02c-19.812,0-35.928,21.671-35.928,48.307
			c0,26.637,16.116,48.308,35.928,48.308c19.808,0,35.925-21.671,35.925-48.308C489.271,113.69,473.153,92.02,453.346,92.02z"/>
		<path d="M453.348,171.024c-13.958,0-25.315-15.004-25.315-33.447s11.357-33.447,25.315-33.447
			c13.955,0,25.311,15.004,25.311,33.447S467.303,171.024,453.348,171.024z M453.348,106.19c-12.824,0-23.256,14.079-23.256,31.387
			c0,17.307,10.432,31.389,23.256,31.389c12.821,0,23.251-14.082,23.251-31.389C476.599,120.27,466.169,106.19,453.348,106.19z"/>
		<path d="M320.837,101.546c0,0,0,0-0.002,0c-6.66,0-19.244-5.441-21.296-10.145c-0.327-0.756-0.28-1.531,0.145-2.242
			c2.245-3.765,16.766-5.178,19.653-5.422l0.28-0.025l0.251,0.12c6.643,3.163,8.639,7.999,8.293,11.469
			c-0.301,2.994-2.25,5.292-5.088,6.001C322.425,101.466,321.673,101.546,320.837,101.546z M319.233,85.813
			c-6.742,0.596-16.545,2.328-17.779,4.4c-0.083,0.137-0.089,0.223-0.026,0.364c1.562,3.58,13.169,8.909,19.407,8.909
			c0.002,0,0.002,0,0.002,0c0.669,0,1.252-0.062,1.738-0.182c1.969-0.493,3.324-2.106,3.535-4.21
			C326.384,92.363,324.712,88.511,319.233,85.813z"/>
		<path d="M346.788,106.392c-11.788,0-20.711-7.609-21.119-7.963l1.348-1.557c0.102,0.089,10.389,8.838,22.875,7.266
			c5.02-0.633,9.576-4.791,10.375-9.467c0.632-3.699-1.219-6.859-5.213-8.91c-7.646-0.995-27.631-2.527-31.131,1.939l-1.621-1.27
			c4.879-6.237,30.312-3.072,33.195-2.689l0.325,0.1c4.907,2.455,7.269,6.527,6.475,11.176c-0.96,5.613-6.181,10.412-12.147,11.164
			C349.007,106.325,347.884,106.392,346.788,106.392z"/>
		<path d="M381.419,96.761c-4.471,0-9.455-0.782-11.695-1.244c-4.871-1.009-8.543-1.874-8.543-1.874l-0.795-0.187v-7.124
			l0.695-0.239c0.469-0.162,11.564-3.972,17.396-5.101c6.521-1.266,10.877,6.247,11.418,11.544c0.089,0.859-0.167,1.649-0.736,2.281
			C387.979,96.126,385.447,96.761,381.419,96.761z M362.445,91.821c1.327,0.307,4.201,0.955,7.694,1.679
			c2.016,0.415,6.967,1.202,11.279,1.202c4.578,0,5.869-0.885,6.213-1.264c0.181-0.201,0.245-0.408,0.215-0.693
			c-0.44-4.324-3.934-10.713-8.978-9.731c-4.871,0.943-13.866,3.927-16.424,4.79V91.821z"/>
		<rect x="282.03" y="89.96" width="18.454" height="2.06"/>
		<path d="M668.015,448.96l-0.883-1.858c29.761-14.136,29.935-14.136,32.822-14.027c1.238,0.045,3.121,0.115,9.795-1.628l0.52,1.993
			c-6.969,1.819-9.023,1.744-10.39,1.694C697.581,435.056,697.327,435.04,668.015,448.96z"/>
		<path d="M104.444,446.567l-2.021-0.398c2.681-13.591,25.449-27.182,28.392-28.886c1.188-2.408,9.709-19.393,22.134-36.162
			c13.212-17.835,27.949-52.52,28.099-52.867l0.39-0.924l0.932,0.365c2.267,0.885,55.558,21.795,61.042,34.138
			c4.15,9.339,2.087,14.218-6.219,24.141c-2.073,2.477-4.57,5.298-7.46,8.565c-1.632,1.844-3.396,3.839-5.302,6.015
			c-18.791,21.477-21.666,25.697-25.637,37.613l-1.952-0.651c4.085-12.267,7.005-16.562,26.038-38.317
			c1.906-2.18,3.678-4.179,5.311-6.025c2.879-3.255,5.367-6.066,7.423-8.521c8.33-9.953,9.437-14.062,5.915-21.982
			c-4.771-10.738-51.76-29.812-58.982-32.689c-2.454,5.673-15.809,35.986-27.941,52.367c-13.229,17.856-21.986,35.937-22.072,36.118
			l-0.142,0.289l-0.279,0.159C131.861,419.057,107.067,433.266,104.444,446.567z"/>
		<path d="M197.97,438.859l-0.306-2.036c36.438-5.456,38.77-44.003,37.718-51.365l2.039-0.291
			C238.52,392.863,236.079,433.153,197.97,438.859z"/>
		<path d="M248.821,446.369h-2.061c0-15.067,5.574-29.13,10.053-40.432c3.658-9.229,6.546-16.519,4.867-20.437
			c-3.383-7.891-14.35-13.996-17.631-15.68l-0.877-0.449l0.266-0.972l1.873,0.858l-0.938-0.43l0.505-0.897
			c3.548,1.82,15.04,8.236,18.694,16.759c2.015,4.696-1.014,12.336-4.846,22.008C254.313,417.834,248.821,431.695,248.821,446.369z"
			/>
		<path d="M212.786,447.298c-6.746-3.202-12.892-6.145-18.535-8.845c-28.657-13.719-44.445-21.275-59.885-25.304l0.521-1.992
			c15.632,4.079,31.481,11.664,60.253,25.438c5.642,2.701,11.786,5.642,18.529,8.842L212.786,447.298z"/>
		<path d="M276.616,447.312l-0.829-1.887c13.298-5.843,29.942-27.868,44.626-47.299c8.646-11.441,16.812-22.248,23.547-28.817
			c15.781-15.393,36.664-16.209,56.857-16.999c3.567-0.139,7.14-0.278,10.693-0.494c20.164-1.231,41.274-0.405,49.224-0.096
			c1.415,0.056,2.343,0.094,2.688,0.094v2.059c-0.354,0-1.31-0.037-2.769-0.094c-7.92-0.311-28.954-1.13-49.019,0.092
			c-3.567,0.218-7.155,0.358-10.737,0.498c-20.715,0.811-40.285,1.575-55.499,16.415c-6.625,6.46-14.744,17.207-23.342,28.583
			C307.22,419.001,290.404,441.252,276.616,447.312z"/>
		<path d="M439.643,95.538c-27.791,0-50.628-1.854-50.854-1.871l0.169-2.054c0.226,0.019,22.984,1.866,50.686,1.866V95.538z"/>
		<path d="M612.586,170.493c-0.117-0.21-11.814-21.242-30.438-40.58c-2.174-2.259-4.312-4.5-6.411-6.701
			c-16.069-16.844-29.944-31.39-41.916-34.54c-3.77-0.993-6.561-0.704-8.287,0.854c-2.912,2.625-2.098,8.135-2.088,8.191
			l0.169,1.095l-1.104,0.091c-18.071,1.443-49.116-0.207-49.428-0.224l0.11-2.058c0.304,0.018,30.048,1.601,48.106,0.307
			c-0.124-2.029-0.002-6.352,2.848-8.926c2.278-2.059,5.708-2.504,10.198-1.322c12.531,3.299,26.596,18.04,42.881,35.109
			c2.098,2.199,4.232,4.438,6.405,6.695c18.819,19.541,30.64,40.801,30.758,41.013L612.586,170.493z"/>
		<path d="M279.229,190.687l-0.226-2.047c1.197-0.131,119.879-13.179,144.555-19.641l0.521,1.993
			C399.259,177.491,280.425,190.556,279.229,190.687z"/>
		<path d="M453.516,190.679l-0.342-2.031c0.537-0.09,54.1-9.165,85.945-19.227l0.618,1.963
			C507.756,181.489,454.055,190.588,453.516,190.679z"/>
		<path d="M361.415,161.755c-4.82,0-8.221-1.217-10.394-3.722c-3.996-4.608-2.878-12.429-1.693-20.707
			c0.547-3.833,1.114-7.796,1.11-11.327c-0.006-4.78,2.232-8.51,6.475-10.785c6.502-3.488,16.188-2.68,18.537-1.592
			c2.645,0.243,30.513,2.734,45.67,1.312l0.19,2.051c-16.026,1.498-45.957-1.305-46.257-1.332l-0.258-0.024l-0.215-0.144
			c-1.084-0.704-10.497-1.821-16.756,1.575c-3.539,1.922-5.334,4.929-5.327,8.937c0.004,3.68-0.573,7.715-1.133,11.621
			c-1.114,7.799-2.167,15.168,1.213,19.066c1.758,2.025,4.648,3.012,8.837,3.012c3.395,0,9.646-0.84,16.883-1.812
			c14.432-1.938,32.394-4.355,40.555-1.878l-0.596,1.971c-7.734-2.346-25.451,0.036-39.686,1.948
			C371.263,160.907,364.95,161.755,361.415,161.755z"/>
	</g>
	<g>
		<path d="M266.861,442.461h-2.06v-10.297h2.06V442.461z M266.861,421.866h-2.06v-10.297h2.06V421.866z M266.861,401.272h-2.06
			v-10.298h2.06V401.272z M266.861,380.677h-2.06V370.38h2.06V380.677z M266.861,360.082h-2.06v-10.297h2.06V360.082z
			 M266.861,339.487h-2.06V329.19h2.06V339.487z M266.861,318.893h-2.06v-10.297h2.06V318.893z M266.861,298.299h-2.06v-10.297h2.06
			V298.299z M266.861,277.704h-2.06v-10.297h2.06V277.704z M266.861,257.109h-2.06v-10.298h2.06V257.109z M266.861,236.514h-2.06
			v-10.296h2.06V236.514z M266.861,215.921h-2.06v-10.298h2.06V215.921z M266.861,195.325h-2.06v-10.297h2.06V195.325z
			 M266.861,174.731h-2.06v-10.297h2.06V174.731z M266.861,154.136h-2.06v-10.297h2.06V154.136z M266.861,133.542h-2.06v-10.298
			h2.06V133.542z M266.861,112.947h-2.06v-10.298h2.06V112.947z M266.861,92.353h-2.06V82.055h2.06V92.353z M266.861,71.758h-2.06
			V61.46h2.06V71.758z M266.861,51.163h-2.06V40.866h2.06V51.163z M266.861,30.568h-2.06V20.271h2.06V30.568z M266.861,9.974h-2.06
			V-0.323h2.06V9.974z"/>
		<rect x="528.571" y="-1.911" width="6.18" height="451.911"/>
		<g>
			<rect y="297.707" width="5.148" height="2.06"/>
			<path d="M782.12,299.767h-10.223v-2.06h10.223V299.767z M761.675,299.767H751.45v-2.06h10.225V299.767z M741.227,299.767h-10.223
				v-2.06h10.223V299.767z M720.781,299.767h-10.223v-2.06h10.223V299.767z M700.334,299.767h-10.223v-2.06h10.223V299.767z
				 M679.888,299.767h-10.223v-2.06h10.223V299.767z M659.44,299.767h-10.223v-2.06h10.223V299.767z M638.994,299.767h-10.224v-2.06
				h10.224V299.767z M618.548,299.767h-10.225v-2.06h10.225V299.767z M598.101,299.767h-10.224v-2.06h10.224V299.767z
				 M577.654,299.767H567.43v-2.06h10.225V299.767z M557.207,299.767h-10.223v-2.06h10.223V299.767z M536.762,299.767h-10.223v-2.06
				h10.223V299.767z M516.314,299.767h-10.223v-2.06h10.223V299.767z M495.867,299.767h-10.223v-2.06h10.223V299.767z
				 M475.419,299.767h-10.222v-2.06h10.222V299.767z M454.975,299.767h-10.223v-2.06h10.223V299.767z M434.526,299.767h-10.223
				v-2.06h10.223V299.767z M414.081,299.767h-10.223v-2.06h10.223V299.767z M393.635,299.767h-10.226v-2.06h10.226V299.767z
				 M373.187,299.767h-10.223v-2.06h10.223V299.767z M352.741,299.767h-10.223v-2.06h10.223V299.767z M332.294,299.767H322.07v-2.06
				h10.224V299.767z M311.848,299.767h-10.224v-2.06h10.224V299.767z M291.399,299.767h-10.223v-2.06h10.223V299.767z
				 M270.954,299.767h-10.223v-2.06h10.223V299.767z M250.509,299.767h-10.226v-2.06h10.226V299.767z M230.061,299.767h-10.224
				v-2.06h10.224V299.767z M209.614,299.767h-10.223v-2.06h10.223V299.767z M189.167,299.767h-10.223v-2.06h10.223V299.767z
				 M168.722,299.767h-10.224v-2.06h10.224V299.767z M148.274,299.767H138.05v-2.06h10.225V299.767z M127.827,299.767h-10.223v-2.06
				h10.223V299.767z M107.382,299.767H97.157v-2.06h10.225V299.767z M86.934,299.767H76.71v-2.06h10.224V299.767z M66.487,299.767
				H56.265v-2.06h10.223V299.767z M46.04,299.767H35.817v-2.06H46.04V299.767z M25.595,299.767H15.371v-2.06h10.224V299.767z"/>
			<rect x="792.344" y="297.707" width="5.148" height="2.06"/>
		</g>
		<rect y="146.119" width="800" height="6.178"/>
	</g>
</g>
</svg>
