<?xml version="1.0" encoding="utf-8"?>
<!-- Generator: Adobe Illustrator 15.0.2, SVG Export Plug-In . SVG Version: 6.00 Build 0)  -->
<!DOCTYPE svg PUBLIC "-//W3C//DTD SVG 1.1//EN" "http://www.w3.org/Graphics/SVG/1.1/DTD/svg11.dtd">
<svg version="1.1" id="Layer_3" xmlns="http://www.w3.org/2000/svg" xmlns:xlink="http://www.w3.org/1999/xlink" x="0px" y="0px"
	 width="800px" height="450px" viewBox="0 0 800 450" enable-background="new 0 0 800 450" xml:space="preserve">
<g>
	<g>
		<path d="M533.52,442.157h-2.06v-10.298h2.06V442.157z M533.52,421.562h-2.06v-10.297h2.06V421.562z M533.52,400.969h-2.06V390.67
			h2.06V400.969z M533.52,380.373h-2.06v-10.298h2.06V380.373z M533.52,359.778h-2.06v-10.297h2.06V359.778z M533.52,339.184h-2.06
			v-10.298h2.06V339.184z M533.52,318.589h-2.06v-10.298h2.06V318.589z M533.52,297.994h-2.06v-10.298h2.06V297.994z M533.52,277.4
			h-2.06v-10.298h2.06V277.4z M533.52,256.806h-2.06v-10.298h2.06V256.806z M533.52,236.211h-2.06v-10.299h2.06V236.211z
			 M533.52,215.616h-2.06v-10.299h2.06V215.616z M533.52,195.021h-2.06v-10.297h2.06V195.021z M533.52,174.427h-2.06V164.13h2.06
			V174.427z M533.52,153.832h-2.06v-10.298h2.06V153.832z M533.52,133.237h-2.06V122.94h2.06V133.237z M533.52,112.643h-2.06
			v-10.298h2.06V112.643z M533.52,92.048h-2.06V81.751h2.06V92.048z M533.52,71.453h-2.06V61.156h2.06V71.453z M533.52,50.858h-2.06
			V40.562h2.06V50.858z M533.52,30.265h-2.06V19.967h2.06V30.265z M533.52,9.669h-2.06V-0.628h2.06V9.669z"/>
		<rect x="263.568" y="0.235" width="6.18" height="447.153"/>
		<g>
			<rect x="793.173" y="297.403" width="5.149" height="2.06"/>
			<path d="M782.95,299.463h-10.223v-2.06h10.223V299.463z M762.504,299.463h-10.223v-2.06h10.223V299.463z M742.057,299.463
				h-10.223v-2.06h10.223V299.463z M721.611,299.463h-10.225v-2.06h10.225V299.463z M701.162,299.463h-10.223v-2.06h10.223V299.463z
				 M680.717,299.463h-10.223v-2.06h10.223V299.463z M660.271,299.463h-10.225v-2.06h10.225V299.463z M639.823,299.463h-10.223
				v-2.06h10.223V299.463z M619.378,299.463h-10.224v-2.06h10.224V299.463z M598.93,299.463h-10.223v-2.06h10.223V299.463z
				 M578.484,299.463h-10.223v-2.06h10.223V299.463z M558.035,299.463h-10.223v-2.06h10.223V299.463z M537.59,299.463h-10.223v-2.06
				h10.223V299.463z M517.145,299.463h-10.226v-2.06h10.226V299.463z M496.696,299.463h-10.223v-2.06h10.223V299.463z
				 M476.251,299.463h-10.225v-2.06h10.225V299.463z M455.803,299.463H445.58v-2.06h10.223V299.463z M435.357,299.463h-10.223v-2.06
				h10.223V299.463z M414.909,299.463h-10.224v-2.06h10.224V299.463z M394.464,299.463h-10.223v-2.06h10.223V299.463z
				 M374.016,299.463h-10.223v-2.06h10.223V299.463z M353.57,299.463h-10.223v-2.06h10.223V299.463z M333.125,299.463h-10.226v-2.06
				h10.226V299.463z M312.677,299.463h-10.224v-2.06h10.224V299.463z M292.23,299.463h-10.225v-2.06h10.225V299.463z
				 M271.783,299.463h-10.223v-2.06h10.223V299.463z M251.337,299.463h-10.226v-2.06h10.226V299.463z M230.889,299.463h-10.223
				v-2.06h10.223V299.463z M210.443,299.463h-10.223v-2.06h10.223V299.463z M189.996,299.463h-10.223v-2.06h10.223V299.463z
				 M169.55,299.463h-10.224v-2.06h10.224V299.463z M149.102,299.463h-10.223v-2.06h10.223V299.463z M128.656,299.463h-10.223v-2.06
				h10.223V299.463z M108.209,299.463H97.985v-2.06h10.224V299.463z M87.762,299.463H77.539v-2.06h10.223V299.463z M67.316,299.463
				H57.092v-2.06h10.225V299.463z M46.869,299.463H36.646v-2.06h10.223V299.463z M26.424,299.463H16.197v-2.06h10.227V299.463z"/>
			<rect x="0.826" y="297.403" width="5.148" height="2.06"/>
		</g>
		<rect x="0.826" y="145.813" width="797.496" height="6.18"/>
	</g>
	<g>
		<path d="M592.637,447.958c-20.06-27.19-36.529-95.784-48.555-145.869c-2.648-11.032-5.15-21.452-7.379-30.11
			c-11.394-44.24-14.758-84.571-15.13-89.38l-12.948-9.589l1.225-1.655l13.711,10.151l0.031,0.474
			c0.031,0.422,3.072,42.76,15.107,89.487c2.231,8.673,4.735,19.1,7.387,30.141c11.984,49.913,28.396,118.274,48.207,145.127
			L592.637,447.958z"/>
		<polygon points="623.943,448.993 601.992,448.993 601.772,448.262 508.25,138.155 510.222,137.56 603.523,446.934 
			621.075,446.934 515.487,133.81 517.438,133.153 		"/>
		<path d="M508.945,137.901c-6.814,0-12.357-6.467-12.357-14.416s5.543-14.416,12.357-14.416c6.812,0,12.356,6.467,12.356,14.416
			S515.758,137.901,508.945,137.901z M508.945,111.129c-5.679,0-10.298,5.543-10.298,12.356c0,6.814,4.619,12.357,10.298,12.357
			c5.677,0,10.296-5.543,10.296-12.357C519.241,116.672,514.622,111.129,508.945,111.129z"/>
		<path d="M523.724,449l-0.294-0.556c-0.149-0.281-15.254-28.268-45.739-33.604c-7.43-1.302-13.686-2.967-19.735-4.575
			c-19.602-5.216-35.084-9.335-73.873,3.166c-50.979,16.431-151.554-4.844-170.809-36.136c-4.111-6.681-7.615-13.916-11.324-21.576
			c-12.875-26.6-26.188-54.104-65.695-56.258C59.945,295.301,0.59,216.15,0,215.353l1.655-1.226
			c0.585,0.792,59.378,79.17,134.712,83.278c40.717,2.219,54.3,30.279,67.438,57.416c3.685,7.612,7.166,14.802,11.223,21.394
			c18.477,30.028,119.221,51.114,168.423,35.256c39.367-12.687,55.895-8.291,75.034-3.198c6.007,1.6,12.219,3.253,19.562,4.538
			c29.065,5.09,44.552,30.058,46.893,34.118l54.184-0.589c-47.803-60.571-69.925-264.733-70.881-273.761
			c-0.999-1.244-6.939-7.977-20.102-10.369c-15.082-2.742-101.43-46.814-129.382-67.46c-26.614-19.657-66.403-38.242-81.874-38.242
			c-15.564,0-43.768-3.091-57.779-23.794c-13.883-20.507-16.844-31.756-16.963-32.226l1.996-0.508
			c0.029,0.111,3.026,11.422,16.672,31.579c13.479,19.916,40.918,22.889,56.074,22.889c15.818,0,56.203,18.781,83.097,38.645
			c27.817,20.547,113.586,64.375,128.527,67.092c15.342,2.788,21.323,11.053,21.57,11.404l0.155,0.221l0.027,0.268
			c0.22,2.15,22.612,215.692,71.796,274.61l1.39,1.664L523.724,449z"/>
		<path d="M2.777,110.788l-1.53-1.378c24.492-27.214,77.536-68.067,78.068-68.478l0.183-0.111
			c0.365-0.175,36.489-17.63,49.898-41.946l1.805,0.993c-13.375,24.256-48.557,41.71-50.715,42.763
			C78.084,44.481,26.692,84.218,2.777,110.788z"/>
	</g>
</g>
</svg>
