<?xml version="1.0" encoding="utf-8"?>
<!-- Generator: Adobe Illustrator 15.0.2, SVG Export Plug-In . SVG Version: 6.00 Build 0)  -->
<!DOCTYPE svg PUBLIC "-//W3C//DTD SVG 1.1//EN" "http://www.w3.org/Graphics/SVG/1.1/DTD/svg11.dtd">
<svg version="1.1" id="Layer_3" xmlns="http://www.w3.org/2000/svg" xmlns:xlink="http://www.w3.org/1999/xlink" x="0px" y="0px"
	 width="800px" height="450px" viewBox="0 0 800 450" enable-background="new 0 0 800 450" xml:space="preserve">
<g>
	<g>
		<path d="M533.527,442.786h-2.059v-10.298h2.059V442.786z M533.527,422.19h-2.059v-10.297h2.059V422.19z M533.527,401.597h-2.059
			v-10.298h2.059V401.597z M533.527,381.001h-2.059v-10.297h2.059V381.001z M533.527,360.406h-2.059v-10.297h2.059V360.406z
			 M533.527,339.812h-2.059v-10.296h2.059V339.812z M533.527,319.217h-2.059V308.92h2.059V319.217z M533.527,298.622h-2.059v-10.297
			h2.059V298.622z M533.527,278.027h-2.059V267.73h2.059V278.027z M533.527,257.434h-2.059v-10.297h2.059V257.434z M533.527,236.839
			h-2.059v-10.297h2.059V236.839z M533.527,216.244h-2.059v-10.297h2.059V216.244z M533.527,195.649h-2.059v-10.298h2.059V195.649z
			 M533.527,175.055h-2.059v-10.297h2.059V175.055z M533.527,154.46h-2.059v-10.297h2.059V154.46z M533.527,133.865h-2.059v-10.297
			h2.059V133.865z M533.527,113.271h-2.059v-10.298h2.059V113.271z M533.527,92.676h-2.059V82.379h2.059V92.676z M533.527,72.082
			h-2.059V61.784h2.059V72.082z M533.527,51.486h-2.059V41.189h2.059V51.486z M533.527,30.893h-2.059V20.596h2.059V30.893z
			 M533.527,10.299h-2.059V0h2.059V10.299z"/>
		<rect x="263.578" y="0.863" width="6.178" height="447.154"/>
		<g>
			<rect x="793.182" y="298.031" width="5.147" height="2.059"/>
			<path d="M782.959,300.09h-10.224v-2.059h10.224V300.09z M762.511,300.09h-10.222v-2.059h10.222V300.09z M742.064,300.09h-10.223
				v-2.059h10.223V300.09z M721.617,300.09h-10.223v-2.059h10.223V300.09z M701.171,300.09h-10.223v-2.059h10.223V300.09z
				 M680.726,300.09h-10.225v-2.059h10.225V300.09z M660.278,300.09h-10.224v-2.059h10.224V300.09z M639.832,300.09h-10.224v-2.059
				h10.224V300.09z M619.385,300.09h-10.224v-2.059h10.224V300.09z M598.938,300.09h-10.223v-2.059h10.223V300.09z M578.491,300.09
				h-10.224v-2.059h10.224V300.09z M558.044,300.09h-10.223v-2.059h10.223V300.09z M537.598,300.09h-10.223v-2.059h10.223V300.09z
				 M517.151,300.09h-10.224v-2.059h10.224V300.09z M496.705,300.09h-10.224v-2.059h10.224V300.09z M476.258,300.09h-10.225v-2.059
				h10.225V300.09z M455.811,300.09h-10.223v-2.059h10.223V300.09z M435.364,300.09h-10.224v-2.059h10.224V300.09z M414.918,300.09
				h-10.223v-2.059h10.223V300.09z M394.472,300.09h-10.224v-2.059h10.224V300.09z M374.024,300.09h-10.223v-2.059h10.223V300.09z
				 M353.579,300.09h-10.225v-2.059h10.225V300.09z M333.132,300.09h-10.224v-2.059h10.224V300.09z M312.685,300.09h-10.224v-2.059
				h10.224V300.09z M292.238,300.09h-10.225v-2.059h10.225V300.09z M271.791,300.09h-10.224v-2.059h10.224V300.09z M251.345,300.09
				h-10.224v-2.059h10.224V300.09z M230.898,300.09h-10.223v-2.059h10.223V300.09z M210.451,300.09h-10.223v-2.059h10.223V300.09z
				 M190.005,300.09h-10.224v-2.059h10.224V300.09z M169.558,300.09h-10.223v-2.059h10.223V300.09z M149.111,300.09h-10.223v-2.059
				h10.223V300.09z M128.664,300.09h-10.223v-2.059h10.223V300.09z M108.217,300.09H97.994v-2.059h10.223V300.09z M87.771,300.09
				H77.548v-2.059h10.224V300.09z M67.325,300.09H57.101v-2.059h10.225V300.09z M46.878,300.09H36.654v-2.059h10.224V300.09z
				 M26.431,300.09H16.207v-2.059h10.224V300.09z"/>
			<rect x="0.836" y="298.031" width="5.148" height="2.059"/>
		</g>
		<path d="M798.329,150.562h-10.297v-2.06h10.297V150.562z M777.735,150.562h-10.297v-2.06h10.297V150.562z M757.141,150.562
			h-10.297v-2.06h10.297V150.562z M736.546,150.562h-10.297v-2.06h10.297V150.562z M715.951,150.562h-10.296v-2.06h10.296V150.562z
			 M695.356,150.562H685.06v-2.06h10.297V150.562z M674.762,150.562h-10.297v-2.06h10.297V150.562z M654.167,150.562h-10.296v-2.06
			h10.296V150.562z M633.573,150.562h-10.297v-2.06h10.297V150.562z M612.979,150.562h-10.297v-2.06h10.297V150.562z
			 M592.384,150.562h-10.298v-2.06h10.298V150.562z M571.789,150.562h-10.298v-2.06h10.298V150.562z M551.194,150.562h-10.297v-2.06
			h10.297V150.562z M530.6,150.562h-10.298v-2.06H530.6V150.562z M510.006,150.562h-10.298v-2.06h10.298V150.562z M489.411,150.562
			h-10.298v-2.06h10.298V150.562z M468.815,150.562h-10.298v-2.06h10.298V150.562z M448.221,150.562h-10.297v-2.06h10.297V150.562z
			 M427.627,150.562h-10.298v-2.06h10.298V150.562z M407.032,150.562h-10.297v-2.06h10.297V150.562z M386.438,150.562h-10.297v-2.06
			h10.297V150.562z M365.843,150.562h-10.297v-2.06h10.297V150.562z M345.249,150.562h-10.298v-2.06h10.298V150.562z
			 M324.653,150.562h-10.297v-2.06h10.297V150.562z M304.06,150.562h-10.298v-2.06h10.298V150.562z M283.465,150.562h-10.298v-2.06
			h10.298V150.562z M262.869,150.562h-10.297v-2.06h10.297V150.562z M242.275,150.562h-10.298v-2.06h10.298V150.562z
			 M221.681,150.562h-10.298v-2.06h10.298V150.562z M201.086,150.562h-10.298v-2.06h10.298V150.562z M180.491,150.562h-10.297v-2.06
			h10.297V150.562z M159.896,150.562H149.6v-2.06h10.297V150.562z M139.302,150.562h-10.297v-2.06h10.297V150.562z M118.708,150.562
			H108.41v-2.06h10.298V150.562z M98.112,150.562H87.815v-2.06h10.297V150.562z M77.519,150.562H67.221v-2.06h10.298V150.562z
			 M56.924,150.562H46.627v-2.06h10.297V150.562z M36.329,150.562H26.031v-2.06h10.298V150.562z M15.734,150.562H5.438v-2.06h10.297
			V150.562z"/>
	</g>
	<g>
		<path d="M1.635,161.075L0,159.824c1.981-2.588,48.753-63.511,69.279-75.828c21.463-12.877,85.185-39.688,128.955-52.621
			c44.348-13.103,94.709-14.924,102.834-9.118c7.148,5.105,12.349,9.259,12.401,9.3l-1.287,1.609
			c-0.051-0.041-5.212-4.163-12.312-9.234c-6.753-4.823-55.179-4.137-101.054,9.417C155.182,46.243,91.701,72.945,70.339,85.762
			C50.148,97.876,2.118,160.445,1.635,161.075z"/>
		<path d="M124.766,105.435l-0.761-1.915c1.845-0.731,184.636-73.235,207.086-79.358c20.336-5.541,67.2,19.617,95.198,34.653
			c3.616,1.943,6.842,3.674,9.551,5.088c22.635,11.816,37.809,35.267,37.959,35.501l-1.734,1.11
			c-0.148-0.231-15.038-23.229-37.178-34.785c-2.715-1.418-5.947-3.154-9.571-5.101c-25.911-13.915-74.133-39.812-93.685-34.48
			C309.292,32.241,126.607,104.704,124.766,105.435z"/>
		<path d="M171.662,451.59l-0.619-1.963c9.855-3.113,28.27-22.521,49.593-44.992c20.06-21.145,42.797-45.109,63.764-61.084
			c41.528-31.639,70.225-46.902,148.619-69.543c76.926-22.215,84.446-37.836,81.659-50.187
			c-2.994-13.27-15.735-16.256-52.431-12.291c-10.313,1.115-19.84,1.776-29.054,2.415c-25.092,1.741-46.762,3.244-73.68,12.932
			c-36.698,13.209-82.03,24.338-82.484,24.449l-4.543,1.109l3.657-2.916c0.525-0.418,52.966-42.179,88.634-65.611
			c26.323-17.294,46.93-17.723,70.791-18.22c9.003-0.187,18.312-0.38,28.514-1.514c34.344-3.815,56.685-10.187,61.933-30.131
			c4.742-18.026-0.214-19.331-32.46-27.821l-2.848-0.75c-21.618-5.702-93.999-23.575-117.778-14.179
			c-21.349,8.438-134.725,61.324-135.867,61.856l-0.871-1.866c1.144-0.533,114.575-53.445,135.982-61.905
			c24.356-9.633,97.288,8.359,119.059,14.102l2.847,0.75c32.444,8.542,39.195,10.318,33.927,30.337
			c-5.547,21.082-28.483,27.741-63.695,31.653c-10.295,1.144-19.65,1.338-28.698,1.526c-23.543,0.49-43.875,0.912-69.704,17.882
			c-30.048,19.74-72.055,52.542-84.724,62.526c12.5-3.189,47.913-12.521,77.631-23.217c27.189-9.786,48.992-11.297,74.237-13.049
			c9.193-0.637,18.699-1.296,28.974-2.408c38.076-4.112,51.358-0.743,54.661,13.886c3.149,13.954-4.735,29.987-83.097,52.618
			c-78.682,22.723-105.95,37.209-147.942,69.205c-20.835,15.873-43.511,39.773-63.519,60.857
			C200.61,428.73,182.026,448.316,171.662,451.59z"/>
		<path d="M477.557,246.525c-4.839,0-8.39-1.332-10.551-3.957l-0.203-0.246l-0.027-0.316c-0.017-0.168-1.561-16.977-3.569-24.009
			l-0.271-0.952l0.941-0.309c0.404-0.133,10.035-3.24,22.809-3.24c3.273,0,6.491,0.21,9.569,0.624
			c7.818,1.05,13.388,4.957,14.899,10.449c1.161,4.218-0.371,8.5-4.1,11.458C501.648,240.316,488.031,246.525,477.557,246.525z
			 M468.795,241.49c1.777,1.975,4.724,2.973,8.762,2.973c9.635,0,22.928-5.852,28.218-10.049c3.06-2.428,4.327-5.904,3.394-9.299
			c-1.285-4.67-6.216-8.017-13.187-8.954c-2.988-0.401-6.115-0.605-9.297-0.605c-10.216,0-18.527,2.092-21.233,2.859
			C467.246,225.523,468.573,239.133,468.795,241.49z"/>
		<path d="M504.277,139.166c-2.98,0-12.997-0.302-16.672-4.19c-0.922-0.977-1.356-2.087-1.286-3.302
			c0.475-8.377-7.518-24.515-7.598-24.677l-0.876-1.756l1.942,0.277c7.468,1.067,36.736,8.406,42.271,11.132
			c5.945,2.931,2.233,15.128,2.072,15.646C523.227,137.007,513.502,139.166,504.277,139.166z M481.427,107.879
			c2.126,4.563,7.361,16.63,6.948,23.912c-0.036,0.635,0.202,1.214,0.728,1.771c2.035,2.153,7.991,3.545,15.175,3.545
			c9.439,0,17.282-2.333,17.86-5.312c0.977-3.17,2.644-11.507-0.989-13.296C516.12,116.02,490.942,109.634,481.427,107.879z"/>
		<rect x="57.807" y="29.925" transform="matrix(0.6945 0.7195 -0.7195 0.6945 51.9325 -60.4031)" width="78.58" height="2.06"/>
		<rect x="21.767" y="35.153" transform="matrix(0.6915 0.7224 -0.7224 0.6915 47.16 -38.0579)" width="92.737" height="2.059"/>
		
			<rect x="150.738" y="17.494" transform="matrix(0.7428 0.6695 -0.6695 0.7428 57.2584 -111.9957)" width="47.309" height="2.061"/>
		<path d="M535.3,207.985c-4.655,0-7.308-2.026-12.123-5.703c-1.503-1.149-3.24-2.477-5.347-3.981
			c-5.648-4.035-8.466-8.014-8.372-11.826c0.1-4.051,3.465-6.262,3.608-6.354l0.231-0.11l51.485-17.162
			c1.603-0.534,3.219-0.804,4.806-0.804c6.035,0,9.755,3.824,9.91,3.987l15.655,14.368c1.68,1.727,1.702,3.322,1.433,4.363
			c-1.693,6.543-20.404,12.192-40.21,18.173l-3.324,1.005C544.009,206.681,539.045,207.985,535.3,207.985z M514.089,181.917
			c-0.457,0.336-2.519,1.992-2.572,4.629c-0.062,3.04,2.535,6.524,7.511,10.078c2.127,1.519,3.883,2.86,5.401,4.02
			c4.746,3.626,6.913,5.281,10.871,5.281c3.486,0,8.31-1.275,17.155-3.956l3.325-1.005c16.667-5.032,37.408-11.295,38.812-16.717
			c0.129-0.499,0.18-1.286-0.873-2.37l-15.663-14.375c-0.078-0.079-3.342-3.397-8.468-3.397c-1.365,0-2.762,0.234-4.153,0.697
			L514.089,181.917z"/>
		<path d="M474.288,350.154c-4.655,0-7.31-2.027-12.123-5.705c-1.504-1.15-3.241-2.477-5.348-3.98
			c-5.648-4.035-8.466-8.014-8.372-11.826c0.099-4.051,3.466-6.262,3.608-6.352l0.23-0.111l51.487-17.162
			c1.601-0.535,3.217-0.805,4.806-0.805c6.033,0,9.754,3.824,9.909,3.986l15.461,15.678c1.322,1.361,1.796,2.791,1.41,4.256
			c-1.497,5.688-16.662,10.133-34.222,15.281c-3.035,0.889-6.097,1.785-9.097,2.695C482.995,348.85,478.033,350.154,474.288,350.154
			z M453.077,324.086c-0.459,0.336-2.521,1.992-2.572,4.629c-0.062,3.039,2.534,6.523,7.51,10.078
			c2.128,1.52,3.883,2.861,5.401,4.02c4.747,3.627,6.913,5.281,10.872,5.281c3.486,0,8.309-1.273,17.154-3.957
			c3.006-0.91,6.072-1.809,9.114-2.699c14.815-4.344,31.609-9.268,32.809-13.828c0.123-0.465,0.163-1.209-0.889-2.291
			l-15.468-15.684c-0.042-0.043-3.306-3.361-8.432-3.361c-1.365,0-2.764,0.234-4.154,0.697L453.077,324.086z"/>
		<path d="M510.924,386.02c-4.655,0-7.309-2.025-12.123-5.703c-1.503-1.148-3.241-2.477-5.347-3.98
			c-5.649-4.035-8.467-8.016-8.373-11.826c0.099-4.051,3.466-6.264,3.609-6.354l0.23-0.111l51.486-17.16
			c1.601-0.535,3.218-0.805,4.806-0.805c6.035,0,9.754,3.824,9.909,3.986l15.462,15.678c1.323,1.361,1.795,2.793,1.409,4.258
			c-1.497,5.684-16.662,10.131-34.221,15.277c-3.036,0.891-6.097,1.787-9.098,2.697C519.633,384.717,514.669,386.02,510.924,386.02z
			 M489.713,359.953c-0.459,0.336-2.521,1.992-2.572,4.629c-0.062,3.039,2.535,6.523,7.511,10.078c2.127,1.52,3.883,2.859,5.4,4.02
			c4.747,3.625,6.913,5.281,10.872,5.281c3.486,0,8.309-1.273,17.154-3.957c3.006-0.91,6.072-1.809,9.114-2.701
			c14.815-4.344,31.609-9.266,32.809-13.826c0.123-0.465,0.164-1.209-0.888-2.291l-15.469-15.684
			c-0.042-0.045-3.306-3.363-8.432-3.363c-1.365,0-2.764,0.234-4.154,0.697L489.713,359.953z"/>
		<path d="M600.211,360.332c-4.655,0-7.307-2.025-12.123-5.703c-1.503-1.15-3.24-2.477-5.346-3.982
			c-5.649-4.033-8.467-8.012-8.373-11.824c0.099-4.053,3.465-6.262,3.608-6.354l0.231-0.111l51.486-17.162
			c1.602-0.533,3.219-0.805,4.806-0.805c6.034,0,9.753,3.826,9.909,3.988l15.463,15.678c1.322,1.359,1.794,2.791,1.408,4.256
			c-1.496,5.688-16.662,10.131-34.222,15.279c-3.036,0.891-6.096,1.787-9.096,2.695C608.92,359.029,603.956,360.332,600.211,360.332
			z M579.001,334.264c-0.458,0.336-2.52,1.992-2.573,4.629c-0.062,3.039,2.535,6.523,7.511,10.08c2.127,1.518,3.883,2.859,5.4,4.02
			c4.747,3.625,6.914,5.281,10.872,5.281c3.486,0,8.31-1.275,17.154-3.957c3.007-0.91,6.072-1.809,9.115-2.703
			c14.815-4.342,31.609-9.264,32.81-13.824c0.122-0.465,0.163-1.209-0.889-2.293l-15.47-15.684
			c-0.042-0.043-3.306-3.361-8.431-3.361c-1.366,0-2.763,0.234-4.154,0.699L579.001,334.264z"/>
		<path d="M553.415,424.273c-4.655,0-7.308-2.025-12.123-5.703c-1.503-1.148-3.241-2.477-5.346-3.982
			c-5.649-4.033-8.467-8.014-8.373-11.824c0.098-4.053,3.465-6.262,3.608-6.354l0.23-0.111l51.487-17.16
			c1.6-0.535,3.218-0.805,4.806-0.805c6.034,0,9.753,3.824,9.908,3.986l15.463,15.678c1.322,1.361,1.794,2.791,1.409,4.258
			c-1.497,5.686-16.663,10.129-34.222,15.279c-3.036,0.887-6.097,1.785-9.098,2.693C562.123,422.969,557.16,424.273,553.415,424.273
			z M532.204,398.207c-0.458,0.334-2.52,1.99-2.572,4.629c-0.062,3.039,2.535,6.523,7.511,10.078c2.127,1.518,3.883,2.861,5.4,4.018
			c4.747,3.627,6.914,5.281,10.872,5.281c3.486,0,8.31-1.273,17.154-3.955c3.007-0.91,6.073-1.811,9.114-2.701
			c14.815-4.344,31.609-9.266,32.81-13.826c0.122-0.465,0.164-1.209-0.889-2.291l-15.469-15.686
			c-0.042-0.043-3.306-3.361-8.431-3.361c-1.365,0-2.765,0.234-4.155,0.699L532.204,398.207z"/>
		<path d="M605.661,165.775c-4.655,0-7.31-2.026-12.123-5.703c-1.504-1.15-3.24-2.478-5.347-3.982
			c-5.649-4.034-8.466-8.013-8.372-11.825c0.098-4.052,3.465-6.262,3.607-6.354l0.23-0.111l51.487-17.162
			c1.601-0.534,3.218-0.805,4.806-0.805c6.034,0,9.753,3.825,9.909,3.988l15.461,15.677c1.323,1.361,1.796,2.792,1.41,4.257
			c-1.497,5.686-16.662,10.132-34.222,15.279c-3.035,0.89-6.097,1.787-9.097,2.696C614.369,164.471,609.406,165.775,605.661,165.775
			z M584.45,139.708c-0.459,0.336-2.521,1.992-2.572,4.63c-0.062,3.039,2.534,6.523,7.51,10.078
			c2.128,1.519,3.883,2.859,5.401,4.019c4.747,3.626,6.914,5.282,10.872,5.282c3.486,0,8.309-1.275,17.154-3.956
			c3.006-0.911,6.072-1.81,9.114-2.702c14.815-4.343,31.608-9.266,32.81-13.826c0.121-0.465,0.162-1.209-0.89-2.292l-15.469-15.684
			c-0.042-0.044-3.305-3.362-8.431-3.362c-1.365,0-2.764,0.234-4.153,0.697L584.45,139.708z"/>
		<path d="M567.402,134.354c-4.656,0-7.309-2.026-12.122-5.704c-1.504-1.149-3.242-2.477-5.348-3.981
			c-5.649-4.034-8.466-8.014-8.373-11.826c0.099-4.052,3.466-6.262,3.608-6.354l0.231-0.111l51.485-17.162
			c1.602-0.533,3.219-0.804,4.807-0.804c6.033,0,9.754,3.824,9.908,3.988l15.463,15.677c1.322,1.361,1.795,2.792,1.409,4.257
			c-1.496,5.686-16.662,10.132-34.222,15.279c-3.036,0.89-6.096,1.787-9.097,2.696C576.11,133.049,571.147,134.354,567.402,134.354z
			 M546.192,108.285c-0.459,0.336-2.521,1.993-2.574,4.63c-0.062,3.04,2.535,6.523,7.511,10.078c2.126,1.519,3.883,2.86,5.401,4.02
			c4.745,3.626,6.912,5.281,10.872,5.281c3.486,0,8.309-1.275,17.153-3.956c3.007-0.911,6.073-1.81,9.115-2.702
			c14.815-4.344,31.608-9.266,32.808-13.826c0.124-0.466,0.165-1.209-0.887-2.292l-15.469-15.685
			c-0.043-0.043-3.307-3.361-8.432-3.361c-1.366,0-2.764,0.234-4.154,0.698L546.192,108.285z"/>
		<path d="M526.84,103.62c-4.655,0-7.308-2.026-12.123-5.705c-1.503-1.149-3.24-2.477-5.347-3.981
			c-5.648-4.034-8.467-8.014-8.372-11.826c0.1-4.051,3.465-6.261,3.607-6.353l0.232-0.111l51.485-17.162
			c1.603-0.534,3.219-0.804,4.806-0.804c6.035,0,9.755,3.824,9.91,3.987l15.462,15.677c1.322,1.36,1.795,2.792,1.408,4.257
			c-1.495,5.686-16.661,10.131-34.221,15.279c-3.036,0.89-6.097,1.787-9.097,2.696C535.549,102.315,530.586,103.62,526.84,103.62z
			 M505.63,77.551c-0.458,0.336-2.52,1.992-2.573,4.63c-0.062,3.039,2.535,6.523,7.511,10.078c2.127,1.519,3.883,2.861,5.401,4.02
			c4.746,3.626,6.912,5.281,10.871,5.281c3.487,0,8.31-1.275,17.154-3.956c3.007-0.911,6.072-1.81,9.114-2.702
			c14.816-4.343,31.609-9.266,32.81-13.826c0.122-0.466,0.163-1.208-0.888-2.292L569.561,63.1c-0.042-0.043-3.306-3.361-8.432-3.361
			c-1.365,0-2.762,0.234-4.153,0.698L505.63,77.551z"/>
		<path d="M489.012,72.44c-4.655,0-7.309-2.026-12.123-5.704c-1.503-1.149-3.241-2.477-5.347-3.981
			c-5.648-4.034-8.466-8.013-8.373-11.826c0.1-4.051,3.466-6.262,3.609-6.353l0.23-0.111l51.486-17.162
			c1.602-0.534,3.218-0.805,4.806-0.805c6.034,0,9.754,3.825,9.909,3.987l15.462,15.678c1.322,1.36,1.795,2.792,1.409,4.256
			c-1.496,5.686-16.662,10.131-34.221,15.279c-3.036,0.891-6.097,1.787-9.097,2.697C497.72,71.136,492.757,72.44,489.012,72.44z
			 M467.802,46.372c-0.459,0.336-2.521,1.992-2.574,4.63c-0.062,3.039,2.536,6.523,7.511,10.078c2.128,1.519,3.884,2.86,5.401,4.02
			c4.746,3.626,6.913,5.281,10.872,5.281c3.486,0,8.31-1.276,17.154-3.957c3.006-0.911,6.072-1.81,9.114-2.702
			c14.815-4.343,31.609-9.266,32.809-13.826c0.123-0.466,0.164-1.208-0.888-2.292L531.732,31.92
			c-0.042-0.043-3.306-3.361-8.432-3.361c-1.366,0-2.763,0.234-4.154,0.698L467.802,46.372z"/>
		<path d="M668.015,113.603c-4.063,0-6.854-1.844-11.475-4.898c-1.579-1.043-3.403-2.25-5.607-3.606
			c-5.912-3.639-8.993-7.416-9.16-11.225c-0.179-4.05,3.028-6.484,3.165-6.585l0.224-0.127l50.192-20.64
			c1.878-0.772,3.797-1.165,5.701-1.165c5.484,0,9.049,3.199,9.197,3.335l16.496,14.583c1.414,1.268,1.981,2.663,1.697,4.151
			c-1.105,5.775-15.932,11.247-33.101,17.582c-2.967,1.095-5.958,2.199-8.889,3.31C676.826,111.972,671.879,113.603,668.015,113.603
			z M646.081,89.009c-0.435,0.367-2.378,2.16-2.251,4.796c0.146,3.036,2.975,6.334,8.182,9.54c2.226,1.37,4.068,2.587,5.663,3.641
			c4.591,3.034,6.896,4.557,10.34,4.557c3.542,0,8.325-1.589,17.711-5.149c2.937-1.114,5.934-2.22,8.907-3.317
			c14.484-5.346,30.903-11.405,31.789-16.038c0.09-0.472,0.082-1.217-1.043-2.226l-16.504-14.589
			c-0.042-0.038-3.16-2.807-7.82-2.807c-1.635,0-3.289,0.34-4.918,1.01L646.081,89.009z"/>
		<path d="M753.304,179.846c-16.42,0.003-38.446-20.703-52.219-33.647c-3.114-2.927-5.805-5.456-7.931-7.281
			c-6.49-5.579-9.566-10.577-9.145-14.854c0.364-3.718,3.26-5.393,3.383-5.461l50.307-20.695c8.54-3.512,14.644,1.936,14.898,2.17
			l45.968,35.07l-1.249,1.637l-46.038-35.129c-0.286-0.252-5.491-4.849-12.796-1.844l-50.193,20.64l0,0
			c0.02,0-1.991,1.208-2.234,3.851c-0.226,2.45,1.057,6.706,8.442,13.053c2.16,1.857,4.865,4.4,7.997,7.343
			c15.127,14.217,40.445,38.006,55.844,32.237l39.559-17.427l0.83,1.885l-39.612,17.449
			C757.281,179.529,755.335,179.846,753.304,179.846z"/>
		<path d="M631.869,81.678c-4.064,0-6.854-1.843-11.475-4.897c-1.579-1.044-3.403-2.25-5.607-3.606
			c-5.91-3.64-8.992-7.416-9.16-11.226c-0.179-4.049,3.029-6.484,3.166-6.586l0.224-0.126l50.192-20.64
			c1.877-0.772,3.795-1.164,5.7-1.164c5.484,0,9.049,3.199,9.197,3.334l16.497,14.583c1.412,1.268,1.981,2.663,1.695,4.151
			c-1.104,5.775-15.931,11.247-33.1,17.582c-2.967,1.095-5.958,2.2-8.889,3.311C640.682,80.048,635.734,81.678,631.869,81.678z
			 M609.937,57.085c-0.435,0.367-2.378,2.16-2.252,4.796c0.146,3.036,2.976,6.334,8.184,9.54c2.225,1.371,4.066,2.587,5.661,3.642
			c4.591,3.033,6.895,4.556,10.34,4.556c3.542,0,8.327-1.588,17.713-5.149c2.935-1.114,5.932-2.22,8.904-3.317
			c14.485-5.346,30.904-11.405,31.791-16.037c0.089-0.473,0.081-1.218-1.044-2.227l-16.504-14.59
			c-0.041-0.037-3.16-2.806-7.82-2.806c-1.635,0-3.29,0.34-4.917,1.009L609.937,57.085z"/>
		<path d="M596.861,50.499c-3.828,0-6.447-1.731-10.788-4.6c-1.479-0.978-3.188-2.107-5.253-3.378
			c-5.56-3.422-8.457-6.979-8.614-10.572c-0.17-3.828,2.862-6.13,2.991-6.226l0.224-0.127l47.035-19.341
			c1.768-0.728,3.573-1.097,5.366-1.097c5.164,0,8.521,3.013,8.662,3.142l15.457,13.665c1.344,1.205,1.883,2.532,1.61,3.951
			c-1.041,5.449-14.953,10.582-31.062,16.525c-2.777,1.026-5.58,2.06-8.324,3.101C605.135,48.969,600.492,50.499,596.861,50.499z
			 M576.343,27.444c-0.415,0.352-2.196,2.011-2.079,4.436c0.136,2.823,2.777,5.896,7.637,8.887c2.086,1.284,3.813,2.426,5.309,3.414
			c4.289,2.835,6.443,4.258,9.652,4.258c3.309,0,7.786-1.487,16.574-4.822c2.75-1.043,5.559-2.08,8.342-3.107
			c13.56-5.004,28.929-10.675,29.752-14.98c0.081-0.427,0.072-1.103-0.957-2.026L635.107,9.833
			c-0.039-0.036-2.946-2.613-7.285-2.613c-1.523,0-3.065,0.317-4.584,0.941L576.343,27.444z"/>
		<path d="M785.275,75.92c-4.455,0-8.382-2.168-17.408-7.244c-6.05-3.403-9.28-7.056-9.597-10.856
			c-0.338-4.039,2.771-6.598,2.903-6.706l0.218-0.134l36.119-16.551l0.858,1.872L762.385,52.79c-0.42,0.384-2.291,2.253-2.061,4.881
			c0.266,3.028,3.223,6.212,8.553,9.209c15.041,8.461,15.042,8.462,28.734,3.836l0.659,1.951
			C792.141,74.737,788.564,75.92,785.275,75.92z"/>
		<path d="M745.863,43.818c-5.396,0-9.174-2.125-15.375-5.611c-6.051-3.402-9.279-7.055-9.598-10.855
			c-0.338-4.04,2.771-6.599,2.905-6.707l0.217-0.135l41.88-19.19l0.858,1.873L725.006,22.32c-0.421,0.384-2.292,2.254-2.062,4.881
			c0.267,3.028,3.224,6.213,8.554,9.209c15,8.436,15.001,8.437,66.045-12.948l0.796,1.898
			C766.66,38.635,754.289,43.818,745.863,43.818z"/>
		<rect x="790.163" y="4.859" transform="matrix(0.7749 0.6321 -0.6321 0.7749 182.6104 -500.9373)" width="8.766" height="2.059"/>
		<path d="M710.564,14.663c-7.907,0-15.34-3.528-26.044-11.584l1.238-1.646c21.342,16.065,28.579,13.555,55.81,0.329l0.899,1.852
			C728.164,10.561,719.088,14.663,710.564,14.663z"/>
		<path d="M557.211,24.032c-3.682,0-6.285-1.589-10.819-4.585c-1.478-0.977-3.188-2.106-5.252-3.377
			c-6.71-4.131-10.246-7.92-10.508-11.262c-0.169-2.115,1.04-3.216,1.178-3.333l1.341,1.562c-0.007,0.008-0.575,0.559-0.46,1.683
			c0.153,1.487,1.596,4.71,9.528,9.596c2.086,1.284,3.813,2.426,5.308,3.413c8.52,5.629,9.027,5.963,26.229-0.563
			c6.285-2.384,12.306-4.416,17.617-6.207c9.123-3.077,17.742-5.984,18.511-7.941c0.035-0.094,0.041-0.153-0.021-0.269l1.808-0.986
			c0.349,0.64,0.394,1.333,0.13,2.006c-1.069,2.729-7.172,4.893-19.77,9.142c-5.294,1.785-11.296,3.809-17.545,6.18
			C565.646,22.445,560.891,24.032,557.211,24.032z"/>
		<path d="M458.016,41.554c-3.954,0-6.512-1.615-11.114-4.773c-1.437-0.986-3.1-2.128-5.109-3.417
			c-5.424-3.476-8.183-6.991-8.2-10.451c-0.02-3.704,3.125-5.806,3.259-5.895l0.23-0.113l44.287-15.193l0.667,1.949l-44.145,15.144
			c-0.429,0.322-2.26,1.83-2.239,4.118c0.025,2.673,2.532,5.684,7.25,8.708c2.033,1.303,3.711,2.455,5.165,3.452
			c8.123,5.575,8.784,6.031,26.258,0.414c2.791-0.896,5.638-1.783,8.461-2.664c13.786-4.297,29.411-9.167,30.332-13.227
			c0.086-0.38,0.091-0.987-0.864-1.874L497.354,4.117l1.391-1.521l14.902,13.621c1.605,1.49,1.69,2.913,1.479,3.844
			c-1.104,4.866-12.724,8.814-31.727,14.737c-2.819,0.878-5.66,1.764-8.445,2.659C466.402,40.207,461.626,41.554,458.016,41.554z"/>
		<path d="M584.499,244.715C584.499,244.715,584.499,244.715,584.499,244.715c-10.994,0-14.873-4.525-15.033-4.717
			c-0.065-0.072-9.278-10.287-16.439-16.348c-2.753-2.331-3.938-4.505-3.528-6.462c0.555-2.63,3.767-3.609,3.902-3.649l67.075-23.9
			c-2.122-1.601-3.256-3.404-3.379-5.38c-0.239-3.85,3.526-6.72,3.688-6.84l0.226-0.129c0,0,33.29-13.729,49.765-20.593
			c5.626-2.344,10.658-3.533,14.959-3.533c5.88,0,8.353,2.263,8.456,2.359c0.062,0.046,13.156,10.395,27.423,22.624
			c6.179,5.295,9.046,9.891,8.522,13.659c-0.443,3.194-3.153,4.48-3.271,4.534c-1.153,0.445-109.512,41.983-129.729,46.749
			C592.557,244.168,588.305,244.715,584.499,244.715z M621.929,179.139c-0.511,0.417-2.934,2.537-2.776,4.998
			c0.111,1.735,1.503,3.377,4.133,4.88l1.946,1.112l-71.193,25.366c-0.655,0.199-2.281,0.936-2.526,2.121
			c-0.233,1.126,0.777,2.71,2.847,4.46c7.268,6.153,16.573,16.47,16.665,16.573c0.057,0.066,3.55,4.004,13.475,4.004
			c0.001,0,0.001,0,0.001,0c3.647,0,7.74-0.527,12.165-1.572c20.084-4.734,128.311-46.222,129.402-46.64
			c0.004-0.005,1.761-0.871,2.033-2.95c0.274-2.08-0.861-5.812-7.826-11.782c-14.234-12.2-27.298-22.524-27.428-22.627
			c-0.079-0.068-2.13-1.858-7.111-1.858c-4.027,0-8.793,1.135-14.166,3.373C655.701,165.209,624.234,178.188,621.929,179.139z"/>
		<path d="M498.425,274.191c-5.605,0-11.644-1.32-15.925-5.826l-7.712-6.645l1.347-1.559l7.784,6.715
			c9.287,9.764,28.643,2.797,28.834,2.725c0.492-0.137,40.202-10.676,47.213-14.682c1.256-0.719,1.888-1.508,1.88-2.352
			c-0.021-2.375-4.438-5.324-5.983-6.172c-0.766-0.578-63.153-49.166-76.935-62.436c-13.103-12.618-23.768-4.394-23.873-4.311
			l-0.356,0.185l-43.885,12.611c-1.183,0.34-1.276,0.831-1.306,0.993c-0.406,2.146,4.733,7.182,8.513,10.071
			c0.082,0.071,3.852,3.636,9.606,9.098l-1.419,1.494c-5.753-5.461-9.521-9.025-9.521-9.025c-1.604-1.22-9.986-7.866-9.203-12.02
			c0.164-0.866,0.774-2.018,2.762-2.589l43.71-12.561c1.569-1.104,12.98-8.35,26.401,4.571
			c13.704,13.196,76.005,61.717,76.633,62.205c0.581,0.303,6.88,3.867,6.915,7.867c0.017,1.645-0.966,3.045-2.918,4.16
			c-7.242,4.139-45.969,14.418-47.614,14.854C512.938,271.727,506.086,274.191,498.425,274.191z"/>
		<path d="M502.853,175.198c-3.072,0-5.857-0.667-8.333-1.998c-6.18-3.328-8.083-9.569-8.16-9.833l1.976-0.585
			c0.016,0.057,1.763,5.712,7.186,8.618c3.956,2.12,8.896,2.299,14.677,0.538c17.389-5.303,42.297-14.338,45.045-15.338
			c0.424-0.588,1.951-3.447-3.047-9.265c-5.025-5.847-18.318-21.401-20.511-23.967h-3.084v-2.06h4.032l0.309,0.361
			c0.001,0,15.332,17.941,20.816,24.324c7.041,8.196,2.955,12.084,2.777,12.244l-0.34,0.207
			c-0.269,0.098-27.012,9.857-45.396,15.463C507.974,174.768,505.32,175.198,502.853,175.198z"/>
		<path d="M406.478,186.07c-0.228,0-0.43-0.012-0.602-0.036c-5.983-0.821-13.062-12.533-13.851-13.865l1.774-1.048
			c2,3.383,8.119,12.291,12.356,12.874c3.96,0.507,30.117-7.449,47.228-13.094v-4.857h2.06v6.346l-0.706,0.233
			C450.472,174.035,413.9,186.07,406.478,186.07z"/>
		
			<rect x="443.42" y="288.552" transform="matrix(0.6947 0.7193 -0.7193 0.6947 352.3165 -250.8411)" width="56.421" height="2.06"/>
		<path d="M522.277,314.154l-0.365-2.025c19.752-3.547,58.173-18.508,58.559-18.658c0.952-0.303,1.533-0.797,1.843-1.537
			c0.871-2.076-0.52-5.625-1.129-6.816l-19.198-32.902l1.778-1.037l19.226,32.951c0.134,0.256,2.641,5.207,1.226,8.596
			c-0.55,1.316-1.58,2.221-3.062,2.688C580.832,295.539,542.225,310.572,522.277,314.154z"/>
		<path d="M589.048,291.129c-3.865,0-5.659-0.662-5.797-0.715l0.736-1.924c0.062,0.023,6.195,2.191,20.996-2.086
			c15.234-4.402,98.969-35.361,99.813-35.674l0.714,1.93c-0.845,0.314-84.65,31.301-99.956,35.723
			C598.036,290.555,592.646,291.129,589.048,291.129z"/>
		<path d="M735.005,268.236L735.005,268.236c-4.281,0-6.097-1.521-6.53-1.959l-5.069-3.877c-0.007-0.002-5.881-3.959-13.021-9.143
			c-2.662-1.934-3.869-3.836-3.589-5.656c0.396-2.562,3.514-3.672,3.867-3.791c17.442-7.73,50.832-22.537,51.7-22.964
			c1.911-0.944,3.769-1.422,5.522-1.422c2.734,0,4.388,1.175,4.795,1.5c0.882,0.524,9.689,5.794,16.857,11.386
			c2.843,2.215,4.277,4.549,4.266,6.934c-0.018,3.062-2.453,4.953-2.557,5.031c-0.441,0.246-29.19,15.041-43.406,20.877
			C742.859,267.197,738.54,268.236,735.005,268.236z M729.947,264.838c0,0,1.312,1.338,5.058,1.338c3.266,0,7.32-0.984,12.053-2.928
			c14.056-5.771,42.485-20.395,43.085-20.703l0,0c-0.031,0,1.598-1.35,1.599-3.332c0.002-1.705-1.166-3.482-3.47-5.279
			c-7.413-5.781-16.616-11.224-16.708-11.278l-0.169-0.123c-0.042-0.036-1.237-1.05-3.51-1.05c-1.434,0-2.985,0.407-4.611,1.209
			c-1.104,0.544-49.795,22.118-51.867,23.038c-0.68,0.234-2.405,1.061-2.576,2.189c-0.147,0.967,0.835,2.27,2.765,3.67
			c7.108,5.162,12.954,9.098,13.012,9.137L729.947,264.838L729.947,264.838z"/>
		<path d="M738.006,301.418c-2.669,0-4.614-1.34-8.134-3.951c-1.49-1.105-3.344-2.48-5.726-4.068
			c-23.925-15.947-25.985-20.768-25.11-23.184c1.373-3.781,7.777-21.951,7.777-21.951l1.942,0.686c0,0-6.41,18.184-7.782,21.969
			c-0.223,0.613-0.097,4.494,24.315,20.768c2.425,1.617,4.302,3.008,5.81,4.127c5.542,4.111,6.257,4.639,13.833,1.607
			c10.119-4.047,52.453-27.518,52.881-27.754l0.998,1.801c-1.744,0.969-42.875,23.77-53.116,27.865
			C742.198,300.732,739.916,301.418,738.006,301.418z"/>
		
			<rect x="790.588" y="240.357" transform="matrix(0.5591 0.8291 -0.8291 0.5591 550.8619 -553.1486)" width="9.908" height="2.06"/>
		<path d="M772.517,222.705l-0.861-1.871c0.163-0.076,16.43-7.593,26.044-14.706l1.224,1.655
			C789.137,215.025,772.681,222.629,772.517,222.705z"/>
		<path d="M541.262,233.393l-1.848-0.908c0.291-0.594,7.178-14.557,11.851-17.859l1.189,1.681
			C548.207,219.309,541.331,233.25,541.262,233.393z"/>
		<path d="M758.408,222.324c-14.604-22.816-34.101-38.791-34.296-38.949l1.3-1.599c0.196,0.161,19.941,16.331,34.729,39.438
			L758.408,222.324z"/>
		<path d="M575.395,165.579c-2.954-2.141,1.544-15.417,4.488-23.141l1.925,0.734c-3.833,10.058-6.207,19.562-5.187,20.757
			L575.395,165.579z"/>
		
			<rect x="662.523" y="148.365" transform="matrix(0.598 0.8015 -0.8015 0.598 389.3475 -477.5295)" width="16.447" height="2.059"/>
		<path d="M499.539,201.609c-0.729-0.676-1.947-1.807,11.6-19.656l1.642,1.245c-5.613,7.394-11.484,15.925-11.597,17.403
			c0.005-0.067-0.03-0.303-0.244-0.502L499.539,201.609z"/>
		<path d="M605.692,196.038c-0.819-2.061-7-8.746-10.956-12.736l1.463-1.45c1.037,1.047,10.17,10.314,11.407,13.427L605.692,196.038
			z"/>
		<path d="M534.052,126.136c-1.204-1.407-1.716-4.502,7.679-15.079l0.268-0.304l0.742,0.61l1.067,0.278
			c-0.064,0.25-0.127,0.321-0.536,0.783c-7.349,8.273-8.22,11.711-7.654,12.374L534.052,126.136z"/>
		<path d="M635.66,121.03c-0.332-2.032-6.324-8.112-10.022-11.468l1.384-1.524c1.686,1.529,10.125,9.329,10.671,12.66L635.66,121.03
			z"/>
		<path d="M631.486,106.792l-1.978-0.576c1.391-4.778,11.515-12.536,12.665-13.405l1.241,1.643
			C640.441,96.701,632.502,103.299,631.486,106.792z"/>
		<rect x="725.058" y="92.205" transform="matrix(0.686 0.7276 -0.7276 0.686 297.9318 -503.9012)" width="15.458" height="2.059"/>
		<path d="M593.812,76.627l-1.801-1.001c3.006-5.404,7.124-9.669,10.13-12.783c1.594-1.652,3.402-3.524,3.479-4.13l2.058-0.029
			c0.032,1.355-1.42,2.858-4.058,5.59C600.695,67.306,596.687,71.458,593.812,76.627z"/>
		<path d="M741.001,95.854c-1.259-7.87,15.494-35.689,17.409-38.834l1.76,1.07c-5.092,8.369-18.098,31.411-17.135,37.438
			L741.001,95.854z"/>
		<path d="M699.398,66.698c-0.93,0-3.102-1.157-9.012-11.831l1.803-0.997c2.282,4.122,5.208,8.717,6.703,10.265
			c0.44-8.762,21.699-39.017,22.615-40.316l1.684,1.187c-6.211,8.813-22.316,33.075-22.247,39.428
			c0.015,1.254-0.383,1.998-1.179,2.208C699.668,66.667,699.551,66.698,699.398,66.698z"/>
		<path d="M660.87,34.556l-2.051-0.187c0.524-5.727,16.853-29.566,18.713-32.267l1.696,1.168
			C674.258,10.483,661.273,30.164,660.87,34.556z"/>
		<path d="M795.001,356.061c-9.724-6.002-96.427-74.537-103.911-80.455c-11.854,2.975-139.936,46.926-154.902,52.064l10.663,12.781
			l-1.581,1.318l-12.579-15.074l1.414-0.486c6.041-2.076,148.032-50.867,157.026-52.727l0.471-0.1l0.377,0.299
			c0.942,0.746,94.26,74.549,104.104,80.627L795.001,356.061z"/>
		<path d="M468.792,382.461c-6.594-0.992-28.097-25.545-33.924-36.172c-1.514-2.762-1.969-4.486-1.476-5.598
			c2.134-4.803,17.895-17.781,18.564-18.332l1.308,1.592c-4.459,3.662-16.381,13.959-17.989,17.576
			c-0.012,0.035-0.303,0.949,2.026,4.867c6.738,11.342,26.557,33.24,31.795,34.029L468.792,382.461z"/>
		<path d="M509.895,422.533c-7.86-5.699-46.789-34.594-41.438-43.691c3.438-5.844,10.161-11.617,15.072-15.834
			c2.253-1.932,4.381-3.76,4.834-4.516l1.766,1.061c-0.597,0.994-2.213,2.406-5.258,5.02c-4.8,4.121-11.375,9.766-14.639,15.312
			c-3.406,5.789,23.262,28.209,40.87,40.982L509.895,422.533z"/>
		<path d="M539.771,452.094c-3.103-2.375-30.315-23.396-30.303-30.396c0.013-7.006,16.822-19.785,18.739-21.219l1.233,1.65
			c-4.98,3.727-17.903,14.506-17.913,19.572c-0.008,4.506,18.087,20.029,29.494,28.756L539.771,452.094z"/>
		
			<rect x="567.761" y="370.181" transform="matrix(0.7146 0.6996 -0.6996 0.7146 425.0832 -299.3949)" width="23.334" height="2.06"/>
		<path d="M582.949,452.266l-0.576-1.979c27.097-7.871,54.443-18.732,53.304-23.289c-1.953-7.812-22.538-24.729-22.746-24.898
			l1.304-1.596c0.87,0.713,21.323,17.523,23.44,25.996C639.864,435.258,592.471,449.498,582.949,452.266z"/>
		<rect x="568.782" y="332.916" transform="matrix(0.823 0.568 -0.568 0.823 296.8575 -262.5671)" width="2.06" height="24.429"/>
		<path d="M611.609,398.676l-0.572-1.979c0.453-0.131,45.44-13.17,52.162-16.193c18.008-8.104,20.849-12.154,20.061-14.127
			c-1.631-4.078-17.627-21.822-23.651-28.314l1.51-1.402c0.896,0.967,21.947,23.688,24.054,28.953
			c2.168,5.422-9.464,11.52-21.128,16.768C657.191,385.465,613.467,398.139,611.609,398.676z"/>
		
			<rect x="315.364" y="377.227" transform="matrix(0.6824 0.731 -0.731 0.6824 408.3733 -183.4064)" width="199.778" height="2.061"/>
		
			<rect x="291.449" y="384.929" transform="matrix(0.6815 0.7318 -0.7318 0.6815 404.0028 -156.3585)" width="180.37" height="2.059"/>
	</g>
</g>
</svg>
