<?xml version="1.0" encoding="utf-8"?>
<!-- Generator: Adobe Illustrator 15.0.2, SVG Export Plug-In . SVG Version: 6.00 Build 0)  -->
<!DOCTYPE svg PUBLIC "-//W3C//DTD SVG 1.1//EN" "http://www.w3.org/Graphics/SVG/1.1/DTD/svg11.dtd">
<svg version="1.1" id="Layer_3" xmlns="http://www.w3.org/2000/svg" xmlns:xlink="http://www.w3.org/1999/xlink" x="0px" y="0px"
	 width="800px" height="450px" viewBox="0 0 800 450" enable-background="new 0 0 800 450" xml:space="preserve">
<g>
	<g>
		<path d="M533.029,442.786h-2.06v-10.298h2.06V442.786z M533.029,422.19h-2.06v-10.297h2.06V422.19z M533.029,401.597h-2.06
			v-10.298h2.06V401.597z M533.029,381.001h-2.06v-10.297h2.06V381.001z M533.029,360.406h-2.06v-10.297h2.06V360.406z
			 M533.029,339.812h-2.06v-10.296h2.06V339.812z M533.029,319.217h-2.06V308.92h2.06V319.217z M533.029,298.622h-2.06v-10.297h2.06
			V298.622z M533.029,278.027h-2.06V267.73h2.06V278.027z M533.029,257.434h-2.06v-10.297h2.06V257.434z M533.029,236.839h-2.06
			v-10.297h2.06V236.839z M533.029,216.244h-2.06v-10.297h2.06V216.244z M533.029,195.649h-2.06v-10.298h2.06V195.649z
			 M533.029,175.055h-2.06v-10.297h2.06V175.055z M533.029,154.46h-2.06v-10.297h2.06V154.46z M533.029,133.865h-2.06v-10.297h2.06
			V133.865z M533.029,113.271h-2.06v-10.298h2.06V113.271z M533.029,92.676h-2.06V82.379h2.06V92.676z M533.029,72.082h-2.06V61.784
			h2.06V72.082z M533.029,51.486h-2.06V41.189h2.06V51.486z M533.029,30.893h-2.06V20.596h2.06V30.893z M533.029,10.299h-2.06V0
			h2.06V10.299z"/>
		<rect x="263.08" y="0.863" width="6.179" height="447.154"/>
		<rect x="0.338" y="295.972" width="797.493" height="6.179"/>
		<path d="M797.831,150.562h-10.298v-2.059h10.298V150.562z M777.236,150.562h-10.298v-2.059h10.298V150.562z M756.643,150.562
			h-10.298v-2.059h10.298V150.562z M736.048,150.562H725.75v-2.059h10.298V150.562z M715.453,150.562h-10.299v-2.059h10.299V150.562
			z M694.857,150.562h-10.297v-2.059h10.297V150.562z M674.264,150.562h-10.298v-2.059h10.298V150.562z M653.669,150.562h-10.298
			v-2.059h10.298V150.562z M633.074,150.562h-10.297v-2.059h10.297V150.562z M612.48,150.562h-10.298v-2.059h10.298V150.562z
			 M591.886,150.562h-10.299v-2.059h10.299V150.562z M571.29,150.562h-10.298v-2.059h10.298V150.562z M550.695,150.562h-10.297
			v-2.059h10.297V150.562z M530.102,150.562h-10.298v-2.059h10.298V150.562z M509.507,150.562h-10.298v-2.059h10.298V150.562z
			 M488.912,150.562h-10.297v-2.059h10.297V150.562z M468.318,150.562H458.02v-2.059h10.299V150.562z M447.722,150.562h-10.297
			v-2.059h10.297V150.562z M427.127,150.562H416.83v-2.059h10.297V150.562z M406.533,150.562h-10.297v-2.059h10.297V150.562z
			 M385.939,150.562h-10.298v-2.059h10.298V150.562z M365.344,150.562h-10.297v-2.059h10.297V150.562z M344.75,150.562h-10.298
			v-2.059h10.298V150.562z M324.155,150.562h-10.298v-2.059h10.298V150.562z M303.561,150.562h-10.297v-2.059h10.297V150.562z
			 M282.966,150.562h-10.297v-2.059h10.297V150.562z M262.371,150.562h-10.297v-2.059h10.297V150.562z M241.776,150.562h-10.297
			v-2.059h10.297V150.562z M221.183,150.562h-10.298v-2.059h10.298V150.562z M200.587,150.562H190.29v-2.059h10.297V150.562z
			 M179.992,150.562h-10.297v-2.059h10.297V150.562z M159.398,150.562h-10.298v-2.059h10.298V150.562z M138.803,150.562h-10.297
			v-2.059h10.297V150.562z M118.209,150.562h-10.298v-2.059h10.298V150.562z M97.614,150.562H87.316v-2.059h10.298V150.562z
			 M77.02,150.562H66.722v-2.059H77.02V150.562z M56.425,150.562H46.128v-2.059h10.297V150.562z M35.83,150.562H25.532v-2.059H35.83
			V150.562z M15.235,150.562H4.938v-2.059h10.297V150.562z"/>
	</g>
	<g>
		<path d="M396.52,73.812l-1.969-0.604c1.869-6.083-12.463-26.286-18.142-33.558l1.623-1.266
			C380.189,41.146,399.041,65.605,396.52,73.812z"/>
		<path d="M351.833,130.678c-1.14-7.988-18.861-19.777-19.041-19.896l1.135-1.718c0.762,0.503,18.677,12.429,19.945,21.325
			L351.833,130.678z"/>
		<path d="M272.238,296.234c-0.686,0-1.301-0.091-1.843-0.285c-1.3-0.462-2.179-1.468-2.541-2.908
			c-1.71-6.795,6.752-30.752,16.339-56.812c2.446-6.65,4.559-12.397,5.601-15.692c4.2-13.293,9.758-16.627,9.992-16.763l1.029,1.782
			l-0.515-0.891l0.522,0.887c-0.052,0.032-5.144,3.193-9.066,15.604c-1.055,3.341-3.176,9.106-5.632,15.784
			c-6.721,18.272-17.97,48.855-16.273,55.597c0.194,0.774,0.587,1.241,1.235,1.473c6.097,2.148,27.942-14.109,38.434-21.934
			l1.46-1.088c12.74-9.491,27.181-20.248,31.182-29.39l1.887,0.824c-4.22,9.644-18.893,20.574-31.838,30.217l-1.459,1.087
			C296.005,284.727,279.886,296.234,272.238,296.234z"/>
		<path d="M317.101,177.146l-1.597-1.299c11.847-14.557,44.775-21.904,73.827-28.387c9.033-2.018,17.565-3.92,25.046-5.937
			c14.99-4.042,25.239-4.743,35.15-5.421c11.291-0.771,21.956-1.502,38.946-6.924c31.791-10.146,73.481-36.69,73.898-36.956
			l1.109,1.733c-0.419,0.27-42.338,26.957-74.383,37.186c-17.226,5.496-28.012,6.234-39.431,7.015
			c-9.812,0.673-19.959,1.366-34.754,5.354c-7.525,2.029-16.078,3.938-25.135,5.959C361.055,155.88,328.497,163.145,317.101,177.146
			z"/>
		<path d="M646.474,275.55c-37.977-0.432-65.123-15.938-84.945-27.26c-8.08-4.613-15.06-8.599-20.728-10.284
			c-21.392-6.368-42.81-11.642-69.565-6.404c-24.711,4.843-53.678,8.618-93.923,12.24c-33.978,3.062-56.339-6.177-56.562-6.271
			l0.801-1.898c0.218,0.09,22.146,9.136,55.575,6.117c40.172-3.616,69.074-7.381,93.712-12.207
			c27.217-5.335,48.902,0.006,70.55,6.448c5.896,1.752,12.97,5.794,21.161,10.471c19.625,11.211,46.504,26.563,83.947,26.988
			L646.474,275.55z"/>
		<path d="M371.72,279.643c-10.318,0-19.312-6.009-19.447-6.102l-0.352-0.239l-5.846-30.581l2.023-0.385l5.683,29.727
			c2.654,1.66,19.834,11.612,32.272-0.121c13.589-12.829,9.293-30.508,9.249-30.685l1.995-0.511
			c0.049,0.189,4.659,19.014-9.83,32.692C382.534,278.094,376.956,279.643,371.72,279.643z"/>
		<path d="M431.566,282.756c-7.352,0-13.583-2.98-13.98-3.176l-0.214-0.104l-0.146-0.188l-21.151-27.144l1.625-1.267l20.997,26.946
			c1.776,0.802,14.555,6.158,23.962-0.358c8.923-6.185,12.354-20.89,10.201-43.709l2.049-0.194
			c2.231,23.624-1.499,38.968-11.087,45.603C439.911,281.869,435.573,282.756,431.566,282.756z"/>
		<path d="M473.673,279.688l-19.88-19.115l1.428-1.484l19.271,18.531c9.342-0.168,15.768-2.42,19.639-6.885
			c3.702-4.272,5.018-10.694,3.909-19.088c-2.335-17.684-16.783-21.562-16.93-21.601l0.509-1.995
			c0.159,0.04,15.948,4.278,18.464,23.326c1.188,9.004-0.29,15.971-4.396,20.705c-4.337,5.003-11.401,7.489-21.593,7.602
			L473.673,279.688z"/>
		<path d="M353.583,272.503l-1.462-1.449c0.085-0.087,8.46-8.783,9.148-27.654l2.058,0.076
			C362.607,263.213,353.95,272.133,353.583,272.503z"/>
		<path d="M473.074,278.87c-0.135-0.641-3.16-15.229,2.543-21.383c-1.918-2.514-9.25-11.243-21.451-15.514l0.681-1.943
			c14.945,5.231,22.664,16.522,22.986,16.999l0.511,0.76l-0.695,0.598c-5.711,4.899-2.591,19.902-2.56,20.054L473.074,278.87z"/>
		<path d="M419.146,278.784c-0.11-0.879-2.564-20.956,1.844-28.812c-4.586-4.473-9.689-9.106-10.683-9.465l0.203-0.561l-0.161-1.467
			c0.505-0.05,1.693-0.186,12.673,10.6l0.62,0.608l-0.497,0.715c-4.593,6.594-1.982,27.911-1.954,28.125L419.146,278.784z"/>
		<path d="M278.615,208.909l-1.808-0.985c5.397-9.901,13.126-26.056,12.29-29.973c-1.133-5.318-5.146-9.201-5.187-9.24l1.421-1.491
			c0.184,0.175,4.511,4.344,5.781,10.301C292.373,183.438,280.027,206.318,278.615,208.909z"/>
		
			<rect x="385.281" y="-19.623" transform="matrix(0.799 0.6013 -0.6013 0.799 129.2135 -215.0457)" width="2.059" height="210.801"/>
		
			<rect x="461.189" y="-17.866" transform="matrix(0.7885 0.6151 -0.6151 0.7885 143.3353 -268.6196)" width="2.061" height="183.908"/>
		<path d="M389.536,76.91c-1.241-18.912-24.386-42.422-24.62-42.657l1.461-1.452c0.977,0.984,23.922,24.291,25.214,43.973
			L389.536,76.91z"/>
		<path d="M500.482,116.646l-2.058-0.081c0.008-0.211,0.911-21.243,7.896-43.365c6.926-21.944,12.39-46.964,12.445-47.216
			l2.014,0.439c-0.057,0.252-5.54,25.359-12.495,47.395C501.386,95.669,500.49,116.438,500.482,116.646z"/>
		<path d="M797.645,34.38c-11.086-2.039-50.265-10.304-50.659-10.386c-13.125-1.306-22.616,8.322-22.711,8.419l-1.48-1.433
			c0.412-0.426,10.261-10.445,24.506-9.018c0.504,0.099,39.657,8.356,50.717,10.39L797.645,34.38z"/>
		<path d="M689.296,301.181c-23.206,0-42.279-0.275-47.25-1.104c-4.259-0.709-7.076-2.514-8.374-5.357
			c-2.58-5.659,1.992-13.233,2.188-13.553l0.229-0.26c0.864-0.704,86.631-71.143,98.263-141.959
			c10.68-65.023,7.098-96.939,6.381-102.063l-8.483-1.118c-15.602-4.545-39.524-15.648-75.625-33.303l0.904-1.852
			c35.093,17.162,59.904,28.692,75.145,33.145l9.842,1.285l0.133,0.742c0.057,0.312,5.46,32.117-6.264,103.498
			c-11.532,70.205-94.811,139.769-98.85,143.104c-0.582,1.012-3.944,7.192-1.985,11.483c0.998,2.181,3.298,3.586,6.838,4.178
			c14.36,2.398,154.019,0.01,155.428-0.015l0.036,2.059C794.056,300.156,734.017,301.181,689.296,301.181z"/>
		<path d="M290.4,221.807c-0.604-0.236-14.76-5.914-14.117-17.506c0.299-5.383,2.117-13.367,4.42-23.477
			c2.352-10.326,5.278-23.178,7.165-36.404c2.819-19.764,4.946-24.812,11.259-39.797c1.886-4.48,4.235-10.057,7.08-17.18
			c5.674-14.207,11.77-26.488,16.668-36.353c5.661-11.407,9.753-19.649,10.065-24.346c0.584-8.776,4.749-18.793,31.198-26.546
			l0.579,1.976c-25.232,7.397-29.185,16.641-29.723,24.708c-0.34,5.105-4.508,13.502-10.276,25.123
			c-4.881,9.832-10.955,22.071-16.599,36.201c-2.854,7.143-5.205,12.728-7.096,17.215c-6.235,14.802-8.335,19.789-11.117,39.288
			c-1.898,13.31-4.836,26.208-7.196,36.571c-2.19,9.617-4.083,17.924-4.372,23.133c-0.561,10.121,12.678,15.422,12.812,15.475
			L290.4,221.807z"/>
		<path d="M273.686,269.23c0,0,16.103,0.696,19.326,15.968c0,0-16.67,13.108-23.044,11.779
			C263.595,295.647,268.659,285.136,273.686,269.23z"/>
		<path d="M336.138,251.117c-3.071-5.834-5.823-8.518-9.308-11.917c-0.579-0.565-1.179-1.15-1.803-1.772l1.451-1.46
			c0.621,0.617,1.216,1.197,1.789,1.758c3.615,3.525,6.47,6.311,9.692,12.436L336.138,251.117z"/>
		<path d="M301.759,221.775c-6.831-3.244-9.438-4.132-9.465-4.142l0.655-1.952c0.107,0.035,2.713,0.918,9.692,4.234L301.759,221.775
			z"/>
		<path d="M323.401,237.728c-12.016,0-19.659-6.217-22.721-18.477c-3.476-13.928-1.598-26.479,5.29-35.347
			c6.114-7.87,15.839-12.238,27.384-12.301h0.361c19.64,0,23.583,8.791,23.741,9.167c0.115,0.353,7.981,25.735,12.753,34.692
			l0.219,0.411l-0.163,0.435c-0.156,0.418-4.008,10.287-19.536,15.265l-2.504,0.812C340.933,234.765,331.86,237.728,323.401,237.728
			z M333.716,173.663h-0.351c-10.898,0.059-20.05,4.146-25.768,11.504c-6.491,8.356-8.237,20.285-4.918,33.585
			c2.841,11.384,9.619,16.916,20.722,16.916c8.131,0,17.032-2.906,24.186-5.241l2.515-0.816c12.787-4.097,17.17-11.79,18.057-13.626
			c-4.871-9.465-12.313-33.477-12.633-34.51l0,0C355.517,181.475,351.812,173.663,333.716,173.663z"/>
	</g>
	<rect x="89.587" y="-62.674" transform="matrix(0.328 0.9447 -0.9447 0.328 91.9716 -63.4969)" width="2.06" height="191.142"/>
</g>
</svg>
