<?xml version="1.0" encoding="utf-8"?>
<!-- Generator: Adobe Illustrator 15.0.2, SVG Export Plug-In . SVG Version: 6.00 Build 0)  -->
<!DOCTYPE svg PUBLIC "-//W3C//DTD SVG 1.1//EN" "http://www.w3.org/Graphics/SVG/1.1/DTD/svg11.dtd">
<svg version="1.1" id="Layer_3" xmlns="http://www.w3.org/2000/svg" xmlns:xlink="http://www.w3.org/1999/xlink" x="0px" y="0px"
	 width="800px" height="450px" viewBox="0 0 800 450" enable-background="new 0 0 800 450" xml:space="preserve">
<g>
	<g>
		<path d="M275.092,400.72c0.288-10.065-4.131-13.393-4.365-13.562l-0.281-0.14c-0.204-0.067-20.374-6.429-41.664-1.786l-4.879-0.52
			l-8.806-22.138c10.397-2.876,21.307-6.533,29.014-10.785c2.56-1.412,4.919-3.05,7.071-4.861
			c2.365,5.939,4.891,12.475,7.377,18.917c2.771,7.18,5.389,13.962,7.715,19.744l1.91-0.769c-2.32-5.77-4.938-12.543-7.705-19.717
			c-2.588-6.706-5.223-13.53-7.67-19.66c5.275-4.936,9.104-11.035,11.029-17.877c2.478-8.81,1.521-17.733-2.808-25.281l-4.354-5.145
			l-0.371-0.062c-0.345-0.056-7.576-1.245-24.371-1.902c-1.282-3.195-3.322-8.162-5.361-13.119
			c-2.09-5.08-4.157-10.108-5.379-13.167c5.933-11.965,5.92-27.451,3.42-34.971l-0.092-0.278l-0.227-0.187
			c-0.329-0.275-6.326-5.165-18.997-8.721l0.144-0.056c-7.914-19.93-15.076-35.076-15.135-35.196l-60.047-138.3
			c-0.094-0.199-9.42-20.063-2.846-35.151c3.037-6.969,9.037-11.898,17.832-14.651l-0.615-1.967
			c-9.391,2.942-15.818,8.256-19.104,15.795c-6.946,15.941,2.472,36.017,2.859,36.83l60.046,138.295
			c0.07,0.146,6.895,14.594,14.572,33.803c-3.524-0.886-7.51-1.649-11.981-2.199v-0.006c-0.008,0-0.03,0.003-0.04,0.003
			c-0.438-0.054-0.852-0.121-1.297-0.169c-2.129-1.312-18.6-11.07-33.951-8.912l-13.821-27.421l0.011-0.003
			c-14.767-36.965-33.469-86.426-40.838-108.01C90.37,46.05,84.28,18.672,118.453,1.313l-0.934-1.834
			C81.873,17.583,88.105,45.791,99.137,78.084c6.891,20.179,23.664,64.677,37.887,100.599c-1.136-1.561-2.367-3.257-3.57-4.928
			c0.035-0.236,0.056-0.395,0.062-0.457l-0.427-0.053c-2.18-3.025-4.228-5.912-5.382-7.644c-3.229-4.853-36.27-42.493-54.095-43.806
			c-6.985-0.511-23.947-0.714-30.775,8.616c-3.677,5.021-3.797,11.918-0.361,20.497c9.428,23.533,54.798,85.949,60.615,93.905
			c-4.854,4.487-32.166,30.556-30.098,47.184c1.842,14.817,8.217,24.168,10.434,27.031c-5.849,3.888-34.369,24.279-24.559,46.232
			c9.209,20.613,26.041,37.305,29.918,40.985c-4.154,4.11-22.366,23.854-11.142,43.722l1.794-1.014
			c-11.236-19.887,9.395-39.951,11.371-41.799c5.131-1.519,77.151-22.819,84.727-25.517l46.75,4.972l2.481,0.275l-0.004-0.012
			l3.968,0.423l0.167,0.018l0.163-0.036c0.75-0.165,1.494-0.292,2.24-0.43c-2.86,2.507-6.617,6.69-7.105,11.693
			c-0.371,3.786,1.19,7.366,4.639,10.643c5.91,5.619,15.481,7.147,24.146,7.147c6.856,0,13.14-0.958,16.589-1.601
			c-5.932,10.007-19.992,16.633-24.988,18.737c-20.477,7.171-60.449,14.428-60.875,14.503l0.367,2.027
			c0.408-0.074,37.103-6.732,58.387-13.642c1.613,4.632,2.533,6.87,3.492,9.197c0.518,1.255,1.045,2.534,1.705,4.249l1.922-0.739
			c-0.666-1.731-1.198-3.027-1.723-4.294c-0.943-2.291-1.841-4.463-3.424-9.004c0.305-0.121,0.676-0.272,1.1-0.449
			c1.129-0.398,2.213-0.796,3.213-1.192l-0.081-0.2c6.896-3.242,18.688-9.988,23.501-19.726c0.047-0.009,0.105-0.023,0.131-0.029
			l-0.037-0.165c0.65-1.35,1.207-2.739,1.556-4.203c0.394-1.651,0.659-3.157,0.869-4.594c3.119,7.764,6.174,15.474,8.884,22.311
			c4.178,10.549,7.479,18.881,9.01,22.334l1.883-0.836c-1.513-3.414-4.808-11.73-8.979-22.256
			C282.339,418.831,278.73,409.724,275.092,400.72z M221.584,384.461l-43.483-4.82l2.808-4.255c1.496-1.989,3.006-4.146,3.961-5.915
			c2.694-0.484,14.826-2.746,28.229-6.35L221.584,384.461z M250.15,330.119c-4.96,0.384-24.34,1.804-35.822,1.477
			c-6.959-0.201-11.623-1.793-14.258-4.865c-2.51-2.927-3.355-7.349-2.588-13.523c1.595-12.795,27.551-15.901,27.814-15.931
			l-0.029-0.253c15.823,0.416,24.979,1.347,28.701,1.812C246.139,307.869,249.145,325.368,250.15,330.119z M224.668,282.84
			c1.862,4.529,3.729,9.068,5.014,12.257c-2.068-0.073-4.231-0.138-6.57-0.189c-11.514-0.251-24.795,1.365-36.561,3.229l1.457-0.586
			l-3.174-7.884c9.598-1.643,20.857-4.632,27.855-10.034c2.961-2.285,5.322-5.188,7.223-8.41
			C221.152,274.292,222.9,278.545,224.668,282.84z M157.092,303.036c-0.738,0-0.938-0.131-0.967-0.125
			c-0.254-1.277,4.949-6.521,11.205-11.311c1.549-0.068,7.782-0.406,15.42-1.595l3.305,8.207
			c-5.742,0.916-11.111,1.883-15.713,2.714c-4.986,0.901-9.294,1.68-12.11,2.028C157.758,303.014,157.383,303.036,157.092,303.036z
			 M190.908,223.998c17.949,2.23,28.012,8.208,31.049,10.297c-2.439,2.062-8.467,7.482-10.76,12.532
			c-2.406,5.296-7.014,16.257-8.162,18.992c-2.832-0.002-14.215-0.212-24.875-3.255c-12.004-3.429-15.426-9.217-14.072-23.819
			C165.319,225.469,188.731,224.095,190.908,223.998z M44.387,150.146c-3.156-7.878-3.117-14.109,0.11-18.52
			c6.222-8.497,22.328-8.27,28.963-7.775c16.808,1.237,49.491,38.324,52.532,42.893c1.143,1.715,3.144,4.537,5.281,7.51
			c-0.874,4.783-5.136,22.745-20.854,31.568l1.008,1.795c14.986-8.412,19.99-24.242,21.5-31.071
			c3.615,4.993,7.109,9.728,7.119,9.728l13.501,26.815c-22.685,2.144-44.415,25.092-49.007,30.218
			C98.212,234.622,53.506,172.9,44.387,150.146z M75.035,291.745c-2.088-16.797,29.798-45.737,30.119-46.029l0.693-0.624
			l-0.06-0.082c3.688-4.123,26.269-28.33,48.757-29.94l0.029,0.056l0.748-0.124c12.235-2.033,25.852,4.428,31.152,7.309
			c-7.896,0.967-23.336,4.37-24.438,16.247c-1.436,15.498,2.637,22.299,15.559,25.988c10.961,3.131,22.646,3.333,25.496,3.333
			c0.408,0,0.636-0.003,0.653-0.003l0.67-0.015l0.258-0.617c0.056-0.135,5.665-13.545,8.398-19.562
			c2.04-4.49,7.554-9.53,9.999-11.623c2.661,10.378,1.141,32.081-11.64,41.945c-13.325,10.286-44.194,11.542-44.504,11.553
			l-0.326,0.013l-0.259,0.196c-5.077,3.858-13.401,10.794-12.128,13.917c0.004,0.006,0.007,0.011,0.013,0.019
			c-15.178,2.971-62.674,13.105-68.88,14.431C83.685,316.043,76.897,306.721,75.035,291.745z M60.748,364.422
			c-9.618-21.521,22.158-42.608,24.596-44.184c3.47-0.74,66.04-14.099,73.178-15.242l0,0c2.873-0.359,6.984-1.103,12.188-2.043
			c12.143-2.192,29.649-5.359,45.21-5.922c-8.286,2.206-19.345,6.829-20.479,15.923c-0.845,6.782,0.158,11.727,3.068,15.118
			c3.035,3.537,8.189,5.363,15.76,5.582c1.197,0.034,2.477,0.051,3.815,0.051c13.558,0,33.2-1.609,33.418-1.627l1.205-0.099
			l-0.29-1.174c-0.057-0.226-5.317-22.034,3.641-31.212l3.295,3.868c3.941,6.912,4.83,15.273,2.503,23.548
			c-2.713,9.647-9.368,17.807-18.74,22.978c-7.916,4.369-19.532,8.146-30.381,11.067c-4.759,1.151-28.444,6.412-28.765,6.484
			l-0.47,0.082l-0.204,0.405l-4.057,6.15c-1.946,2.582-3.869,4.877-4.428,5.537c-7.393,2.622-77.508,23.374-84.255,25.368
			C87.742,402.456,70.186,385.543,60.748,364.422z M271.811,409.324c-0.25,1.052-0.607,2.074-1.042,3.066
			c-5.354,1.082-29.915,5.383-40.518-4.696c-2.96-2.817-4.308-5.825-4.007-8.948c0.63-6.483,8.051-11.734,9.262-12.553
			c17.203-2.129,32.305,2.176,34.124,2.727c0.611,0.552,3.587,3.673,3.403,11.625l-0.199,0.081c0.059,0.147,0.119,0.296,0.18,0.442
			C272.92,403.407,272.574,406.127,271.811,409.324z"/>
		<path d="M221.086,227.824l0.359,0.841l129.086-37.928l1.111-0.325L276.566,15.025l-0.344-0.802L143.512,46.593L221.086,227.824z
			 M348.836,189.089l-126.215,37.086l-76.26-178.157l128.654-31.382L348.836,189.089z"/>
		<path d="M204.584,25.272c0.281,0,0.562-0.032,0.837-0.102l6.568-1.604c0.915-0.222,1.688-0.787,2.176-1.592
			c0.489-0.803,0.636-1.747,0.415-2.666c-0.455-1.854-2.387-3.053-4.256-2.582l-6.573,1.6c-0.915,0.222-1.688,0.789-2.175,1.594
			c-0.49,0.805-0.637,1.752-0.414,2.664C201.547,24.169,202.955,25.272,204.584,25.272z M203.335,20.989
			c0.204-0.334,0.522-0.569,0.903-0.662l6.57-1.6c0.115-0.027,0.23-0.042,0.348-0.042c0.676,0,1.262,0.458,1.422,1.11
			c0.093,0.383,0.031,0.776-0.172,1.11c-0.202,0.334-0.521,0.567-0.901,0.66l-6.573,1.606c-0.782,0.179-1.58-0.304-1.768-1.076
			C203.071,21.717,203.133,21.323,203.335,20.989z"/>
		<path d="M218.749,22.14c0.279,0,0.56-0.033,0.835-0.102l6.574-1.601c1.885-0.458,3.043-2.368,2.584-4.26
			c-0.457-1.856-2.415-3.03-4.256-2.58l-6.572,1.599c-0.913,0.221-1.686,0.789-2.174,1.592c-0.488,0.804-0.636,1.753-0.412,2.67
			C215.717,21.037,217.121,22.14,218.749,22.14z M217.5,17.857c0.203-0.334,0.523-0.569,0.902-0.659l6.575-1.6
			c0.114-0.028,0.233-0.043,0.351-0.043c0.672,0,1.252,0.457,1.413,1.111c0.19,0.786-0.289,1.58-1.071,1.771l-6.571,1.599
			c-0.78,0.195-1.581-0.3-1.77-1.067C217.236,18.587,217.297,18.19,217.5,17.857z"/>
		<path d="M190.779,28.519c0.283,0,0.566-0.034,0.842-0.1l6.574-1.6c1.882-0.461,3.042-2.369,2.586-4.258
			c-0.457-1.855-2.426-3.047-4.258-2.582l-6.568,1.598c-1.885,0.457-3.047,2.363-2.591,4.252
			C187.75,27.413,189.154,28.519,190.779,28.519z M190.439,23.579l6.576-1.602c0.115-0.027,0.233-0.043,0.351-0.043
			c0.672,0,1.253,0.46,1.413,1.113c0.191,0.785-0.291,1.579-1.074,1.77l-6.574,1.6c-0.771,0.193-1.576-0.3-1.766-1.072
			C189.176,24.561,189.658,23.771,190.439,23.579z"/>
		<path d="M551.111,369.581c-2.291-21.672-4.268-40.391-9.668-47.995c-4.58-6.444-13.59-15.74-24.021-26.504
			c-15.662-16.16-35.158-36.272-44.643-52.512c-14.852-25.43-26.051-40.069-49.529-54.492
			c-18.227-11.206-34.63-31.228-45.482-44.476c-2.246-2.742-4.227-5.158-5.898-7.095c-9.557-11.079-13.066-12.603-29.268-3.392
			L290.91,0.024l-1.92,0.744l51.804,133.381l-0.072,0.039l1.579,3.842l0,0l0,0l25.514,62.077h-0.002l0.682,1.653l69.783,169.785
			c0.154,0.302,15.365,30.427,8.711,48.582c-1.934,5.275-5.582,9.066-10.793,11.247l-46.706,16.642l0.692,1.939l46.756-16.663
			c5.814-2.43,9.848-6.619,11.984-12.457c6.961-18.991-8.166-48.961-8.775-50.15L394.36,259.282
			c4.397-2.67,28.37-17.513,38.663-29.771l-1.576-1.324c-9.695,11.545-32.676,25.973-37.797,29.116l-23.567-57.092l-25.862-62.926
			l0,0l-0.868-2.236c9.729-5.571,14.298-7.183,18.636-4.96c-0.356,0.72-0.67,1.798-0.561,3.305
			c0.408,5.665,6.773,16.259,34.753,34.554c7.856,8.195,16.67,16.154,25.993,21.884c23.102,14.195,34.152,28.649,48.828,53.775
			c9.609,16.458,28.381,35.823,44.941,52.909c10.375,10.703,19.334,19.944,23.82,26.263c5.09,7.165,7.039,25.634,9.301,47.019
			c2.824,26.729,6.023,57.024,16.277,77.538l1.842-0.921C557.098,426.234,553.916,396.137,551.111,369.581z M363.494,133.417
			c-0.099-1.02,0.059-1.736,0.246-2.207c1.957,1.459,3.996,3.656,6.57,6.643c1.66,1.926,3.631,4.329,5.865,7.056
			c3.953,4.827,8.647,10.549,13.895,16.423C367.993,145.854,363.873,137.296,363.494,133.417z"/>
		<path d="M380.129,381.112c8.415-2.755,15.912-5.117,20.845-6.483c6.961-1.927,11.346-5.069,13.036-9.343
			c2.139-5.407-0.91-10.506-0.963-10.566l-12.877-32.156h0.002l-0.629-1.96l-0.139,0.045l-40.33-100.727l-114.896,35.643
			l10.432,27.947l-0.708,0.222l0.613,1.966l0.816-0.255l39.874,106.812c2.788,7.086,8.341,10.831,16.058,10.831
			c6.426,0,12.059-2.566,12.206-2.64c0.431-0.15,32.175-11.313,56.418-19.255l0.006,0.012L380.129,381.112z M412.094,364.53
			c-1.438,3.64-5.365,6.37-11.668,8.116c-4.639,1.284-11.536,3.446-19.323,5.984l-8.142-20.941l34.619-11.117l3.631,9.067
			C411.236,355.682,413.859,360.065,412.094,364.53z M406.814,344.658l-34.602,11.109l-8.375-21.54l34.378-11.035L406.814,344.658z
			 M305.061,299.006l8.506,21.878l-38.225,12.272l-8.149-21.832L305.061,299.006z M307.022,298.366l36.101-11.743l8.562,22.022
			l-36.154,11.606L307.022,298.366z M345.084,285.985l33.824-11.003l8.846,22.085l-34.105,10.949L345.084,285.985z M352.432,310.566
			l8.695,22.371l-36.15,11.605l-8.697-22.368L352.432,310.566z M361.875,334.857l8.375,21.542l-36.15,11.606l-8.377-21.542
			L361.875,334.857z M363.092,332.309l-8.695-22.372l34.123-10.955l8.929,22.295L363.092,332.309z M368.124,248.057l-40.259,12.573
			l0.614,1.968l40.413-12.622l9.248,23.091l-53.906,17.535l-3.486-8.386l1.146-0.474c6.756-2.792,9.979-10.561,7.188-17.32
			l-2.912-7.033c-2.058-4.978-6.87-8.196-12.261-8.196c-1.737,0-3.44,0.341-5.062,1.009l-1.11,0.461l-4.433-11.284l54.563-16.926
			L368.124,248.057z M301.485,267.601c-2.359-5.705,0.364-12.27,6.072-14.633l2.077-0.863c1.369-0.564,2.808-0.853,4.275-0.853
			c4.554,0,8.618,2.719,10.358,6.925l2.911,7.031c2.357,5.71-0.365,12.272-6.071,14.631l-2.083,0.861
			c-1.368,0.564-2.806,0.853-4.274,0.853c-4.552,0-8.616-2.718-10.354-6.921L301.485,267.601z M246.869,256.884l54.463-16.894
			l4.521,11.51c-6.119,3.097-8.934,10.449-6.271,16.89l0.395,0.951l-43.396,13.556L246.869,256.884z M300.77,271.253l1.725,4.168
			c2.059,4.977,6.869,8.191,12.257,8.191c1.39,0,2.755-0.228,4.075-0.655l3.443,8.284l-55.799,18.15l-9.169-24.561L300.77,271.253z
			 M322.695,398.543c-0.055,0.025-5.452,2.485-11.432,2.485c-6.896,0-11.654-3.205-14.135-9.508l-21.067-56.436l38.253-12.28
			l8.697,22.37l-37.859,12.153l0.63,1.96l37.978-12.192l8.374,21.541l-38.2,12.267l0.629,1.96l38.319-12.305l8.368,21.525
			C330.631,395.751,322.938,398.455,322.695,398.543z M343.197,391.41l-8.353-21.48l36.151-11.609l8.146,20.953
			C367.435,383.109,354.021,387.68,343.197,391.41z"/>
	</g>
	<g>
		<rect x="262.742" y="0.396" width="6.178" height="448.592"/>
		<path d="M532.691,442.507h-2.061v-10.298h2.061V442.507z M532.691,421.912h-2.061v-10.297h2.061V421.912z M532.691,401.317h-2.061
			V391.02h2.061V401.317z M532.691,380.723h-2.061v-10.298h2.061V380.723z M532.691,360.128h-2.061v-10.297h2.061V360.128z
			 M532.691,339.534h-2.061v-10.298h2.061V339.534z M532.691,318.939h-2.061v-10.298h2.061V318.939z M532.691,298.345h-2.061
			v-10.298h2.061V298.345z M532.691,277.75h-2.061v-10.298h2.061V277.75z M532.691,257.155h-2.061v-10.298h2.061V257.155z
			 M532.691,236.561h-2.061v-10.298h2.061V236.561z M532.691,215.966h-2.061v-10.297h2.061V215.966z M532.691,195.371h-2.061
			v-10.298h2.061V195.371z M532.691,174.776h-2.061v-10.297h2.061V174.776z M532.691,154.183h-2.061v-10.299h2.061V154.183z
			 M532.691,133.587h-2.061V123.29h2.061V133.587z M532.691,112.993h-2.061v-10.298h2.061V112.993z M532.691,92.398h-2.061V82.101
			h2.061V92.398z M532.691,71.804h-2.061V61.507h2.061V71.804z M532.691,51.209h-2.061V40.911h2.061V51.209z M532.691,30.614h-2.061
			V20.317h2.061V30.614z M532.691,10.02h-2.061V-0.278h2.061V10.02z"/>
		<g>
			<rect y="296.89" width="5.148" height="2.06"/>
			<path d="M782.121,298.949h-10.223v-2.06h10.223V298.949z M761.674,298.949h-10.225v-2.06h10.225V298.949z M741.227,298.949
				h-10.223v-2.06h10.223V298.949z M720.781,298.949h-10.223v-2.06h10.223V298.949z M700.334,298.949h-10.223v-2.06h10.223V298.949z
				 M679.889,298.949h-10.225v-2.06h10.225V298.949z M659.439,298.949h-10.223v-2.06h10.223V298.949z M638.994,298.949h-10.223
				v-2.06h10.223V298.949z M618.549,298.949h-10.227v-2.06h10.227V298.949z M598.1,298.949h-10.223v-2.06H598.1V298.949z
				 M577.654,298.949H567.43v-2.06h10.225V298.949z M557.207,298.949h-10.223v-2.06h10.223V298.949z M536.762,298.949h-10.223v-2.06
				h10.223V298.949z M516.312,298.949H506.09v-2.06h10.223V298.949z M495.867,298.949h-10.223v-2.06h10.223V298.949z
				 M475.42,298.949h-10.225v-2.06h10.225V298.949z M454.973,298.949H444.75v-2.06h10.223V298.949z M434.527,298.949h-10.225v-2.06
				h10.225V298.949z M414.08,298.949h-10.223v-2.06h10.223V298.949z M393.635,298.949h-10.226v-2.06h10.226V298.949z
				 M373.187,298.949h-10.223v-2.06h10.223V298.949z M352.74,298.949h-10.223v-2.06h10.223V298.949z M332.293,298.949H322.07v-2.06
				h10.223V298.949z M311.848,298.949h-10.224v-2.06h10.224V298.949z M291.401,298.949h-10.226v-2.06h10.226V298.949z
				 M270.953,298.949H260.73v-2.06h10.223V298.949z M250.508,298.949h-10.225v-2.06h10.225V298.949z M230.06,298.949h-10.222v-2.06
				h10.222V298.949z M209.614,298.949h-10.224v-2.06h10.224V298.949z M189.166,298.949h-10.223v-2.06h10.223V298.949z
				 M168.721,298.949h-10.223v-2.06h10.223V298.949z M148.275,298.949H138.05v-2.06h10.226V298.949z M127.826,298.949h-10.223v-2.06
				h10.223V298.949z M107.381,298.949H97.156v-2.06h10.225V298.949z M86.934,298.949H76.711v-2.06h10.223V298.949z M66.488,298.949
				H56.264v-2.06h10.225V298.949z M46.039,298.949H35.816v-2.06h10.223V298.949z M25.594,298.949H15.371v-2.06h10.223V298.949z"/>
			<rect x="792.344" y="296.89" width="5.148" height="2.06"/>
		</g>
		<rect y="145.303" width="797.492" height="6.179"/>
	</g>
</g>
</svg>
