<?xml version="1.0" encoding="utf-8"?>
<!-- Generator: Adobe Illustrator 15.0.2, SVG Export Plug-In . SVG Version: 6.00 Build 0)  -->
<!DOCTYPE svg PUBLIC "-//W3C//DTD SVG 1.1//EN" "http://www.w3.org/Graphics/SVG/1.1/DTD/svg11.dtd">
<svg version="1.1" id="Layer_3" xmlns="http://www.w3.org/2000/svg" xmlns:xlink="http://www.w3.org/1999/xlink" x="0px" y="0px"
	 width="800px" height="450px" viewBox="0 0 800 450" enable-background="new 0 0 800 450" xml:space="preserve">
<g>
	<g>
		<path d="M266.861,443.086h-2.061v-10.298h2.061V443.086z M266.861,422.491h-2.061v-10.297h2.061V422.491z M266.861,401.897h-2.061
			v-10.299h2.061V401.897z M266.861,381.302h-2.061v-10.298h2.061V381.302z M266.861,360.707h-2.061v-10.298h2.061V360.707z
			 M266.861,340.112h-2.061v-10.298h2.061V340.112z M266.861,319.518h-2.061V309.22h2.061V319.518z M266.861,298.923h-2.061v-10.298
			h2.061V298.923z M266.861,278.329h-2.061v-10.298h2.061V278.329z M266.861,257.734h-2.061v-10.298h2.061V257.734z M266.861,237.14
			h-2.061v-10.299h2.061V237.14z M266.861,216.544h-2.061v-10.297h2.061V216.544z M266.861,195.95h-2.061v-10.298h2.061V195.95z
			 M266.861,175.354h-2.061v-10.297h2.061V175.354z M266.861,154.761h-2.061v-10.297h2.061V154.761z M266.861,134.165h-2.061
			v-10.297h2.061V134.165z M266.861,113.571h-2.061v-10.297h2.061V113.571z M266.861,92.978h-2.061V82.679h2.061V92.978z
			 M266.861,72.382h-2.061V62.085h2.061V72.382z M266.861,51.788h-2.061V41.49h2.061V51.788z M266.861,31.192h-2.061V20.896h2.061
			V31.192z M266.861,10.599h-2.061V0.301h2.061V10.599z"/>
		<polygon points="534.752,448.317 528.574,448.317 528.574,2.348 531.652,0.46 534.752,2.69 		"/>
		<g>
			<rect y="298.332" width="5.148" height="2.06"/>
			<path d="M782.123,300.392h-10.225v-2.06h10.225V300.392z M761.676,300.392h-10.225v-2.06h10.225V300.392z M741.229,300.392
				h-10.223v-2.06h10.223V300.392z M720.783,300.392h-10.225v-2.06h10.225V300.392z M700.336,300.392h-10.225v-2.06h10.225V300.392z
				 M679.889,300.392h-10.223v-2.06h10.223V300.392z M659.441,300.392h-10.223v-2.06h10.223V300.392z M638.994,300.392h-10.223
				v-2.06h10.223V300.392z M618.549,300.392h-10.225v-2.06h10.225V300.392z M598.102,300.392h-10.223v-2.06h10.223V300.392z
				 M577.654,300.392h-10.223v-2.06h10.223V300.392z M557.209,300.392h-10.225v-2.06h10.225V300.392z M536.762,300.392h-10.225
				v-2.06h10.225V300.392z M516.314,300.392H506.09v-2.06h10.225V300.392z M495.867,300.392h-10.223v-2.06h10.223V300.392z
				 M475.422,300.392h-10.225v-2.06h10.225V300.392z M454.975,300.392H444.75v-2.06h10.225V300.392z M434.527,300.392h-10.223v-2.06
				h10.223V300.392z M414.082,300.392h-10.225v-2.06h10.225V300.392z M393.635,300.392h-10.223v-2.06h10.223V300.392z
				 M373.188,300.392h-10.223v-2.06h10.223V300.392z M352.74,300.392h-10.223v-2.06h10.223V300.392z M332.295,300.392H322.07v-2.06
				h10.225V300.392z M311.848,300.392h-10.223v-2.06h10.223V300.392z M291.4,300.392h-10.223v-2.06H291.4V300.392z M270.953,300.392
				h-10.221v-2.06h10.221V300.392z M250.508,300.392h-10.223v-2.06h10.223V300.392z M230.061,300.392h-10.223v-2.06h10.223V300.392z
				 M209.613,300.392h-10.223v-2.06h10.223V300.392z M189.168,300.392h-10.223v-2.06h10.223V300.392z M168.721,300.392h-10.223
				v-2.06h10.223V300.392z M148.275,300.392h-10.225v-2.06h10.225V300.392z M127.828,300.392h-10.225v-2.06h10.225V300.392z
				 M107.381,300.392H97.158v-2.06h10.223V300.392z M86.934,300.392H76.711v-2.06h10.223V300.392z M66.486,300.392H56.264v-2.06
				h10.223V300.392z M46.041,300.392H35.818v-2.06h10.223V300.392z M25.594,300.392H15.371v-2.06h10.223V300.392z"/>
			<rect x="792.346" y="298.332" width="5.148" height="2.06"/>
		</g>
		<path d="M792.893,150.862h-10.297v-2.061h10.297V150.862z M772.299,150.862H762v-2.061h10.299V150.862z M751.703,150.862h-10.297
			v-2.061h10.297V150.862z M731.109,150.862h-10.299v-2.061h10.299V150.862z M710.514,150.862h-10.297v-2.061h10.297V150.862z
			 M689.918,150.862h-10.297v-2.061h10.297V150.862z M669.324,150.862h-10.297v-2.061h10.297V150.862z M648.729,150.862h-10.295
			v-2.061h10.295V150.862z M628.135,150.862h-10.297v-2.061h10.297V150.862z M607.539,150.862h-10.297v-2.061h10.297V150.862z
			 M586.945,150.862h-10.297v-2.061h10.297V150.862z M566.352,150.862h-10.297v-2.061h10.297V150.862z M545.756,150.862h-10.297
			v-2.061h10.297V150.862z M525.162,150.862h-10.297v-2.061h10.297V150.862z M504.568,150.862h-10.297v-2.061h10.297V150.862z
			 M483.973,150.862h-10.297v-2.061h10.297V150.862z M463.377,150.862H453.08v-2.061h10.297V150.862z M442.783,150.862h-10.297
			v-2.061h10.297V150.862z M422.189,150.862h-10.297v-2.061h10.297V150.862z M401.594,150.862h-10.297v-2.061h10.297V150.862z
			 M381,150.862h-10.297v-2.061H381V150.862z M360.404,150.862h-10.297v-2.061h10.297V150.862z M339.811,150.862h-10.297v-2.061
			h10.297V150.862z M319.217,150.862h-10.299v-2.061h10.299V150.862z M298.621,150.862h-10.297v-2.061h10.297V150.862z
			 M278.027,150.862h-10.299v-2.061h10.299V150.862z M257.432,150.862h-10.297v-2.061h10.297V150.862z M236.838,150.862h-10.299
			v-2.061h10.299V150.862z M216.242,150.862h-10.297v-2.061h10.297V150.862z M195.648,150.862h-10.297v-2.061h10.297V150.862z
			 M175.055,150.862h-10.299v-2.061h10.299V150.862z M154.459,150.862h-10.297v-2.061h10.297V150.862z M133.865,150.862h-10.299
			v-2.061h10.299V150.862z M113.27,150.862h-10.297v-2.061h10.297V150.862z M92.676,150.862H82.377v-2.061h10.299V150.862z
			 M72.08,150.862H61.783v-2.061H72.08V150.862z M51.486,150.862H41.189v-2.061h10.297V150.862z M30.891,150.862H20.594v-2.061
			h10.297V150.862z M10.297,150.862H0v-2.061h10.297V150.862z"/>
	</g>
	<g>
		<polygon points="111.072,322.875 90.881,319.3 91.238,317.273 110.582,320.695 529.123,22.476 797.312,270.021 795.914,271.534 
			528.955,25.124 		"/>
		<rect x="528.01" y="23.8" width="2.061" height="425.279"/>
		<path d="M178.932,396.37v-64.205l0.461-0.306l302.279-199.362v73.104l-0.48,0.303L178.932,396.37z M180.99,333.273v59.363
			l298.623-188.173v-68.141L180.99,333.273z"/>
		<polygon points="387.396,450 386.477,448.159 478.9,402.104 478.9,280.987 195.936,449.965 194.879,448.194 480.959,277.358 
			480.959,403.378 		"/>
		<path d="M782.354,390.652L576.406,203.429v-71.342l205.947,186.789V390.652z M578.467,202.518l201.826,183.479V319.79
			L578.467,136.734V202.518z"/>
		<polygon points="650.973,449.108 576.406,395.029 576.406,276.865 766.566,447.509 765.189,449.042 578.467,281.48 
			578.467,393.979 652.182,447.441 		"/>
		<path d="M88.248,319.29c-10.641,0-16.295-1.785-17.287-5.456c-1.869-6.911,14.916-16.926,16.836-18.046L504.758-1.153l1.195,1.678
			L88.912,297.518c-6.805,3.973-17.064,11.711-15.965,15.777c0.396,1.461,2.883,3.9,15.037,3.937L531.748-1.026l0.617,0.576
			l264.951,247.406l-1.406,1.505L531.576,1.631L88.646,319.29h-0.33C88.293,319.29,88.271,319.29,88.248,319.29z"/>
		
			<rect x="510.862" y="112.063" transform="matrix(0.7284 0.6851 -0.6851 0.7284 261.1617 -432.6917)" width="331.063" height="2.06"/>
		<rect x="109.797" y="321.785" width="2.061" height="127.294"/>
	</g>
</g>
</svg>
