<?xml version="1.0" encoding="utf-8"?>
<!-- Generator: Adobe Illustrator 15.0.2, SVG Export Plug-In . SVG Version: 6.00 Build 0)  -->
<!DOCTYPE svg PUBLIC "-//W3C//DTD SVG 1.1//EN" "http://www.w3.org/Graphics/SVG/1.1/DTD/svg11.dtd">
<svg version="1.1" id="Layer_3" xmlns="http://www.w3.org/2000/svg" xmlns:xlink="http://www.w3.org/1999/xlink" x="0px" y="0px"
	 width="800px" height="450px" viewBox="0 0 800 450" enable-background="new 0 0 800 450" xml:space="preserve">
<g>
	<g>
		<path fill="#FFFFFF" d="M266.861,443.086H264.8v-10.298h2.061V443.086z M266.861,422.491H264.8v-10.297h2.061V422.491z
			 M266.861,401.897H264.8v-10.302h2.061V401.897z M266.861,381.302H264.8v-10.298h2.061V381.302z M266.861,360.707H264.8v-10.298
			h2.061V360.707z M266.861,340.112H264.8v-10.298h2.061V340.112z M266.861,319.518H264.8V309.22h2.061V319.518z M266.861,298.923
			H264.8v-10.298h2.061V298.923z M266.861,278.329H264.8v-10.298h2.061V278.329z M266.861,257.734H264.8v-10.299h2.061V257.734z
			 M266.861,237.141H264.8v-10.3h2.061V237.141z M266.861,216.544H264.8v-10.297h2.061V216.544z M266.861,195.95H264.8v-10.298
			h2.061V195.95z M266.861,175.354H264.8v-10.297h2.061V175.354z M266.861,154.761H264.8v-10.297h2.061V154.761z M266.861,134.165
			H264.8v-10.297h2.061V134.165z M266.861,113.571H264.8v-10.297h2.061V113.571z M266.861,92.978H264.8V82.679h2.061V92.978z
			 M266.861,72.382H264.8V62.085h2.061V72.382z M266.861,51.788H264.8V41.49h2.061V51.788z M266.861,31.192H264.8V20.896h2.061
			V31.192z M266.861,10.599H264.8V0.301h2.061V10.599z"/>
		<polygon fill="#FFFFFF" points="534.752,448.317 528.574,448.317 528.574,2.348 531.652,0.46 534.752,2.69 		"/>
		<g>
			<rect y="298.332" fill="#FFFFFF" width="5.148" height="2.061"/>
			<path fill="#FFFFFF" d="M782.123,300.393h-10.225v-2.061h10.225V300.393z M761.676,300.393h-10.225v-2.061h10.225V300.393z
				 M741.229,300.393h-10.223v-2.061h10.223V300.393z M720.783,300.393h-10.225v-2.061h10.225V300.393z M700.336,300.393h-10.225
				v-2.061h10.225V300.393z M679.889,300.393h-10.223v-2.061h10.223V300.393z M659.441,300.393h-10.226v-2.061h10.226V300.393z
				 M638.994,300.393h-10.223v-2.061h10.223V300.393z M618.549,300.393h-10.225v-2.061h10.225V300.393z M598.102,300.393h-10.223
				v-2.061h10.223V300.393z M577.654,300.393H567.43v-2.061h10.226L577.654,300.393L577.654,300.393z M557.209,300.393h-10.225
				v-2.061h10.225V300.393z M536.762,300.393h-10.225v-2.061h10.225V300.393z M516.314,300.393H506.09v-2.061h10.228
				L516.314,300.393L516.314,300.393z M495.867,300.393h-10.223v-2.061h10.223V300.393z M475.422,300.393h-10.225v-2.061h10.225
				V300.393z M454.975,300.393H444.75v-2.061h10.225V300.393z M434.527,300.393h-10.226v-2.061h10.226V300.393z M414.082,300.393
				h-10.225v-2.061h10.225V300.393z M393.635,300.393h-10.223v-2.061h10.223V300.393z M373.188,300.393h-10.223v-2.061h10.223
				V300.393z M352.74,300.393h-10.223v-2.061h10.223V300.393z M332.295,300.393H322.07v-2.061h10.225V300.393z M311.848,300.393
				h-10.223v-2.061h10.223V300.393z M291.4,300.393h-10.223v-2.061H291.4V300.393z M270.953,300.393h-10.221v-2.061h10.221V300.393z
				 M250.508,300.393h-10.223v-2.061h10.223V300.393z M230.061,300.393h-10.223v-2.061h10.223V300.393z M209.613,300.393H199.39
				v-2.061h10.223V300.393z M189.168,300.393h-10.223v-2.061h10.223V300.393z M168.721,300.393h-10.223v-2.061h10.223
				L168.721,300.393L168.721,300.393z M148.275,300.393H138.05v-2.061h10.225V300.393L148.275,300.393z M127.828,300.393h-10.225
				v-2.061h10.225V300.393z M107.381,300.393H97.158v-2.061h10.223V300.393z M86.934,300.393H76.711v-2.061h10.223V300.393z
				 M66.486,300.393H56.264v-2.061h10.223L66.486,300.393L66.486,300.393z M46.041,300.393H35.818v-2.061h10.223V300.393z
				 M25.594,300.393H15.371v-2.061h10.223V300.393z"/>
			<rect x="792.346" y="298.332" fill="#FFFFFF" width="5.148" height="2.061"/>
		</g>
		<path fill="#FFFFFF" d="M792.893,150.862h-10.297v-2.061h10.297V150.862z M772.299,150.862H762v-2.061h10.299V150.862z
			 M751.703,150.862h-10.297v-2.061h10.297V150.862z M731.109,150.862h-10.299v-2.061h10.299V150.862z M710.514,150.862h-10.297
			v-2.061h10.297V150.862z M689.918,150.862h-10.297v-2.061h10.297V150.862z M669.324,150.862h-10.297v-2.061h10.297V150.862z
			 M648.729,150.862h-10.295v-2.061h10.295V150.862z M628.135,150.862h-10.297v-2.061h10.297V150.862z M607.539,150.862h-10.297
			v-2.061h10.297V150.862z M586.945,150.862h-10.297v-2.061h10.297V150.862z M566.352,150.862h-10.297v-2.061h10.297V150.862z
			 M545.756,150.862h-10.297v-2.061h10.297V150.862z M525.162,150.862h-10.297v-2.061h10.297V150.862z M504.568,150.862h-10.297
			v-2.061h10.297V150.862z M483.973,150.862h-10.297v-2.061h10.297V150.862z M463.377,150.862H453.08v-2.061h10.297V150.862
			L463.377,150.862z M442.783,150.862h-10.297v-2.061h10.297V150.862z M422.189,150.862h-10.3v-2.061h10.3V150.862z
			 M401.594,150.862h-10.297v-2.061h10.297V150.862z M381,150.862h-10.297v-2.061H381V150.862z M360.404,150.862h-10.297v-2.061
			h10.297V150.862z M339.811,150.862h-10.297v-2.061h10.297V150.862z M319.217,150.862h-10.299v-2.061h10.299V150.862z
			 M298.621,150.862h-10.297v-2.061h10.297V150.862z M278.027,150.862h-10.299v-2.061h10.299V150.862z M257.432,150.862h-10.297
			v-2.061h10.297V150.862z M236.838,150.862h-10.299v-2.061h10.299V150.862z M216.242,150.862h-10.297v-2.061h10.297V150.862z
			 M195.648,150.862h-10.297v-2.061h10.297V150.862z M175.055,150.862h-10.299v-2.061h10.299V150.862z M154.459,150.862h-10.297
			v-2.061h10.297V150.862z M133.865,150.862h-10.299v-2.061h10.299V150.862z M113.27,150.862h-10.297v-2.061h10.297V150.862z
			 M92.676,150.862H82.377v-2.061h10.299V150.862z M72.08,150.862H61.783v-2.061H72.08V150.862z M51.486,150.862H41.189v-2.061
			h10.297V150.862z M30.891,150.862H20.594v-2.061h10.297V150.862z M10.297,150.862H0v-2.061h10.297V150.862z"/>
	</g>
	<g>
		<polygon fill="#FFFFFF" points="111.072,322.875 90.881,319.3 91.238,317.273 110.582,320.695 529.123,22.476 797.312,270.021 
			795.914,271.534 528.955,25.124 		"/>
		<rect x="528.01" y="23.8" fill="#FFFFFF" width="2.062" height="425.279"/>
		<path fill="#FFFFFF" d="M178.932,396.37v-64.205l0.461-0.306l302.279-199.362v73.104l-0.479,0.303L178.932,396.37z
			 M180.99,333.273v59.36l298.623-188.173V136.32L180.99,333.273z"/>
		<polygon fill="#FFFFFF" points="387.396,450 386.477,448.159 478.9,402.104 478.9,280.986 195.936,449.965 194.879,448.194 
			480.959,277.357 480.959,403.378 		"/>
		<path fill="#FFFFFF" d="M782.354,390.652L576.406,203.429v-71.342l205.947,186.789V390.652L782.354,390.652z M578.467,202.518
			l201.826,183.479V319.79L578.467,136.734V202.518z"/>
		<polygon fill="#FFFFFF" points="650.973,449.108 576.406,395.029 576.406,276.865 766.566,447.509 765.189,449.042 
			578.467,281.48 578.467,393.979 652.182,447.441 		"/>
		<path fill="#FFFFFF" d="M88.248,319.29c-10.641,0-16.295-1.785-17.287-5.456c-1.869-6.911,14.916-16.926,16.836-18.046
			L504.758-1.153l1.195,1.678L88.912,297.518c-6.805,3.976-17.064,11.711-15.965,15.777c0.396,1.461,2.883,3.9,15.037,3.938
			L531.748-1.026l0.617,0.576l264.951,247.406l-1.406,1.505L531.576,1.631L88.646,319.29h-0.33
			C88.293,319.29,88.271,319.29,88.248,319.29z"/>
		
			<rect x="510.853" y="112.053" transform="matrix(-0.7284 -0.6851 0.6851 -0.7284 1091.5739 658.851)" fill="#FFFFFF" width="331.027" height="2.059"/>
		<rect x="109.797" y="321.785" fill="#FFFFFF" width="2.061" height="127.294"/>
	</g>
</g>
</svg>
