<?xml version="1.0" encoding="utf-8"?>
<!-- Generator: Adobe Illustrator 15.0.2, SVG Export Plug-In . SVG Version: 6.00 Build 0)  -->
<!DOCTYPE svg PUBLIC "-//W3C//DTD SVG 1.1//EN" "http://www.w3.org/Graphics/SVG/1.1/DTD/svg11.dtd">
<svg version="1.1" id="Layer_3" xmlns="http://www.w3.org/2000/svg" xmlns:xlink="http://www.w3.org/1999/xlink" x="0px" y="0px"
	 width="800px" height="450px" viewBox="0 0 800 450" enable-background="new 0 0 800 450" xml:space="preserve">
<g>
	<g>
		<path fill="#FFFFFF" d="M437.887,291.391l-0.311-2.033c4.43-0.678,11.965-6.721,15.18-9.301c0.619-0.5,1.115-0.896,1.447-1.146
			c0.041-0.029,0.123-0.093,0.154-0.318c0.174-1.321-1.627-4.323-2.966-6.03l1.623-1.271c0.627,0.804,3.729,4.931,3.384,7.57
			c-0.099,0.709-0.427,1.295-0.955,1.694c-0.322,0.238-0.804,0.625-1.398,1.104C450.414,284.572,442.865,290.633,437.887,291.391z"
			/>
		<path fill="#FFFFFF" d="M440.344,281.648v-2.062c2.967,0,8.773-4.976,10.354-8.868c0.338-0.828,0.608-1.945,0.002-2.537
			c-3.32-3.228-8.941-11.81-9.179-12.173l1.726-1.125c0.057,0.089,5.729,8.755,8.891,11.816c0.789,0.771,1.515,2.225,0.474,4.791
			C450.846,275.836,444.459,281.648,440.344,281.648z"/>
		<path fill="#FFFFFF" d="M442.383,255.449"/>
		<path fill="#FFFFFF" d="M418.1,185.691"/>
		<path fill="#FFFFFF" d="M417.859,297.932c-4.996,0-7.66-0.975-8.146-2.977c-0.619-2.561,2.801-5.09,4.918-6.184
			c3.156-1.627,4.783-7.017,5.104-8.174c-0.687-3.935,2.92-20.177,3.75-23.822c-0.054-1.254-0.611-11.854-5.314-25.299
			c-5.127-14.663-2.125-38.581-1.994-39.59l0.908-6.34c-0.008-0.004,0.148-13.549-0.992-24.586l2.047-0.211
			c1.154,11.156,0.996,24.818,0.994,24.955l-0.914,6.459c-0.028,0.229-3.067,24.436,1.896,38.631
			c5.1,14.582,5.426,25.593,5.438,26.054l0.002,0.129l-0.027,0.125c-1.784,7.83-4.383,21.062-3.739,23.229l0.078,0.264l-0.064,0.271
			c-0.074,0.305-1.854,7.488-6.217,9.738c-2.441,1.259-4.053,3.08-3.861,3.865c0.035,0.146,0.504,1.405,6.146,1.405
			c8.36,0,14.49-0.582,17.211-3.428c1.096-1.146,1.586-2.65,1.5-4.603l-0.017-0.299l0.148-0.262
			c0.053-0.092,5.178-9.119,3.285-14.955c-1.562-4.814,1.506-16.23,4.209-26.307c1.049-3.908,2.041-7.604,2.629-10.437
			c0.111-0.366,8.375-25.967,8.041-35.625c-0.351-10.123-4.354-33.033-7.023-40.186l1.863-0.865
			c0.188,0.328,4.527,8.061,5.424,10.734c0.164,0.459,4.105,11.668,4.625,18.186l0.146,1.742c0.408,4.904,0.492,5.924-0.965,10.428
			c-0.73,2.266-0.347,4.08,0.037,4.846c0.016-0.051,0.028-0.105,0.047-0.168c1.067-4.08,1.77-5.279,2.965-5.119
			c0.609,0.08,1.637,0.211,1.637,5.381c0.098,1.65-0.266,3.977-0.619,6.223c-0.323,2.078-0.932,5.943-0.348,6.512
			c0.32-0.154,2.201-1.777,3.027-19.736c-0.008-0.139-0.459-20.793-2.898-32.396c-1.889-8.998-8.949-26.498-11.029-29.033
			c-0.996-1.215-3.307-1.803-5.752-2.428c-2.5-0.637-5.088-1.297-7.002-2.762c-4.071-3.121-3.688-7.109-3.672-7.277l2.049,0.223
			l-1.021-0.111l1.021,0.104c-0.012,0.123-0.244,3.039,2.873,5.426c1.58,1.209,3.959,1.818,6.263,2.404
			c2.782,0.709,5.411,1.379,6.837,3.117c2.515,3.066,9.55,20.865,11.449,29.914c2.48,11.793,2.938,32.637,2.939,32.846
			c-0.59,12.887-1.719,19.391-3.66,21.158c-0.572,0.521-1.16,0.602-1.535,0.594c-0.602-0.029-1.117-0.287-1.489-0.744
			c-1.085-1.332-0.736-3.955-0.085-8.127c0.337-2.141,0.683-4.354,0.597-5.844c0-0.533-0.021-1.072-0.051-1.568
			c-0.146,0.473-0.312,1.055-0.502,1.77c-0.294,1.123-0.822,1.789-1.57,1.98c-0.613,0.15-1.248-0.066-1.752-0.602
			c-0.439-0.469-0.804-1.219-1.017-2.148c-1.361,11.557-7.561,30.751-7.858,31.68c-0.57,2.78-1.568,6.504-2.628,10.442
			c-2.5,9.312-5.61,20.898-4.237,25.137c2.004,6.179-2.422,14.729-3.313,16.355c0.047,2.371-0.648,4.326-2.075,5.816
			C433.334,297.242,426.752,297.932,417.859,297.932z M452.217,168.066c2.205,9.928,4.394,23.969,4.699,31.504
			c0.021-0.066,0.041-0.133,0.062-0.201c1.325-4.109,1.268-4.844,0.866-9.621l-0.143-1.752c-0.498-6.25-4.479-17.562-4.521-17.678
			C453.004,169.773,452.652,168.979,452.217,168.066z"/>
		<path fill="#FFFFFF" d="M394.869,219.775c-0.131,0-0.26-0.02-0.389-0.055c-1.174-0.318-1.221-1.803-1.242-2.361
			c-0.104-3.145,3.043-7.541,6.377-12.195c1.879-2.627,3.656-5.107,4.645-7.123c1.291-2.627,3.857-14.822,4.777-19.498
			c-0.51-5.516-1.129-10.244-1.676-14.418c-1.123-8.568-1.937-14.758-0.873-20.586c1.19-6.562,7.444-8.328,11.586-9.496
			c1.592-0.451,3.094-0.875,3.676-1.389c1.451-1.277,1.764-4.025,1.762-4.975l2.062-0.004c0,0.178-0.021,4.373-2.459,6.521
			c-0.938,0.826-2.498,1.268-4.479,1.826c-4.078,1.152-9.155,2.586-10.119,7.885c-1.004,5.51-0.209,11.566,0.892,19.949
			c0.553,4.232,1.184,9.025,1.695,14.643l0.018,0.148l-0.031,0.145c-0.133,0.682-3.287,16.715-4.977,20.156
			c-1.064,2.168-2.892,4.715-4.818,7.414c-2.797,3.904-5.961,8.32-5.994,10.795c0.978-1.139,2.506-3.557,3.088-4.479
			c3.238-5.111,5.592-5.371,6.027-5.371c0.254,0.029,2.49,0.436,2.408,3.814c0.402-0.84,0.799-2.006,0.943-3.404
			c0.241-2.355,2.518-7.033,2.774-7.557c1.299-2.293,6.56-14.744,6.609-14.871l1.897,0.801c-0.221,0.518-5.36,12.689-6.688,15.033
			c-0.632,1.281-2.373,5.119-2.547,6.803c-0.302,2.936-1.75,5.928-3.164,6.537c-0.502,0.215-1.021,0.164-1.421-0.146
			c-0.727-0.559-0.657-1.627-0.549-2.381c0.24-1.613-0.096-2.322-0.379-2.533c-0.418,0.148-1.973,0.895-4.176,4.377
			C397.385,218.111,396.107,219.775,394.869,219.775z"/>
		<path fill="#FFFFFF" d="M429.256,131.52L429.256,131.52c-2,0-4.943-0.957-7.615-5.518c-2.653-4.535-3.703-8.609-3.104-12.105
			c0.873-7.299,3.078-11.561,6.574-12.818c0.694-0.25,1.481-0.377,2.344-0.377c4.688,0,10.166,3.65,11.215,9.76
			c1.236,7.205-1.758,16.42-4.303,18.879C433.686,129.996,431.828,131.52,429.256,131.52z M427.451,102.76
			c-0.621,0-1.174,0.086-1.646,0.256c-3.367,1.211-4.688,6.633-5.201,10.969l-0.036,0.258c-0.517,3.006,0.444,6.611,2.854,10.717
			c1.724,2.945,3.742,4.502,5.836,4.502l0,0c1.822,0,3.179-1.119,3.676-1.602c1.947-1.883,4.854-10.375,3.701-17.051
			C435.684,105.258,430.691,102.76,427.451,102.76z"/>
		<path fill="#FFFFFF" d="M425.531,257.047l-2.029-0.348c2.145-12.561,7.678-45.787,7.527-48.65l2.057-0.105
			C433.277,211.617,425.848,255.193,425.531,257.047z"/>
		<path fill="#FFFFFF" d="M436.721,289.635c-1.18,0-1.998-1.209-3.119-2.865c-0.975-1.438-2.188-3.229-3.639-4.092
			c-3.281-1.953-9.115,0.088-9.174,0.105l-0.695-1.938c0.277-0.101,6.799-2.394,10.924,0.061c1.847,1.098,3.199,3.1,4.289,4.709
			c0.422,0.623,0.972,1.432,1.33,1.801c0.015-0.02,0.023-0.043,0.035-0.068l1.85,0.904c-0.422,0.867-0.981,1.33-1.676,1.379
			C436.803,289.633,436.762,289.635,436.721,289.635z"/>
		<path fill="#FFFFFF" d="M417.6,203.654c-0.758,0-1.19-0.02-1.289-0.025l0.104-2.057c0.147,0,14.926,0.646,37.779-7.176
			l0.666,1.949C435.219,203.07,421.699,203.654,417.6,203.654z"/>
		<path fill="#FFFFFF" d="M431.104,138.16c-5.387,0-9.235-3.842-9.401-4.012l1.467-1.447c0.035,0.035,3.609,3.609,8.389,3.389
			c3.138-0.152,6.113-1.932,8.854-5.287l1.598,1.303c-3.131,3.834-6.621,5.867-10.373,6.043
			C431.453,138.156,431.277,138.16,431.104,138.16z"/>
	</g>
	<g>
		<path fill="#FFFFFF" d="M498.768,270.715c-10.153-6.367-7.352-19.477-6.75-21.838c-9.998-24.637-5.666-50.078-5.065-53.238
			c-1.676-4.201-2.074-15.516-2.092-16.008l2.061-0.068c0.111,3.324,0.693,12.596,2.039,15.535l0.141,0.309l-0.067,0.332
			c-0.06,0.268-5.529,26.994,5.026,52.68l0.142,0.34l-0.107,0.354c-0.041,0.135-4.014,13.725,5.773,19.859L498.768,270.715z"/>
		<path fill="#FFFFFF" d="M553.873,423.148c-8.275,0-13.293-1.438-15.988-4.502c-2.17-2.474-2.756-5.892-1.848-10.763
			c1.668-8.932,0.32-10.709,0.307-10.727l1.301-1.584c0.74,0.522,2.263,2.811,0.416,12.688c-0.78,4.199-0.346,7.068,1.371,9.023
			c2.699,3.069,8.812,4.238,19.238,3.662c4.703-0.259,7.504-1.267,8.326-2.99c1.291-2.711-2.223-7.557-5.047-11.451
			c-1.219-1.68-2.369-3.268-3.154-4.666l1.799-1.006c0.728,1.295,1.84,2.832,3.023,4.465c3.307,4.562,7.055,9.729,5.24,13.547
			c-1.188,2.488-4.482,3.854-10.074,4.156C557.031,423.102,555.396,423.148,553.873,423.148z"/>
		<path fill="#FFFFFF" d="M559.734,412.355c-8.961-4.188-12.32-0.438-12.461-0.273l-1.591-1.309
			c0.177-0.218,4.396-5.201,14.925-0.285L559.734,412.355z"/>
		<path fill="#FFFFFF" d="M520.188,395.146c-2.526,0-4.959-0.679-6.87-2.037c-2.906-2.074-4.017-5.438-3.039-9.23
			c2.219-8.611,1.778-10.9,1.764-10.992l1.992-0.52c0.069,0.254,0.627,2.756-1.763,12.021c-0.979,3.806,0.681,5.931,2.24,7.041
			c3.287,2.347,8.729,2.158,12.658-0.432c6.838-4.519,6.695-5.486,2.664-16.816l1.939-0.688c4.104,11.537,4.618,13.881-3.472,19.223
			C525.857,394.332,522.965,395.146,520.188,395.146z"/>
		<path fill="#FFFFFF" d="M555.588,402.369c-7.574,0-18.619-2.717-20.111-8.185c-1.493-5.481-0.979-11.709-0.477-17.729
			c0.119-1.418,0.232-2.791,0.316-4.119c-2.765,1.824-7.345,2.732-11.115,2.957c-5.131,0.307-11.344-0.443-13.353-3.463
			c-1.646-2.473-1.375-4.709-1.034-7.541c0.403-3.35,0.959-7.939-1.478-15.631c-8.651-27.334-8.662-29.01-8.707-38.312l-0.021-2.657
			c-0.275-24.447,0.504-63.763,0.512-64.154l2.061,0.043c-0.01,0.393-0.789,39.674-0.512,64.088l0.021,2.674
			c0.045,9.037,0.053,10.666,8.606,37.701c2.57,8.117,1.986,12.961,1.562,16.498c-0.324,2.688-0.521,4.312,0.702,6.154
			c1.218,1.828,5.941,2.864,11.515,2.547c5.647-0.336,10.475-2.015,11.473-3.986l0.002-4.074l1.947,4.564
			c-0.055,2.186-0.246,4.469-0.447,6.887c-0.483,5.84-0.991,11.879,0.41,17.016c1.268,4.634,14.055,7.433,21.041,6.49
			c2.367-0.315,2.881-0.936,2.881-1.069c0-1.828,0.854-4.517,1.938-7.914c1.672-5.265,3.965-12.472,4.289-20.445
			c0.272-6.814-1.25-10.463-2.479-13.396c-1.063-2.557-1.992-4.766-0.859-7.771c1.941-5.182,3.822-21.369,0.599-42.768
			c-3.15-20.877,8.562-58.863,9.062-60.474l1.97,0.611c-0.119,0.391-12.072,39.145-8.996,59.555
			c3.289,21.781,1.312,38.424-0.703,43.795c-0.844,2.244-0.211,3.756,0.834,6.256c1.238,2.957,2.93,7.007,2.639,14.275
			c-0.338,8.254-2.678,15.613-4.391,20.986c-1.025,3.227-1.838,5.776-1.838,7.289c0,1.135-0.812,2.598-4.666,3.11
			C557.828,402.305,556.748,402.369,555.588,402.369z"/>
		<path fill="#FFFFFF" d="M514.984,386.967l-1.789-1.021c0.16-0.277,4.008-6.793,17.842-3.574l-0.465,2.004
			C518.365,381.545,515.119,386.744,514.984,386.967z"/>
		<path fill="#FFFFFF" d="M535.447,369.842c-1.101-9.063-4.527-38.869-2.646-41.709c1.408-2.123-1.158-22.986-2.062-27.652
			c-0.539-2.766-4.002-28.391-4.002-41.112h2.059c0,12.604,3.437,37.979,3.965,40.725c0.05,0.246,4.076,25.687,1.759,29.183
			c-0.986,1.993,0.791,22.271,2.977,40.323L535.447,369.842z"/>
		<path fill="#FFFFFF" d="M571.85,218.145"/>
		<path fill="#FFFFFF" d="M585.732,163.402c-0.015-0.096-1.261-9.779-4.396-25.514c-3.117-15.637-9.469-17.182-14.572-18.424
			c-5.662-1.379-16.647-6.201-17.112-6.406l0.825-1.885c0.113,0.049,11.289,4.953,16.773,6.291
			c5.373,1.307,12.732,3.096,16.107,20.02c3.149,15.814,4.401,25.562,4.416,25.658L585.732,163.402z"/>
		<path fill="#FFFFFF" d="M545.143,110.738c-2.623-1.283-4.217-2.893-4.731-4.777c-0.586-2.127,0.467-3.771,0.51-3.842l1.729,1.127
			l-0.863-0.562l0.869,0.553c-0.025,0.039-0.604,0.986-0.25,2.211c0.361,1.262,1.625,2.451,3.646,3.441L545.143,110.738z"/>
		<path fill="#FFFFFF" d="M485.838,162.248c-0.002-0.121-0.146-12.115-0.576-21.77c-0.463-10.449,6.767-15.896,10.652-17.318
			c3.666-1.336,16.746-7.992,16.877-8.059l0.936,1.834c-0.543,0.275-13.321,6.779-17.104,8.16c-3.396,1.24-9.713,6.035-9.303,15.293
			c0.428,9.686,0.576,21.713,0.579,21.834L485.838,162.248z"/>
		<path fill="#FFFFFF" d="M542.393,252.598c-3.69,0-6.651-0.266-8.157-0.854c-3.572-1.396-5.509-4.701-6.552-7.857
			c-0.842,3.1-2.297,5.465-4.27,6.818c-2.191,1.504-4.904,1.688-7.848,0.523l-0.988-0.396c-6.299-2.549-11.683-5.246-16.008-7.414
			c-1.076-0.541-2.076-1.043-2.99-1.492c-4.285-2.1-2.795-9.875-1.482-16.732c0.386-2.004,0.744-3.895,0.912-5.412
			c0.541-4.941,1.797-18.094,1.797-33.424h2.062c0,15.432-1.269,28.672-1.812,33.646c-0.176,1.602-0.545,3.533-0.936,5.576
			c-1.06,5.523-2.506,13.088,0.365,14.498c0.92,0.451,1.926,0.955,3.008,1.496c4.291,2.152,9.635,4.83,15.854,7.348l0.979,0.391
			c2.307,0.914,4.303,0.812,5.922-0.307c2.686-1.842,4.256-6.436,4.203-12.285l0,0l2.061-0.02v0.002l0,0c0,0,0,0,0,0.002
			c0.004,0.23,0.224,10.678,6.47,13.121c5.258,2.049,33.034-0.568,39.059-4.408c0.682-0.434,0.877-0.756,0.885-0.877
			c0.146-2.307-0.553-5.551-1.436-9.658c-0.979-4.539-2.191-10.188-2.664-16.664l2.055-0.148c0.461,6.332,1.66,11.902,2.621,16.379
			c0.918,4.264,1.643,7.631,1.479,10.221c-0.057,0.912-0.674,1.748-1.831,2.486C570.174,250.324,553.18,252.598,542.393,252.598z"/>
		<path fill="#FFFFFF" d="M527.375,113.146c-0.277,0-0.553-0.018-0.828-0.051c-4.176-0.52-7.521-4.916-13.553-13.297
			c-3.771-5.23-3.67-8.439-3.547-12.504c0.092-2.979,0.192-6.352-1.08-11.594l2-0.488c1.34,5.516,1.229,9.191,1.139,12.145
			c-0.119,3.961-0.199,6.576,3.158,11.238c5.529,7.68,8.818,12.045,12.137,12.455c2.769,0.338,6.166-1.98,11.078-6.119
			c12.271-10.334,8.371-18.225,8.33-18.303l-0.248-0.479l0.252-0.479c1.924-3.646,4.031-9.492,2.689-11.066
			c-0.672-0.787-2.512-0.312-3.551,0.041l-0.66-1.951c2.721-0.918,4.668-0.729,5.776,0.576c2.529,2.967-1,10.545-2.209,12.924
			c0.806,2.113,2.812,10.318-9.055,20.311C534.156,110.76,530.668,113.146,527.375,113.146z"/>
		<path fill="#FFFFFF" d="M569.404,191.723c-5.859,0-6.939-4.021-8.438-9.588l-0.158-0.588c-2.477-9.168,1.293-11.141,1.732-11.336
			l0.373-0.166l0.389,0.137c0.021,0.008,1.832,0.633,4.703,0.633h0.002c4.396,0,11.084-1.436,18.023-8.275l0.383-0.377l0.529,0.1
			c0.25,0.045,6.137,1.25,7.84,9.893c1.455,7.363,1.502,11.789-14.422,17.137C575.418,190.949,571.938,191.723,569.404,191.723z
			 M563.148,172.283c-0.584,0.588-1.979,2.705-0.354,8.727l0.158,0.59c1.608,5.992,2.375,8.062,6.449,8.062
			c2.305,0,5.573-0.738,10.301-2.324c14.983-5.031,14.301-8.496,13.061-14.785c-1.168-5.908-4.481-7.664-5.727-8.123
			c-7.279,6.965-14.346,8.443-19.031,8.443c-0.002,0-0.002,0-0.002,0C565.68,172.873,563.969,172.506,563.148,172.283z"/>
		<path fill="#FFFFFF" d="M546.123,236.25c-2.469,0-5.471-0.916-9.18-2.396c-0.539-0.312-9.666-5.932-9.146-11.692
			c0.248-2.719,2.504-4.91,6.705-6.514c7.271-2.77,9.555-2.293,11.229-1.945c0.989,0.207,1.547,0.324,3.311-0.615
			c1.279-0.678,3.213-2.756,5.451-5.166c6.121-6.586,14.492-15.607,23.787-12.66l-0.625,1.963c-8.037-2.559-15.908,5.92-21.654,12.1
			c-2.461,2.65-4.408,4.744-5.992,5.584c-2.258,1.195-3.281,1.104-4.697,0.811c-1.418-0.297-3.36-0.703-10.069,1.854
			c-3.402,1.299-5.218,2.906-5.39,4.777c-0.342,3.72,5.666,8.244,8.011,9.669c9.508,3.781,11.896,2.572,14.157-3.021
			c1.605-3.953,14.453-9.67,29.814-16.191c4.594-1.949,8.564-3.633,9.578-4.311c2.438-1.621,2.354-4.734-0.264-10.412
			c-2.175-4.703-2.128-13.529-2.125-13.902l2.061,0.016c0,0.088-0.047,8.738,1.934,13.022c1.345,2.902,4.479,9.701-0.461,12.988
			c-1.178,0.785-4.844,2.342-9.918,4.494c-9.539,4.049-27.293,11.584-28.709,15.066C552.047,234.422,549.613,236.25,546.123,236.25z
			"/>
		<path fill="#FFFFFF" d="M496.994,188.943L496.994,188.943c-2.682-0.002-13.449-10.807-13.557-10.914
			c-3.966-4.025-1.55-11.672-0.248-15.781c0.327-1.041,1.159-1.639,2.282-1.639c3.64,0,11.041,6.76,12.488,8.113l0.174,0.162
			l0.084,0.221c4.146,10.768,0.129,18.807-0.047,19.145C497.945,188.688,497.508,188.943,496.994,188.943z M485.475,162.67
			c-0.26,0-0.271,0.047-0.319,0.199c-1.084,3.432-3.343,10.574-0.248,13.713c3.912,3.973,9.746,9.098,11.696,10.129
			c0.773-1.941,2.847-8.469-0.221-16.645C493.223,167.137,487.621,162.67,485.475,162.67z"/>
		<path fill="#FFFFFF" d="M515.812,321.828c-5.406,0-9.894-1.549-10.218-1.666l0.688-1.939c0.129,0.045,13.045,4.494,20.813-2.062
			l1.328,1.574C524.658,320.912,519.965,321.828,515.812,321.828z"/>
		<path fill="#FFFFFF" d="M513.822,81.512l-1.281-1.611c0.145-0.117,3.613-2.842,7.873-1.104l-0.779,1.908
			C516.529,79.436,513.932,81.428,513.822,81.512z"/>
		<path fill="#FFFFFF" d="M538.416,79.732c-3.658-1.443-5.08-0.178-5.139-0.123l-1.465-1.447c0.231-0.24,2.418-2.297,7.354-0.344
			L538.416,79.732z"/>
		<path fill="#FFFFFF" d="M517.66,81.113c-0.111,0.635-0.717,1.061-1.353,0.949c-0.639-0.111-1.062-0.717-0.95-1.354
			c0.108-0.635,0.719-1.061,1.354-0.949C517.348,79.871,517.771,80.477,517.66,81.113z"/>
		<path fill="#FFFFFF" d="M536.736,79.785c-0.08,0.641-0.66,1.096-1.304,1.016c-0.641-0.08-1.098-0.662-1.021-1.301
			c0.082-0.641,0.664-1.098,1.305-1.018C536.359,78.559,536.814,79.143,536.736,79.785z"/>
		
			<rect x="568.443" y="192.302" transform="matrix(-0.4184 -0.9083 0.9083 -0.4184 634.7662 793.1359)" fill="#FFFFFF" width="5.765" height="2.06"/>
		<path fill="#FFFFFF" d="M531.85,226.93"/>
		<path fill="#FFFFFF" d="M545.555,75.146c-0.6,0-1.076-0.408-1.356-0.846c-1.494-1.557-11.363-11.889-12.599-15.01l1.914-0.756
			c0.814,2.059,7.354,9.311,11.82,13.975c0.189-0.904,0.418-2.805,0.418-6.732c0-10.23-10.32-12.889-10.422-12.916l0.49-1.998
			c0.121,0.027,11.987,3.09,11.987,14.914c0,8.166-0.905,9.072-1.92,9.326C545.775,75.133,545.662,75.146,545.555,75.146z"/>
		<path fill="#FFFFFF" d="M506.205,76.494l-0.275-0.617c-0.062-0.141-6.147-14.092,3.629-20.096
			c8.74-5.365,15.289-8.434,22.189-7.674c1.77,0.195,3.049,0.783,3.801,1.744c1.967,2.516-0.371,6.607-2.424,8.744
			c-0.646,0.709-16.371,17.783-26.244,17.891L506.205,76.494z M529.615,50.051c-5.65,0-11.451,2.863-18.98,7.486
			c-7.158,4.395-4.07,14.234-3.084,16.852c9.07-0.904,23.92-17.033,24.072-17.201c1.639-1.707,3.336-4.748,2.305-6.066
			c-0.393-0.502-1.225-0.836-2.406-0.967C530.885,50.086,530.25,50.051,529.615,50.051z"/>
		<path fill="#FFFFFF" d="M520.68,144.145l-0.896-1.186c-2.043-2.693-4.72-4.729-7.078-6.523c-3.713-2.824-6.918-5.264-6.701-9.26
			c0.332-6.15,9.312-15.391,9.691-15.781l1.137-1.16l0.562,1.523c0.111,0.297,1.009,3.08-1.377,9.232
			c-2.219,6.338,9.896,12.453,10.021,12.514l1.02,0.506L520.68,144.145z M515.543,114.604c-2.561,2.906-7.271,8.756-7.484,12.684
			c-0.155,2.906,2.515,4.938,5.896,7.51c2.131,1.621,4.508,3.43,6.545,5.775l3.621-5.762c-3.16-1.771-12.438-7.664-10.029-14.531
			C515.068,117.744,515.434,115.877,515.543,114.604z"/>
		<path fill="#FFFFFF" d="M518.574,157.215c-0.402,0-1.178-0.154-1.824-1.195c-1.254-2.016-1.469-6.482,1.021-11.533
			c4.342-8.822,26.114-34.264,27.041-35.344l0.327-0.385l0.511,0.027c0.569,0.029,5.594,0.381,6.201,3.469
			c0.643,3.232-3.334,11.775-11.962,21.234c-3.278,3.598-6.655,6.703-9.635,9.439c-4.973,4.572-8.896,8.18-9.393,11.287
			C520.451,156.824,519.252,157.215,518.574,157.215z M546.037,110.885c-2.846,3.34-22.479,26.506-26.42,34.512
			c-2.478,5.027-1.773,8.693-1.096,9.604c0.098-0.199,0.221-0.549,0.309-1.107c0.609-3.814,4.768-7.639,10.033-12.48
			c2.942-2.709,6.285-5.779,9.51-9.312c8.891-9.748,11.852-17.475,11.461-19.447C549.625,111.594,547.408,111.043,546.037,110.885z"
			/>
		<path fill="#FFFFFF" d="M486.854,161.305"/>
		<path fill="#FFFFFF" d="M561.955,171.385c-0.631-2.727-5.014-23.838-5.199-24.736l2.019-0.418
			c0.047,0.219,4.563,21.986,5.188,24.691L561.955,171.385z"/>
		<path fill="#FFFFFF" d="M496.816,171.301c-1.199-8.252-0.318-24.242-0.277-24.92l2.055,0.117
			c-0.01,0.162-0.908,16.459,0.262,24.508L496.816,171.301z"/>
	</g>
	<path fill="#FFFFFF" d="M267.371,440.627h-2.061v-10.299h2.061V440.627z M267.371,420.031h-2.061v-10.297h2.061V420.031z
		 M267.371,399.438h-2.061v-10.297h2.061V399.438z M267.371,378.842h-2.061v-10.297h2.061V378.842z M267.371,358.248h-2.061v-10.297
		h2.061V358.248z M267.371,337.654h-2.061v-10.299h2.061V337.654z M267.371,317.059h-2.061v-10.297h2.061V317.059z M267.371,296.465
		h-2.061v-10.299h2.061V296.465z M267.371,275.871h-2.061v-10.299h2.061V275.871z M267.371,255.273h-2.061v-10.297h2.061V255.273z
		 M267.371,234.68h-2.061v-10.297h2.061V234.68z M267.371,214.086h-2.061v-10.297h2.061V214.086z M267.371,193.492h-2.061v-10.299
		h2.061V193.492z M267.371,172.896h-2.061V162.6h2.061V172.896z M267.371,152.303h-2.061v-10.299h2.061V152.303z M267.371,131.707
		h-2.061V121.41h2.061V131.707z M267.371,111.113h-2.061v-10.299h2.061V111.113z M267.371,90.518h-2.061V80.221h2.061V90.518z
		 M267.371,69.924h-2.061V59.627h2.061V69.924z M267.371,49.328h-2.061V39.031h2.061V49.328z M267.371,28.734h-2.061V18.438h2.061
		V28.734z M267.371,8.141h-2.061V-2.158h2.061V8.141z"/>
	<polygon fill="#FFFFFF" points="534.23,454.167 530.111,454.167 530.111,390.364 534.496,385.967 	"/>
	<rect x="530.111" y="-1.295" fill="#FFFFFF" width="4.119" height="50.316"/>
	<path fill="#FFFFFF" d="M793.402,297.932h-10.299v-2.059h10.299V297.932z M772.807,297.932H762.51v-2.059h10.297V297.932z
		 M752.213,297.932h-10.297v-2.059h10.297V297.932z M731.619,297.932H721.32v-2.059h10.299V297.932z M711.023,297.932h-10.302
		v-2.059h10.302V297.932z M690.428,297.932h-10.297v-2.059h10.297V297.932z M669.834,297.932h-10.297v-2.059h10.297V297.932z
		 M649.24,297.932h-10.299v-2.059h10.299V297.932z M628.645,297.932h-10.297v-2.059h10.297V297.932z M608.051,297.932h-10.299
		v-2.059h10.299V297.932z M587.455,297.932h-10.297v-2.059h10.297V297.932z M484.482,297.932h-10.3v-2.059h10.3V297.932z
		 M499.861,297.932h-5.457v-2.059h5.457V297.932z M463.889,297.932H453.59v-2.059h10.299V297.932z M443.293,297.932h-10.297v-2.059
		h10.297V297.932z M422.697,297.932h-10.295v-2.059h10.295V297.932z M402.105,297.932h-10.299v-2.059h10.299V297.932z
		 M381.51,297.932h-10.297v-2.059h10.297V297.932z M360.916,297.932h-10.299v-2.059h10.299V297.932z M340.32,297.932h-10.297v-2.059
		h10.297V297.932z M319.727,297.932h-10.299v-2.059h10.299V297.932z M299.131,297.932h-10.297v-2.059h10.297V297.932z
		 M278.537,297.932h-10.299v-2.059h10.299V297.932z M257.941,297.932h-10.297v-2.059h10.297V297.932z M237.348,297.932h-10.297
		v-2.059h10.297V297.932z M216.752,297.932h-10.297v-2.059h10.297V297.932z M196.158,297.932h-10.297v-2.059h10.297V297.932z
		 M175.564,297.932h-10.299v-2.059h10.299V297.932z M154.969,297.932h-10.297v-2.059h10.297V297.932z M134.373,297.932h-10.297
		v-2.059h10.297V297.932z M113.779,297.932h-10.297v-2.059h10.297V297.932z M93.186,297.932H82.887v-2.059h10.299V297.932z
		 M72.59,297.932H62.293v-2.059H72.59V297.932z M51.996,297.932H41.697v-2.059h10.299V297.932z M31.4,297.932H21.104v-2.059H31.4
		V297.932z M10.807,297.932H0.51v-2.059h10.297V297.932z"/>
	<path fill="#FFFFFF" d="M798.004,148.402h-7.869v-2.059h7.869V148.402z M779.838,148.402h-10.297v-2.059h10.297V148.402z
		 M759.244,148.402h-10.297v-2.059h10.297V148.402z M738.648,148.402h-10.297v-2.059h10.297V148.402z M718.055,148.402h-10.299
		v-2.059h10.299V148.402z M697.459,148.402h-10.297v-2.059h10.297V148.402z M676.865,148.402h-10.297v-2.059h10.297V148.402z
		 M656.271,148.402H645.97v-2.059h10.302V148.402z M635.676,148.402h-10.297v-2.059h10.297V148.402z M615.082,148.402h-10.299
		v-2.059h10.299V148.402z M594.486,148.402h-10.297v-2.059h10.297V148.402z"/>
	<path fill="#FFFFFF" d="M484.482,148.402h-10.3v-2.059h10.3V148.402z M463.889,148.402H453.59v-2.059h10.299V148.402z
		 M402.105,148.402h-10.299v-2.059h10.299V148.402z M381.51,148.402h-10.297v-2.059h10.297V148.402z M360.916,148.402h-10.299
		v-2.059h10.299V148.402z M340.32,148.402h-10.297v-2.059h10.297V148.402z M319.727,148.402h-10.299v-2.059h10.299V148.402z
		 M299.131,148.402h-10.297v-2.059h10.297V148.402z M278.537,148.402h-10.299v-2.059h10.299V148.402z M257.941,148.402h-10.297
		v-2.059h10.297V148.402z M237.348,148.402h-10.297v-2.059h10.297V148.402z M216.752,148.402h-10.297v-2.059h10.297V148.402z
		 M196.158,148.402h-10.297v-2.059h10.297V148.402z M175.564,148.402h-10.299v-2.059h10.299V148.402z M154.969,148.402h-10.297
		v-2.059h10.297V148.402z M134.373,148.402h-10.297v-2.059h10.297V148.402z M113.779,148.402h-10.297v-2.059h10.297V148.402z
		 M93.186,148.402H82.887v-2.059h10.299V148.402z M72.59,148.402H62.293v-2.059H72.59V148.402z M51.996,148.402H41.697v-2.059
		h10.299V148.402z M31.4,148.402H21.104v-2.059H31.4V148.402z M10.807,148.402H0.51v-2.059h10.297V148.402z"/>
	<g>
		<path fill="#FFFFFF" d="M802.56,341.128L590.195,188.045c0.059,0.858,0.14,1.799,0.253,2.772l210.884,152.017L802.56,341.128z"/>
		<path fill="#FFFFFF" d="M589.437,210.656c-0.597,0.271-1.274,0.571-2.016,0.893l213.69,239.784l1.565-1.398L589.437,210.656z"/>
		<path fill="#FFFFFF" d="M572.742,217.872l143.642,237.962l1.825-1.104l-143.5-237.722
			C574.053,217.293,573.397,217.582,572.742,217.872z"/>
	</g>
	<path fill="#FFFFFF" d="M516.43,112.115c0,0,2.529-3.439,2.662-5.867"/>
	<g>
		<path fill="#FFFFFF" d="M455.502,174.061l-2.881,1.109c0.127,0.682,0.252,1.369,0.377,2.062l3.107-1.197
			C455.898,175.34,455.693,174.674,455.502,174.061z"/>
		<path fill="#FFFFFF" d="M416.688,189.014c-0.348,0.809-0.731,1.705-1.141,2.646l1.801-0.693l0.332-2.336L416.688,189.014z"/>
		<path fill="#FFFFFF" d="M464.688,170.521c0.103,0.688,0.193,1.389,0.283,2.098l18.31-7.051c0.237-0.891,0.491-1.73,0.729-2.49
			L464.688,170.521z"/>
		<path fill="#FFFFFF" d="M406.955,192.762L0.139,349.48l0.74,1.922l405.422-156.18
			C406.516,194.469,406.734,193.637,406.955,192.762z"/>
	</g>
	<g>
		<path fill="#FFFFFF" d="M458.469,185.832l-3.762,2.135c0.102,0.746,0.201,1.48,0.291,2.203l3.742-2.125
			c-0.002-0.045-0.004-0.084-0.008-0.129C458.678,187.268,458.584,186.561,458.469,185.832z"/>
		<path fill="#FFFFFF" d="M466.039,183.9l16.592-9.42c-0.184-0.691-0.289-1.426-0.32-2.186l-16.438,9.334
			C465.932,182.396,465.988,183.154,466.039,183.9z"/>
		<path fill="#FFFFFF" d="M416.238,209.811L0,446.152l1.018,1.791l415.27-235.793C416.264,211.365,416.244,210.58,416.238,209.811z"
			/>
	</g>
	<g>
		<path fill="#FFFFFF" d="M466.711,197.988c-0.018,0.381-0.039,0.809-0.061,1.266l19.438-15.84
			c-0.063-1.004-0.115-1.877-0.146-2.535l-19.271,15.701C466.701,197.48,466.711,197.988,466.711,197.988z"/>
		<path fill="#FFFFFF" d="M458.484,205.91c-0.365-0.363-0.688-1.053-0.859-1.959l-2.156,1.758c-0.141,0.98-0.312,2.01-0.506,3.068
			L458.484,205.91z"/>
		<path fill="#FFFFFF" d="M420.195,234.426L149.167,455.763l1.354,1.669L420.868,236.65
			C420.659,235.924,420.428,235.177,420.195,234.426z"/>
		<path fill="#FFFFFF" d="M460.123,204.574l2.361-1.926C462.287,200.557,461.723,198.643,460.123,204.574z"/>
	</g>
</g>
</svg>
