<?xml version="1.0" encoding="utf-8"?>
<!-- Generator: Adobe Illustrator 15.0.2, SVG Export Plug-In . SVG Version: 6.00 Build 0)  -->
<!DOCTYPE svg PUBLIC "-//W3C//DTD SVG 1.1//EN" "http://www.w3.org/Graphics/SVG/1.1/DTD/svg11.dtd">
<svg version="1.1" id="Layer_3" xmlns="http://www.w3.org/2000/svg" xmlns:xlink="http://www.w3.org/1999/xlink" x="0px" y="0px"
	 width="800px" height="450px" viewBox="0 0 800 450" enable-background="new 0 0 800 450" xml:space="preserve">
<g>
	<g>
		<path fill="#FFFFFF" d="M572.076,243.039l-3.836-4.316l1.539-1.367l2.854,3.213c4.99-2.145,8.428-4.237,9.482-5.03
			c-2.168-11.57-20.705-72.127-20.896-72.746l1.974-0.605c0.791,2.584,19.401,63.389,21.053,73.568l0.072,0.438l-0.269,0.354
			c-0.78,1.027-5.774,3.904-11.299,6.215L572.076,243.039z"/>
		<path fill="#FFFFFF" d="M487.377,302.648l-0.762-1.045c-0.363-0.498-8.881-12.302-6.486-19.906
			c2.287-7.225,11.115-21.574,11.49-22.182l1.754,1.082c-0.09,0.146-9.07,14.737-11.281,21.721
			c-1.594,5.065,2.826,12.895,5.027,16.342c0.199-1.713,0.062-4.932-1.787-10.486l-0.129-0.385l0.17-0.369
			c0.152-0.33,3.764-8.131,7.281-11.305c0.387-0.35,1.562-1.418,2.789-0.924c1.465,0.596,1.604,2.803,1.789,5.596
			c0.078,1.23,0.16,2.506,0.36,3.568c0.248,1.307,0.535,2.096,0.742,2.521c0.142-0.265,0.32-0.69,0.531-1.375
			c0.457-1.485,0.315-3.506,0.16-5.846c-0.279-4.099-0.627-9.201,1.703-15.25l1.924,0.739c-2.166,5.623-1.838,10.476-1.572,14.369
			c0.174,2.545,0.322,4.74-0.248,6.59c-0.465,1.511-1.246,3.17-2.588,3.154c-0.787-0.043-1.92-0.559-2.678-4.521
			c-0.228-1.188-0.312-2.526-0.396-3.819c-0.084-1.274-0.203-3.158-0.508-3.746c-0.117,0.062-0.326,0.188-0.633,0.472
			c-2.81,2.53-5.873,8.715-6.621,10.271c3.375,10.383,1.084,13.438,0.811,13.756L487.377,302.648z"/>
		<path fill="#FFFFFF" d="M606.9,277.971l-1.289-0.043c-0.615-0.02-15.152-0.572-19.674-7.145
			c-4.289-6.25-8.433-17.564-8.604-18.043l1.938-0.703c0.041,0.115,4.223,11.547,8.362,17.58c3.017,4.383,11.9,5.717,15.974,6.104
			c-1.228-1.213-3.847-3.088-9.365-5.049l-0.385-0.139l-0.188-0.361c-0.166-0.322-4.092-7.969-4.424-12.695
			c-0.037-0.518-0.154-2.104,0.986-2.764c1.372-0.793,3.194,0.453,5.5,2.023c1.022,0.697,2.084,1.42,3.051,1.916
			c1.182,0.604,1.979,0.871,2.438,0.971c-0.123-0.27-0.348-0.678-0.76-1.266c-0.848-1.219-2.063-1.756-3.604-2.438
			c-2.674-1.18-5.998-2.646-9.349-8.233l1.769-1.06c3.012,5.022,5.883,6.291,8.412,7.41c1.688,0.744,3.282,1.444,4.463,3.141
			c0.901,1.298,1.824,2.923,0.895,3.986c-0.52,0.592-1.625,1.166-5.209-0.685c-1.078-0.555-2.188-1.312-3.266-2.045
			c-1.057-0.719-2.605-1.772-3.254-1.896c-0.027,0.129-0.053,0.375-0.021,0.789c0.267,3.771,3.248,9.987,4.021,11.539
			c10.266,3.729,11.258,7.422,11.338,7.834L606.9,277.971z"/>
		<path fill="#FFFFFF" d="M505.926,268.203l-17.578-8.934l6.188-12.187l17.578,8.938L505.926,268.203z M491.117,258.367
			l13.904,7.068l4.321-8.515l-13.901-7.065L491.117,258.367z"/>
		<path fill="#FFFFFF" d="M576.234,254.621l-6.287-12.133l15.709-8.146l6.289,12.134L576.234,254.621z M572.723,243.369l4.396,8.477
			l12.055-6.25l-4.393-8.473L572.723,243.369z"/>
		<path fill="#FFFFFF" d="M591.328,391.701c-1.986,0-3.381-1.668-5.014-3.625c-1.261-1.506-2.82-3.379-5.144-5.312
			c-0.727-0.604-72.162-68.205-71.815-72.762c0.252-3.346,8.771-50.32,9.135-52.318l2.024,0.367
			c-3.02,16.645-8.739,48.566-9.094,51.978c2.158,5.254,63.953,65.229,71.068,71.151c2.463,2.056,4.094,4.006,5.399,5.572
			c2.498,2.996,3.107,3.582,5.322,2.15c1.818-1.179,3.867-3.92,6.037-6.826c3.139-4.203,6.695-8.965,10.844-10.678
			c1.678-0.691,1.769-1.515,1.795-1.781c0.158-1.482-1.342-5.201-13.194-13.431c-9.607-6.672-31.502-26.184-41.468-36.438
			c-8.653-8.912-8.438-10.598-8.358-11.23l0.155-0.569c0.83-3.764,8.726-39.178,13.564-52.111l1.926,0.723
			c-5.039,13.463-13.467,51.771-13.551,52.152l-0.025,0.109c0.154,0.516,1.162,2.692,7.769,9.496
			c9.897,10.19,31.641,29.565,41.162,36.182c9.844,6.83,14.444,11.848,14.069,15.342c-0.114,1.051-0.737,2.506-3.061,3.463
			c-3.623,1.496-6.996,6.019-9.977,10.004c-2.283,3.062-4.441,5.949-6.57,7.324C593.176,391.383,592.195,391.701,591.328,391.701z"
			/>
		<path fill="#FFFFFF" d="M526.898,399.641c-2.58,0-9.127-1.475-27.084-8.768c-1.351-0.549-3.388-1.377,4.729-38.842
			c3.926-18.115,8.412-36.258,8.457-36.438l2,0.492c-8.133,32.83-15.82,69.301-14.234,72.951
			c15.492,6.285,24.107,8.793,26.271,8.576c-2.385-11.445,7.887-55.306,9-58.047l1.906,0.772
			c-1.209,2.982-11.355,47.141-8.818,57.166c0.162,0.631-0.01,1.227-0.467,1.625C528.424,399.336,528.072,399.641,526.898,399.641z"
			/>
		<path fill="#FFFFFF" d="M488.105,411.35c-9.384,0.002-15.054-1.146-17.185-3.459c-2.521-2.729-3.367-5.896-2.211-8.266
			c0.709-1.443,2.812-3.791,8.81-3.266c11.627,0.989,23.922-7.193,24.045-7.277l1.151,1.707c-0.521,0.354-12.987,8.707-25.377,7.621
			c-3.479-0.301-5.967,0.469-6.774,2.123c-0.769,1.559-0.031,3.897,1.868,5.961c2.019,2.184,10.068,4.217,37.005,1.508
			c2.848-0.287,5.307-0.309,7.278-0.324c3.314-0.024,5.504-0.047,6.617-1.211c1.146-1.199,1.553-3.934,1.357-9.143l2.061-0.076
			c0.221,5.973-0.318,8.957-1.93,10.643c-1.716,1.795-4.392,1.816-8.088,1.851c-2.031,0.016-4.341,0.035-7.097,0.312
			C501.037,410.916,493.869,411.35,488.105,411.35z"/>
		<path fill="#FFFFFF" d="M586.43,412.979c-3.785,0-5.602-0.991-6.459-2.071c-0.836-1.058-0.938-2.398-0.274-3.691
			c0.875-1.707,3.438-2.889,6.146-4.137c2.17-1,4.412-2.033,5.394-3.185c1.707-2.01,1.674-7.938,1.516-10.049l2.055-0.151
			c0.064,0.862,0.558,8.526-2.002,11.539c-1.271,1.491-3.725,2.62-6.098,3.717c-2.168,0.998-4.627,2.129-5.176,3.203
			c-0.289,0.563-0.271,1.062,0.057,1.473c1.096,1.383,5.463,2.078,14.436-0.137c9.908-2.443,13.688-10.336,17.021-17.297
			c1.289-2.693,2.506-5.238,3.979-7.168c4.07-5.33,3.15-6.972,3.144-6.982l-0.193-0.283c-1.789-3.969-8.051-7.223-8.114-7.254
			l0.94-1.832c0.279,0.146,6.803,3.527,8.975,8.07c0.697,0.809,1.658,3.283-3.108,9.527c-1.346,1.764-2.519,4.215-3.762,6.811
			c-3.354,7.006-7.527,15.729-18.378,18.408C592.148,412.561,588.877,412.979,586.43,412.979z"/>
		<path fill="#FFFFFF" d="M509.562,189.301c-0.146-8.227,0.098-15.285,0.721-20.979c1.156-10.559,3.904-16.566,6.33-21.867
			c1.547-3.387,2.885-6.312,3.485-9.846l2.033,0.346c-0.647,3.801-2.104,6.984-3.647,10.357c-2.359,5.158-5.033,11.006-6.154,21.232
			c-0.613,5.607-0.85,12.58-0.707,20.721L509.562,189.301z"/>
		<path fill="#FFFFFF" d="M514.361,259.096c-1.078,0-1.123-0.367-1.838-10.551l2.055-0.145c0.344,4.893,0.561,7.217,0.688,8.317
			c5.683-0.129,41.629-1.002,53.023-2.692c0.467-1.744,0.223-9.377-0.305-15.904c-0.414-1.955-1.138-9.896-2.047-19.949
			c-1.115-12.301-2.505-27.609-3.927-38.346c-1.102-8.33-0.896-15.613-0.721-22.039c0.242-8.781,0.455-16.365-2.562-24.09
			c-5.392-13.807-8.146-15.465-13.146-18.479l1.062-1.764c5.797,3.488,8.587,5.617,14.003,19.492
			c3.169,8.113,2.951,15.891,2.704,24.895c-0.179,6.35-0.378,13.545,0.704,21.713c1.426,10.777,2.814,26.109,3.935,38.428
			c0.869,9.594,1.621,17.877,2.024,19.846c1.441,17.777-0.021,18.012-0.989,18.164c-11.246,1.789-48.181,2.664-53.808,2.789
			C514.889,259.139,514.541,259.098,514.361,259.096z"/>
		<path fill="#FFFFFF" d="M518.955,140.566l2.557-12.875l0.17-0.203c10.08-11.895,19.658-18.195,20.062-18.457l0.344-0.225
			l0.404,0.076c1.598,0.295,3.117,1.424,4.785,3.557c0.631,0.807,2.309,2.949-26.101,26.301L518.955,140.566z M523.426,128.617
			l-1.326,6.688c11.244-9.355,22.386-19.482,23.355-21.848c-1.098-1.357-2.049-2.148-2.953-2.451
			C540.652,112.277,532.15,118.373,523.426,128.617z"/>
		<path fill="#FFFFFF" d="M510.49,257.105l-15.676-7.549l0.19-0.81c0.844-3.515,20.746-86.227,29.445-105.246
			c8.576-18.73,22.932-21.439,24.543-21.686c0.635-0.236,1.281-0.355,1.92-0.355c6.16,0,9.615,11.088,9.76,11.559l0.049,0.16
			l-0.004,0.168c-0.717,27.209-47.77,118.969-49.771,122.863L510.49,257.105z M497.205,248.424l12.369,5.955
			c4.951-9.715,48.229-95.361,49.082-120.914c-0.924-2.916-3.957-9.943-7.74-9.943c-0.418,0-0.85,0.088-1.285,0.258l-0.24,0.061
			c-0.145,0.021-14.659,2.168-23.062,20.521C518.16,162.213,499.33,239.633,497.205,248.424z"/>
		<path fill="#FFFFFF" d="M523.791,118.383L523.791,118.383c-3.447,0-6.572-1.82-8.852-3.152l-0.65-0.377
			c-3.324-1.908-4.842-5.812-6.061-8.951c-0.675-1.734-1.367-3.525-2.056-3.914c-2.625-1.477-3.258-2.705-3.356-2.938l-0.156-0.361
			l0.123-0.373c1.963-5.945,5.92-16.873,5.959-16.982c1.662-10.986,14.049-11.891,14.174-11.898
			c7.354,0.199,12.541,2.873,15.512,7.947c5.031,8.594,2.312,21.906-2.613,31.287C532.381,115.207,528.447,118.383,523.791,118.383z
			 M504.898,98.48c0.289,0.332,0.944,0.959,2.291,1.715c1.321,0.752,2.045,2.609,2.959,4.961c1.102,2.836,2.473,6.367,5.166,7.912
			l0.659,0.385c2.193,1.279,4.927,2.871,7.814,2.871l0,0c3.818,0,7.154-2.816,10.199-8.609c4.512-8.59,7.27-21.42,2.662-29.291
			c-2.593-4.418-7.199-6.75-13.701-6.93c-0.351,0.027-10.767,0.82-12.228,10.35C510.641,82.139,506.9,92.473,504.898,98.48z"/>
		<path fill="#FFFFFF" d="M541.674,110.707c-3.455-2.686-2.836-15.447-2.676-17.979l2.055,0.129
			c-0.367,5.844-0.022,14.74,1.883,16.223L541.674,110.707z"/>
	</g>
	<polygon fill="#FFFFFF" points="331.979,447.961 331.089,446.105 404.645,410.951 404.645,23.998 653.84,23.998 653.84,410.918 
		733.533,444.891 732.725,446.785 651.779,412.279 651.779,26.059 406.705,26.059 406.705,412.25 	"/>
	<rect y="409.15" fill="#FFFFFF" width="405.715" height="2.059"/>
	<rect x="652.811" y="409.15" fill="#FFFFFF" width="145.354" height="2.059"/>
	<rect x="554.371" y="108.865" fill="#FFFFFF" width="73.766" height="2.059"/>
	<rect x="587.314" y="122.891" fill="#FFFFFF" width="57.312" height="2.059"/>
	<g>
		<rect x="530.271" y="-2.176" fill="#FFFFFF" width="4.116" height="448.59"/>
		<path fill="#FFFFFF" d="M267.529,441.471h-2.06v-10.297h2.06V441.471z M267.529,420.877h-2.06V410.58h2.06V420.877z
			 M267.529,400.283h-2.06v-10.297h2.06V400.283z M267.529,379.689h-2.06v-10.302h2.06V379.689z M267.529,359.094h-2.06v-10.299
			h2.06V359.094z M267.529,338.498h-2.06v-10.297h2.06V338.498z M267.529,317.904h-2.06v-10.297h2.06V317.904z M267.529,297.311
			h-2.06v-10.299h2.06V297.311z M267.529,276.715h-2.06v-10.297h2.06V276.715z M267.529,256.121h-2.06v-10.299h2.06V256.121z
			 M267.529,235.525h-2.06v-10.297h2.06V235.525z M267.529,214.932h-2.06v-10.299h2.06V214.932z M267.529,194.336h-2.06v-10.297
			h2.06V194.336z M267.529,173.742h-2.06v-10.299h2.06V173.742z M267.529,153.146h-2.06V142.85h2.06V153.146z M267.529,132.553
			h-2.06v-10.297h2.06V132.553z M267.529,111.957h-2.06V101.66h2.06V111.957z M267.529,91.363h-2.06V81.066h2.06V91.363z
			 M267.529,70.77h-2.06V60.471h2.06V70.77z M267.529,50.174h-2.06V39.877h2.06V50.174z M267.529,29.58h-2.06V19.281h2.06V29.58z
			 M267.529,8.984h-2.06V-1.312h2.06V8.984z"/>
		<path fill="#FFFFFF" d="M798.162,297.916h-10.297v-2.061h10.297V297.916z M777.568,297.916h-10.297v-2.061h10.297V297.916z
			 M756.975,297.916h-10.297v-2.061h10.297V297.916z M736.379,297.916h-10.297v-2.061h10.297V297.916z M715.785,297.916h-10.297
			v-2.061h10.297V297.916z M695.191,297.916H684.89v-2.061h10.302V297.916z M674.596,297.916h-10.297v-2.061h10.297V297.916z
			 M654,297.916h-10.297v-2.061H654V297.916z M633.406,297.916h-10.297v-2.061h10.297V297.916z M612.812,297.916h-10.302v-2.061
			h10.302V297.916z M592.217,297.916H581.92v-2.061h10.297V297.916z M571.623,297.916h-10.299v-2.061h10.299V297.916z
			 M551.027,297.916H540.73v-2.061h10.297V297.916z M530.434,297.916h-10.299v-2.061h10.299V297.916z M509.838,297.916h-10.297
			v-2.061h10.297V297.916z M489.244,297.916h-10.297v-2.061h10.297V297.916z M468.65,297.916H458.35v-2.061h10.302L468.65,297.916
			L468.65,297.916z M448.055,297.916h-10.299v-2.061h10.299V297.916z M427.461,297.916h-10.299v-2.061h10.299V297.916z
			 M406.865,297.916h-10.298v-2.061h10.298V297.916z M386.271,297.916h-10.298v-2.061h10.298V297.916z M365.675,297.916h-10.297
			v-2.061h10.297V297.916z M345.081,297.916h-10.298v-2.061h10.298V297.916z M324.486,297.916h-10.298v-2.061h10.298V297.916z
			 M303.892,297.916h-10.298v-2.061h10.298V297.916z M283.297,297.916H273v-2.061h10.297V297.916z M262.702,297.916h-10.298v-2.061
			h10.298V297.916z M242.107,297.916H231.81v-2.061h10.297V297.916z M221.513,297.916h-10.297v-2.061h10.297V297.916z
			 M200.918,297.916h-10.297v-2.061h10.297V297.916z M180.324,297.916h-10.298v-2.061h10.298V297.916z M159.729,297.916h-10.298
			v-2.061h10.298V297.916z M139.135,297.916h-10.298v-2.061h10.298V297.916z M118.54,297.916h-10.297v-2.061h10.297V297.916z
			 M97.945,297.916H87.647v-2.061h10.298V297.916z M77.351,297.916H67.054v-2.061h10.297V297.916z M56.756,297.916H46.459v-2.061
			h10.297V297.916z M36.162,297.916H25.864v-2.061h10.298V297.916z M15.566,297.916H5.27v-2.061h10.297L15.566,297.916
			L15.566,297.916z"/>
		<path fill="#FFFFFF" d="M798.162,148.385h-10.297v-2.059h10.297V148.385z M777.568,148.385h-10.297v-2.059h10.297V148.385z
			 M756.975,148.385h-10.297v-2.059h10.297V148.385z M736.379,148.385h-10.297v-2.059h10.297V148.385z M715.785,148.385h-10.297
			v-2.059h10.297V148.385z M695.191,148.385H684.89v-2.059h10.302V148.385z M674.596,148.385h-10.297v-2.059h10.297V148.385z
			 M654,148.385h-10.297v-2.059H654V148.385z M633.406,148.385h-10.297v-2.059h10.297V148.385z M612.812,148.385h-10.302v-2.059
			h10.302V148.385z M592.217,148.385H581.92v-2.059h10.297V148.385z M571.623,148.385h-10.299v-2.059h10.299V148.385z
			 M551.027,148.385H540.73v-2.059h10.297V148.385z M530.434,148.385h-10.299v-2.059h10.299V148.385z M509.838,148.385h-10.297
			v-2.059h10.297V148.385z M489.244,148.385h-10.297v-2.059h10.297V148.385z M468.65,148.385H458.35v-2.059h10.302L468.65,148.385
			L468.65,148.385z M448.055,148.385h-10.299v-2.059h10.299V148.385z M427.461,148.385h-10.299v-2.059h10.299V148.385z
			 M406.865,148.385h-10.298v-2.059h10.298V148.385z M386.271,148.385h-10.298v-2.059h10.298V148.385z M365.675,148.385h-10.297
			v-2.059h10.297V148.385z M345.081,148.385h-10.298v-2.059h10.298V148.385z M324.486,148.385h-10.298v-2.059h10.298V148.385z
			 M303.892,148.385h-10.298v-2.059h10.298V148.385z M283.297,148.385H273v-2.059h10.297V148.385z M262.702,148.385h-10.298v-2.059
			h10.298V148.385z M242.107,148.385H231.81v-2.059h10.297V148.385z M221.513,148.385h-10.297v-2.059h10.297V148.385z
			 M200.918,148.385h-10.297v-2.059h10.297V148.385z M180.324,148.385h-10.298v-2.059h10.298V148.385z M159.729,148.385h-10.298
			v-2.059h10.298V148.385z M139.135,148.385h-10.298v-2.059h10.298V148.385z M118.54,148.385h-10.297v-2.059h10.297V148.385z
			 M97.945,148.385H87.647v-2.059h10.298V148.385z M77.351,148.385H67.054v-2.059h10.297V148.385z M56.756,148.385H46.459v-2.059
			h10.297V148.385z M36.162,148.385H25.864v-2.059h10.298V148.385z M15.566,148.385H5.27v-2.059h10.297L15.566,148.385
			L15.566,148.385z"/>
	</g>
	<path fill="#FFFFFF" d="M524.139,126.23c0,0,2.164-5.398,1.938-9.193"/>
</g>
</svg>
