<?xml version="1.0" encoding="utf-8"?>
<!-- Generator: Adobe Illustrator 15.0.2, SVG Export Plug-In . SVG Version: 6.00 Build 0)  -->
<!DOCTYPE svg PUBLIC "-//W3C//DTD SVG 1.1//EN" "http://www.w3.org/Graphics/SVG/1.1/DTD/svg11.dtd">
<svg version="1.1" id="Layer_3" xmlns="http://www.w3.org/2000/svg" xmlns:xlink="http://www.w3.org/1999/xlink" x="0px" y="0px"
	 width="800px" height="450px" viewBox="0 0 800 450" enable-background="new 0 0 800 450" xml:space="preserve">
<g>
	<g>
		<path d="M533.197,440.409h-2.059v-10.297h2.059V440.409z M533.197,419.815h-2.059v-10.297h2.059V419.815z M533.197,399.222h-2.059
			v-10.297h2.059V399.222z M533.197,378.626h-2.059v-10.297h2.059V378.626z M533.197,358.03h-2.059v-10.295h2.059V358.03z
			 M533.197,337.437h-2.059V327.14h2.059V337.437z M533.197,316.843h-2.059v-10.297h2.059V316.843z M533.197,296.247h-2.059V285.95
			h2.059V296.247z M533.197,275.653h-2.059v-10.297h2.059V275.653z M533.197,255.058h-2.059v-10.297h2.059V255.058z
			 M533.197,234.464h-2.059v-10.297h2.059V234.464z M533.197,213.87h-2.059v-10.299h2.059V213.87z M533.197,193.274h-2.059v-10.297
			h2.059V193.274z M533.197,172.681h-2.059v-10.297h2.059V172.681z M533.197,152.085h-2.059v-10.297h2.059V152.085z
			 M533.197,131.491h-2.059v-10.297h2.059V131.491z M533.197,110.896h-2.059v-10.297h2.059V110.896z M533.197,90.302h-2.059V80.005
			h2.059V90.302z M533.197,69.708h-2.059V59.409h2.059V69.708z M533.197,49.112h-2.059V38.815h2.059V49.112z M533.197,28.519h-2.059
			V18.222h2.059V28.519z M533.197,7.923h-2.059V-2.374h2.059V7.923z"/>
		<rect x="265.307" y="-1.511" width="2.059" height="10.297"/>
		<polygon points="364.206,299.181 364.189,293.003 797.99,292.571 798.006,298.751 		"/>
		<rect x="0.505" y="293.597" width="118.823" height="6.178"/>
		<rect x="315.854" y="144.067" width="482.145" height="6.18"/>
		<rect x="0.505" y="144.067" width="170.416" height="6.18"/>
	</g>
	<g>
		<path d="M248.12,270.103c-10.909,0-24.116-2.498-38.634-10.389l0.984-1.811c38.346,20.84,67.091,3.18,67.377,3l1.1,1.738
			C278.762,262.761,266.818,270.103,248.12,270.103z"/>
		<path d="M334.021,445.505c-2.434-18.262-4.372-43.932-10.129-122.318l2.053-0.15c5.754,78.344,7.691,103.994,10.117,122.195
			L334.021,445.505z"/>
		<path d="M385.996,446.976C380,404.083,354.445,236.54,351.369,229.3l-0.18-0.428c-1.797-4.291-6.004-14.342-26.492-14.742
			c-8.439-0.166-35.038-4.082-44.64-10.77c0.312,7.621,1.157,32.316-0.103,49.834c-1.911,26.648-0.437,133.471,2.631,190.496
			l-2.059,0.111c-3.068-57.084-4.541-164.051-2.626-190.756c1.488-20.721,0.013-51.604-0.001-51.912l-0.135-2.746l1.905,1.98
			c6.485,6.748,34.835,11.502,45.066,11.703c21.829,0.428,26.567,11.744,28.353,16.006l0.174,0.418
			c3.35,7.881,29.541,180.779,34.771,218.195L385.996,446.976z"/>
		<path d="M154.355,446.048l-2.042-0.273c2.229-16.721,14.329-127.203,14.45-128.316l2.048,0.223
			C168.689,318.794,156.588,429.302,154.355,446.048z"/>
		<path d="M103.812,446.456l-2.004-0.482c5.849-24.303,10.051-73.574,14.114-121.225c5.319-62.383,8.944-100.605,14.404-105.4
			c10.192-8.947,17.532-9.221,25.304-9.51c4.49-0.166,9.135-0.338,14.674-2.217l0.662,1.951c-5.825,1.975-10.621,2.152-15.26,2.324
			c-7.717,0.285-14.379,0.533-24.021,8.998c-5.232,4.594-9.543,55.145-13.712,104.027
			C113.904,372.649,109.696,422.003,103.812,446.456z"/>
		<path d="M210.991,447.948l-2.025-0.379c7.384-39.615,3.612-112.23,1.358-155.617c-0.768-14.805-1.375-26.498-1.375-33.143
			c0-30.445,7.624-60.328,7.701-60.627l1.994,0.516c-0.076,0.295-7.637,29.936-7.637,60.111c0,6.592,0.607,18.26,1.374,33.035
			C214.639,335.323,218.418,408.093,210.991,447.948z"/>
		<path d="M186.684,235.382c-2.515,0-4.74-0.555-6.7-1.66c-9.132-5.154-10.252-21.215-11.335-36.746
			c-0.234-3.381-0.479-6.879-0.803-10.119c-1.131-11.295-0.645-12.936,0.162-15.65c0.939-3.166,2.359-7.949,1.91-34.432
			c-0.756-43.92,3.866-51.506,17.585-74.031c1.403-2.303,2.901-4.764,4.498-7.436c17.146-28.676,29.005-31.049,40.634-31.049
			c4.258,0,7.221,0.738,9.385,1.279c3.594,0.895,4.799,1.195,7.438-2.562c5.14-7.34,19.593-4.834,20.204-4.727
			c0.281,0.076,0.592,0.121,1.041,0.191c14.139,2.248,23.434,8.322,27.629,18.057c1.919,4.441,3.636,7.598,5.148,10.381
			c3.826,7.035,6.137,11.281,5.532,25.779c-0.431,10.283,1.036,15.965,2.588,21.98c1.376,5.33,2.797,10.844,2.797,19.719
			c0,5.033,0.634,9.871,1.246,14.549c1.623,12.389,3.302,25.201-6.771,42.332l-0.239,0.408l-0.467,0.084
			c-0.023,0.004-2.988,0.598-4.617,3.43c-1.562,2.717-1.477,6.584,0.256,11.496c5.365,15.215-6.806,22.85-6.93,22.924l-0.332,0.203
			l-0.383-0.068c-0.27-0.047-27.018-5.01-26.713-26.488l2.061,0.029c-0.262,18.379,21.416,23.674,24.618,24.354
			c1.813-1.258,10.12-7.838,5.735-20.268c-1.947-5.525-1.973-9.98-0.076-13.246c1.695-2.918,4.421-3.959,5.529-4.273
			c9.473-16.328,7.925-28.145,6.287-40.648c-0.621-4.744-1.264-9.65-1.264-14.816c0-8.615-1.389-13.998-2.732-19.205
			c-1.521-5.895-3.094-11.99-2.65-22.58c0.58-13.928-1.502-17.756-5.283-24.709c-1.535-2.822-3.273-6.021-5.23-10.551
			c-3.897-9.043-12.666-14.707-26.062-16.836c-0.646-0.104-1.074-0.184-1.236-0.238l0,0c-0.072-0.002-13.627-2.32-17.998,3.92
			c-3.453,4.918-5.906,4.307-9.625,3.379c-2.174-0.543-4.88-1.219-8.885-1.219c-11.015,0-22.275,2.299-38.865,30.045
			c-1.602,2.68-3.103,5.145-4.508,7.453c-13.486,22.143-18.029,29.602-17.285,72.924c0.456,26.799-1.02,31.766-1.994,35.053
			c-0.735,2.473-1.178,3.967-0.088,14.859c0.326,3.271,0.572,6.783,0.809,10.18c1.046,14.988,2.127,30.488,10.293,35.096
			c4.465,2.52,10.756,1.637,19.227-2.705c5.852-3.006,10.521-15.422,14.271-25.398c1.846-4.914,3.59-9.553,5.309-12.756
			c5.056-9.418-3.244-39.564-3.328-39.867l1.983-0.553c0.354,1.271,8.604,31.25,3.159,41.395c-1.654,3.082-3.375,7.66-5.195,12.504
			c-4.078,10.848-8.699,23.139-15.258,26.508C195.527,233.942,190.731,235.382,186.684,235.382z"/>
		<path d="M266.211,183.896c-0.475,0.002-0.955-0.012-1.444-0.035c-11.315-0.564-29.043-8.07-44.854-27.447
			c-6.313-7.738-10.391-22.445-10.908-39.338l2.059-0.064c0.504,16.457,4.408,30.699,10.445,38.1
			c15.402,18.877,32.984,26.176,43.361,26.693c5.241,0.258,9.387-0.98,11.986-3.59c15.519-15.57,30.099-55.322,30.099-62.572
			c0-3.082-1.319-5.326-2.717-7.705c-1.902-3.236-4.06-6.904-3.064-13.111c1.339-8.355-0.106-16.236-2.501-29.295
			c-0.509-2.777-1.061-5.789-1.637-9.088c-3.158-18.025-30.119-23.635-30.391-23.689c-28.856-6.414-41.156,21.826-50.426,48.801
			c-0.957,2.789-2.059,7.174-2.373,8.451l-1.998-0.492c0.408-1.664,1.466-5.838,2.425-8.629
			c7.388-21.504,19.757-57.482,52.798-50.145c1.146,0.229,28.597,5.949,31.992,25.348c0.577,3.293,1.127,6.301,1.637,9.072
			c2.432,13.275,3.901,21.289,2.508,29.992c-0.879,5.477,0.912,8.52,2.807,11.742c1.475,2.51,3,5.105,3,8.748
			c0,7.666-14.514,47.787-30.7,64.027C275.544,182.446,271.379,183.896,266.211,183.896z"/>
		<path d="M256.859,92.921c-0.109-0.033-10.918-3.268-16.25-0.102l-1.051-1.77c6.115-3.633,17.424-0.246,17.901-0.1L256.859,92.921z
			"/>
		<path d="M296.746,99.231c-4.007-3.182-13.311-2.785-13.405-2.781l-0.097-2.057c0.414-0.021,10.172-0.436,14.783,3.225
			L296.746,99.231z"/>
		<path d="M287.855,99.083c-0.238,1.945,0.799,3.688,2.305,3.883c1.518,0.201,2.936-1.217,3.17-3.164
			c0.235-1.949-0.802-3.689-2.311-3.887C289.508,95.716,288.09,97.136,287.855,99.083z"/>
		<ellipse cx="247.398" cy="93.909" rx="2.902" ry="3.506"/>
		<path d="M279.391,127.142l-1.327-1.574c3.846-3.244,3.829-4.025-0.251-11.939c-4.231-8.199-2.663-25.641-2.595-26.381l2.052,0.191
			c-0.018,0.176-1.582,17.58,2.373,25.248C283.699,120.554,284.549,122.79,279.391,127.142z"/>
		<path d="M264.543,123.19c-1.742-6.213,2.729-9.359,5.338-10.154l0.604,1.967c-0.574,0.18-5.562,1.92-3.96,7.631L264.543,123.19z"
			/>
		<path d="M285.913,145.253c0,0-10.718-5.41-14.352-4.287c-3.639,1.131-7.144-1.689-11.836,0.723
			c-4.696,2.408-8.59,2.436-8.59,2.436s6.071,6.77,18.491,6.996C269.627,151.12,284.809,150.218,285.913,145.253z"/>
		<path d="M269.405,155.954C269.404,155.954,269.404,155.954,269.405,155.954c-1.313,0-2.685-0.066-4.079-0.199
			c-14.416-1.369-16.85-11.984-16.873-12.092l-0.139-0.652l0.539-0.395c7.045-5.148,11.586-6.887,17.994-6.887
			c1.063,0,2.182,0.049,3.418,0.15c8.569,0.699,16.07,8.33,16.387,8.656l0.385,0.396l-0.119,0.541
			C285.435,152.231,279.214,155.954,269.405,155.954z M250.65,143.858c0.717,2.115,3.838,8.799,14.871,9.846
			c1.328,0.127,2.637,0.189,3.883,0.189c6.027,0,13.503-1.461,15.369-8.314c-1.625-1.535-7.935-7.096-14.676-7.646
			C262.539,137.312,258.088,138.522,250.65,143.858z"/>
		<path d="M258.891,77.304c0,0,2.098,1.291-1.73,3.012c-3.826,1.723-13.883-6.705-20.188-2.049c-4.42,3.26-3.654,1.621-0.34-3.115
			C239.949,70.421,254.916,74.722,258.891,77.304z"/>
		<path d="M282.12,81.636c0,0-1.864,1.129,1.19,3.131c3.067,2.002,12.19-5.635,17.073-0.523c3.433,3.588,2.921,1.896,0.543-3.07
			C298.547,76.208,285.662,79.362,282.12,81.636z"/>
		<path d="M211.645,118.384c-0.857,0-1.592-0.197-2.191-0.455c-4.575-1.979-6.99-9.936-7.355-16.943
			c-0.125-2.393-0.238-10.373,3.543-12.5c7.402-4.164,14.754,7.203,15.063,7.688l-1.737,1.105c-0.065-0.102-6.6-10.207-12.316-6.996
			c-1.771,0.994-2.774,5.254-2.496,10.598c0.332,6.361,2.539,13.611,6.118,15.158c1.534,0.664,3.285,0.172,5.214-1.461l1.329,1.574
			C214.815,117.843,213.063,118.384,211.645,118.384z"/>
		<path d="M197.184,409.251L197.184,409.251c-0.191,0-0.386-0.008-0.58-0.02c-2.178-0.148-4.152-1.119-5.557-2.736
			c-1.338-1.541-1.994-3.496-1.845-5.502c0.313-4.195,4.108-7.428,8.532-7.139c2.186,0.15,4.161,1.127,5.564,2.746
			c1.334,1.541,1.986,3.49,1.838,5.496C204.839,406.106,201.346,409.251,197.184,409.251z M197.163,395.896
			c-3.092,0-5.688,2.307-5.907,5.25c-0.107,1.455,0.371,2.877,1.346,4c1.042,1.199,2.512,1.922,4.143,2.029
			c3.325,0.254,6.109-2.15,6.339-5.23c0.107-1.455-0.368-2.871-1.341-3.996c-1.043-1.201-2.516-1.928-4.148-2.037
			C197.449,395.901,197.307,395.896,197.163,395.896z"/>
		<path d="M194.514,440.657C194.514,440.657,194.514,440.657,194.514,440.657c-0.188,0-0.376-0.006-0.564-0.018
			c-2.182-0.152-4.154-1.129-5.556-2.746c-1.336-1.539-1.991-3.49-1.849-5.496c0.32-4.197,4.111-7.424,8.539-7.139
			c2.189,0.154,4.168,1.133,5.572,2.758c1.331,1.539,1.98,3.488,1.83,5.486C202.186,437.515,198.684,440.657,194.514,440.657z
			 M194.513,427.3c-3.091,0-5.688,2.307-5.914,5.25c-0.104,1.451,0.375,2.871,1.351,3.994c1.041,1.201,2.512,1.926,4.141,2.039
			c3.193,0.221,6.112-2.154,6.343-5.234c0.11-1.449-0.364-2.863-1.333-3.986c-1.043-1.205-2.521-1.934-4.158-2.051
			C194.799,427.304,194.655,427.3,194.513,427.3z"/>
	</g>
	<g>
		<path d="M352.317,228.897c0.114,0.271,0.262,0.775,0.434,1.453L786.6,149.905L365.858,307.134
			c0.108,0.689,0.218,1.383,0.327,2.076l419.721-156.85L377.436,382.04c0.109,0.723,0.219,1.453,0.329,2.176l420.739-236.574
			l-0.506-0.898l-0.188-1.012l-445.713,82.645C352.172,228.554,352.25,228.739,352.317,228.897z"/>
		<path d="M121.575,273.214c0.071-0.715,0.144-1.428,0.214-2.135L0.316,293.604l0.377,2.025L121.575,273.214z"/>
		<path d="M109.587,402.899L0.145,443.798l0.721,1.93L109.316,405.2C109.406,404.435,109.497,403.673,109.587,402.899z"/>
		<polygon points="266.715,446.358 266.841,446.585 267.239,446.36 		"/>
	</g>
	<g>
		<path d="M798.188,293.604l-495.766-91.928c-0.333,0.68-0.689,1.318-1.068,1.898l496.457,92.055L798.188,293.604z"/>
		<path d="M131.007,220.122c0.284-0.248,0.56-0.475,0.838-0.711L12.598,152.36l153.687,57.434c1.113-0.238,2.264-0.539,3.45-0.91
			L11.905,149.905l156.351,28.99c-0.033-0.793-0.048-1.492-0.043-2.104L0.693,145.731l-0.188,1.012L0,147.642l130.35,73.293
			C130.566,220.604,130.785,220.317,131.007,220.122z"/>
		<path d="M361.612,280.587c0.126,0.777,0.251,1.553,0.38,2.342l435.646,162.799l0.721-1.93L361.612,280.587z"/>
		<path d="M373.736,357.788l157.926,88.797l1.01-1.793L373.34,355.2C373.473,356.063,373.605,356.927,373.736,357.788z"/>
	</g>
</g>
</svg>
