<?xml version="1.0" encoding="utf-8"?>
<!-- Generator: Adobe Illustrator 15.0.2, SVG Export Plug-In . SVG Version: 6.00 Build 0)  -->
<!DOCTYPE svg PUBLIC "-//W3C//DTD SVG 1.1//EN" "http://www.w3.org/Graphics/SVG/1.1/DTD/svg11.dtd">
<svg version="1.1" id="Layer_3" xmlns="http://www.w3.org/2000/svg" xmlns:xlink="http://www.w3.org/1999/xlink" x="0px" y="0px"
	 width="800px" height="450px" viewBox="0 0 800 450" enable-background="new 0 0 800 450" xml:space="preserve">
<g>
	<g>
		<path d="M267.686,441.822h-2.06v-10.297h2.06V441.822z M267.686,421.228h-2.06v-10.297h2.06V421.228z M267.686,400.633h-2.06
			v-10.297h2.06V400.633z M267.686,338.849h-2.06v-10.297h2.06V338.849z M267.686,318.255h-2.06v-10.297h2.06V318.255z
			 M267.686,297.66h-2.06v-10.298h2.06V297.66z M267.686,277.065h-2.06v-10.297h2.06V277.065z M267.686,256.471h-2.06v-10.297h2.06
			V256.471z M267.686,235.876h-2.06v-10.298h2.06V235.876z M267.686,215.282h-2.06v-10.299h2.06V215.282z M267.686,194.687h-2.06
			V184.39h2.06V194.687z M267.686,174.093h-2.06v-10.297h2.06V174.093z M267.686,153.498h-2.06V143.2h2.06V153.498z
			 M267.686,132.903h-2.06v-10.297h2.06V132.903z M267.686,112.309h-2.06v-10.298h2.06V112.309z M267.686,91.714h-2.06V81.417h2.06
			V91.714z M267.686,71.119h-2.06V60.822h2.06V71.119z M267.686,50.524h-2.06V40.228h2.06V50.524z M267.686,29.931h-2.06V19.633
			h2.06V29.931z M267.686,9.335h-2.06V-0.962h2.06V9.335z"/>
		<path d="M533.517,442.684h-2.06v-10.295h2.06V442.684z M533.517,360.307l-1.857-4.207l-0.202-6.09h2.06V360.307z M533.517,339.712
			h-2.06v-10.297h2.06V339.712z M533.517,319.117h-2.06v-10.296h2.06V319.117z M533.517,298.523h-2.06v-10.298h2.06V298.523z
			 M533.517,277.928h-2.06v-10.297h2.06V277.928z M533.517,257.333h-2.06v-10.297h2.06V257.333z M533.517,236.739h-2.06v-10.298
			h2.06V236.739z M533.517,216.145h-2.06v-10.298h2.06V216.145z M533.517,195.55h-2.06v-10.297h2.06V195.55z M533.517,174.955h-2.06
			v-10.298h2.06V174.955z M533.517,154.36h-2.06v-10.297h2.06V154.36z M533.517,133.766h-2.06v-10.297h2.06V133.766z
			 M533.517,113.171h-2.06v-10.297h2.06V113.171z M533.517,92.577h-2.06V82.279h2.06V92.577z M533.517,71.981h-2.06V61.685h2.06
			V71.981z M533.517,51.388h-2.06V41.091h2.06V51.388z M533.517,30.793h-2.06V20.495h2.06V30.793z M533.517,10.198h-2.06V-0.099
			h2.06V10.198z"/>
		<rect x="0.824" y="295.01" width="265.441" height="6.178"/>
		<rect x="524.957" y="295.01" width="273.362" height="6.178"/>
		<polygon points="798.319,151.659 438.834,151.659 435.113,145.479 798.319,145.479 		"/>
		<polygon points="355.559,151.659 1.347,151.659 1.347,145.479 352.783,145.479 		"/>
	</g>
	<g>
		<path d="M531.375,407.903l-1.579-1.321c0.07-0.085,6.987-8.552,7.588-24.435c0.312-8.196-2.318-14.909-5.363-22.679
			c-2.918-7.449-6.227-15.893-7.468-27.284c-0.791-7.257-1.021-13.876-1.241-20.277c-0.475-13.723-0.884-25.57-6.8-37.381
			c-4.669-9.327-7.238-22.887-9.503-34.852c-1.984-10.482-3.862-20.383-6.722-24.771c-6.258-9.607-20.002-17.346-31.965-18.002
			l0.112-2.056c12.56,0.688,26.996,8.827,33.578,18.933c3.084,4.73,4.907,14.361,7.02,25.515c2.241,11.83,4.78,25.24,9.322,34.311
			c6.115,12.212,6.532,24.27,7.015,38.231c0.221,6.364,0.448,12.945,1.231,20.126c1.21,11.12,4.467,19.427,7.338,26.758
			c3.129,7.985,5.831,14.88,5.505,23.506C538.812,398.862,531.678,407.544,531.375,407.903z"/>
		<path d="M284.692,420.227c-10.802-2.349-12.009-10.69-13.288-19.517c-0.951-6.572-1.937-13.368-6.546-19.262
			c-9.657-12.35-3.707-27.368,0.639-38.335c0.891-2.249,1.731-4.372,2.327-6.209c1.442-4.46,0.161-13.712-1.196-23.506
			c-1.772-12.787-3.78-27.281-0.344-35.607c5.969-14.457,11.547-39.828,12.141-45.369c0.704-6.55,15.946-18.789,25.743-22.146
			c9.845-3.373,43.214-19.526,43.55-19.689l0.899,1.854c-1.377,0.667-33.818,16.371-43.781,19.784
			c-9.68,3.314-23.796,15.145-24.363,20.416c-0.603,5.619-6.248,31.312-12.283,45.936c-3.226,7.811-1.257,22.01,0.479,34.538
			c1.451,10.471,2.704,19.514,1.114,24.424c-0.614,1.899-1.468,4.053-2.37,6.331c-4.161,10.505-9.86,24.89-0.931,36.31
			c4.946,6.324,6.017,13.714,6.961,20.234c1.275,8.801,2.281,15.754,11.688,17.8L284.692,420.227z"/>
		<path d="M359.595,174.543L357.607,174c0.483-1.767,0.293-11.528,0.048-17.659l2.058-0.082
			C359.777,157.853,360.315,171.903,359.595,174.543z"/>
		<path d="M388.604,300.211c-0.049-0.411-0.111-0.862-0.188-1.351c-0.162-0.181-0.238-0.514-0.2-1.21
			c-1.214-6.962-4.403-19.75-7.755-33.193c-4.429-17.766-9.009-36.136-9.352-42.511c-0.641-11.918,3.798-19.591,4.798-20.335
			l1.23,1.651c-0.558,0.607-4.564,7.544-3.972,18.573c0.332,6.179,4.888,24.451,9.294,42.123
			c2.617,10.498,5.135,20.598,6.704,27.891c0.509-2.602,1.244-6.17,2.256-11.074c4.711-22.851,13.482-65.386,10.928-74.038
			l1.976-0.584c2.697,9.148-5.805,50.395-10.886,75.039c-1.158,5.613-2.211,10.721-2.781,13.806v5.09L388.604,300.211z"/>
		<path d="M392.962,178.599c-0.002,0-0.002,0-0.003,0c-6.925,0-14.024-2.746-21.706-8.395
			c-11.428-8.404-22.221-23.707-25.104-35.598c-2.749-11.344-1.786-30.383-1.744-31.188c0.142-4.313,5.358-13.382,14.827-29.843
			l2.644-4.597c8.086-14.085,12.385-16.591,20.439-16.591c1.344,0,2.798,0.063,4.405,0.135c1.232,0.056,2.559,0.115,3.996,0.15
			c14.159,0.354,15.151,1.636,31.714,23.03c16.554,21.384,14.729,41.774,14.644,42.632c-1.028,31.943-24.157,51.635-24.391,51.831
			C406.512,175.753,399.865,178.599,392.962,178.599z M382.315,54.447c-6.76,0-10.566,1.472-18.653,15.557l-2.645,4.599
			c-8.688,15.104-14.428,25.083-14.555,28.904c-0.011,0.214-0.99,19.566,1.688,30.615c2.783,11.474,13.24,26.271,24.323,34.424
			c7.314,5.379,14.016,7.992,20.485,7.992c0.001,0,0.001,0,0.003,0c6.376,0,12.556-2.666,18.371-7.926
			c0.257-0.217,22.686-19.349,23.688-50.413c0.023-0.271,1.808-20.534-14.201-41.212c-16.337-21.102-16.973-21.926-30.155-22.256
			c-1.451-0.037-2.788-0.096-4.034-0.151C385.056,54.511,383.632,54.447,382.315,54.447z"/>
		<path d="M344.686,118.067c-4.201-2.719-5.541-14.037-5.852-17.441c-1.021-11.204,0.346-24.77,5.704-29.824
			c3.483-3.286,5.76-7.461,8.171-11.882c3.509-6.437,7.487-13.731,16.142-20.119c12.435-9.179,19.586-5.618,21.826-3.963
			c1.441-1.011,5.071-2.551,13.513-2.056c10.688,0.633,21.191,3.433,25.644,19.508c4.224,15.244,7.329,22.973,11.266,31.172
			c4.253,8.863-3.654,31.738-3.994,32.707l-1.942-0.68c0.078-0.229,7.968-23.036,4.078-31.137
			c-3.985-8.303-7.126-16.122-11.39-31.514c-3.88-14.002-12.314-17.322-23.782-18.001c-10.32-0.6-12.535,1.953-12.556,1.979
			l-0.741,0.904l-0.83-0.817c-0.254-0.258-6.452-6.352-19.868,3.554c-8.287,6.117-11.982,12.896-15.557,19.448
			c-2.491,4.568-4.844,8.885-8.564,12.395c-4.83,4.555-6.012,17.779-5.067,28.139c0.737,8.084,2.715,14.474,4.92,15.9
			L344.686,118.067z"/>
		<path d="M346.604,144.159c-0.02,0-0.038,0-0.058,0c-2.97-0.054-5.56-4.35-7.917-8.984c-3.234-6.361-6.941-15.461-6.232-22.683
			c0.206-2.106,1.014-3.49,2.401-4.112c2.941-1.326,7.157,1.647,7.628,1.992l-1.211,1.664c-0.945-0.686-4.005-2.491-5.575-1.777
			c-0.664,0.299-1.064,1.117-1.193,2.435c-0.66,6.728,2.908,15.431,6.019,21.548c0.984,1.934,3.977,7.82,6.118,7.857
			c0.842-0.074,1.53-0.996,2.001-1.846l1.802,0.998C349.316,143.181,348.044,144.159,346.604,144.159z"/>
		<path d="M433.056,138.112c-0.42,0-0.79-0.096-1.057-0.336l-0.495-0.449l0.177-0.771l0.979,0.32l0.865-0.462
			c-0.186-0.275-0.448-0.354-0.524-0.358c0.35-0.009,2.534-0.55,4.164-2.065c1.085-1.009,1.634-2.154,1.634-3.402
			c0-3.232,1.605-6.77,3.019-9.892c0.968-2.132,1.881-4.146,2.144-5.724c0.083-0.49-0.013-0.863-0.307-1.205
			c-1.14-1.33-4.646-1.615-5.928-1.615c-0.031,0-0.064,0.001-0.096,0.001l-0.025-2.06c0.556-0.004,5.611-0.002,7.612,2.332
			c0.688,0.802,0.955,1.801,0.774,2.887c-0.308,1.844-1.275,3.977-2.299,6.234c-1.394,3.075-2.836,6.255-2.836,9.041
			c0,4.176-4.01,6.281-5.238,6.828C434.817,137.773,433.846,138.112,433.056,138.112z"/>
		<path d="M383.878,92.489c0,0,1.03,1.715,0,3.432c-1.029,1.717-12.016-3.775-22.998,0c0,0-3.089-1.372,4.805-3.432
			C373.581,90.429,380.789,90.087,383.878,92.489z"/>
		<path d="M401.76,92.489c0,0-1.029,1.715,0,3.432s12.015-3.775,22.998,0c0,0,3.089-1.372-4.808-3.432
			C412.057,90.429,404.849,90.087,401.76,92.489z"/>
		<path d="M363.359,106.89l-1.182-1.686c9.649-6.77,18.008-1.707,18.858-0.748l0.019,1.422l-1.53-1.377l0.766,0.688l-0.764,0.665
			C379.463,105.796,372.254,100.653,363.359,106.89z"/>
		<circle cx="373.117" cy="106.028" r="3.042"/>
		<path d="M420.719,106.89c-8.899-6.241-16.102-1.095-16.166-1.036l-0.677-0.743l-0.852,0.768l0.019-1.422
			c0.851-0.959,9.209-6.023,18.858,0.748L420.719,106.89z"/>
		<circle cx="410.961" cy="106.028" r="3.042"/>
		<path d="M390.179,132.958c-2.553-0.67-4.229-1.846-4.981-3.493c-1.209-2.646,0.266-5.64,1.241-7.619
			c0.173-0.351,0.327-0.665,0.441-0.929c0.688-1.605,0.84-11.861,0.773-17.948l2.06-0.022c0.029,2.702,0.122,16.305-0.94,18.781
			c-0.126,0.293-0.296,0.641-0.487,1.027c-0.803,1.631-2.017,4.098-1.214,5.854c0.482,1.06,1.704,1.851,3.631,2.355L390.179,132.958
			z"/>
		<path d="M399.431,132.515l-1.737-1.105c2.577-4.049-1.511-7.609-1.687-7.76l1.336-1.566
			C399.3,123.753,402.253,128.08,399.431,132.515z"/>
		<path d="M393.287,159.389c-0.002,0,0,0-0.002,0l-0.296-0.007c-12.554-0.456-15.696-11.637-15.728-11.751l-0.146-0.542l0.377-0.415
			c0.218-0.24,5.388-5.875,11.463-5.875c1.241,0,2.442,0.239,3.574,0.709c0.78-0.185,2.715-0.58,5.023-0.58
			c5.744,0,9.662,2.368,11.331,6.851c0.244,0.652,0.017,1.426-0.736,2.51C405.878,153.554,398.972,159.389,393.287,159.389z
			 M379.427,147.642c0.745,2.088,4.019,9.333,13.638,9.684l0.221,0.004c5.646,0,13.118-7.305,13.613-8.979
			c-1.391-3.56-4.534-5.363-9.345-5.363c-2.674,0-4.815,0.592-4.837,0.597l-0.364,0.103l-0.345-0.159
			c-0.959-0.443-1.985-0.669-3.052-0.669C384.676,142.858,380.685,146.407,379.427,147.642z"/>
		<path d="M380.338,147.917c0,0,8.043-5.369,25.377,0C405.715,147.917,391.302,162.628,380.338,147.917z"/>
		<path d="M358.085,225.776l-1.154-1.438c-5.271-6.569-9.597-31.588-9.778-32.649l-0.059-0.343l0.16-0.308
			c0.042-0.08,4.219-8.074,7.713-13.993c1.534-2.595,2.86-3.804,4.175-3.804c1.371,0,2.079,1.287,2.281,2.048l0.052,0.196
			l-0.026,0.201c-1.439,11.108,15.509,23.624,15.681,23.749c1.012,0.839,1.126,1.637,1.055,2.165
			c-0.233,1.71-2.514,2.736-5.966,4.289c-4.137,1.863-9.286,4.18-10.335,7.793c-2.226,7.665-3.141,10.25-3.178,10.357
			L358.085,225.776z M349.242,191.683c0.498,2.807,4.023,22.08,8.183,29.656c0.505-1.587,1.314-4.215,2.48-8.23
			c1.313-4.525,6.944-7.061,11.469-9.096c1.81-0.814,4.538-2.043,4.766-2.684c-0.016-0.004-0.079-0.105-0.277-0.271
			c-0.684-0.497-17.82-13.161-16.485-25.392c-0.073-0.168-0.185-0.336-0.254-0.371c0.009,0.006-0.78,0.084-2.382,2.797
			C353.662,183.308,350.043,190.157,349.242,191.683z"/>
		<path d="M406.884,224.378l0.324-2.615c0.008-0.068,0.796-6.885-2.935-13.062c-0.689-0.201-1.534-0.689-1.851-1.664
			c-0.602-1.859,1.007-4.384,5.064-7.947c8.537-7.499,15.279-23.379,11.709-35.07l1.971-0.601
			c3.801,12.45-3.303,29.296-12.321,37.218c-4.789,4.209-4.51,5.619-4.464,5.767c0.081,0.244,0.565,0.349,0.632,0.356l0.502,0.047
			l0.271,0.424c2.93,4.608,3.512,9.5,3.562,12.346c4.231-3.659,14.791-12.962,18.431-17.761l1.641,1.245
			c-4.708,6.207-19.881,19.073-20.523,19.617L406.884,224.378z"/>
		<path d="M512.226,420.248c-5.728,0-9.555-0.306-9.591-0.308l-0.404-0.034l-0.273-0.299c-0.159-0.174-3.975-4.486-10.547-23.005
			c-5.076-14.312-18.377-15.856-23.858-15.856c-1.033,0-1.655,0.061-1.682,0.063l-0.106,0.009l-0.104-0.01
			c-0.609-0.063-2.459-0.259-2.661-1.727c-0.466-3.4,15.346-10.416,28.69-15.701c1.208-0.331,2.395-0.479,3.638-0.479
			c7.659,0,17.871,5.706,26.021,14.536c7.041,7.629,10.783,15.688,10.265,22.111c-0.315,3.929-0.309,7.06-0.305,9.576
			c0.014,7.455,0.021,10.244-9.111,10.815C518.942,420.146,515.587,420.248,512.226,420.248z M503.244,417.92
			c1.153,0.076,4.462,0.269,8.981,0.269c3.319,0,6.63-0.103,9.842-0.303c7.195-0.451,7.193-1.396,7.18-8.757
			c-0.004-2.555-0.01-5.732,0.313-9.744c0.463-5.767-3.174-13.449-9.729-20.552c-7.655-8.298-17.505-13.872-24.506-13.872
			c-1.064,0-2.072,0.126-2.993,0.372c-11.982,4.753-25.366,11.028-27.13,13.314c0.132,0.034,0.316,0.071,0.574,0.103
			c0.245-0.021,0.869-0.063,1.774-0.063c4.62,0,20.13,1.243,25.802,17.228C498.812,411.304,502.331,416.675,503.244,417.92z"/>
		<path d="M303.315,426.903c-3.363,0-6.72-0.116-9.978-0.346c-9.125-0.64-9.119-3.731-9.104-11.995
			c0.006-2.822,0.012-6.335-0.305-10.743c-0.568-7.907,4.297-18.424,12.698-27.45c7.731-8.307,16.769-13.467,23.587-13.467
			c1.254,0,2.45,0.168,3.554,0.499c11.073,4.903,29.357,13.636,28.77,17.521c-0.15,1.001-1.04,1.606-2.642,1.794l-0.118,0.014
			l-0.12-0.014c-0.03-0.004-0.646-0.07-1.67-0.07c-5.475,0-18.757,1.736-23.848,17.816c-6.561,20.714-10.358,25.524-10.517,25.719
			l-0.273,0.337l-0.432,0.04C312.763,426.572,309.048,426.903,303.315,426.903z M320.214,364.962c-6.265,0-14.725,4.908-22.08,12.81
			c-8.023,8.621-12.68,18.546-12.151,25.9c0.322,4.482,0.315,8.039,0.311,10.895c-0.014,8.175-0.017,9.433,7.189,9.938
			c3.209,0.226,6.518,0.34,9.833,0.34c4.481,0,7.771-0.213,8.944-0.299c0.912-1.388,4.439-7.41,9.917-24.705
			c5.655-17.864,21.186-19.253,25.811-19.253c0.896,0,1.518,0.046,1.773,0.071c0.342-0.049,0.554-0.108,0.677-0.155
			c-1.114-2.367-14.858-9.616-27.383-15.175C322.265,365.101,321.268,364.962,320.214,364.962z"/>
		<path d="M335.015,369.834c-3.9-7.554-3.603-12.428-3.314-17.143c0.342-5.606,0.666-10.901-6.719-20.752
			c-9.78-13.044-5.413-50.9-5.221-52.504l2.045,0.242c-0.047,0.386-4.465,38.64,4.823,51.026
			c7.839,10.454,7.477,16.382,7.127,22.114c-0.271,4.436-0.551,9.021,3.089,16.07L335.015,369.834z"/>
		<path d="M464.929,380.256l-1.83-0.945c3.641-7.049,3.359-11.635,3.087-16.07c-0.35-5.731-0.712-11.658,7.126-22.113
			c9.302-12.402,4.869-60.984,4.823-61.474l2.052-0.193c0.188,2.03,4.547,49.87-5.226,62.9c-7.386,9.852-7.062,15.147-6.719,20.754
			C468.532,367.828,468.829,372.703,464.929,380.256z"/>
		<path d="M504.791,435.189c-1.883,0-4.089-0.547-6.497-1.644c-7.649-3.485-15.505-11.646-14.86-18.757l2.052,0.188
			c-0.548,6.017,6.623,13.49,13.664,16.695c3.982,1.812,7.278,1.94,8.812,0.347l0.843-0.882c5.033-5.274,8.064-8.461,13.357-6.786
			c3.694,1.171,9.107,0.458,11.152,0.122v-9.447c-0.867-3.004-2.178-6.485-2.789-6.97c0.16,0.126,0.583,0.137,0.815-0.112
			l-1.507-1.404c0.357-0.383,0.842-0.535,1.338-0.417c0.466,0.112,1.878,0.452,4.162,8.475l0.04,0.284v11.291l-0.82,0.169
			c-0.322,0.065-7.882,1.599-13.016-0.027c-4.058-1.286-6.312,1.072-11.243,6.243l-0.846,0.885
			C508.332,434.605,506.733,435.189,504.791,435.189z"/>
		<path d="M379.827,440.525c-3.342,0-5.815-2.318-7.046-3.788c-0.864,0.405-2.268,0.586-4.373,0.586
			c-1.935,0-3.357-0.586-4.231-1.739c-0.757-1-0.904-2.204-0.874-3.124c-0.453,0.031-0.991,0.055-1.573,0.055
			c-3.024,0-5.059-0.644-6.048-1.914c-1.66-2.134,0.267-5.301,1.532-6.965c-1.708-0.985-3.57-2.881-2.963-5.66
			c0.839-3.831,12.247-10.398,14.525-11.675c17.039-8.88,34.599-18.034,46.017-17.308c10.055,0.669,48.566-10.097,48.943-10.201
			c0.086-0.022,1.534-0.381,3.857-0.381c6.604,0,22.938,3.072,31.875,31.53c0.188,0.591,0.094,1.188-0.27,1.731
			c-2.047,3.062-15.321,4.365-17.96,4.596c-14.735,0.046-20.61,0.428-24.496,0.679c-1.991,0.129-3.429,0.222-5.251,0.222
			l-1.396-0.007c-12.647,0-17.75,3.561-21.542,6.898c-4.473,3.945-19.484,12.729-26.042,14.812c-2.691,0.852-5.637,0.95-7.618,0.95
			c-1.368,0-2.742-0.053-4.09-0.104c-1.269-0.048-2.514-0.099-3.704-0.099c-2.239,0-3.805,0.176-5.079,0.567
			C381.295,440.411,380.557,440.525,379.827,440.525z M373.675,434.505c0.418,0.62,2.802,3.961,6.151,3.961
			c0.525,0,1.061-0.083,1.59-0.245c1.478-0.457,3.23-0.66,5.684-0.66c1.217,0,2.488,0.051,3.785,0.102
			c1.319,0.049,2.667,0.102,4.009,0.102c2.933,0,5.154-0.271,6.994-0.854c6.192-1.964,21.022-10.616,25.305-14.392
			c4.074-3.589,9.539-7.414,22.903-7.414l1.396,0.007c1.753,0,3.166-0.091,5.117-0.219c3.913-0.253,9.824-0.637,24.537-0.679
			c8.204-0.72,15.89-2.462,16.361-3.721c-8.533-27.09-23.764-30.021-29.914-30.021c-2.046,0-3.318,0.308-3.331,0.312
			c-1.526,0.427-39.31,10.893-49.604,10.266c-10.854-0.707-28.158,8.34-44.902,17.062c-5.304,2.975-13.023,8.154-13.494,10.306
			c-0.575,2.625,2.785,3.823,2.929,3.874l1.479,0.513l-1.054,1.156c-1.415,1.547-3.128,4.324-2.31,5.377
			c0.554,0.711,2.167,1.119,4.423,1.119c1.429,0,2.608-0.165,2.62-0.167l1.564-0.222l-0.43,1.521
			c-0.127,0.473-0.32,1.896,0.339,2.759c0.465,0.609,1.335,0.917,2.585,0.917c2.98,0,3.558-0.414,3.581-0.433
			c-0.121,0.094-0.254,0.427-0.078,0.734l1.707-1.148c0.009,0.015,0.025,0.038,0.047,0.072h0.001
			C373.669,434.493,373.672,434.499,373.675,434.505z"/>
		<path d="M357.181,426.362c-1.824,0-9.079-0.803-41.777-4.71l-0.683-0.083l-0.187-0.661c-3.491-12.412-2.666-22.108,2.452-28.82
			c7.118-9.332,19.834-9.307,20.323-9.349l0.263,0.036l51.034,13.858l-0.539,1.986l-50.896-13.818
			c-1.306,0.025-12.434,0.507-18.556,8.548c-4.607,6.052-5.374,14.912-2.281,26.34c16.016,1.912,39.631,4.684,40.863,4.691
			l-0.006,0.947l0.684,0.895C357.776,426.301,357.693,426.362,357.181,426.362z"/>
		<path d="M422.894,434.967c-4.575,0-8.534-1.961-8.783-2.088l0.928-1.838c0.082,0.042,8.279,4.086,13.925,0.079l0.317-0.226
			l0.391,0.042c0.275,0.029,6.98,0.68,7.938-5.161l0.111-0.69l0.683-0.148c0.093-0.02,9.104-2.084,9.391-8.833l2.06,0.088
			c-0.311,7.215-7.995,9.926-10.347,10.588c-1.279,5.388-6.608,6.43-9.674,6.24C427.624,434.476,425.182,434.967,422.894,434.967z"
			/>
		<path d="M308.364,448.244h-2.06c0-11.09,2.401-22.473,2.427-22.586l2.013,0.432C310.721,426.199,308.364,437.377,308.364,448.244z
			"/>
		<path d="M490.785,447.975c-2.53-7.051-3.179-23.047-3.204-23.724l2.06-0.081c0.006,0.163,0.659,16.355,3.083,23.108
			L490.785,447.975z"/>
		<path d="M447.454,265.483c-0.142,0-3.488-0.037-6.577-3.233c-3.664-3.791-5.37-10.224-5.068-19.117
			c0.345-10.147-4.391-26.917-8.968-43.134c-5.015-17.77-9.347-33.116-6.504-38.121c5.001-8.814,11.326-25.205,11.389-25.371
			l1.272-3.305l0.699,3.472c1.862,9.246,11.623,24.539,26.781,41.957c8.079,9.282,12.015,23.188,9.797,34.601
			c-1.356,6.975-4.944,12.262-10.107,14.889c-13.184,6.708-11.702,35.979-11.688,36.275l0.062,1.088H447.454z M432.495,140.169
			c-2.078,5.183-6.586,16.061-10.368,22.725c-2.417,4.258,2.216,20.672,6.697,36.547c4.62,16.367,9.398,33.294,9.044,43.761
			c-0.277,8.153,1.26,14.228,4.438,17.565c1.515,1.588,3.069,2.228,4.069,2.484c-0.162-5.935-0.021-30.412,12.859-36.967
			c5.875-2.99,8.147-8.963,9.018-13.445c2.104-10.823-1.645-24.027-9.328-32.857C450.569,170.38,436.646,153.095,432.495,140.169z"
			/>
	</g>
	<g>
		<path d="M358.688,173.801c0.101-0.633,0.162-1.595,0.2-2.757l-49.693,38.398c2.232-0.92,4.834-2.045,7.611-3.279L358.688,173.801z
			"/>
		<path d="M2.015,349.465l356.911-183.433c-0.007-0.77-0.018-1.539-0.032-2.299L1.073,347.632L2.015,349.465z"/>
		<path d="M1.837,265.441l356.962-105.718c-0.024-0.838-0.049-1.562-0.068-2.129L1.252,263.466L1.837,265.441z"/>
		<path d="M265.787,297.789L142.738,448.52l1.596,1.304L266.06,300.711C265.958,299.73,265.867,298.755,265.787,297.789z"/>
		<path d="M357.766,155.042c-0.472-0.629-0.943-1.258-1.393-1.896L0.496,199.645l0.267,2.042L357.766,155.042z"/>
		<path d="M279.448,232.531c0.005-0.04,0.024-0.087,0.031-0.127L0,448.356l1.258,1.629l277.767-214.63
			C279.228,234.187,279.375,233.215,279.448,232.531z"/>
	</g>
	<g>
		<path d="M450.703,168.407l343.62,97.036l0.558-1.98l-346.272-97.786C449.293,166.585,449.991,167.495,450.703,168.407z"/>
		<path d="M795.054,347.623L464.028,185.399c0.583,1.008,1.119,2.039,1.617,3.088l328.504,160.984L795.054,347.623z"/>
		<path d="M441.444,155.466c0.48,0.748,0.974,1.5,1.484,2.259l355.263,43.962l0.254-2.043L441.444,155.466z"/>
		<path d="M524.235,308.89l120.671,140.951l1.565-1.339L524.098,305.563C524.147,306.662,524.192,307.77,524.235,308.89z"/>
		<path d="M507.823,238.449L794.949,450l1.224-1.657L507.255,235.472C507.443,236.451,507.633,237.444,507.823,238.449z"/>
	</g>
</g>
</svg>
