<?xml version="1.0" encoding="utf-8"?>
<!-- Generator: Adobe Illustrator 15.0.2, SVG Export Plug-In . SVG Version: 6.00 Build 0)  -->
<!DOCTYPE svg PUBLIC "-//W3C//DTD SVG 1.1//EN" "http://www.w3.org/Graphics/SVG/1.1/DTD/svg11.dtd">
<svg version="1.1" id="Layer_3" xmlns="http://www.w3.org/2000/svg" xmlns:xlink="http://www.w3.org/1999/xlink" x="0px" y="0px"
	 width="800px" height="450px" viewBox="0 0 800 450" enable-background="new 0 0 800 450" xml:space="preserve">
<g>
	<path d="M468.466,130.819h-2.059c0-35.521,28.875-63.348,65.74-63.348c27.506,0,54.258,19.477,63.609,46.311l-1.943,0.678
		c-9.076-26.033-35.01-44.928-61.666-44.928C496.437,69.532,468.466,96.452,468.466,130.819z"/>
	<path d="M478.763,148.884l-0.869-1.867c2.512-1.166,61.721-28.512,86.949-28.512c11.996,0,24.639-3.82,38.023-7.863
		c14.312-4.324,29.121-8.785,43.609-8.479c11.346,0.248,32.299,3.76,56.562,7.824c34.59,5.797,73.785,12.367,94.875,10.941
		l0.139,2.055c-21.328,1.443-60.652-5.15-95.355-10.965c-24.184-4.051-45.07-7.551-56.264-7.797
		c-14.199-0.354-28.812,4.113-42.973,8.391c-13.531,4.09-26.316,7.951-38.617,7.951
		C540.071,120.563,479.372,148.601,478.763,148.884z"/>
	<path d="M695.06,197.769c-18.148,0-52.643-6.369-79.064-16.727c-17.713-6.945-43.24-3.768-65.768-0.971
		c-17.33,2.154-32.299,4.018-40.867,0.982c-12.941-4.58-20.578-17.053-27.963-29.115c-4.033-6.588-7.846-12.812-12.453-17.84
		c-6.338-6.914-16.018-20.348-26.268-34.57c-11.318-15.713-24.148-33.52-34.354-45.078c-19.23-21.783-39.822-55.156-40.027-55.492
		l1.754-1.076c0.205,0.332,20.703,33.559,39.818,55.205c10.271,11.635,23.135,29.486,34.48,45.236
		c10.211,14.172,19.857,27.559,26.113,34.383c4.742,5.174,8.783,11.775,12.691,18.158c7.197,11.756,14.643,23.912,26.893,28.248
		c8.111,2.871,22.854,1.041,39.928-1.084c22.768-2.83,48.574-6.041,66.775,1.096c30.492,11.953,71.715,18.57,85.508,16.082
		c4.1-0.74,14.082-4.594,25.641-9.059c33.781-13.045,62.428-23.4,70.654-17.906l-1.143,1.715c-8.025-5.35-44.574,8.77-68.77,18.113
		c-12.137,4.688-21.725,8.389-26.018,9.164C700.626,197.595,698.065,197.769,695.06,197.769z"/>
	<path d="M0.974,120.579L0,118.765c0.809-0.434,81.32-43.549,118.206-59.08c22.418-9.436,35.18,2.561,38.697,6.656L194.595-1.22
		l1.798,1.004l-39.261,70.371l-0.937-1.396c-0.486-0.727-12.236-17.684-37.188-7.176C82.208,77.077,1.782,120.147,0.974,120.579z"/>
	<path d="M293.609,298.114h-57.704v-35.801h57.704V298.114z M237.964,296.056h53.587v-31.684h-53.587V296.056z"/>
	<path d="M315.28,264.485h-97.923l48.961-14.77L315.28,264.485z M231.315,262.427h70.008l-35.005-10.559L231.315,262.427z"/>
	<g>
		<path d="M267.348,441.204h-2.06v-10.299h2.06V441.204z M267.348,420.608h-2.06v-10.297h2.06V420.608z M267.348,400.015h-2.06
			v-10.297h2.06V400.015z M267.348,379.419h-2.06v-10.297h2.06V379.419z M267.348,358.825h-2.06v-10.297h2.06V358.825z
			 M267.348,338.229h-2.06v-10.297h2.06V338.229z M267.348,317.636h-2.06v-10.299h2.06V317.636z M267.348,297.04h-2.06v-10.297h2.06
			V297.04z M267.348,276.446h-2.06v-10.297h2.06V276.446z M267.348,255.853h-2.06v-10.299h2.06V255.853z M267.348,235.257h-2.06
			V224.96h2.06V235.257z M267.348,214.663h-2.06v-10.297h2.06V214.663z M267.348,194.067h-2.06v-10.297h2.06V194.067z
			 M267.348,173.474h-2.06v-10.297h2.06V173.474z M267.348,152.88h-2.06v-10.299h2.06V152.88z M267.348,132.284h-2.06v-10.297h2.06
			V132.284z M267.348,111.69h-2.06v-10.299h2.06V111.69z M267.348,91.095h-2.06V80.798h2.06V91.095z M267.348,70.501h-2.06V60.202
			h2.06V70.501z M267.348,49.905h-2.06V39.608h2.06V49.905z M267.348,29.312h-2.06V19.013h2.06V29.312z M267.348,8.716h-2.06V-1.581
			h2.06V8.716z"/>
		<path d="M533.177,442.065h-2.059v-10.297h2.059V442.065z M533.177,421.472h-2.059v-10.297h2.059V421.472z M533.177,400.878h-2.059
			v-10.299h2.059V400.878z M533.177,380.282h-2.059v-10.297h2.059V380.282z M533.177,359.687h-2.059V349.39h2.059V359.687z
			 M533.177,339.093h-2.059v-10.297h2.059V339.093z M533.177,318.499h-2.059v-10.297h2.059V318.499z M533.177,297.903h-2.059
			v-10.297h2.059V297.903z M533.177,277.308h-2.059v-10.295h2.059V277.308z M533.177,256.714h-2.059v-10.297h2.059V256.714z
			 M533.177,236.12h-2.059v-10.297h2.059V236.12z M533.177,215.526h-2.059v-10.299h2.059V215.526z M533.177,194.931h-2.059v-10.297
			h2.059V194.931z M533.177,174.337h-2.059v-10.299h2.059V174.337z M533.177,153.741h-2.059v-10.297h2.059V153.741z
			 M533.177,133.147h-2.059v-10.299h2.059V133.147z M533.177,112.552h-2.059v-10.297h2.059V112.552z M533.177,91.958h-2.059V81.661
			h2.059V91.958z M533.177,71.362h-2.059V61.065h2.059V71.362z M533.177,50.769h-2.059V40.472h2.059V50.769z M533.177,30.175h-2.059
			V19.876h2.059V30.175z M533.177,9.579h-2.059V-0.718h2.059V9.579z"/>
		<rect x="0.486" y="295.421" width="797.495" height="4.117"/>
		<path d="M793.38,148.979h-10.297v-2.059h10.297V148.979z M772.784,148.979h-10.297v-2.059h10.297V148.979z M752.19,148.979
			h-10.297v-2.059h10.297V148.979z M731.597,148.979h-10.299v-2.059h10.299V148.979z M711.001,148.979h-10.297v-2.059h10.297
			V148.979z M690.407,148.979h-10.299v-2.059h10.299V148.979z M669.812,148.979h-10.297v-2.059h10.297V148.979z M649.218,148.979
			h-10.299v-2.059h10.299V148.979z M628.622,148.979h-10.297v-2.059h10.297V148.979z M608.028,148.979h-10.297v-2.059h10.297
			V148.979z M587.435,148.979h-10.299v-2.059h10.299V148.979z M566.839,148.979h-10.297v-2.059h10.297V148.979z M546.245,148.979
			h-10.299v-2.059h10.299V148.979z M525.649,148.979h-10.297v-2.059h10.297V148.979z M505.056,148.979h-10.299v-2.059h10.299
			V148.979z M484.462,148.979h-10.299v-2.059h10.299V148.979z M463.866,148.979h-10.297v-2.059h10.297V148.979z M443.272,148.979
			h-10.299v-2.059h10.299V148.979z M422.677,148.979H412.38v-2.059h10.297V148.979z M402.083,148.979h-10.299v-2.059h10.299V148.979
			z M381.487,148.979H371.19v-2.059h10.297V148.979z M360.894,148.979h-10.299v-2.059h10.299V148.979z M340.298,148.979h-10.297
			v-2.059h10.297V148.979z M319.703,148.979h-10.297v-2.059h10.297V148.979z M299.108,148.979h-10.297v-2.059h10.297V148.979z
			 M278.514,148.979h-10.297v-2.059h10.297V148.979z M257.92,148.979h-10.298v-2.059h10.298V148.979z M237.324,148.979h-10.297
			v-2.059h10.297V148.979z M216.73,148.979h-10.298v-2.059h10.298V148.979z M196.136,148.979h-10.297v-2.059h10.297V148.979z
			 M175.541,148.979h-10.298v-2.059h10.298V148.979z M154.946,148.979h-10.297v-2.059h10.297V148.979z M134.352,148.979h-10.297
			v-2.059h10.297V148.979z M113.757,148.979H103.46v-2.059h10.297V148.979z M93.163,148.979H82.865v-2.059h10.298V148.979z
			 M72.568,148.979H62.271v-2.059h10.298V148.979z M51.974,148.979H41.676v-2.059h10.298V148.979z M31.379,148.979H21.082v-2.059
			h10.297V148.979z M10.784,148.979H0.486v-2.059h10.298V148.979z"/>
	</g>
	<g>
		<rect x="353.9" y="179.761" transform="matrix(0.3863 0.9224 -0.9224 0.3863 560.8561 -99.1394)" width="2.06" height="384.287"/>
		<rect x="265.289" y="96.014" transform="matrix(0.2692 0.9631 -0.9631 0.2692 552.9467 15.4106)" width="2.06" height="552.09"/>
		
			<rect x="265.289" y="66.374" transform="matrix(0.1385 0.9904 -0.9904 0.1385 560.9927 24.6655)" width="2.059" height="536.823"/>
	</g>
	<g>
		<polygon points="620.354,447.864 265.911,299.253 266.725,297.401 621.169,446.011 		"/>
		<polygon points="797.7,447.448 266.036,299.296 266.6,297.358 798.263,445.511 		"/>
		<polygon points="797.837,372.835 266.173,299.325 266.463,297.329 798.126,370.839 		"/>
	</g>
</g>
</svg>
