<?xml version="1.0" encoding="utf-8"?>
<!-- Generator: Adobe Illustrator 15.0.2, SVG Export Plug-In . SVG Version: 6.00 Build 0)  -->
<!DOCTYPE svg PUBLIC "-//W3C//DTD SVG 1.1//EN" "http://www.w3.org/Graphics/SVG/1.1/DTD/svg11.dtd">
<svg version="1.1" id="Layer_3" xmlns="http://www.w3.org/2000/svg" xmlns:xlink="http://www.w3.org/1999/xlink" x="0px" y="0px"
	 width="800px" height="450px" viewBox="0 0 800 450" enable-background="new 0 0 800 450" xml:space="preserve">
<g>
	<path fill="#FFFFFF" d="M798.805,97.369h-332.41V41.764h332.41V97.369z M468.453,95.309h328.291V43.822H468.453V95.309z"/>
	<path fill="#FFFFFF" d="M798.805,299.891H415.014V95.309h383.791V299.891z M417.072,297.83h379.672V97.369H417.072V297.83z"/>
	<g>
		<path fill="#FFFFFF" d="M80.819,296.801h-9.042c-0.108,1.357-0.222,2.732-0.319,4.119h10.005c-0.357-0.369-0.68-0.889-0.718-2.086
			C80.722,298.121,80.771,297.461,80.819,296.801z"/>
		<path fill="#FFFFFF" d="M55.188,296.801c-0.111,1.369-0.271,2.744-0.443,4.119h9.441c-0.096-1.453-0.257-2.822-0.572-4.119H55.188
			z"/>
		<path fill="#FFFFFF" d="M113.019,298.877c-0.168-0.648,0.043-1.389,0.033-2.076h-3.879c-0.156,1.379-0.285,2.752-0.386,4.119
			h5.002C113.63,300.047,113.249,299.787,113.019,298.877z"/>
		<path fill="#FFFFFF" d="M95.907,296.801H93.39c0.039,1.369,0.053,2.746,0.026,4.119h2.419
			C96.269,299.613,95.864,298.264,95.907,296.801z"/>
		<path fill="#FFFFFF" d="M168.568,300.445c-0.251-1.096-0.458-2.473-0.716-3.646h-6.396c-0.262,1.402-0.607,2.771-0.885,4.119
			h8.984c-0.018-0.213-0.059-0.393-0.143-0.477C169.35,300.381,168.585,300.516,168.568,300.445z"/>
		<path fill="#FFFFFF" d="M208.479,296.801h-6.82c0.028,1.377,0.034,2.75-0.078,4.119h7.075
			C208.639,299.504,208.575,298.137,208.479,296.801z"/>
		<path fill="#FFFFFF" d="M129.206,296.801h-8.094c-0.024,1.371-0.049,2.75-0.076,4.119h8.756
			C129.531,299.693,129.342,298.311,129.206,296.801z"/>
		<path fill="#FFFFFF" d="M175.362,296.801c-0.02,0.654-0.009,1.291-0.045,1.955c-0.04,0.725-0.125,1.443-0.224,2.164h16.832
			c0.005-1.355,0.018-2.729,0.021-4.119H175.362z"/>
		<path fill="#FFFFFF" d="M226.74,296.801h-7.132c-0.042,1.293-0.119,2.699-0.139,4.119h7.262
			C226.731,299.531,226.733,298.158,226.74,296.801z"/>
		<path fill="#FFFFFF" d="M46.853,299.887c-0.082-0.285,0.205-1.518,0-1.688c-0.539-0.439-0.649-0.869-0.678-1.398H0.279v4.119
			H47.12C47.027,300.576,46.949,300.23,46.853,299.887z"/>
		<path fill="#FFFFFF" d="M347.838,296.801h-8.921c-0.406,1.395-0.966,2.77-1.421,4.119h10.636
			C347.982,299.512,347.866,298.123,347.838,296.801z"/>
		<path fill="#FFFFFF" d="M328.478,298.838c-0.08-0.697-0.104-1.367-0.135-2.037h-6.8c0.005,1.391-0.007,2.766-0.04,4.119h7.566
			C328.8,300.227,328.557,299.527,328.478,298.838z"/>
		<path fill="#FFFFFF" d="M358.182,296.801c-0.241,1.354-0.515,2.73-0.892,4.119h440.483v-4.119H358.182z"/>
		<path fill="#FFFFFF" d="M293.03,296.801c-0.182,0.342-0.338,0.68-0.392,1.018c-0.161,1.021-0.177,2.058-0.146,3.104h11.437
			c0.386-1.221,0.769-2.748,1.146-4.118L293.03,296.801L293.03,296.801z"/>
		<path fill="#FFFFFF" d="M245.544,296.801h-8.736c0.028,0.406,0.057,0.811,0.093,1.244c0.077,0.912,0.133,1.879,0.173,2.875h7.664
			C245,299.562,245.274,298.189,245.544,296.801z"/>
		<path fill="#FFFFFF" d="M275.212,296.801h-19.998c-0.102,1.064-0.264,2.24-0.594,3.773c-0.031,0.139-0.088,0.242-0.144,0.346
			h20.733C275.214,299.549,275.218,298.184,275.212,296.801z"/>
		<path fill="#FFFFFF" d="M153.515,296.801H138.29c-0.093,1.385-0.264,2.756-0.48,4.119h16.588
			C154.128,299.52,153.818,298.123,153.515,296.801z"/>
	</g>
	<g>
		<path fill="#FFFFFF" d="M267.141,442.584h-2.06v-10.297h2.06V442.584z M267.141,421.988h-2.06v-10.297h2.06V421.988z
			 M267.141,401.393h-2.06v-10.295h2.06V401.393z M267.141,380.799h-2.06v-10.295h2.06V380.799z M267.141,360.205h-2.06v-10.297
			h2.06V360.205z M267.141,339.611h-2.06v-10.297h2.06V339.611z M267.141,319.016h-2.06v-10.297h2.06V319.016z M267.141,298.422
			h-2.06v-10.297h2.06V298.422z M267.141,277.826h-2.06v-10.297h2.06V277.826z M267.141,257.232h-2.06v-10.297h2.06V257.232z
			 M267.141,236.637h-2.06V226.34h2.06V236.637z M267.141,216.043h-2.06v-10.297h2.06V216.043z M267.141,195.449h-2.06V185.15h2.06
			V195.449z M267.141,174.854h-2.06v-10.297h2.06V174.854z M267.141,154.26h-2.06v-10.297h2.06V154.26z M267.141,133.664h-2.06
			v-10.297h2.06V133.664z M267.141,113.07h-2.06v-10.297h2.06V113.07z M267.141,92.475h-2.06V82.178h2.06V92.475z M267.141,71.881
			h-2.06V61.584h2.06V71.881z M267.141,51.287h-2.06V40.988h2.06V51.287z M267.141,30.691h-2.06V20.395h2.06V30.691z
			 M267.141,10.098h-2.06V-0.199h2.06V10.098z"/>
		<path fill="#FFFFFF" d="M532.973,443.445h-2.059v-10.297h2.059V443.445z M532.973,422.852h-2.059v-10.297h2.059V422.852z
			 M532.973,402.256h-2.059v-10.295h2.059V402.256z M532.973,381.662h-2.059v-10.297h2.059V381.662z M532.973,361.068h-2.059
			v-10.297h2.059V361.068z M532.973,340.473h-2.059v-10.297h2.059V340.473z M532.973,319.879h-2.059v-10.297h2.059V319.879z
			 M532.973,299.283h-2.059v-10.295h2.059V299.283z M532.973,278.689h-2.059v-10.297h2.059V278.689z M532.973,258.096h-2.059
			v-10.297h2.059V258.096z M532.973,237.5h-2.059v-10.297h2.059V237.5z M532.973,216.906h-2.059v-10.297h2.059V216.906z
			 M532.973,196.311h-2.059v-10.297h2.059V196.311z M532.973,175.717h-2.059V165.42h2.059V175.717z M532.973,155.121h-2.059v-10.297
			h2.059V155.121z M532.973,134.527h-2.059V124.23h2.059V134.527z M532.973,113.934h-2.059v-10.297h2.059V113.934z M532.973,93.338
			h-2.059V83.041h2.059V93.338z M532.973,72.744h-2.059V62.447h2.059V72.744z M532.973,52.148h-2.059V41.852h2.059V52.148z
			 M532.973,31.555h-2.059V21.258h2.059V31.555z M532.973,10.959h-2.059V0.662h2.059V10.959z"/>
		<path fill="#FFFFFF" d="M793.172,150.361h-10.297V148.3h10.297V150.361z M772.578,150.361h-10.297V148.3h10.297V150.361z
			 M751.984,150.361h-10.297V148.3h10.297V150.361z M731.389,150.361h-10.297V148.3h10.297V150.361z M710.795,150.361h-10.297V148.3
			h10.297V150.361z M690.201,150.361h-10.299V148.3h10.299V150.361z M669.605,150.361h-10.302V148.3h10.302V150.361z
			 M649.01,150.361h-10.297V148.3h10.297V150.361z M628.416,150.361h-10.297V148.3h10.297V150.361z M607.822,150.361h-10.297V148.3
			h10.297V150.361z M587.227,150.361H576.93V148.3h10.297V150.361z M566.631,150.361h-10.297V148.3h10.297V150.361z
			 M546.037,150.361H535.74V148.3h10.297V150.361z M525.443,150.361h-10.302V148.3h10.302V150.361z M504.848,150.361h-10.297V148.3
			h10.297V150.361z M484.254,150.361h-10.297V148.3h10.297V150.361z M463.66,150.361h-10.299V148.3h10.299V150.361z
			 M443.064,150.361h-10.302V148.3h10.302V150.361z M422.471,150.361h-10.299V148.3h10.299V150.361z M401.875,150.361h-10.298V148.3
			h10.298V150.361z M381.28,150.361h-10.297V148.3h10.297V150.361z M360.685,150.361h-10.297V148.3h10.297V150.361z
			 M340.091,150.361h-10.297V148.3h10.297V150.361z M319.496,150.361h-10.298V148.3h10.298V150.361z M298.901,150.361h-10.297V148.3
			h10.297V150.361z M278.307,150.361H268.01V148.3h10.297V150.361z M257.712,150.361h-10.297V148.3h10.297V150.361z
			 M237.118,150.361H226.82V148.3h10.298V150.361L237.118,150.361z M216.522,150.361h-10.297V148.3h10.297V150.361z
			 M195.929,150.361h-10.298V148.3h10.298V150.361z M175.333,150.361h-10.297V148.3h10.297V150.361z M154.739,150.361h-10.297V148.3
			h10.297V150.361z M134.145,150.361h-10.298V148.3h10.298V150.361z M113.55,150.361h-10.297V148.3h10.297V150.361z M92.956,150.361
			H82.658V148.3h10.298V150.361z M72.36,150.361H62.063V148.3H72.36V150.361z M51.767,150.361H41.469V148.3h10.298V150.361z
			 M31.172,150.361H20.874V148.3h10.298V150.361z M10.577,150.361H0.279V148.3h10.298V150.361z"/>
	</g>
	<g>
		
			<rect x="398.019" y="220.856" transform="matrix(-0.4916 -0.8708 0.8708 -0.4916 270.022 904.511)" fill="#FFFFFF" width="2.06" height="305.153"/>
		<polygon fill="#FFFFFF" points="0.559,450 0,448.018 531.664,297.482 532.223,299.465 		"/>
		
			<rect x="466.391" y="274.449" transform="matrix(-0.756 -0.6545 0.6545 -0.756 576.5882 961.1483)" fill="#FFFFFF" width="2.059" height="197.337"/>
	</g>
	<g>
		<path fill="#FFFFFF" d="M52.631,325.926c-4.778,0-8.718-2.596-10.644-4.145l-0.416-0.336l0.034-0.535
			c0.212-3.188,2.303-4.496,4.149-5.65c1.018-0.637,1.982-1.24,2.572-2.115c-0.443-4.434-1.25-8.682-2.466-12.977
			c-0.089-0.307-0.053-0.652-0.007-1.09c0.015-0.123,0.031-0.25,0.039-0.365c-0.742-0.777-0.75-1.625-0.758-2.322
			c-0.004-0.401-0.011-0.824-0.129-1.33c-0.019-0.069-0.057-0.127-0.193-0.293c-0.248-0.301-0.621-0.758-0.672-1.565
			c-0.097-1.408,0.256-2.136,0.539-2.715c0.15-0.312,0.26-0.533,0.308-0.871c0.256-1.736,0.148-3.718,0.036-5.812
			c-0.104-1.902-0.219-4.041-0.076-6.3c-0.752-0.657-1.869-1.062-3.043-1.485c-1.574-0.568-3.202-1.156-4.284-2.478l-0.241-0.291
			l0.006-0.379c0.022-1.392,0.252-2.762,0.473-4.088c0.158-0.938,0.314-1.854,0.375-2.72l0.078-1.092
			c0.33-4.561,1.018-14.049-0.765-16.848c-0.192-0.303-0.362-0.592-0.522-0.869c-0.34-0.586-0.607-1.051-1.041-1.498
			c-0.555-0.578-0.781-1.357-1.045-2.264c-0.197-0.672-0.42-1.438-0.812-2.199c-0.059-0.064-0.422-0.381-0.64-0.564
			c-0.634-0.547-0.972-0.854-1.108-1.271c-0.169-0.479-0.105-0.955-0.057-1.342c0.021-0.142,0.047-0.354,0.035-0.424
			c-0.214-0.83-0.441-2.265-0.867-5.156c-0.328-2.242-0.877-5.994,0.002-11.287l0.094-0.574l0.668-0.281
			c0.047-0.018,0.071-0.021,0.081-0.008c0.396-7.041,3.028-13.549,7.058-17.428l0.19-0.186l0.258-0.068
			c0.366-0.098,0.748-0.186,1.138-0.275c1.241-0.283,2.525-0.576,3.639-1.287c0.306-0.197,0.752-0.281,1.73-0.453
			c0.367-0.066,0.98-0.174,1.349-0.27c0.005-0.033,0.01-0.07,0.015-0.107c0.104-0.691,0.359-2.404,1.955-2.758
			c-0.783-2.672-1.432-5.506-2.133-8.828l-0.175-0.826l0.776-0.332c0.715-0.307,0.927-1.078,1.193-2.314
			c0.188-0.871,0.382-1.771,0.949-2.459c0.621-0.744,1.447-0.811,1.996-0.855c0.351-0.027,0.572-0.051,0.711-0.156
			c0.239-0.178,0.352-0.338,0.496-0.541c0.467-0.658,0.951-1.176,2.545-1.348c4.564-0.48,7.494,2.57,9.985,5.996
			c0.352,0.025,0.957-0.035,1.489-0.096c0.523-0.061,1.049-0.117,1.511-0.117c2.152,0,2.46,1.354,2.492,1.936
			c0.171,1-0.019,1.891-0.569,2.539c-1.025,1.209-2.813,1.154-4.437,1.105c0.119,3.682-0.396,6.879-1.565,9.723
			c0.768,0.656,2.112,0.922,3.522,1.199c1.564,0.307,3.182,0.625,4.353,1.561l0.273,0.334c1.656,3.223,3.077,7.082,4.175,11.314
			c0.452-1.557,0.983-3.201,1.716-4.746c0.197-0.412,0.515-0.602,0.771-0.693c0.156-0.98,0.787-1.797,1.451-2.656
			c0.434-0.561,0.883-1.139,1.146-1.705l0.227-0.49l0.533-0.09c0.979-0.168,1.836-0.471,2.742-0.789
			c1.514-0.531,3.012-1.1,5.28-1.037c-1.306-4.289-2.681-9.621-1.219-13.549c0.769-2.062,1.002-2.309,2.603-3.619l0.235-0.193
			c0.165-0.135,0.374-0.379,0.597-0.627c0.527-0.584,0.873-0.957,1.25-1.164c0.357-0.199,0.832-0.193,1.46-0.098
			c0.085,0.012,0.167,0.027,0.243,0.037c1.102-0.883,3.326-1.275,6.506-0.906l0.543,0.062l0.252,0.486
			c0.357,0.686,0.917,1.363,1.509,2.084c1.733,2.1,3.886,4.711,2.804,9.582c-0.121,0.555-0.581,0.76-0.806,0.844
			c0.029,0.367,0.037,0.686-0.088,1l-0.289,0.758c-0.338,0.898-0.82,2.176-1.41,3.5c-0.19,0.42-0.51,0.613-0.77,0.709
			c-0.028,0.514-0.074,1.123-0.389,1.609c1.602,1.709,4.137,2.408,7.73,2.143l0.493-0.037l0.337,0.361
			c0.333,0.354,0.659,0.781,0.994,1.297c1.728-0.764,3.37-1.498,4.718-2.486c-0.422-0.475-1.065-0.811-1.779-1.184
			c-1-0.523-2.137-1.115-2.82-2.258c-2.408-2.684-2.552-3.254-3.479-6.967l-0.076-0.271c-0.258-0.836-0.922-2.988,0.937-4.777
			c-0.01-0.055-0.022-0.113-0.032-0.17c-0.086-0.514-0.186-1.094,0.15-1.584c0.455-0.668,1.239-1.082,1.932-1.445
			c0.305-0.162,0.607-0.314,0.838-0.486c0.156-0.119,0.412-0.414,0.672-0.699c0.549-0.605,0.853-0.93,1.181-1.088
			c0.607-0.295,1.497-0.268,2.441-0.141c0.45,0.061,1.011,0.098,1.142,0.066c0.268-0.062,0.502-0.127,0.735-0.191
			c0.776-0.211,1.579-0.432,3.596-0.674c0.315-0.012,0.519,0.004,0.747,0.023c0.175,0.014,0.373,0.031,0.549,0.037
			c0.768-0.752,1.701-1.041,3.143-0.906l0.537,0.051l0.266,0.473c0.31,0.555,0.693,1.1,1.08,1.65
			c1.334,1.902,2.973,4.242,1.729,7.207c1.431,2.295,1.661,4.213,1.902,6.234c0.11,0.916,0.226,1.863,0.458,2.902l0.246,1.094
			l-0.961,0.133c-0.041,0.199-0.051,0.553-0.057,0.783c-0.01,0.305-0.02,0.607-0.059,0.883l-0.127,0.951l-0.957-0.059
			c-0.615-0.039-1.252-0.027-1.426,0.016c0.108,0.896,1.118,1.32,3.104,1.84c0.467,0.121,0.902,0.236,1.263,0.367
			c1.368,0.482,2.753,0.779,4.093,1.062c0.881,0.186,1.744,0.369,2.582,0.6l0.429,0.117l0.21,0.391
			c0.236,0.443,0.439,0.951,0.617,1.506c0.195-1.473,0.438-2.811,0.716-3.922c1.046-4.168,4.165-7.357,8.485-8.77
			c-0.172-0.053-0.37-0.078-0.604-0.078H151.1l-0.376-0.682c-0.267-0.744-0.278-1.494-0.29-2.219
			c-0.013-0.732-0.024-1.434-0.272-2.176c-0.889,0.135-1.453,0.059-1.797-0.371c-0.469-0.566-0.331-1.34-0.195-2.086
			c0.026-0.148,0.066-0.367,0.084-0.525c-0.756-0.756-0.756-1.52-0.756-2.324c0-0.551,0-1.236-0.189-2.273l-0.092-0.426
			c-0.302-1.324-0.932-4.08,1.195-6.367l0.242-0.264c0.59-0.654,1.574-1.75,2.418-2.387c0.392-0.291,0.925-0.299,1.631-0.178
			c0.07,0.012,0.141,0.025,0.209,0.037c1.187-0.908,3.652-0.984,4.44-0.984c1.355,0,3.437,0.17,5.661,0.979l0.311,0.18
			c3.504,2.938,4.9,10.922,3,16.703c0.139-0.016,0.271-0.037,0.404-0.057c1.175-0.18,2.128-0.111,2.609,0.512
			c0.262,0.34,0.361,0.762,0.296,1.256c0.091,0.16,0.247,0.312,0.469,0.525c0.294,0.279,0.664,0.631,0.918,1.145
			c3.176,0.408,5.387,1.746,7.531,3.041l1,0.602l0.12,0.365c3.267,9.887,1.81,19.549,0.015,25.914
			c0.02-0.028,0.042,0.134,0.061,0.308c0.078,0.742,0.152,1.44-0.397,1.896c-0.467,0.379-0.601,2.238-0.702,3.599
			c-0.11,1.5-0.224,3.049-0.663,4.367c-0.164,0.481-0.542,0.688-0.799,0.782c-0.107,2.558,0.199,6.988,0.842,12.269
			c0.666,5.457,1.217,15.967,0.857,26.196c0.457,2.462-1.572,2.966-2.448,3.185c-0.657,0.162-0.864,0.248-0.925,0.354l0.089,0.98
			c0.573,6.422,1.116,12.49,0.744,19.248c-0.073,1.324-0.279,2.635-0.478,3.902c-0.329,2.098-0.639,4.073-0.375,6.026
			c0.277,2.031,1.2,3.711,2.092,5.334c1.087,1.981,2.211,4.031,2.139,6.646l-0.02,0.735l-0.706,0.217
			c-0.358,0.111-0.784,0.306-1.267,0.519c-1.316,0.582-3.119,1.379-5.076,1.379c0,0,0,0-0.002,0c-1.383,0-2.667-0.398-3.82-1.188
			c-1.764-0.86-1.023-2.604-0.705-3.348c0.04-0.094,0.092-0.217,0.139-0.336c-0.383-0.318-0.698-0.773-0.727-1.33
			c-0.045-0.83-0.076-1.795,0.002-2.678c0.097-1.076,0.482-2.176,0.857-3.238c0.408-1.158,0.828-2.354,0.826-3.418
			c-0.004-0.908-0.225-1.711-0.461-2.562c-0.131-0.479-0.264-0.955-0.361-1.457c-0.076-0.375-0.03-0.854,0.048-1.604
			c0.026-0.244,0.065-0.606,0.083-0.92h-0.684l-0.286-0.824c-0.135-0.582-0.257-1.25-0.38-1.928
			c-0.143-0.787-0.285-1.586-0.459-2.263c-0.406-1.6-0.486-3.735-0.57-6c-0.164-4.414-0.348-9.391-2.877-11.676
			c-1.527,0.596-1.532,2.215-1.352,4.707c0.047,0.635,0.089,1.236,0.076,1.769c-0.033,1.567,0.206,3.016,0.438,4.415
			c0.229,1.373,0.441,2.671,0.408,4.027c-0.053,2.014-0.482,3.891-0.899,5.709c-0.414,1.812-0.807,3.523-0.788,5.219
			c0.028,2.669,0.774,5.242,1.494,7.729c0.959,3.312,1.864,6.438,0.995,9.443l-0.165,0.565l-0.57,0.146
			c-3.434,0.863-5.563,0.692-8.91-0.812h-5.279l-0.304-0.315c-0.816-0.855-1.653-1.688-2.504-2.5l-1.112-1.064l1.408-0.621
			c-0.004-0.061,0.044-0.528,0.072-0.811c0.082-0.816,0.256-2.512,1.953-2.648l0.04-0.004l0.239,0.008
			c0.352,0,0.564-0.114,0.919-0.311c0.413-0.226,0.968-0.529,1.772-0.562c0.376-0.512,0.657-1.047,0.995-1.688
			c0.317-0.605,0.667-1.271,1.157-2.033c1.415-2.223,0.107-7.938-0.846-12.116l-0.137-0.601c-1.13-4.94-0.967-14.57-0.877-17.757
			c-0.386-0.774-1.494-1.021-3.22-1.312c-1.486-0.254-3.022-0.514-4.056-1.514l-0.314-0.307l0.002-0.438
			c0.006-1.799-0.006-3.545-0.02-5.252c-0.047-6.158-0.092-11.978,0.874-17.699c0.547-3.196,1.056-5.618,1.699-8.485
			c0.022-0.094-0.002-0.31-0.022-0.492c-0.035-0.346-0.084-0.773,0.029-1.223c0.072-0.285,0.131-0.625,0.209-1.064
			c0.129-0.74,0.304-1.729,0.635-3.141c0.125-0.543,0.403-0.881,0.604-1.129c0.18-0.22,0.205-0.259,0.218-0.4
			c0.062-0.895-0.189-1.904-0.454-2.977c-0.473-1.908-1.002-4.046,0.156-6.103c-0.15-0.019-0.372-0.033-0.689-0.033l-0.082,0.002
			c-0.023,0.367-0.069,0.729-0.14,1.076c-0.672,3.262-2.563,5.416-5.634,6.416c0.396,1.637,0.4,3.242,0.404,4.806
			c0.002,1.176,0.006,2.396,0.18,3.616c0.141,1.019,0.444,2.084,0.766,3.213c0.416,1.466,0.848,2.979,0.93,4.466
			c0.179,3.149-0.146,6.271-0.461,9.286c-0.361,3.484-0.738,7.089-0.388,10.929l0.099,1.094l-0.814,0.021
			c-0.012,0.077-0.021,0.159-0.031,0.229c-0.018,0.145-0.037,0.289-0.063,0.428c0.46,2.19-1.306,2.711-1.987,2.91
			c-0.197,0.06-0.527,0.155-0.604,0.229l0.019,0.161l-0.01,0.296c-0.698,3.366-0.476,6.547-0.214,10.229
			c0.201,2.854,0.429,6.09,0.234,9.861c-0.121,2.367-0.518,4.688-0.902,6.938c-0.595,3.484-1.16,6.779-0.818,10.322
			c0.621,0.701,1.666,1.121,2.768,1.561c1.418,0.568,2.887,1.156,3.826,2.461l0.141,0.197l0.037,0.238
			c0.184,1.106-0.006,2.002-0.557,2.647c-0.84,0.99-2.275,1.123-3.567,1.123c-0.373,0-0.757-0.012-1.144-0.021l-0.242-0.009
			c-1.129,1.507-3.248,1.718-5.035,1.718c-0.482,0-0.982-0.021-1.492-0.043l-0.388-0.021l-0.277-0.27
			c-1.911-1.855-1.946-3.521-1.991-5.443l-0.008-0.33c-0.027-1.143,0.248-2.121,0.49-2.979c0.213-0.754,0.398-1.404,0.355-2.039
			c-0.041-0.617-0.174-0.976-0.346-1.427c-0.18-0.481-0.386-1.028-0.492-1.893c-0.137-1.104-0.186-2.022-0.232-2.906
			c-0.077-1.453-0.146-2.715-0.59-4.572c-0.721-2.991-0.909-7.012-1.11-11.27c-0.265-5.611-0.541-11.412-1.995-15.781
			c-0.607,0.195-0.907,1.099-1.289,2.853c-0.117,0.53-0.231,1.049-0.373,1.491c-0.281,0.888-0.424,1.548-0.561,2.175
			c-0.084,0.381-0.164,0.75-0.27,1.147c-0.961,3.642-1.07,9.848-1.176,15.851c-0.068,3.885-0.14,7.896-0.438,11.312
			c0.438,0.537,0.497,1.205,0.541,1.688c0.029,0.309,0.057,0.602,0.157,0.803c0.199,0.4,0.604,0.785,1.072,1.232
			c1.206,1.151,2.86,2.729,2.397,6.114l-0.145,1.062l-1.055-0.188c-1.943-0.34-2.967,0.171-4.173,0.791
			c-1.028,0.531-2.194,1.136-3.938,1.136c-0.645,0-1.316-0.078-2.055-0.244l-0.818-0.187l0.014-0.838
			c0.036-2.213,0.37-4.006,0.691-5.733c0.499-2.687,0.93-4.998,0.171-8.363c-0.161-0.721-0.287-1.42-0.405-2.094
			c-0.104-0.584-0.204-1.14-0.32-1.654c-0.627-0.312-0.947-0.812-0.979-1.49c-0.03-0.568-0.141-0.775-0.326-1.118
			c-0.154-0.29-0.35-0.653-0.488-1.212c-0.151-0.584-0.089-1.154-0.032-1.658c0.038-0.35,0.074-0.678,0.024-0.899
			c-0.585-1.011-1.7-3.056-0.692-4.201c-0.135-0.295-0.215-0.67-0.173-1.168c0.101-1.24,0.243-2.496,0.39-3.781
			c0.035-0.309,0.07-0.616,0.105-0.928c-0.061,0.403-0.121,0.808-0.182,1.209c-0.896,5.935-1.821,12.067-1.846,17.887l-0.006,1.322
			l-1.279-0.328c-0.731-0.188-1.382-0.283-1.941-0.283c-2.109,0-2.703,1.291-3.574,3.568c-0.229,0.602-0.464,1.221-0.756,1.809
			c0.162,0.806,0.752,1.164,1.788,1.732c0.489,0.268,1.021,0.559,1.495,0.953c0.701-0.359,1.604-0.57,2.527-0.57
			c2.07,0,3.418,1.08,3.436,2.752c0.167,1.303-0.097,2.449-0.789,3.295c-1.248,1.525-3.507,1.693-5.691,1.857
			c-0.334,0.022-0.67,0.051-0.998,0.08c-2.84,1.477-5.854,2.037-9.676,1.711l-0.627-0.06l-0.236-0.584
			c-0.986-2.438,0.033-4.521,0.854-6.194c0.353-0.724,0.686-1.398,0.773-1.945c0.07-0.445-0.037-1.369-0.142-2.262
			c-0.218-1.875-0.462-4,0.212-5.574c0.162-0.375,0.439-0.57,0.691-0.674c-0.125-0.451-0.369-0.824-0.643-1.244
			c-0.273-0.418-0.584-0.897-0.781-1.479l-1.097-0.262c-0.808-0.191-1.19-0.029-1.766,0.309c-0.535,0.316-1.239,0.746-2.28,0.68
			c-0.44,1.931-0.469,3.636-0.497,5.427c-0.015,0.897-0.028,1.812-0.093,2.781l-1.029-0.064l-0.008,0.004l-0.011,0.193
			c1.362,1.379,1.606,5.146-0.016,7.188l-0.312,0.394l-0.5-0.002c-0.003,0-0.006,0-0.01,0c-0.448,0-0.828,0.008-1.206,0.016
			c-0.272,0.006-0.542,0.012-0.809,0.018c-1.417,1.701-3.995,1.938-6.357,1.938c-0.843,0-1.718-0.033-2.597-0.068l-0.545,0.16
			c-2.217,0.644-4.976,1.441-7.55,1.441c-2.267,0-4.083-0.637-5.398-1.894l-0.319-0.305v-0.438c0-1.123,0.317-1.718,0.6-2.238
			c0.102-0.189,0.213-0.396,0.312-0.654c0.114-0.319,0.534-0.856,1.009-1.201l0.018-0.1l-1.057-0.295
			c0.025-0.103,0.055-0.193,0.082-0.287l0.158-0.475c0.211-0.599,0.456-1.136,0.696-1.658c0.72-1.584,1.341-2.947,0.74-5.514
			c-0.02-0.081-0.064-0.146-0.199-0.312c-0.231-0.291-0.584-0.73-0.666-1.498c-0.147-1.393-0.218-2.729-0.285-4.008
			c-0.182-3.502-0.34-6.523-2.068-9.018l-0.137-0.195l-0.034-0.24c-0.353-2.363-0.06-4.352,0.194-6.104
			c0.271-1.834,0.483-3.281-0.113-4.59l-0.098-0.211l0.005-0.229c0.024-1.717-0.862-2.441-1.985-3.363
			c-0.374-0.311-0.746-0.613-1.086-0.953l-0.34-0.34l0.024-0.283l-0.648-0.104l-0.001,0.006l0.432,0.894
			c-0.082,0.053-0.266,0.229-0.313,0.305c-0.163,0.707-0.216,1.348-0.282,2.154c-0.076,0.938-0.164,2.002-0.512,3.608
			c-0.123,0.562-0.421,0.92-0.617,1.153c-0.182,0.218-0.199,0.25-0.208,0.378c-0.036,0.598,0.163,1.438,0.376,2.329
			c0.201,0.851,0.41,1.728,0.471,2.601c0.283,4.201-0.281,8.508-0.828,12.677c-0.121,0.92-0.271,1.68-0.421,2.437
			c-0.251,1.28-0.49,2.489-0.44,3.468c0.104,1.93,0.729,3.811,1.39,5.799c1.024,3.076,2.084,6.258,1.106,9.721l-0.151,0.531
			l-0.526,0.17C55.222,325.729,53.937,325.926,52.631,325.926z M43.724,320.523c1.83,1.387,5.092,3.344,8.907,3.344
			c0.901,0,1.788-0.113,2.646-0.338c0.556-2.658-0.306-5.242-1.212-7.97c-0.676-2.028-1.377-4.131-1.49-6.34
			c-0.066-1.231,0.209-2.627,0.476-3.975c0.14-0.713,0.282-1.431,0.373-2.121c0.559-4.25,1.112-8.457,0.84-12.453
			c-0.046-0.696-0.234-1.494-0.418-2.262c-0.249-1.043-0.483-2.027-0.429-2.935c0.051-0.812,0.431-1.27,0.682-1.569
			c0.135-0.162,0.174-0.216,0.188-0.273c0.317-1.471,0.4-2.463,0.471-3.338c0.068-0.832,0.133-1.617,0.378-2.596
			c0.087-0.359,0.446-0.863,0.88-1.222c0.066-0.836-0.012-1.812-0.088-2.762c-0.176-2.246-0.361-4.57,1.579-5.189l0.966-0.309
			l0.324,0.959c0.809,2.4,1.105,4.799,0.933,7.51c0.197,0.176,0.4,0.342,0.604,0.508c1.2,0.986,2.687,2.205,2.737,4.759
			c0.734,1.787,0.469,3.604,0.187,5.526c-0.239,1.627-0.486,3.312-0.229,5.273c1.929,2.926,2.104,6.305,2.291,9.875
			c0.065,1.244,0.133,2.545,0.276,3.896c0.019,0.16,0.059,0.221,0.229,0.432c0.195,0.246,0.464,0.582,0.594,1.123
			c0.762,3.254-0.069,5.076-0.871,6.838c-0.195,0.43-0.384,0.842-0.548,1.273c0.083,0.067,0.16,0.146,0.227,0.229
			c0.324,0.396,0.451,0.883,0.357,1.373l-0.163,0.834l-0.526-0.004c-0.096,0.084-0.189,0.18-0.225,0.232
			c-0.109,0.311-0.259,0.592-0.398,0.854c-0.164,0.301-0.274,0.508-0.324,0.816c0.9,0.688,2.094,1.021,3.628,1.021
			c2.28,0,4.886-0.756,6.977-1.359l0.868-0.253l0.166,0.01c0.951,0.033,1.834,0.07,2.681,0.07c2.369,0,3.813-0.31,4.573-0.988
			l-0.217-0.801l1.295-0.148l0.33,0.002c0.374,0,0.756-0.01,1.138-0.02c0.239-0.004,0.477-0.009,0.713-0.015
			c0.772-1.438,0.396-3.686-0.09-4.076c-0.457-0.362-0.628-0.922-0.441-1.454c0.156-0.443,0.539-0.773,0.94-0.984
			c0.027-0.668,0.038-1.314,0.048-1.951c0.034-2.096,0.068-4.262,0.796-6.818l0.27-0.947l0.957,0.229
			c0.809,0.188,1.19,0.031,1.771-0.31c0.497-0.293,1.11-0.651,2.059-0.676c0.033-1.549-0.013-3.123-0.057-4.654
			c-0.058-2.03-0.121-4.131,0.016-6.086c0.169-2.272,0.653-4.467,1.121-6.592c0.209-0.947,0.415-1.887,0.588-2.811
			c0.15-0.812,0.258-1.645,0.364-2.469c0.336-2.598,0.682-5.281,2.394-7.291l2.629-3.082l-0.838,3.963
			c-0.244,1.164,0.049,2.328,0.361,3.562c0.236,0.938,0.482,1.914,0.508,2.951c0.043,1.965-0.338,2.912-0.615,3.604
			c-0.12,0.303-0.209,0.521-0.239,0.769c-0.072,0.598-0.03,1.383,0.017,2.215c0.053,0.975,0.106,1.979-0.019,2.863
			c-0.101,0.729-0.437,1.157-0.659,1.442c-0.141,0.178-0.18,0.231-0.199,0.319c-0.059,0.267-0.024,0.623,0.01,1.004
			c0.041,0.447,0.086,0.959,0,1.479c-0.119,0.716-0.266,1.343-0.41,1.949c-0.173,0.729-0.336,1.424-0.422,2.213
			c-0.068,0.604-0.015,1.2,0.039,1.834c0.119,1.334,0.252,2.83-0.86,4.302c0.066,0.396,0.288,0.756,0.626,1.271
			c0.41,0.63,0.919,1.412,1.035,2.492c0.049,0.437,0.031,1.423-1.041,1.729c-0.288,1.103-0.095,2.781,0.064,4.158
			c0.131,1.121,0.242,2.092,0.131,2.816c-0.137,0.854-0.535,1.668-0.958,2.53c-0.645,1.318-1.26,2.572-0.975,3.929
			c3.152,0.168,5.632-0.336,8.023-1.617l0.385-0.119c0.409-0.039,0.827-0.072,1.248-0.104c1.75-0.132,3.562-0.271,4.252-1.107
			c0.324-0.4,0.434-1.008,0.33-1.854c-0.016-0.76-0.975-0.829-1.385-0.829c-0.854,0-1.656,0.29-1.908,0.562l-0.854,0.914
			l-0.733-1.016c-0.317-0.438-0.901-0.759-1.517-1.097c-1.146-0.631-2.717-1.492-2.889-3.646l-0.023-0.307l0.145-0.27
			c0.303-0.555,0.545-1.189,0.803-1.863c0.83-2.178,1.866-4.893,5.496-4.893c0.377,0,0.771,0.027,1.186,0.09
			c0.137-5.584,1.008-11.351,1.85-16.938c0.567-3.758,1.154-7.647,1.51-11.437c0.089-0.92,0.162-1.875,0.229-2.851l0.1-1.479
			l1.352,0.608c1.302,0.59,1.787,1.629,1.445,3.099c0.393,4.688-0.068,8.737-0.476,12.313c-0.143,1.266-0.284,2.497-0.384,3.717
			c0.145,0.276,0.477,0.604,0.453,1.14c-0.021,0.493-0.32,0.83-0.679,1.139c0.019,0.224,0.161,0.746,0.813,1.941
			c0.139,0.258,0.196,0.364,0.234,0.528c0.125,0.563,0.066,1.104,0.011,1.58c-0.037,0.358-0.076,0.7-0.017,0.926
			c0.078,0.315,0.181,0.506,0.31,0.744c0.213,0.397,0.477,0.89,0.554,1.797c0.297,0.113,0.684,0.322,0.82,0.812
			c0.181,0.703,0.317,1.461,0.463,2.27c0.114,0.643,0.234,1.314,0.388,2.006c0.853,3.773,0.362,6.402-0.155,9.188
			c-0.264,1.405-0.533,2.854-0.625,4.52c1.603,0.197,2.637-0.273,3.761-0.855c1.104-0.566,2.369-1.215,4.336-1.12
			c-0.048-1.632-0.889-2.435-1.84-3.341c-0.558-0.532-1.132-1.082-1.49-1.803c-0.273-0.547-0.323-1.097-0.364-1.535
			c-0.018-0.198-0.047-0.5-0.094-0.578l-0.564-0.334l0.068-0.641c0.332-3.445,0.404-7.629,0.477-11.674
			c0.113-6.406,0.22-12.457,1.244-16.336c0.096-0.367,0.17-0.711,0.246-1.064c0.149-0.68,0.307-1.395,0.611-2.357
			c0.123-0.389,0.222-0.842,0.322-1.309c0.422-1.932,1.024-4.98,4.199-4.459l0.588,0.098l0.207,0.561
			c1.775,4.74,2.073,11.013,2.361,17.076c0.195,4.154,0.382,8.078,1.055,10.885c0.49,2.044,0.564,3.453,0.645,4.944
			c0.045,0.839,0.09,1.714,0.219,2.766c0.076,0.619,0.217,0.987,0.379,1.42c0.19,0.512,0.41,1.092,0.473,2.012
			c0.064,0.99-0.188,1.88-0.429,2.736c-0.226,0.793-0.437,1.539-0.415,2.369l0.009,0.338c0.038,1.689,0.058,2.604,1.103,3.739
			c0.336,0.015,0.666,0.021,0.986,0.021c2.072,0,3.162-0.352,3.534-1.139l0.284-0.602l1.523,0.03
			c0.363,0.011,0.727,0.022,1.079,0.022c1.103,0,1.773-0.136,1.997-0.396c0.139-0.164,0.148-0.477,0.127-0.735
			c-0.618-0.701-1.666-1.125-2.771-1.564c-1.421-0.567-2.89-1.158-3.831-2.465l-0.156-0.223l-0.03-0.271
			c-0.433-3.94,0.196-7.625,0.804-11.188c0.375-2.188,0.761-4.447,0.877-6.69c0.188-3.647-0.025-6.683-0.233-9.612
			c-0.267-3.779-0.497-7.059,0.224-10.646c-0.099-1.754,1.406-2.196,2.062-2.391c0.188-0.057,0.505-0.146,0.595-0.219
			c-0.01-0.01,0.002-0.141-0.078-0.436l-0.074-0.275l0.076-0.277c0.037-0.123,0.051-0.268,0.066-0.408
			c0.047-0.371,0.147-1.162,0.682-1.643c-0.261-3.754,0.099-7.227,0.449-10.59c0.32-3.072,0.624-5.973,0.455-8.955
			c-0.07-1.26-0.47-2.664-0.854-4.021c-0.326-1.146-0.664-2.334-0.824-3.486c-0.193-1.36-0.195-2.651-0.199-3.899
			c-0.004-1.806-0.01-3.508-0.602-5.183l-0.387-1.096l1.133-0.254c2.914-0.65,4.543-2.275,5.126-5.107
			c0.101-0.498,0.134-1.041,0.095-1.608l-0.074-1.103l1.104,0.002l1.115-0.014c0.736,0,2.691,0,3.025,1.776l0.086,0.461l-0.29,0.367
			c-1.181,1.494-0.769,3.162-0.29,5.092c0.295,1.182,0.596,2.396,0.51,3.625c-0.064,0.807-0.433,1.254-0.676,1.555
			c-0.139,0.17-0.178,0.224-0.193,0.293c-0.32,1.357-0.488,2.314-0.613,3.023c-0.089,0.5-0.157,0.891-0.238,1.211
			c-0.023,0.094,0,0.314,0.021,0.496c0.035,0.33,0.08,0.738-0.015,1.166c-0.638,2.84-1.141,5.23-1.68,8.389
			c-0.937,5.539-0.893,11.271-0.847,17.336c0.012,1.553,0.025,3.142,0.021,4.771c0.639,0.384,1.66,0.558,2.651,0.726
			c1.942,0.33,4.146,0.703,4.884,2.812l0.064,0.182l-0.006,0.191c-0.18,5.926-0.059,13.625,0.818,17.455l0.137,0.6
			c1.15,5.031,2.453,10.734,0.572,13.688c-0.452,0.706-0.773,1.317-1.068,1.883c-0.443,0.844-0.861,1.643-1.555,2.448l-0.357,0.416
			l-0.543-0.062c-0.48-0.053-0.721,0.062-1.148,0.297c-0.432,0.238-1.027,0.562-1.906,0.562l-0.062-0.002
			c-0.059,0.186-0.096,0.559-0.121,0.795c-0.045,0.447-0.1,0.986-0.303,1.467c0.531,0.519,1.056,1.047,1.572,1.58l5.054,0.096
			c2.845,1.311,4.478,1.5,7.15,0.92c0.44-2.305-0.325-4.94-1.132-7.729c-0.758-2.619-1.545-5.33-1.575-8.276
			c-0.021-1.938,0.419-3.854,0.841-5.703c0.394-1.718,0.801-3.493,0.846-5.302c0.031-1.161-0.168-2.364-0.379-3.639
			c-0.248-1.492-0.504-3.039-0.465-4.801c0.01-0.472-0.031-1.007-0.07-1.568c-0.18-2.442-0.446-6.139,3.406-7.006l0.457-0.103
			l0.378,0.275c3.694,2.707,3.909,8.479,4.099,13.569c0.078,2.151,0.155,4.187,0.507,5.567c0.186,0.72,0.341,1.563,0.491,2.403
			c0.062,0.347,0.125,0.688,0.189,1.021h0.332l0.414,0.326c0.566,0.562,0.502,1.474,0.352,2.908
			c-0.037,0.34-0.091,0.854-0.072,1.006c0.086,0.435,0.205,0.862,0.323,1.293c0.262,0.942,0.531,1.916,0.535,3.104
			c0.004,1.418-0.477,2.783-0.942,4.104c-0.346,0.986-0.675,1.918-0.749,2.74c-0.044,0.5-0.046,1.058-0.03,1.594l0.65-0.711
			l0.225,2.3c0.062,0.659-0.191,1.258-0.416,1.784c-0.101,0.234-0.268,0.625-0.258,0.757l0.227,0.081
			c0.817,0.556,1.688,0.826,2.662,0.826c0.002,0,0.002,0,0.002,0c1.521,0,3.033-0.666,4.245-1.201
			c0.264-0.116,0.515-0.227,0.749-0.325c-0.132-1.748-0.945-3.229-1.871-4.914c-0.936-1.705-1.998-3.64-2.324-6.049
			c-0.307-2.255,0.043-4.477,0.379-6.626c0.191-1.217,0.391-2.478,0.457-3.696c0.363-6.607-0.173-12.604-0.74-18.951l-0.112-1.265
			l0.017-0.112c0.209-1.572,1.637-1.931,2.486-2.142c1.041-0.256,1.041-0.256,0.906-0.881l-0.028-0.125l0.003-0.129
			c0.367-10.158-0.176-20.599-0.836-25.996c-0.322-2.631-1.045-9.146-0.846-12.834c0.023-0.519,0.227-1.177,1.008-1.506
			c0.266-1.015,0.359-2.267,0.447-3.479c0.145-1.988,0.273-3.729,1.145-4.74c-0.01-0.121-0.027-0.258-0.04-0.387
			c-0.048-0.451-0.083-0.775,0.006-1.084c1.695-6.008,3.077-15.078,0.129-24.346l-0.349-0.209c-2.186-1.322-4.251-2.57-7.314-2.822
			l-0.799-0.066l-0.133-0.789c-0.047-0.283-0.215-0.453-0.557-0.781c-0.399-0.379-0.893-0.85-1.107-1.656l-0.045-0.158
			c-0.173,0.018-0.334,0.043-0.494,0.068c-1.18,0.174-2.129,0.109-2.611-0.514c-0.322-0.418-0.398-0.961-0.227-1.613
			c1.85-5.033,0.808-12.264-2.066-14.863c-1.474-0.512-3.163-0.793-4.78-0.793c-1.921,0-2.994,0.383-3.188,0.559
			c-0.211,0.264-0.81,0.537-1.821,0.357c-0.08-0.014-0.161-0.031-0.235-0.041c-0.654,0.547-1.466,1.449-1.923,1.955l-0.261,0.287
			c-1.389,1.492-0.974,3.307-0.698,4.508c0.044,0.195,0.083,0.369,0.11,0.516c0.221,1.219,0.221,2.041,0.221,2.643
			c0,0.75,0,0.75,0.261,0.965c0.682,0.561,0.522,1.459,0.379,2.25c-0.002,0.002-0.002,0.006-0.002,0.008
			c1.094-0.133,1.434,0.324,1.576,0.6c0.684,1.385,0.706,2.627,0.723,3.625c0.006,0.346,0.01,0.662,0.039,0.949
			c1.328,0.229,2.207,1.012,2.666,2.301l0.394,1.107l-1.147,0.246c-4.416,0.941-7.513,3.74-8.5,7.682
			c-0.712,2.832-1.172,7.268-1.203,11.574l-2.045,0.166c-0.137-0.805-0.262-1.613-0.383-2.406c-0.361-2.371-0.705-4.619-1.33-6.059
			c-0.66-0.166-1.334-0.311-2.018-0.455c-1.406-0.299-2.858-0.604-4.357-1.137c-0.312-0.111-0.691-0.209-1.096-0.314
			c-1.75-0.459-4.682-1.227-4.649-4.041c0.126-0.932,0.668-1.881,2.588-1.902c0.026-0.627,0.117-1.477,0.654-2.01
			c-0.153-0.83-0.245-1.594-0.334-2.336c-0.25-2.074-0.446-3.715-1.887-5.818l-0.35-0.514l0.292-0.551
			c1.069-2.018,0.19-3.451-1.332-5.625c-0.311-0.441-0.615-0.881-0.893-1.324c-0.621,0.012-0.881,0.186-1.133,0.492
			c-0.372,0.447-0.945,0.447-1.188,0.447c-0.252,0-0.568-0.025-0.846-0.047c-0.158-0.014-0.299-0.027-0.387-0.027
			c-1.809,0.221-2.505,0.41-3.241,0.611c-0.256,0.07-0.511,0.141-0.807,0.211c-0.515,0.119-1.187,0.066-1.894-0.031
			c-0.57-0.078-1.229-0.062-1.26-0.047c-0.068,0.066-0.309,0.344-0.558,0.619c-0.36,0.395-0.731,0.791-0.961,0.963
			c-0.315,0.234-0.708,0.447-1.114,0.66c-0.366,0.193-0.805,0.424-1.051,0.637c0.014,0.07,0.027,0.146,0.041,0.223
			c0.094,0.564,0.228,1.334-0.378,1.83c-1.085,0.887-0.886,1.898-0.589,2.859l0.09,0.316c0.908,3.639,0.961,3.854,3.149,6.313
			c0.499,0.799,1.287,1.209,2.12,1.646c1.187,0.619,2.529,1.322,3.127,2.889l0.256,0.672l-0.539,0.471
			c-1.716,1.498-3.9,2.465-6.014,3.398l-1.564,0.697l-0.463-0.812c-0.312-0.547-0.605-0.994-0.887-1.354
			c-4.588,0.238-7.811-1.064-9.691-3.861l-0.843-1.254l1.476-0.326l0,0c0.002,0,0.018-0.318,0.032-0.572
			c0.036-0.717,0.253-1.434,1.086-1.699c0.507-1.162,0.921-2.264,1.221-3.062l0.302-0.791c-0.04,0.078-0.048-0.008-0.052-0.082
			c-0.015-0.16-0.024-0.312-0.019-0.43c0.034-0.67,0.357-1.168,0.961-1.488c0.641-3.578-0.875-5.416-2.475-7.357
			c-0.537-0.65-1.049-1.271-1.467-1.947c-0.501-0.045-0.965-0.064-1.397-0.064c-2.084,0-2.962,0.469-3.083,0.594
			c-0.351,0.432-0.968,0.516-1.83,0.381c-0.091-0.014-0.182-0.029-0.264-0.039c-0.167,0.158-0.429,0.451-0.602,0.643
			c-0.306,0.342-0.607,0.666-0.826,0.846l-0.234,0.189c-1.373,1.127-1.373,1.127-1.977,2.746c-1.389,3.727,0.398,9.479,1.703,13.676
			l0.482,1.553l-1.61-0.227c-2.546-0.359-4.157,0.201-5.883,0.809c-0.806,0.283-1.635,0.574-2.57,0.775
			c-0.338,0.588-0.756,1.127-1.135,1.617c-0.479,0.621-1.026,1.326-1.048,1.734c-0.029,0.584-0.248,1.293-1.086,1.545
			c-0.811,1.795-1.348,3.719-1.866,5.58c-0.233,0.834-0.458,1.641-0.697,2.393L76.92,223.6l-0.788-3.898
			c-1.092-5.404-2.783-10.531-4.775-14.471c-0.798-0.537-2.068-0.787-3.3-1.029c-1.999-0.391-4.063-0.799-5.181-2.453l-0.322-0.477
			l0.238-0.523c1.339-2.963,1.86-6.391,1.594-10.48l-0.072-1.111l1.976,0.037c0.364,0.012,0.729,0.023,1.084,0.023
			c1.098,0,1.768-0.133,1.989-0.395c0.187-0.221,0.141-0.711,0.096-0.984c0.129-0.074-0.834-0.098-1.725,0.006
			c-1.02,0.117-1.989,0.176-2.639-0.037l-0.322-0.105l-0.197-0.275c-2.549-3.566-4.865-5.846-8.33-5.48
			c-0.799,0.086-0.865,0.18-1.088,0.492c-0.188,0.264-0.444,0.627-0.938,0.994c-0.621,0.469-1.291,0.523-1.781,0.562
			c-0.363,0.029-0.521,0.053-0.576,0.117c-0.245,0.297-0.387,0.949-0.522,1.578c-0.229,1.068-0.53,2.465-1.64,3.33
			c0.754,3.527,1.457,6.494,2.352,9.309l0.571,1.801l-1.822-0.494c-0.201-0.055-0.376-0.084-0.519-0.084
			c-0.241,0-0.374,0-0.535,1.068c-0.068,0.457-0.133,0.889-0.431,1.229c-0.388,0.443-1.024,0.592-2.612,0.871
			c-0.463,0.082-0.889,0.146-1.086,0.219c-1.312,0.846-2.836,1.195-4.18,1.502c-0.275,0.064-0.547,0.125-0.809,0.189
			c-3.527,3.529-5.912,9.629-6.246,16c-0.035,0.635-0.35,1.129-0.943,1.475c-0.711,4.686-0.233,7.951,0.086,10.137
			c0.352,2.387,0.617,4.139,0.826,4.955c0.111,0.44,0.055,0.856,0.013,1.19c-0.015,0.103-0.032,0.242-0.036,0.342
			c0.125,0.125,0.314,0.277,0.5,0.439c0.576,0.492,0.938,0.812,1.127,1.188c0.482,0.938,0.746,1.841,0.957,2.562
			c0.182,0.619,0.352,1.201,0.558,1.416c0.601,0.625,0.976,1.271,1.335,1.894c0.146,0.252,0.301,0.518,0.479,0.793
			c1.983,3.115,1.598,10.979,1.08,18.104l-0.076,1.088c-0.068,0.947-0.227,1.902-0.398,2.916c-0.185,1.113-0.378,2.262-0.432,3.373
			c0.752,0.715,1.92,1.139,3.148,1.584c1.52,0.549,3.092,1.117,4.174,2.346l0.29,0.326l-0.036,0.438
			c-0.182,2.298-0.064,4.437,0.045,6.503c0.119,2.2,0.232,4.278-0.052,6.221c-0.095,0.649-0.315,1.104-0.495,1.472
			c-0.229,0.474-0.395,0.815-0.336,1.686c0.009,0.145,0.033,0.18,0.207,0.395c0.191,0.232,0.482,0.586,0.607,1.133
			c0.172,0.726,0.178,1.31,0.184,1.773c0.008,0.699,0.021,0.797,0.311,1.033c0.549,0.459,0.476,1.154,0.399,1.893
			c-0.019,0.174-0.04,0.338-0.038,0.443c1.258,4.396,2.098,8.871,2.545,13.551l0.029,0.32l-0.154,0.274
			c-0.822,1.484-2.152,2.316-3.439,3.121C45.292,317.977,44.034,318.764,43.724,320.523z M96.927,275.869
			c-0.192,0.9-0.317,1.865-0.443,2.852c-0.113,0.863-0.226,1.732-0.385,2.582c-0.176,0.945-0.388,1.904-0.602,2.875
			c-0.452,2.051-0.919,4.174-1.075,6.293c-0.131,1.85-0.073,3.809-0.013,5.881c0.049,1.644,0.097,3.328,0.049,5.004
			c0.638-0.813,0.602-1.623,0.486-2.922c-0.059-0.674-0.127-1.438-0.036-2.246c0.101-0.91,0.286-1.694,0.467-2.459
			c0.132-0.562,0.271-1.146,0.382-1.812c0.045-0.26,0.012-0.597-0.02-0.951c-0.045-0.498-0.098-1.057,0.029-1.635
			c0.123-0.558,0.395-0.899,0.592-1.152c0.165-0.211,0.215-0.28,0.239-0.454c0.097-0.688,0.048-1.595,0-2.47
			c-0.048-0.885-0.097-1.799-0.003-2.576c0.065-0.516,0.221-0.905,0.373-1.28c0.245-0.613,0.5-1.25,0.467-2.789
			c-0.019-0.808-0.228-1.629-0.447-2.498C96.968,276.029,96.948,275.949,96.927,275.869z M81.391,317.182l-1.904-0.791
			c-0.722-0.264-1.486-0.481-2.251-0.705c-1.312-0.381-2.672-0.771-3.855-1.385l-0.469-0.244l-0.078-0.521
			c-0.108-0.736-0.513-1.127-1.219-1.756c-0.382-0.34-0.776-0.689-1.12-1.15l-0.183-0.246l-0.021-0.305
			c-0.279-4.33,0.062-8.483,0.391-12.504c0.245-3.007,0.479-5.843,0.452-8.648c-0.005-0.622-0.187-1.405-0.377-2.235
			c-0.212-0.912-0.429-1.857-0.467-2.793l-0.034-0.701c-0.097-1.822-0.207-3.883,0.983-5.713c0.611-1.58,2.274-1.922,3.616-2.195
			c1.877-0.383,2.225-0.625,2.189-1.518c-0.607-3.396-0.785-7.398-0.959-11.271c-0.215-4.838-0.438-9.842-1.533-13.803l-0.209-0.757
			l0.671-0.401c0.534-0.319,0.976-1.896,1.14-2.487l0.083-0.291c0.261-0.892,0.61-2.761,0.774-3.804l0.211-1.344l0.152-2.029
			c0.129-1.68,0.178-3.444,0.147-5.246l-0.015-0.858l0.843-0.168c0.737-0.146,1.852-0.316,3.35-0.152l1.376,0.148l-0.541,1.274
			c-0.497,1.172-1.169,2.211-1.82,3.217c-0.482,0.748-0.983,1.521-1.396,2.33l-0.873,1.716l0.455,0.727
			c0.229,0.365,0.287,0.545,0.315,0.684c0.626,2.481,0.103,4.656-0.277,6.244c-0.36,1.496-0.469,2.139-0.087,2.441
			c0.855,0.678,0.264,1.668-0.09,2.264c-0.176,0.291-0.637,1.062-0.569,1.301c0.458,0.742,1.208,0.918,2.394,1.131
			c1.325,0.234,3.141,0.562,3.68,2.598c1.358,8.642,2.633,18.244,0.839,24.185c-0.551,1.824-0.816,3.231-1.097,4.724
			c-0.168,0.895-0.34,1.797-0.572,2.811c-0.166,0.702-0.336,1.381-0.503,2.047c-0.674,2.668-1.255,4.973-1.159,7.812
			c0.035,1.062,0.281,1.283,0.65,1.617c0.338,0.305,0.801,0.723,1.006,1.535c0.447,1.793,0.256,3.356,0.068,4.871
			c-0.152,1.246-0.3,2.42-0.057,3.617c0.521,1.938-0.619,2.698-1.23,3.104c-0.438,0.289-0.438,0.318-0.438,0.479l-0.003,0.771
			l-0.74,0.214c-0.25,0.073-0.326,0.139-0.326,0.139L81.391,317.182z M74.751,312.676c0.91,0.41,1.958,0.715,3.057,1.031
			c0.39,0.113,0.777,0.225,1.16,0.344c0.188-0.322,0.473-0.578,0.858-0.772c0.245-0.779,0.849-1.183,1.245-1.443
			c0.501-0.334,0.521-0.346,0.366-0.92c-0.322-1.59-0.149-2.986,0.016-4.34c0.173-1.392,0.334-2.699-0.021-4.115
			c-0.049-0.199-0.126-0.272-0.389-0.51c-0.639-0.578-1.27-1.296-1.328-3.082c-0.104-3.128,0.539-5.681,1.221-8.384
			c0.165-0.651,0.332-1.317,0.492-2.012c0.229-0.979,0.393-1.854,0.556-2.721c0.279-1.48,0.567-3.008,1.15-4.936
			c1.667-5.525,0.421-14.855-0.882-23.168c-0.154-0.562-0.596-0.736-2.028-0.992c-0.774-0.137-1.667-0.297-2.454-0.752
			c0.177,2.137,0.275,4.336,0.373,6.502c0.17,3.805,0.346,7.74,0.945,11.146c0.119,2.941-2.252,3.431-3.82,3.748
			c-1.205,0.248-1.952,0.438-2.127,0.974l-0.129,0.26c-0.875,1.279-0.787,2.941-0.7,4.549l0.036,0.732
			c0.028,0.742,0.225,1.59,0.414,2.412c0.207,0.897,0.425,1.834,0.431,2.684c0.026,2.896-0.21,5.779-0.458,8.832
			c-0.316,3.842-0.641,7.811-0.408,11.873c0.19,0.211,0.418,0.414,0.654,0.625C73.628,310.814,74.409,311.512,74.751,312.676z"/>
		<path fill="#FFFFFF" d="M316.868,323.572c-2.771,0-5.684-0.24-8.502-0.476c-2.785-0.229-5.418-0.446-7.904-0.448
			c-2.02,0.508-4.489,0.731-7.96,0.731c-1.413,0-2.864-0.033-4.313-0.069c-2.432-0.062-4.867-0.117-7.129-0.007
			c-1.218,0.488-2.022,0.138-2.354-0.198c-0.549-0.554-0.543-1.343-0.539-1.978c0.002-0.092,0.002-0.203,0-0.309l-0.611,0.102
			l-0.264-0.938c0.005,0.051-0.207-0.017-0.901-0.015l-0.711,0.004c-0.305,0-0.6-0.01-0.871-0.039l-0.941-0.106l0.028-0.945
			c0.589-19.602,0.292-40.027-0.817-56.104c-0.908-0.98-2.754-1.269-4.701-1.566c-2.305-0.357-4.688-0.727-6.061-2.391l-0.279-0.34
			l0.053-0.439c0.237-1.979,1.046-3.326,1.828-4.629c0.699-1.17,1.361-2.271,1.551-3.811l0.049-0.215
			c0.477-1.369,2.013-1.398,3.027-1.423c0.387-0.008,1.034-0.021,1.199-0.127c1.369-4.096-0.633-6.754-2.953-9.832
			c-1.696-2.248-3.451-4.573-3.851-7.551c-0.245-1.776,0.294-3.603,0.866-5.527c0.311-1.049,0.633-2.135,0.824-3.227
			c0.213-1.195,0.287-2.303,0.367-3.475c0.088-1.314,0.181-2.678,0.484-4.146c0.302-1.48,0.64-2.742,1.037-3.85
			c-0.279,0.129-0.555,0.254-0.822,0.373c-1.377,0.621-2.685,1.211-3.455,1.959c-3.698,8.961,0.573,21.656,2.633,27.777
			c1.103,2.535-0.887,3.881-1.955,4.604c-0.266,0.18-0.627,0.426-0.717,0.551c-0.229,0.311-0.355,0.729-0.487,1.172
			c-0.22,0.729-0.521,1.729-1.483,2.264c1.113,3.154,0.55,6.441,0.045,9.375c-0.158,0.928-0.315,1.842-0.418,2.732
			c-0.139,1.188-0.062,2.434,0.019,3.637c0.081,1.314,0.171,2.678-0.022,3.99c-0.256,1.754-0.833,3.301-1.392,4.795
			c-0.468,1.252-0.909,2.438-1.146,3.684c-0.596,3.119-0.596,6.221-0.598,9.502c0,2.354,0,4.785-0.233,7.275
			c-0.047,0.482-0.08,0.943-0.114,1.402c-0.114,1.521-0.231,3.096-0.747,5.469c-0.122,0.562-0.396,0.9-0.595,1.152
			c-0.167,0.209-0.213,0.271-0.233,0.441c-0.15,1.239-0.1,2.53-0.046,3.896c0.099,2.43,0.199,4.938-0.875,7.36
			c-0.343,1.275,0.022,1.441,1.103,1.941c1.006,0.465,2.687,1.24,2.346,3.688c-0.971,4.297-5.902,4.297-8.849,4.297
			c-0.567,0-1.144-0.011-1.72-0.021l-3.057-0.021l0.712-1.474c0.521-1.074,0.077-2-0.693-3.422
			c-0.463-0.854-0.944-1.734-1.087-2.729c-0.806-5.599,0.312-11.236,1.495-17.21c1.104-5.575,2.246-11.346,1.872-17.471
			c-0.076-1.254-0.217-2.646-0.368-4.152c-0.368-3.678-0.818-8.161-0.575-12.989c-1.027,0.722-1.473,2.211-2.016,4.304
			c-0.271,1.043-0.551,2.12-0.98,3.075c-0.216,0.483-0.692,0.877-1.195,1.293c-0.183,0.149-0.456,0.377-0.535,0.474
			c0.068-0.076,0.086,0.139,0.105,0.268c0.046,0.334,0.101,0.752-0.002,1.174c-0.144,0.562-0.447,1.074-0.797,1.668
			c-0.311,0.527-0.664,1.123-0.927,1.822c0.041-0.078,0.064,0.086,0.086,0.25c0.084,0.69,0.17,1.404-0.396,1.869
			c-0.357,0.293-0.368,1.594-0.378,2.971c-0.006,0.881-0.014,1.9-0.09,3.051c-0.307,4.475-0.379,7.219-0.003,11.658
			c0.314,3.783,0.314,8.377,0,11.986c-0.148,1.723-0.59,3.293-1.018,4.811c-0.643,2.27-1.248,4.41-0.693,6.666l0.312,1.269
			l-2.484,0.021c-0.76,0.01-1.521,0.018-2.271,0.018c-4.28,0-9.062-0.223-11.641-2.872l-0.212-0.216l-0.06-0.297
			c-0.252-1.234-0.115-2.205,0.414-2.961c0.671-0.961,1.796-1.295,2.914-1.496c0.141-1.381,1.068-2.03,1.72-2.489
			c0.587-0.414,0.798-0.593,0.849-0.982l-0.022-2.777c-0.121-22.727-0.214-40.723,5.807-57.703
			c-1.557-2.469-2.157-4.857-3.112-8.682l-0.122-0.484c-0.112-0.453-0.644-1.147-1.157-1.824c-0.407-0.535-0.848-1.114-1.236-1.752
			c-0.579,0.566-1.473,0.688-2.035,0.767c-0.254,0.034-0.666,0.092-0.822,0.166c0.002,0.01,0.004,0.021,0.006,0.039
			c0.482,1.053,0.506,1.842,0.531,2.672c0.02,0.676,0.039,1.373,0.303,2.435c0.041,0.157,0.145,0.473,0.28,0.879
			c0.533,1.604,1.424,4.287,1.444,6.106c0.002,0.104,0.02,0.312,0.042,0.571c0.181,2.22,0.157,3.041-0.347,3.544
			c-0.311,0.312-0.57,0.514-0.792,0.684c-0.372,0.283-0.45,0.345-0.611,1.293c-0.179,1.063-0.11,2.265-0.038,3.527
			c0.057,1.016,0.116,2.063,0.051,3.11c-0.22,3.711-0.783,7.801-1.328,11.758l-0.364,2.658c-0.315,2.357-0.697,4.502-1.101,6.771
			c-0.188,1.068-0.388,2.184-0.59,3.389c-0.02,0.113,0,0.318,0.02,0.521c0.034,0.354,0.076,0.795-0.037,1.247
			c-0.107,0.431-0.186,0.693-0.242,0.882c-0.045,0.185-0.025,0.267-0.002,0.396c0.056,0.311,0.146,0.809,0.267,1.711
			c0.184,1.396,0.111,3.145,0.036,4.989c-0.07,1.722-0.143,3.5-0.029,5.203c0.068,2.44-1.471,3.412-2.593,4.123
			c-1.01,0.639-1.542,1.016-1.625,1.941c-0.279,2.271,0.052,3.895,0.403,5.61c0.367,1.806,0.747,3.666,0.434,6.23l-0.046,0.385
			l-0.288,0.256c-0.865,0.779-1.854,1.158-3.023,1.158c-0.925,0-1.85-0.238-2.742-0.469c-1.062-0.275-2.139-0.562-3.236-0.434
			l-0.49,0.059L207,322.021c-0.686-0.677-0.989-1.326-0.925-1.988c0.092-0.963,0.905-1.504,1.559-1.938
			c0.367-0.243,0.75-0.496,0.908-0.739c1.29-2.004,1.881-3.894,1.526-8.646l-0.013-0.176l0.046-0.17
			c0.191-0.699,0.191-0.699-0.606-1.017c-0.671-0.264-1.685-0.664-1.935-1.881l-0.028-0.135l0.008-0.138
			c0.394-6.717-0.419-12.368-1.205-17.84c-0.298-2.071-0.601-4.179-0.843-6.358c-0.129,0.225-0.291,0.422-0.496,0.59
			c-0.264,0.217-0.163,0.938-0.066,1.635c0.146,1.062,0.35,2.511-0.775,3.429c-0.321,0.338-1.17,2.395-1.322,3.559
			c-0.24,1.881-0.195,3.848-0.15,5.748c0.062,2.783,0.128,5.658-0.654,8.518c0.348,2.371-1.391,3.043-2.34,3.408
			c-0.933,0.359-1.041,0.484-1.062,0.816l-0.054,0.271c-0.78,2.261-0.572,4.318-0.354,6.496c0.225,2.252,0.457,4.582-0.506,7.043
			l-0.175,0.447l-0.454,0.151c-0.912,0.31-2.086,0.466-3.49,0.466c-2.471,0-5.658-0.515-8.121-1.308l-0.645-0.207l-0.064-0.674
			c-0.197-2.065,1.322-2.867,2.436-3.448c0.476-0.253,0.928-0.486,1.289-0.802c0.306-0.268,0.562-0.471,0.801-0.655
			c0.561-0.437,0.898-0.697,1.544-1.668c0.104-0.527,0.312-0.854,0.559-1.056c-0.544-4.408-0.513-9.518-0.477-14.898
			c0.028-4.524,0.059-9.203-0.253-13.776c-0.129-1.918-0.499-3.789-0.855-5.601c-0.342-1.746-0.698-3.555-0.83-5.367
			c-0.211-2.92,0.026-5.924,0.258-8.825c0.319-4.033,0.621-7.845-0.229-11.246c-0.04-0.162-0.108-0.233-0.388-0.479
			c-0.679-0.599-1.34-1.334-1.332-3.148l0.004-0.805l0.781-0.189c0.184-0.047,0.309-0.078,0.117-1.463
			c-0.094-0.68-0.19-1.379-0.02-2.021c0.135-0.535,0.574-0.74,0.82-0.828c0.076-0.91,0.337-1.398,0.551-1.802
			c0.127-0.239,0.229-0.43,0.311-0.739c0.259-1.771-0.51-2.265-2.012-3.047l-0.338-0.283c-0.555-0.719-0.792-1.609-1.023-2.476
			c-0.178-0.666-0.359-1.354-0.662-1.743l-0.266-0.345l0.06-0.428c0.361-2.609,0.542-5.472,0.717-8.238
			c0.674-10.664,1.436-22.736,13.703-23.023c0.021-0.037,0.046-0.068,0.07-0.102c-0.038-0.066-0.07-0.141-0.097-0.217
			c-0.127-0.355-0.298-0.713-0.48-1.094c-0.686-1.438-1.625-3.406-1.257-6.945c0.276-2.719,1.709-4.814,2.974-6.664
			c0.518-0.754,1.006-1.469,1.348-2.137l0.416-0.812l0.855,0.316c0.738,0.266,1.492-0.014,2.316-0.348
			c0.685-0.281,1.391-0.568,2.198-0.568l0.288,0.012c3.518,0.314,6.23,3.195,8.412,5.508l1.021,1.072l-0.072,0.498
			c-0.121,0.85-0.221,1.727-0.316,2.6c-0.379,3.383-0.768,6.869-2.635,9.082c1.061,0.914,2.559,1.49,4.124,2.092
			c1.503,0.578,3.058,1.178,4.329,2.133l0.196,0.193c0.3,0.391,0.581,0.807,0.847,1.254c0.004-0.033,0.009-0.066,0.014-0.1
			c0.117-0.939,0.235-1.869,0.336-2.789l0.043-0.377l0.275-0.26c1.384-1.301,2.979-1.992,4.523-2.658
			c1.141-0.492,2.219-0.957,3.171-1.646c0.69-0.498,1.281-1.197,1.909-1.938c0.969-1.146,2.053-2.43,3.688-3.074
			c0.078-0.898-0.308-1.215-0.976-1.76c-0.615-0.504-1.38-1.127-1.645-2.289l-0.041-0.174l0.021-0.178
			c0.163-1.373,0.057-2.635-0.046-3.857c-0.113-1.346-0.22-2.619,0.064-3.846c0.872-3.795,3.945-6.342,7.65-6.342
			c1.639,0,3.322,0.512,4.865,1.482c0.227,0.141,0.532,0.219,0.856,0.301c1.144,0.289,2.319,0.781,2.295,2.805
			c1.9-0.078,3.28,0.49,4.478,0.971c1.058,0.428,2.057,0.83,3.43,0.83l0.552-0.014l0.499,0.449
			c2.707,3.875,6.857,6.377,12.258,8.943l0.65,0.309l-0.067,0.717c-0.14,1.482,0.3,1.934,0.962,2.617
			c0.756,0.779,1.671,1.723,1.645,3.918c0.289-0.102,0.59-0.197,0.893-0.295c2.052-0.654,3.426-1.191,3.818-2.615
			c0.291-1.299-0.107-1.623-0.897-2.27c-0.616-0.504-1.382-1.129-1.647-2.293c-0.342-3.092,0.068-5.328,0.464-7.492
			c0.131-0.711,0.262-1.422,0.365-2.16l0.048-0.352l0.256-0.246c2.057-1.992,5.056-3.182,8.019-3.182
			c2.962,0,5.458,1.176,7.026,3.312l0.276,0.377l-0.101,0.457c-0.402,1.801-0.008,3.334,0.374,4.82
			c0.302,1.178,0.587,2.291,0.488,3.479c-0.152,1.896-0.954,3.439-1.728,4.934c-0.789,1.521-1.535,2.965-1.633,4.77
			c0.714,0.783,2.086,1.113,3.529,1.457c0.555,0.133,1.108,0.266,1.635,0.426l0.753,0.227l-0.021,0.785
			c-0.025,0.996,0.357,1.322,0.984,1.527l0.244,0.08l0.18,0.188c0.416,0.434,0.584,0.904,0.716,1.281
			c0.076,0.215,0.144,0.4,0.245,0.561l-0.828,0.531l0.955-0.18c0.019,0.074,0.067,0.227,0.131,0.439
			c0.217,0.697,0.594,1.912,0.881,3.227c1.275-1.561,3.022-2.693,5.209-3.766c-0.74-2.07-0.021-4.541,0.625-6.76
			c0.226-0.768,0.447-1.529,0.604-2.258c0.135-0.637,0.222-1.328,0.312-2.031c0.13-1.02,0.263-2.076,0.545-3.09
			c0.213-0.768,0.557-1.418,0.887-2.043c0.381-0.717,0.708-1.336,0.764-1.988l0.062-0.734l0.716-0.178
			c1.175-0.289,2.04-0.641,2.804-0.951c1.357-0.551,2.486-1.016,4.342-0.758c1.314,0.189,4.952,1.57,5.104,4.342
			c0.043,0.057,0.32,0.205,0.484,0.293c0.43,0.232,0.964,0.521,1.156,1.146c1.27,4.1-0.507,9.137-1.804,12.816
			c-0.211,0.602-0.41,1.166-0.582,1.684c0.681,0.197,1.08,0.793,1.503,1.426c0.713,1.066,1.313,1.828,2.504,1.91l0.778,0.055
			l0.159,0.762c0.933,4.455,2.285,8.486,4.217,12.559c0.083-0.424,0.198-0.834,0.311-1.238c0.167-0.605,0.342-1.234,0.42-1.943
			c0.167-1.457,0.084-3.238,0.004-4.961c-0.08-1.746-0.165-3.551-0.004-5.148l0.224-2.238l0.623,0.658
			c0.003-0.146-0.002-0.297-0.006-0.445c-0.01-0.432-0.021-0.863-0.002-1.295l0.042-0.947l0.949-0.037
			c0.322-0.012,0.422-0.1,0.754-1.008c0.27-0.734,0.692-1.889,1.915-2.252c0.507-0.775,1.544-0.875,2.263-0.902
			c0.129-0.688,0.488-1.109,0.858-1.367c-0.163,0.006-0.333,0.018-0.505,0.029c-0.266,0.02-0.531,0.037-0.778,0.037
			c-0.502,0-1.229-0.064-1.719-0.619c-0.229-0.26-0.485-0.719-0.396-1.445c-0.042-0.412-0.021-1.07,0.004-1.727
			c0.091-2.537-0.108-3-0.718-3.029l-1.223-0.061l0.27-1.195c0.19-0.852,0.602-1.443,0.964-1.965c0.434-0.627,0.75-1.08,0.696-1.963
			c-0.146,0.033-1.019,0.035-1.498,0.031c-1.094,0-2.337-0.002-3.08-0.854c-0.389-0.443-0.557-1.021-0.5-1.721
			c-0.156-0.82-0.031-1.492,0.369-2c0.771-0.971,2.062-0.893,3.228-0.854c0.224,0.008,0.448,0.014,0.665,0.014
			c0.707,0,0.877-0.094,0.904-0.113l0.13-0.408l0.343-0.143c1.286-0.656,2.27-1.641,2.926-2.926l0.285-0.561h11.048l-0.106,1.127
			c-0.024,0.252,0.558,0.643,1.071,0.986c0.888,0.594,2.083,1.396,2.279,2.838c0.454,0.156,0.678,0.477,0.79,0.75
			c0.177,0.439,0.239,1.217,0.355,2.799c0.098,1.326,0.244,3.334,0.495,3.963c0.151,0.377,0.099,0.789,0.038,1.266
			c-0.012,0.102-0.027,0.205-0.038,0.299c1.084,1.238,0.873,3.434,0.257,5.26c0.582,0.586,1.002,1.275,1.412,1.947
			c0.181,0.297,0.36,0.594,0.556,0.875c0.342,0.107,0.68,0.152,1.059,0.203c0.628,0.082,1.338,0.176,2.13,0.584
			c0.539,0.275,0.952,0.773,1.313,1.211c0.172,0.209,0.387,0.469,0.507,0.555c0.29,0.209,0.606,0.393,0.927,0.582
			c0.586,0.344,1.191,0.699,1.714,1.197c1.532,1.447,1.746,1.713,1.855,1.896c0.283,0.479,0.201,1.002,0.118,1.508
			c-0.011,0.078-0.025,0.156-0.036,0.229c0.68,0.82,1.101,2.365,1.738,5.338c0.31,1.449,0.49,2.949,0.68,4.537
			c0.225,1.883,0.479,4.016,1.006,6.426c0.019,0.078,0.054,0.129,0.191,0.299c0.236,0.293,0.593,0.732,0.669,1.506
			c0.37,3.711,0.079,7.52-0.866,11.318c-0.011,0.065,0.019,0.271,0.035,0.402c0.059,0.413,0.129,0.93-0.086,1.438
			c-0.237,0.548-0.742,0.955-1.231,1.353c-0.179,0.146-0.451,0.363-0.519,0.455c-0.229,0.431-0.436,0.899-0.637,1.354
			c-0.432,0.976-0.871,1.978-1.633,2.728c1.09,5.086-0.59,8.84-2.631,12.508c0.225,3.537-0.125,6.519-0.465,9.396
			c-0.366,3.106-0.711,6.041-0.406,9.688c0.209,0.728,0.118,1.461-0.296,2.008c-0.664,0.873-1.802,0.89-2.806,0.898
			c-0.324,0.007-0.824,0.014-1.092,0.074c0.029,0.75-0.003,1.533-0.035,2.293c-0.072,1.722-0.147,3.5,0.556,4.205
			c1.196,1.188,0.171,3.021-0.38,4.008c-0.093,0.164-0.171,0.299-0.209,0.395l-0.256,1.582c-0.486,2.938-1.035,6.271-2.299,9.467
			c-0.19,0.478-0.592,0.662-0.785,0.752c-0.241,0.861-0.546,1.66-0.842,2.433c-0.304,0.795-0.619,1.617-0.863,2.594
			c-0.156,0.619,0.457,2.854,1.189,3.824c0.051-0.01,0.103-0.02,0.154-0.029c1.014-0.19,1.596,0.076,1.832,0.367
			c0.209,0.252,0.348,0.605,0.512,1.019c0.076,0.19,0.203,0.518,0.265,0.606c0.051,0.002,0.622,0.129,1.08,0.23
			c1.515,0.336,4.046,0.896,4.273,3.772l0.062,0.773l-0.727,0.271c-1.838,0.692-4.891,1.092-8.377,1.092
			c-3.481,0-6.536-0.396-8.377-1.092l-0.42-0.156l-0.171-0.416c-0.771-1.887-0.12-3.908,0.565-6.053
			c0.465-1.449,0.947-2.947,1.049-4.531c0.138-2.074-0.135-4.525-0.422-7.121c-0.305-2.76-0.623-5.611-0.42-8.082
			c0.139-1.697,0.482-3.353,0.756-4.68l0.22-1.062l0.708-0.305c0.004,0,0.008-0.004,0.012-0.004c0.105-2.353-0.086-5.478-0.76-6.938
			c-0.305-0.662-0.797-0.936-1.793-1.438c-0.371-0.191-0.768-0.396-1.18-0.644c-0.408-0.246-0.598-0.584-0.682-0.91
			c-0.564,0.312-1.123,0.386-1.567,0.216c-0.54,0.086-0.75,0.812-0.991,2.155c-0.097,0.545-0.193,1.043-0.329,1.398
			c-0.158,0.418-0.333,0.836-0.51,1.26c-0.849,2.037-1.728,4.144-1.124,7.474c0.028,0.155,0.123,0.329,0.245,0.551
			c0.268,0.479,0.634,1.135,0.612,2.188c-0.037,2.057-0.755,4.008-1.447,5.893c-0.458,1.246-0.891,2.422-1.102,3.556
			c-0.131,0.711-0.066,1.506,0,2.346c0.07,0.871,0.142,1.771,0.006,2.682c-0.07,0.48-0.247,0.892-0.42,1.281
			c-0.252,0.576-0.469,1.074-0.411,1.865c0.092,1.396,0.676,2.697,1.293,4.074c0.887,1.977,1.802,4.02,1.207,6.379l-0.134,0.535
			l-0.521,0.182c-1.353,0.479-3.497,0.984-5.469,0.984c-1.745,0-3.087-0.396-3.986-1.179l-0.41-0.356l0.115-0.978
			c0.734-6.172,1.312-11.044-0.033-16.932c-0.132-0.574-0.405-1.23-0.695-1.93c-0.432-1.039-0.881-2.115-1.012-3.248
			c-0.527-4.646,0.131-8.694,0.767-12.607c0.4-2.462,0.812-5.01,0.911-7.648c-0.175,0.019-0.338,0.046-0.499,0.068
			c-0.517,0.079-1.019,0.144-1.426,0.1c-0.009,0.044-0.016,0.087-0.024,0.13c-0.11,0.643-0.234,1.354-0.469,2.358
			c-0.17,0.742-0.264,1.562-0.354,2.34c-0.123,1.062-0.239,2.065-0.521,2.843c-0.171,0.475-0.546,0.676-0.809,0.77
			c-0.119,0.804-0.587,1.38-0.97,1.851c-0.414,0.508-0.668,0.844-0.693,1.305c-0.041,0.701-0.455,1.127-0.702,1.381
			c-0.059,0.062-0.145,0.15-0.167,0.188c0.188,10.144,0.111,18.39-2.426,24.56c0.286,0.402,1.133,0.5,2.717,0.547
			c1.6,0.047,3.254,0.099,4.207,1.229c0.538,0.639,0.732,1.502,0.582,2.563l-0.076,0.537l-0.486,0.24
			C324.429,322.977,321.204,323.572,316.868,323.572z M301.759,320.609c2.213,0.061,4.528,0.252,6.777,0.438
			c2.775,0.229,5.645,0.467,8.332,0.467c3.7,0,6.485-0.448,8.696-1.412c-0.015-0.161-0.056-0.313-0.142-0.42
			c-0.359-0.428-1.652-0.467-2.693-0.496c-1.819-0.055-4.309-0.129-4.773-2.426l-0.064-0.315l0.129-0.3
			c2.533-5.829,2.607-13.985,2.445-24.041c-0.109-0.848,0.432-1.401,0.724-1.703c0.056-0.059,0.132-0.137,0.153-0.17
			c0.029-1.041,0.661-1.812,1.122-2.379c0.279-0.344,0.521-0.643,0.532-0.877c0.031-0.537,0.238-1.197,1.016-1.512
			c0.133-0.539,0.216-1.258,0.303-2.008c0.098-0.852,0.201-1.73,0.392-2.566c0.224-0.961,0.34-1.639,0.449-2.25
			c0.112-0.652,0.214-1.238,0.405-1.99c0.102-0.407,0.336-0.688,0.505-0.864l1.934-2.007l-0.176,3.021
			c0.176-0.021,0.337-0.043,0.499-0.065c1.181-0.183,2.13-0.113,2.61,0.512c0.302,0.393,0.388,0.893,0.258,1.488
			c-0.101,2.785-0.524,5.405-0.938,7.944c-0.642,3.951-1.249,7.683-0.752,12.05c0.097,0.842,0.487,1.778,0.864,2.688
			c0.311,0.743,0.632,1.512,0.803,2.26c1.41,6.172,0.811,11.41,0.093,17.445c1.355,0.67,4.555,0.278,6.44-0.287
			c0.168-1.467-0.465-2.883-1.188-4.494c-0.666-1.479-1.352-3.014-1.47-4.771c-0.095-1.3,0.294-2.187,0.579-2.834
			c0.129-0.296,0.239-0.552,0.27-0.763c0.102-0.678,0.042-1.426-0.02-2.213c-0.077-0.938-0.154-1.906,0.027-2.887
			c0.242-1.307,0.725-2.619,1.192-3.893c0.634-1.724,1.29-3.508,1.319-5.222c0.012-0.495-0.141-0.77-0.35-1.143
			c-0.182-0.326-0.389-0.695-0.475-1.191c-0.709-3.922,0.332-6.422,1.251-8.627c0.169-0.401,0.334-0.799,0.484-1.196
			c0.101-0.263,0.157-0.632,0.228-1.029c0.273-1.523,0.719-4.176,3.398-3.846l0.25,0.03c0.133-0.101,0.359-0.291,0.455-0.407
			l0.747,0.602l0.103-0.047l0.133-1.021l0.958,0.125l-0.015,0.24c0.373,0.285,0.654,0.772,0.575,1.619
			c0.271,0.147,0.529,0.28,0.778,0.405c1.037,0.529,2.109,1.076,2.728,2.412c1.183,2.568,0.968,7.525,0.938,8.08
			c-0.036,0.658-0.36,1.154-0.964,1.484l-0.006,0.025c-0.264,1.271-0.591,2.854-0.723,4.428c-0.185,2.273,0.121,5.023,0.415,7.688
			c0.286,2.57,0.581,5.229,0.433,7.482c-0.122,1.836-0.664,3.531-1.145,5.022c-0.527,1.646-0.99,3.095-0.748,4.229
			c1.65,0.504,4.281,0.803,7.188,0.803c2.676,0,5.113-0.252,6.772-0.684c-0.358-0.621-1.151-0.871-2.45-1.158
			c-0.738-0.164-1.434-0.316-1.961-0.688c-0.42-0.299-0.621-0.812-0.856-1.405c-0.017-0.039-0.03-0.078-0.044-0.117
			c-0.793,0.147-1.367,0.104-1.752-0.264c-1.354-1.289-2.323-4.658-1.974-6.058c0.275-1.096,0.614-1.977,0.939-2.828
			c0.286-0.746,0.556-1.453,0.75-2.229c0.189-0.765,0.681-1.099,0.996-1.261c1.103-2.896,1.594-5.875,2.069-8.758l0.292-1.723
			c0.054-0.287,0.194-0.541,0.409-0.924c0.182-0.324,0.732-1.309,0.671-1.635c-1.292-1.256-1.199-3.494-1.106-5.658
			c0.034-0.854,0.072-1.736,0.014-2.496l-0.019-0.217l0.072-0.201c0.484-1.391,2.051-1.412,3.087-1.426
			c0.372-0.006,0.979-0.012,1.192-0.104c-0.018-0.028-0.022-0.159-0.084-0.396c-0.352-4.031,0.021-7.205,0.382-10.277
			c0.354-3.002,0.688-5.838,0.435-9.316l-0.021-0.311l0.151-0.271c2.055-3.662,3.656-7.086,2.432-11.896l-0.18-0.703l0.602-0.405
			c0.639-0.433,1.025-1.306,1.473-2.319c0.223-0.503,0.453-1.022,0.729-1.532c0.215-0.396,0.605-0.713,1.017-1.047
			c0.212-0.174,0.565-0.459,0.644-0.587c0,0.003-0.002,0.003-0.002,0.003c-0.023,0-0.051-0.19-0.068-0.322
			c-0.046-0.342-0.104-0.768,0.008-1.195c0.885-3.559,1.16-7.127,0.814-10.604c-0.016-0.154-0.052-0.205-0.223-0.414
			c-0.191-0.237-0.479-0.598-0.604-1.16c-0.547-2.504-0.807-4.689-1.037-6.617c-0.184-1.539-0.359-2.992-0.65-4.352
			c-0.264-1.229-0.879-4.107-1.336-4.482c-0.598-0.488-0.474-1.27-0.383-1.838c0.014-0.078,0.028-0.158,0.038-0.232
			c-0.162-0.166-0.542-0.543-1.349-1.307c-0.4-0.381-0.881-0.664-1.39-0.961c-0.375-0.221-0.746-0.441-1.084-0.686
			c-0.336-0.242-0.619-0.584-0.894-0.914c-0.199-0.242-0.501-0.607-0.663-0.691c-0.477-0.246-0.912-0.303-1.461-0.375
			c-0.541-0.07-1.152-0.152-1.836-0.436l-0.26-0.107l-0.168-0.225c-0.305-0.402-0.574-0.84-0.842-1.279
			c-0.453-0.746-0.883-1.451-1.472-1.879l-0.655-0.479l0.31-0.748c0.822-1.982,0.699-3.547,0.302-3.871
			c-0.575-0.471-0.48-1.209-0.398-1.861c0.022-0.164,0.048-0.322,0.045-0.436c-0.295-0.666-0.433-2.246-0.588-4.383
			c-0.044-0.602-0.101-1.365-0.156-1.83c-0.596-0.207-0.93-0.729-0.971-1.516c-0.027-0.529-0.545-0.914-1.391-1.48
			c-0.635-0.426-1.438-0.963-1.797-1.764h-7.834c-0.783,1.303-1.854,2.34-3.193,3.09c-0.637,1.062-2.058,1.062-2.631,1.062
			c-0.238,0-0.486-0.008-0.733-0.016c-0.226-0.008-0.45-0.016-0.668-0.016c-0.614,0-0.82,0.072-0.881,0.104
			c0.011,0.018,0.001,0.15,0.064,0.418l0.044,0.186l-0.025,0.188c-0.029,0.223,0.002,0.301,0.002,0.303
			c0.167,0.127,1.047,0.129,1.518,0.129c1.242,0,3.116,0.002,3.525,1.725c0.125,1.773-0.519,2.699-1.033,3.439
			c-0.091,0.129-0.176,0.25-0.252,0.369c1.465,0.896,1.383,3.17,1.324,4.781c-0.021,0.568-0.045,1.137-0.016,1.656
			c0.205-0.002,0.459-0.014,0.703-0.031c0.265-0.018,0.531-0.035,0.776-0.035c0.327,0,1.321,0,1.851,0.785
			c0.573,0.852,0.123,1.955-0.026,2.318l-0.188,0.463l-0.483,0.137c-0.108,0.064-0.153,0.221-0.106,0.557l0.143,1.025l-1.025,0.137
			c-0.275,0.037-0.577,0.047-0.881,0.057c-0.232,0.008-0.59,0.018-0.789,0.057l-0.103,0.699l-0.856,0.041
			c-0.326,0.012-0.428,0.102-0.762,1.014c-0.248,0.672-0.624,1.699-1.627,2.145c0.002,0.129,0.005,0.258,0.009,0.387
			c0.01,0.463,0.02,0.926-0.004,1.385c-0.037,0.67-0.447,1.158-0.893,1.461c-0.08,1.32-0.011,2.822,0.058,4.279
			c0.085,1.805,0.171,3.67-0.015,5.289c-0.098,0.871-0.303,1.611-0.484,2.264c-0.188,0.68-0.35,1.264-0.354,1.848
			c-0.004,0.59,0.179,1.31,0.373,2.067c0.187,0.732,0.383,1.496,0.436,2.254l0.218,3.201l-2.041-2.477
			c-0.68-0.824-1.141-1.852-1.547-2.758c-0.154-0.35-0.306-0.686-0.461-0.986c-2.319-4.557-3.915-8.992-5.002-13.906
			c-1.768-0.434-2.701-1.824-3.286-2.699c-0.103-0.154-0.231-0.346-0.335-0.482c-0.017,0.014-0.033,0.027-0.049,0.039
			c-0.221,0.178-0.559,0.443-1.031,0.443c-0.463,0-1.074-0.23-1.348-1.332l-0.29-1.166l1.118-0.102l0.032-0.131
			c0.205-0.656,0.468-1.4,0.751-2.207c1.182-3.35,2.791-7.918,1.832-11.348c-0.066-0.039-0.143-0.078-0.222-0.119
			c-0.525-0.283-1.505-0.812-1.562-2.002c-0.07-1.27-2.505-2.285-3.336-2.406c-1.265-0.176-2.069,0.137-3.278,0.627
			c-0.651,0.266-1.434,0.584-2.429,0.869c-0.188,0.746-0.533,1.398-0.869,2.037c-0.294,0.555-0.571,1.078-0.727,1.631
			c-0.239,0.869-0.363,1.85-0.484,2.799c-0.098,0.762-0.193,1.512-0.34,2.203c-0.169,0.775-0.402,1.586-0.64,2.402
			c-0.665,2.281-1.351,4.641-0.364,6.08l0.692,1.008l-1.11,0.51c-3.451,1.586-5.654,3.059-6.699,5.887l-0.258,0.697l-0.167,0.859
			c-0.657,3.35-0.499,9.977,0.101,12.477c0.309,1.271,0.539,2.521,0.752,3.66c0.29,1.564,0.543,2.92,0.889,3.791
			c0.144,0.354,0.115,0.713,0.089,1.004c0.303,0.127,0.688,0.338,0.802,0.832c0.374,1.748,0.666,3.809,0.925,5.625
			c0.256,1.799,0.497,3.498,0.753,4.473c0.628,2.361,0.625,3.342-0.083,4.168c-0.059,0.597,0.041,2.293,0.103,2.679
			c0.126,0.713,0.307,1.366,0.541,2.225l0.284,1.054c0.359,1.36,1.205,2.678,1.424,2.909c0.718,0.72,0.693,1.688,0.676,2.396
			c-0.011,0.347-0.022,0.817,0.088,0.907c0.574,0.477,0.481,1.213,0.398,1.862c-0.021,0.164-0.049,0.322-0.044,0.438
			c0.423,0.987,0.48,2.146,0.534,3.267c0.043,0.836,0.084,1.701,0.307,2.58c1.012,4.051,0.629,8.264-0.004,10.641
			c-0.863,3.228-1.678,5.726-2.469,8.14c-0.317,0.977-0.627,1.922-0.923,2.87c-0.239,0.769-0.48,1.679-0.726,2.595
			c-0.71,2.662-1.182,4.344-1.83,5.176c0.01,0.103,0.025,0.214,0.04,0.324c0.062,0.474,0.11,0.881-0.036,1.258
			c-0.791,1.973-1.352,3.938-1.625,5.688c-0.202,1.252-0.186,2.523-0.168,3.872c0.023,1.61,0.047,3.438-0.314,5.479l-0.002,0.01
			l0.108-0.027L301.759,320.609z M186.94,320.561c3.105,0.854,6.991,1.195,9.013,0.729c0.585-1.84,0.399-3.68,0.206-5.617
			c-0.227-2.268-0.46-4.613,0.415-7.25c0.179-1.619,1.54-2.143,2.363-2.461c1.023-0.396,1.188-0.479,1.017-1.342l-0.049-0.246
			l0.07-0.242c0.762-2.629,0.701-5.299,0.637-8.129c-0.044-1.978-0.09-4.021,0.167-6.062c0.163-1.229,1.147-4.133,2.062-4.883
			c0.229-0.188,0.129-0.914,0.041-1.553c-0.151-1.08-0.359-2.561,0.8-3.512c0.317-0.338,0.122-2.227,0.019-3.24
			c-0.201-1.938-0.391-3.766,0.529-4.783c0.312-0.348,0.916-0.77,1.932-0.637l0.902,0.115l-0.005,0.912
			c-0.038,5.352,0.646,10.104,1.308,14.705c0.792,5.514,1.611,11.211,1.232,18.043c0.074,0.088,0.279,0.18,0.643,0.324
			c0.796,0.312,2.432,0.958,1.884,3.288c0.369,5.188-0.373,7.438-1.861,9.746c-0.393,0.607-0.981,1-1.501,1.347
			c-0.181,0.116-0.429,0.28-0.573,0.405c1.273-0.043,2.383,0.267,3.395,0.525c1.44,0.369,2.68,0.623,3.586,0.004
			c0.188-2.025-0.124-3.549-0.452-5.158c-0.369-1.805-0.747-3.672-0.433-6.242c0.172-1.946,1.503-2.791,2.572-3.467
			c1.129-0.711,1.668-1.104,1.635-2.28c-0.115-1.775-0.041-3.609,0.031-5.386c0.07-1.758,0.139-3.42-0.021-4.639
			c-0.111-0.853-0.198-1.32-0.25-1.611c-0.113-0.604-0.12-0.774,0.054-1.354c0.051-0.164,0.121-0.404,0.218-0.787
			c0.028-0.113,0.006-0.346-0.014-0.551c-0.03-0.316-0.066-0.674-0.003-1.06c0.205-1.215,0.404-2.336,0.596-3.407
			c0.4-2.248,0.776-4.369,1.088-6.687l0.364-2.67c0.539-3.914,1.096-7.966,1.311-11.601c0.059-0.932,0.003-1.916-0.052-2.869
			c-0.074-1.323-0.153-2.69,0.063-3.985c0.271-1.578,0.648-2.021,1.391-2.588c0.125-0.097,0.265-0.201,0.426-0.351
			c0.043-0.475-0.049-1.615-0.088-2.072c-0.025-0.319-0.046-0.58-0.049-0.717c-0.016-1.5-0.877-4.094-1.339-5.483
			c-0.155-0.474-0.273-0.834-0.321-1.021c-0.318-1.281-0.344-2.164-0.367-2.88c-0.021-0.776-0.035-1.25-0.397-1.981l-0.093-0.295
			c-0.106-0.689,0.012-1.271,0.35-1.729c0.558-0.744,1.473-0.869,2.209-0.971c0.277-0.037,0.742-0.103,0.86-0.188l0.103-0.775
			l0.73-0.049c0.145-0.021,0.264-0.063,0.412-0.158l1.025-0.639l0.469,1.111c0.366,0.871,0.988,1.688,1.589,2.479
			c0.668,0.877,1.299,1.709,1.517,2.569l0.121,0.486c0.958,3.827,1.536,6.139,3.109,8.469l0.293,0.437l-0.179,0.49
			c-6.07,16.776-5.978,34.737-5.856,57.479l0.014,2.918c-0.183,1.461-1.068,2.084-1.715,2.539c-0.7,0.492-0.962,0.676-0.835,1.533
			l0.153,1.018l-1.021,0.152c-1.073,0.155-2.102,0.312-2.429,0.778c-0.184,0.261-0.186,0.685-0.136,1.066
			c2.099,1.875,6.222,2.037,9.946,2.037c0.735,0,1.479-0.008,2.223-0.018c-0.246-2.288,0.352-4.398,0.93-6.451
			c0.402-1.429,0.818-2.9,0.951-4.433c0.307-3.502,0.307-7.961,0-11.637c-0.42-4.961-0.265-8.09-0.002-11.969
			c0.075-1.104,0.081-2.08,0.088-2.928c0.014-1.898,0.023-3.328,0.828-4.254c-0.01-0.104-0.028-0.213-0.041-0.322
			c-0.056-0.463-0.104-0.861,0.031-1.227c0.329-0.867,0.746-1.574,1.082-2.145c0.26-0.438,0.502-0.851,0.572-1.125
			c0.004-0.053-0.021-0.254-0.041-0.389c-0.057-0.419-0.129-0.938,0.094-1.453c0.182-0.425,0.571-0.748,1.064-1.153
			c0.213-0.175,0.568-0.47,0.651-0.593c0.335-0.754,0.583-1.703,0.845-2.709c0.68-2.608,1.524-5.856,5.012-6.28l1.255-0.153
			l-0.104,1.258c-0.426,5.229,0.07,10.19,0.471,14.178c0.154,1.539,0.295,2.959,0.373,4.238c0.391,6.387-0.777,12.287-1.908,17.992
			c-1.146,5.793-2.23,11.27-1.474,16.518c0.09,0.631,0.462,1.315,0.856,2.047c0.589,1.084,1.285,2.367,1.152,3.832l0.104,0.002
			c0.567,0.008,1.135,0.016,1.691,0.016c3.85,0,6.333-0.436,6.827-2.604c0.107-0.812-0.158-0.976-1.188-1.447
			c-1.135-0.523-3.032-1.402-2.172-4.504c0.929-2.127,0.843-4.295,0.75-6.59c-0.055-1.391-0.113-2.824,0.061-4.23
			c0.092-0.752,0.436-1.188,0.664-1.471c0.141-0.18,0.178-0.232,0.197-0.314c0.482-2.229,0.588-3.66,0.703-5.18
			c0.035-0.473,0.071-0.945,0.118-1.443c0.225-2.393,0.225-4.775,0.225-7.084c0.002-3.23,0.002-6.572,0.634-9.889
			c0.269-1.418,0.765-2.738,1.241-4.016c0.543-1.459,1.058-2.838,1.282-4.375c0.162-1.103,0.086-2.295,0.006-3.559
			c-0.084-1.296-0.17-2.636-0.01-4.009c0.107-0.931,0.271-1.879,0.436-2.84c0.535-3.123,1.09-6.354-0.336-9.242l-0.686-1.386
			l1.545-0.098c0.575-0.037,0.666-0.146,0.973-1.164c0.168-0.562,0.358-1.195,0.795-1.791c0.301-0.414,0.75-0.721,1.227-1.039
			c1.273-0.86,1.583-1.25,1.189-2.162c-2.188-6.483-6.67-19.808-2.533-29.5l0.193-0.297c1.031-1.111,2.588-1.812,4.237-2.555
			c1.022-0.461,2.074-0.936,3.06-1.527c-0.022-0.326,0.016-0.65,0.257-0.939c0.206-0.246,0.626-0.521,1.432-0.424l0.378,0.045
			l2.088-1.334l-0.921,1.477l0.279,0.033l-1.139,1.439c-0.154,0.195-0.299,0.402-0.436,0.607l-0.199,0.312
			c-0.939,1.506-1.604,3.381-2.152,6.078c-0.277,1.334-0.36,2.566-0.449,3.873c-0.078,1.174-0.16,2.387-0.392,3.693
			c-0.214,1.207-0.552,2.348-0.879,3.451c-0.507,1.709-0.985,3.324-0.8,4.666c0.329,2.441,1.848,4.457,3.455,6.591
			c2.322,3.082,4.953,6.569,3.273,11.517c-0.293,1.687-2.127,1.724-3.123,1.739c-0.336,0.009-0.875,0.02-1.11,0.093
			c-0.278,1.828-1.048,3.11-1.792,4.354c-0.627,1.045-1.225,2.041-1.477,3.342c0.979,0.818,2.758,1.096,4.483,1.361
			c2.405,0.371,4.894,0.758,6.229,2.604l0.172,0.238l0.021,0.293c1.11,15.909,1.426,36.118,0.872,55.604l0.406-0.002
			c0.614,0,1.887,0,2.553,0.844c0.35,0.084,0.591,0.262,0.746,0.418c0.549,0.551,0.543,1.338,0.537,1.975c0,0.082,0,0.183,0,0.275
			c0.057-0.021,0.121-0.047,0.191-0.078l0.355-0.084c2.359-0.133,4.914-0.068,7.466-0.006c1.434,0.035,2.866,0.068,4.264,0.068
			c3.312,0,5.631-0.209,7.483-0.681c-0.105-0.112-0.291-0.229-0.485-0.354c-0.277-0.183-0.589-0.383-0.865-0.678
			c-0.4-0.427-0.391-0.976-0.319-1.425c-0.044,0.007-0.091,0.014-0.137,0.021c-0.765,0.109-1.358,0.141-1.771-0.062
			c-0.536-0.264-1.279-0.416-2.062-0.579c-1.684-0.349-3.592-0.743-4.34-2.47l-0.14-0.319l0.085-0.339
			c0.223-0.887,0.463-1.688,0.693-2.463c0.429-1.436,0.799-2.672,0.969-4.155c0.176-1.484,0.072-3.017-0.035-4.637
			c-0.121-1.812-0.248-3.689,0.042-5.529c0.129-0.812,0.575-1.521,1.008-2.211c0.296-0.474,0.573-0.918,0.728-1.351
			c0.687-1.907,0.897-3.776,1.104-5.588c0.144-1.248,0.276-2.431,0.555-3.589l0.191-0.786l0.763-0.02
			c-0.02-0.31-0.055-0.661-0.078-0.901c-0.084-0.814-0.125-1.295-0.035-1.67c0.107-0.405,0.479-0.903,0.911-1.241
			c0.216-1.403,0.278-2.979,0.338-4.509c0.07-1.733,0.142-3.528,0.433-5.157c0.287-1.625,0.801-3.13,1.295-4.582
			c0.545-1.601,1.061-3.11,1.221-4.625c0.231-2.188,0.093-4.3-0.053-6.532c-0.148-2.279-0.3-4.632-0.035-7.1
			c-0.65-0.519-0.715-1.353-0.748-2.023c-0.284-0.104-0.636-0.311-0.797-0.768c-1.232-3.562-1.452-7.941-1.664-12.185l-0.082-1.604
			c-0.122-2.188-0.229-4.712,0.004-6.916c0.075-0.689,0.388-1.162,0.936-1.408c-0.012-0.164-0.04-0.365-0.061-0.51
			c-0.072-0.502-0.152-1.068,0.008-1.629l0.214-0.748l0.737-0.02c-0.018-0.324-0.058-0.705-0.084-0.961
			c-0.074-0.725-0.117-1.188-0.053-1.547l0.153-0.848l0.958-0.018c0.062,0,0.143,0.004,0.229,0.01l0.015-0.777
			c0.032-1.852-0.851-4.703-1.185-5.779c-0.057-0.184-0.107-0.344-0.143-0.484c-0.157-0.287-0.254-0.559-0.334-0.785
			c-0.062-0.176-0.109-0.303-0.159-0.398c-1.163-0.479-1.854-1.365-2.038-2.598c-0.274-0.07-0.553-0.137-0.832-0.203
			c-1.898-0.453-3.861-0.924-4.947-2.553l-0.175-0.264l0.001-0.316c0.02-2.463,1.004-4.367,1.875-6.045
			c0.712-1.373,1.384-2.67,1.504-4.154c0.068-0.844-0.162-1.75-0.432-2.799c-0.391-1.52-0.828-3.229-0.485-5.289
			c-1.184-1.377-2.976-2.129-5.096-2.129c-2.287,0-4.681,0.9-6.338,2.369c-0.097,0.639-0.209,1.26-0.323,1.881
			c-0.386,2.111-0.752,4.105-0.463,6.781c0.082,0.334,0.391,0.602,0.922,1.037c0.867,0.707,2.174,1.775,1.595,4.365
			c-0.732,2.652-3.204,3.441-5.189,4.078c-0.786,0.252-1.528,0.488-2.033,0.793l-2.138,1.293l0.408-2.297
			c0.046-0.182,0.088-0.385,0.118-0.623c0.264-2.016-0.267-2.562-0.999-3.32c-0.7-0.723-1.553-1.602-1.566-3.508
			c-4.286-2.063-8.979-4.645-12.132-8.893c-1.607-0.059-2.808-0.541-3.876-0.971c-1.359-0.549-2.625-1.055-4.714-0.723l-1.456,0.228
			l0.287-1.443c0.303-1.518,0.177-1.549-0.625-1.752c-0.42-0.105-0.943-0.238-1.446-0.553c-1.217-0.766-2.521-1.168-3.771-1.168
			c-2.766,0-4.981,1.861-5.645,4.746c-0.211,0.912-0.122,1.979-0.02,3.211c0.104,1.207,0.214,2.566,0.062,4.066
			c0.131,0.367,0.427,0.621,0.899,1.008c0.864,0.707,2.172,1.775,1.59,4.363l-0.138,0.609l-0.604,0.16
			c-1.38,0.365-2.309,1.465-3.295,2.627c-0.678,0.803-1.379,1.633-2.272,2.277c-1.136,0.82-2.368,1.354-3.562,1.867
			c-1.328,0.574-2.589,1.119-3.654,2.021c-0.091,0.803-0.193,1.613-0.296,2.428c-0.159,1.25-0.317,2.514-0.442,3.789l-0.473,4.803
			l-1.531-4.576c-0.557-1.668-1.213-2.996-2.004-4.055c-1.026-0.738-2.336-1.242-3.719-1.773c-2.086-0.803-4.242-1.635-5.634-3.391
			l-0.628-0.793l0.781-0.643c1.912-1.574,2.305-5.094,2.683-8.5c0.081-0.727,0.163-1.455,0.257-2.17l-0.342-0.359
			c-1.94-2.059-4.355-4.623-7.098-4.869c-0.004,0-0.01,0-0.016,0c-0.503,0-0.99,0.199-1.506,0.412
			c-0.829,0.338-1.849,0.725-2.929,0.586c-0.326,0.543-0.699,1.086-1.086,1.652c-1.181,1.727-2.401,3.512-2.627,5.711
			c-0.308,2.963,0.423,4.496,1.068,5.848c0.137,0.283,0.265,0.557,0.38,0.824c0.271,0.053,0.583,0.176,0.824,0.486
			c0.408,0.527,0.277,1.17,0.235,1.381c-0.062,0.404-0.327,0.625-0.589,0.746l0.539,0.914l-1.822,0.008l-0.467-0.008
			c-10.768,0-11.416,10.25-12.1,21.1c-0.168,2.67-0.344,5.427-0.68,8.002c0.379,0.643,0.575,1.377,0.766,2.095
			c0.155,0.58,0.314,1.179,0.551,1.58c1.418,0.748,3.333,1.931,2.844,5.168c-0.163,0.647-0.353,1.006-0.505,1.293
			c-0.186,0.347-0.295,0.558-0.325,1.136c-0.034,0.659-0.335,1.146-0.896,1.448c0.013,0.248,0.053,0.543,0.091,0.815
			c0.131,0.948,0.357,2.588-0.841,3.392c0.084,0.507,0.293,0.688,0.591,0.953c0.348,0.306,0.825,0.724,1.026,1.524
			c0.932,3.729,0.602,7.887,0.281,11.906c-0.223,2.826-0.454,5.75-0.253,8.518c0.122,1.688,0.45,3.354,0.796,5.119
			c0.368,1.872,0.75,3.81,0.889,5.854c0.318,4.648,0.286,9.369,0.258,13.936c-0.038,5.687-0.072,11.058,0.582,15.517l0.211,1.453
			l-1.051-0.216c-0.044,0.105-0.098,0.22-0.172,0.327c-0.828,1.243-1.366,1.663-1.989,2.151c-0.21,0.162-0.44,0.34-0.714,0.58
			c-0.543,0.475-1.15,0.791-1.688,1.074C187.472,320.115,187.115,320.334,186.94,320.561z M298.925,316.07
			c0.185,0,0.716,0,1.125,0.356c0.008-0.584,0-1.151-0.008-1.719c-0.018-1.438-0.039-2.799,0.193-4.225
			c0.295-1.896,0.898-4.019,1.743-6.126c-0.04,0.064-0.072-0.071-0.093-0.239c-0.08-0.647-0.172-1.39,0.391-1.854
			c0.385-0.416,1.054-2.933,1.454-4.435c0.251-0.942,0.501-1.884,0.749-2.675c0.299-0.963,0.61-1.913,0.933-2.899
			c0.78-2.387,1.587-4.854,2.433-8.026c0.617-2.31,0.855-6.175-0.004-9.609c-0.27-1.074-0.317-2.084-0.361-2.977
			c-0.053-1.039-0.098-1.938-0.44-2.798c-0.151-0.379-0.099-0.786-0.039-1.266c0.014-0.104,0.03-0.211,0.041-0.312
			c-0.583-0.694-0.562-1.586-0.544-2.258c0.009-0.297,0.021-0.791-0.074-0.887c-0.456-0.453-1.504-2.127-1.956-3.838l-0.28-1.037
			c-0.253-0.928-0.443-1.637-0.583-2.424c-0.007-0.045-0.513-3.475,0.281-4.277c0.132-0.166,0.218-0.572-0.263-2.387
			c-0.288-1.09-0.525-2.766-0.801-4.707c-0.23-1.617-0.488-3.432-0.799-4.994c-0.613-0.336-0.927-0.828-0.961-1.479
			c-0.006-0.125,0.004-0.277,0.018-0.438c0.007-0.078,0.019-0.155,0.015-0.229c-0.384-0.903-0.651-2.352-0.964-4.022
			c-0.207-1.104-0.43-2.315-0.729-3.556c-0.317-1.325-0.522-3.641-0.569-6.083c-0.042,0.018-0.082,0.035-0.121,0.049
			c-0.197,2.045-0.092,4.368,0.021,6.399l0.085,1.613c0.197,3.939,0.399,8.008,1.422,11.225c0.799,0.334,1,0.986,1.025,1.513
			c0.02,0.401,0.038,0.733,0.074,0.834l0.934,0.202l-0.173,0.847c-0.36,2.528-0.197,5.021-0.04,7.424
			c0.145,2.226,0.292,4.521,0.042,6.884c-0.181,1.748-0.759,3.438-1.318,5.073c-0.471,1.384-0.957,2.81-1.217,4.279
			c-0.268,1.491-0.336,3.213-0.4,4.877c-0.07,1.771-0.145,3.601-0.449,5.254l-1.015-0.181v0.003l0.429,0.903
			c-0.087,0.056-0.266,0.213-0.314,0.289c0.001,0,0.001,0,0.001,0c0.038,0,0.089,0.521,0.124,0.863
			c0.141,1.395,0.241,2.4-0.431,2.951l-0.283,0.232l-0.374,0.012c-0.151,0.82-0.246,1.66-0.346,2.539
			c-0.21,1.836-0.445,3.918-1.211,6.047c-0.228,0.641-0.598,1.23-0.922,1.75c-0.338,0.537-0.655,1.045-0.717,1.439
			c-0.256,1.608-0.144,3.289-0.022,5.067c0.108,1.644,0.223,3.34,0.027,5.012c-0.192,1.662-0.604,3.043-1.044,4.511
			c-0.187,0.625-0.379,1.27-0.562,1.965c0.469,0.553,1.561,0.779,2.709,1.02c0.875,0.185,1.78,0.369,2.546,0.744
			c0.075-0.053,0.325-0.092,0.581-0.129C298.258,316.117,298.63,316.07,298.925,316.07z M262.972,201.012
			c-0.56,0-1.146-0.162-1.768-0.33c-0.539-0.148-1.099-0.301-1.579-0.324c-0.889-0.045-1.858-0.027-2.829-0.01
			c-0.529,0.008-1.061,0.018-1.584,0.018c-2.537,0-5.348-0.17-6.544-2.201l-0.126-0.213l-0.016-0.246
			c-0.134-2.199,0.472-4.145,1.004-5.859c0.311-0.994,0.602-1.932,0.686-2.748c0.007-0.064-0.074-0.219-0.146-0.355
			c-0.271-0.514-0.836-1.58,0.461-2.814l0.27-0.256l0.65-0.035c1.123,0,1.958,0.475,2.696,0.895
			c0.674,0.385,1.313,0.748,2.216,0.801c2.158,0.121,2.858,1.033,4.015,2.549c0.269,0.35,0.573,0.748,0.945,1.203
			c0.421,0.514,1.165,1.205,1.708,1.707c0.716,0.664,0.885,0.822,0.995,1.133c0.358,0.994,0.171,1.965,0.022,2.746
			c-0.226,1.162-0.217,1.42,0.376,1.771l0.688,0.408l-0.224,0.766C264.628,200.502,263.931,201.012,262.972,201.012z
			 M258.325,198.27c0.481,0,0.951,0.008,1.404,0.029c0.704,0.037,1.402,0.227,2.018,0.395c0.104,0.029,0.211,0.059,0.313,0.086
			c-0.351-0.869-0.171-1.797-0.036-2.5c0.106-0.549,0.207-1.07,0.106-1.508c-0.116-0.115-0.294-0.277-0.501-0.471
			c-0.587-0.543-1.39-1.289-1.902-1.912c-0.389-0.477-0.708-0.893-0.986-1.258c-1.059-1.385-1.281-1.674-2.495-1.744
			c-1.387-0.078-2.348-0.625-3.121-1.066c-0.459-0.26-0.846-0.482-1.256-0.576c0.008,0.012,0.013,0.025,0.02,0.037
			c0.18,0.338,0.448,0.85,0.374,1.535c-0.104,1.014-0.426,2.047-0.767,3.141c-0.479,1.539-0.973,3.127-0.926,4.842
			c0.745,0.881,2.75,1.006,4.641,1.006c0.512,0,1.029-0.008,1.547-0.018C257.286,198.279,257.813,198.27,258.325,198.27z"/>
	</g>
</g>
</svg>
