<?xml version="1.0" encoding="utf-8"?>
<!-- Generator: Adobe Illustrator 15.0.2, SVG Export Plug-In . SVG Version: 6.00 Build 0)  -->
<!DOCTYPE svg PUBLIC "-//W3C//DTD SVG 1.1//EN" "http://www.w3.org/Graphics/SVG/1.1/DTD/svg11.dtd">
<svg version="1.1" id="Layer_3" xmlns="http://www.w3.org/2000/svg" xmlns:xlink="http://www.w3.org/1999/xlink" x="0px" y="0px"
	 width="800px" height="450px" viewBox="0 0 800 450" enable-background="new 0 0 800 450" xml:space="preserve">
<g>
	<polygon points="340.619,91.318 338.56,91.318 338.56,6.538 588.443,6.538 588.443,36.452 586.383,36.452 586.383,8.597 
		340.619,8.597 	"/>
	<g>
		<path d="M111.665,300.15H0.002V67.265h111.663V300.15z M2.061,298.092h107.545V69.323H2.061V298.092z"/>
		<path d="M71.694,110.903H51.078V77.036h20.616V110.903z M53.137,108.844h16.498V79.095H53.137V108.844z"/>
		<path d="M48.475,110.903H27.862V77.036h20.612V110.903z M29.922,108.844h16.494V79.095H29.922V108.844z"/>
		<path d="M25.258,110.903H4.646V77.036h20.612V110.903z M6.705,108.844h16.494V79.095H6.705V108.844z"/>
		<path d="M71.694,146.752H51.078v-33.868h20.616V146.752z M53.137,144.692h16.498v-29.748H53.137V144.692z"/>
		<path d="M48.475,146.752H27.862v-33.868h20.612V146.752z M29.922,144.692h16.494v-29.748H29.922V144.692z"/>
		<path d="M25.258,146.752H4.646v-33.868h20.612V146.752z M6.705,144.692h16.494v-29.748H6.705V144.692z"/>
		<path d="M71.694,182.599H51.078v-33.865h20.616V182.599z M53.137,180.54h16.498v-29.748H53.137V180.54z"/>
		<path d="M48.475,182.599H27.862v-33.865h20.612V182.599z M29.922,180.54h16.494v-29.748H29.922V180.54z"/>
		<path d="M25.258,182.599H4.646v-33.865h20.612V182.599z M6.705,180.54h16.494v-29.748H6.705V180.54z"/>
		<path d="M71.694,218.447H51.078V184.58h20.616V218.447z M53.137,216.388h16.498V186.64H53.137V216.388z"/>
		<path d="M94.855,110.903H74.238V77.036h20.617V110.903z M76.299,108.844h16.498V79.095H76.299V108.844z"/>
		<path d="M94.855,146.752H74.238v-33.868h20.617V146.752z M76.299,144.692h16.498v-29.748H76.299V144.692z"/>
		<path d="M94.855,182.599H74.238v-33.865h20.617V182.599z M76.299,180.54h16.498v-29.748H76.299V180.54z"/>
		<path d="M94.855,218.447H74.238V184.58h20.617V218.447z M76.299,216.388h16.498V186.64H76.299V216.388z"/>
		<path d="M48.475,218.447H27.862V184.58h20.612V218.447z M29.922,216.388h16.494V186.64H29.922V216.388z"/>
		<path d="M25.258,218.447H4.646V184.58h20.612V218.447z M6.705,216.388h16.494V186.64H6.705V216.388z"/>
		<path d="M52.754,300.15H0v-70.582h52.754V300.15z M2.059,298.092h48.635v-66.464H2.059V298.092z"/>
	</g>
	<g>
		<path d="M306.195,300.15h-196.59V-1.956h196.59V300.15z M111.665,298.092h192.472V0.104H111.665V298.092z"/>
		<g>
			<path d="M292.761,226.059h-169.72V-1.478h169.72V226.059z M125.1,223.999h165.602V0.582H125.1V223.999z"/>
			<rect x="178.928" y="-0.926" width="2.06" height="225.031"/>
			<rect x="262.758" y="-0.926" width="2.06" height="225.031"/>
			<rect x="206.871" y="-0.926" width="2.06" height="225.031"/>
			<rect x="234.814" y="-0.926" width="2.06" height="225.031"/>
			<rect x="150.984" y="-0.926" width="2.059" height="225.031"/>
			<rect x="124.213" y="72.991" width="167.375" height="2.06"/>
			<rect x="124.213" y="185.698" width="167.375" height="2.061"/>
			<rect x="124.213" y="110.56" width="167.375" height="2.061"/>
			<rect x="124.213" y="148.13" width="167.375" height="2.059"/>
			<rect x="124.213" y="35.423" width="167.375" height="2.059"/>
			<path d="M238.492,300.15h-57.945v-65.013h57.945V300.15z M182.605,298.092h53.828v-60.895h-53.828V298.092z"/>
			<path d="M172.432,286.863h-46.153v-51.726h46.153V286.863z M128.338,284.804h42.033v-47.606h-42.033V284.804z"/>
			<path d="M292.761,286.863h-46.153v-51.726h46.153V286.863z M248.668,284.804h42.033v-47.606h-42.033V284.804z"/>
		</g>
	</g>
	<g>
		<path d="M798.51,300.15H622.934V-1.956H798.51V300.15z M624.994,298.092h171.455V0.104H624.994V298.092z"/>
		<g>
			<path d="M786.523,226.059H634.916V-1.478h151.607V226.059z M636.977,223.999h147.486V0.582H636.977V223.999z"/>
			<rect x="684.768" y="-0.926" width="2.059" height="225.031"/>
			<rect x="759.537" y="-0.926" width="2.059" height="225.031"/>
			<rect x="709.691" y="-0.926" width="2.059" height="225.031"/>
			<rect x="734.613" y="-0.926" width="2.059" height="225.031"/>
			<rect x="659.84" y="-0.926" width="2.059" height="225.031"/>
			<rect x="636.076" y="72.991" width="149.287" height="2.06"/>
			<rect x="636.076" y="185.698" width="149.287" height="2.061"/>
			<rect x="636.076" y="110.56" width="149.287" height="2.061"/>
			<rect x="636.076" y="148.13" width="149.287" height="2.059"/>
			<rect x="636.076" y="35.423" width="149.287" height="2.059"/>
			<path d="M738.117,300.15h-51.906v-65.013h51.906V300.15z M688.271,298.092h47.785v-60.895h-47.785V298.092z"/>
			<path d="M679.191,286.863h-41.387v-51.726h41.387V286.863z M639.865,284.804h37.268v-47.606h-37.268V284.804z"/>
			<path d="M786.523,286.863h-41.389v-51.726h41.389V286.863z M747.195,284.804h37.268v-47.606h-37.268V284.804z"/>
		</g>
	</g>
	<g>
		<path d="M425.617,300.15h-121.48V90.289h121.48V300.15z M306.195,298.092h117.361V92.349H306.195V298.092z"/>
		<path d="M417.311,129.298H314.812v-23.939h102.498V129.298z M316.871,127.238h98.381v-19.82h-98.381V127.238z"/>
		<path d="M417.311,157.616H314.812v-23.941h102.498V157.616z M316.871,155.558h98.381v-19.823h-98.381V155.558z"/>
		<path d="M417.311,185.935H314.812v-23.941h102.498V185.935z M316.871,183.874h98.381v-19.82h-98.381V183.874z"/>
		<path d="M417.311,214.25H314.812v-23.938h102.498V214.25z M316.871,212.19h98.381v-19.819h-98.381V212.19z"/>
		<path d="M417.311,242.568H314.812v-23.939h102.498V242.568z M316.871,240.51h98.381v-19.821h-98.381V240.51z"/>
		<path d="M380.324,300.15h-30.893v-49.225h30.893V300.15z M351.492,298.092h26.772v-45.106h-26.772V298.092z"/>
	</g>
	<g>
		
			<rect x="-18.103" y="371.932" transform="matrix(0.8742 0.4856 -0.4856 0.8742 197.9809 -18.1156)" width="304.097" height="2.059"/>
		
			<rect x="-8.825" y="371.058" transform="matrix(0.9642 0.2653 -0.2653 0.9642 108.2603 -57.2895)" width="550.031" height="2.058"/>
		
			<rect x="-2.561" y="351.737" transform="matrix(0.9911 0.1333 -0.1333 0.9911 50.6068 -50.1555)" width="804.681" height="2.061"/>
	</g>
	<g>
		<path d="M624.994,300.15H423.166V35.423h201.828V300.15z M425.227,298.092h197.707V37.481H425.227V298.092z"/>
		<path d="M499.703,84.825h-20.617V50.958h20.617V84.825z M481.145,82.767h16.498V53.019h-16.498V82.767z"/>
		<path d="M476.484,84.825h-20.613V50.958h20.613V84.825z M457.93,82.767h16.494V53.019H457.93V82.767z"/>
		<path d="M453.266,84.825h-20.613V50.958h20.613V84.825z M434.713,82.767h16.494V53.019h-16.494V82.767z"/>
		<path d="M499.703,120.675h-20.617V86.808h20.617V120.675z M481.145,118.615h16.498V88.866h-16.498V118.615z"/>
		<path d="M476.484,120.675h-20.613V86.808h20.613V120.675z M457.93,118.615h16.494V88.866H457.93V118.615z"/>
		<path d="M453.266,120.675h-20.613V86.808h20.613V120.675z M434.713,118.615h16.494V88.866h-16.494V118.615z"/>
		<path d="M499.703,156.522h-20.617v-33.867h20.617V156.522z M481.145,154.463h16.498v-29.747h-16.498V154.463z"/>
		<path d="M476.484,156.522h-20.613v-33.867h20.613V156.522z M457.93,154.463h16.494v-29.747H457.93V154.463z"/>
		<path d="M453.266,156.522h-20.613v-33.867h20.613V156.522z M434.713,154.463h16.494v-29.747h-16.494V154.463z"/>
		<path d="M499.703,192.371h-20.617v-33.868h20.617V192.371z M481.145,190.312h16.498v-29.748h-16.498V190.312z"/>
		<path d="M522.863,84.825h-20.617V50.958h20.617V84.825z M504.307,82.767h16.496V53.019h-16.496V82.767z"/>
		<path d="M522.863,120.675h-20.617V86.808h20.617V120.675z M504.307,118.615h16.496V88.866h-16.496V118.615z"/>
		<path d="M522.863,156.522h-20.617v-33.867h20.617V156.522z M504.307,154.463h16.496v-29.747h-16.496V154.463z"/>
		<path d="M522.863,192.371h-20.617v-33.868h20.617V192.371z M504.307,190.312h16.496v-29.748h-16.496V190.312z"/>
		<path d="M476.484,192.371h-20.613v-33.868h20.613V192.371z M457.93,190.312h16.494v-29.748H457.93V190.312z"/>
		<path d="M453.266,192.371h-20.613v-33.868h20.613V192.371z M434.713,190.312h16.494v-29.748h-16.494V190.312z"/>
		<path d="M592.762,84.825h-20.617V50.958h20.617V84.825z M574.203,82.767h16.498V53.019h-16.498V82.767z"/>
		<path d="M569.541,84.825h-20.613V50.958h20.613V84.825z M550.988,82.767h16.494V53.019h-16.494V82.767z"/>
		<path d="M546.324,84.825h-20.611V50.958h20.611V84.825z M527.773,82.767h16.492V53.019h-16.492V82.767z"/>
		<path d="M592.762,120.675h-20.617V86.808h20.617V120.675z M574.203,118.615h16.498V88.866h-16.498V118.615z"/>
		<path d="M569.541,120.675h-20.613V86.808h20.613V120.675z M550.988,118.615h16.494V88.866h-16.494V118.615z"/>
		<path d="M546.324,120.675h-20.611V86.808h20.611V120.675z M527.773,118.615h16.492V88.866h-16.492V118.615z"/>
		<path d="M592.762,156.522h-20.617v-33.867h20.617V156.522z M574.203,154.463h16.498v-29.747h-16.498V154.463z"/>
		<path d="M569.541,156.522h-20.613v-33.867h20.613V156.522z M550.988,154.463h16.494v-29.747h-16.494V154.463z"/>
		<path d="M546.324,156.522h-20.611v-33.867h20.611V156.522z M527.773,154.463h16.492v-29.747h-16.492V154.463z"/>
		<path d="M592.762,192.371h-20.617v-33.868h20.617V192.371z M574.203,190.312h16.498v-29.748h-16.498V190.312z"/>
		<path d="M615.922,84.825h-20.617V50.958h20.617V84.825z M597.363,82.767h16.498V53.019h-16.498V82.767z"/>
		<path d="M615.922,120.675h-20.617V86.808h20.617V120.675z M597.363,118.615h16.498V88.866h-16.498V118.615z"/>
		<path d="M615.922,156.522h-20.617v-33.867h20.617V156.522z M597.363,154.463h16.498v-29.747h-16.498V154.463z"/>
		<path d="M615.922,192.371h-20.617v-33.868h20.617V192.371z M597.363,190.312h16.498v-29.748h-16.498V190.312z"/>
		<path d="M569.541,192.371h-20.613v-33.868h20.613V192.371z M550.988,190.312h16.494v-29.748h-16.494V190.312z"/>
		<path d="M546.324,192.371h-20.611v-33.868h20.611V192.371z M527.773,190.312h16.492v-29.748h-16.492V190.312z"/>
		<path d="M499.703,230.155h-20.617v-33.867h20.617V230.155z M481.145,228.096h16.498v-29.749h-16.498V228.096z"/>
		<path d="M522.863,230.155h-20.617v-33.867h20.617V230.155z M504.307,228.096h16.496v-29.749h-16.496V228.096z"/>
		<path d="M476.484,230.155h-20.613v-33.867h20.613V230.155z M457.93,228.096h16.494v-29.749H457.93V228.096z"/>
		<path d="M453.266,230.155h-20.613v-33.867h20.613V230.155z M434.713,228.096h16.494v-29.749h-16.494V228.096z"/>
		<path d="M592.762,230.155h-20.617v-33.867h20.617V230.155z M574.203,228.096h16.498v-29.749h-16.498V228.096z"/>
		<path d="M615.922,230.155h-20.617v-33.867h20.617V230.155z M597.363,228.096h16.498v-29.749h-16.498V228.096z"/>
		<path d="M569.541,230.155h-20.613v-33.867h20.613V230.155z M550.988,228.096h16.494v-29.749h-16.494V228.096z"/>
		<path d="M592.762,268.89h-20.617v-33.867h20.617V268.89z M574.203,266.83h16.498v-29.749h-16.498V266.83z"/>
		<path d="M615.922,268.89h-20.617v-33.867h20.617V268.89z M597.363,266.83h16.498v-29.749h-16.498V266.83z"/>
		<path d="M569.541,268.89h-20.613v-33.867h20.613V268.89z M550.988,266.83h16.494v-29.749h-16.494V266.83z"/>
		<path d="M476.512,268.89h-20.617v-33.867h20.617V268.89z M457.955,266.83h16.496v-29.749h-16.496V266.83z"/>
		<path d="M499.674,268.89h-20.619v-33.867h20.619V268.89z M481.113,266.83h16.5v-29.749h-16.5V266.83z"/>
		<path d="M453.293,268.89H432.68v-33.867h20.613V268.89z M434.74,266.83h16.492v-29.749H434.74V266.83z"/>
		<path d="M546.324,230.155h-20.611v-33.867h20.611V230.155z M527.773,228.096h16.492v-29.749h-16.492V228.096z"/>
		<path d="M546.324,300.15h-44.078v-65.013h44.078V300.15z M504.307,298.092h39.959v-60.895h-39.959V298.092z"/>
	</g>
	<g>
		<path d="M267.891,440.996h-2.059v-10.298h2.059V440.996z M267.891,420.399h-2.059v-10.297h2.059V420.399z M267.891,399.805h-2.059
			v-10.296h2.059V399.805z M267.891,379.211h-2.059v-10.296h2.059V379.211z M267.891,358.617h-2.059V348.32h2.059V358.617z
			 M267.891,338.022h-2.059v-10.297h2.059V338.022z M267.891,317.428h-2.059v-10.297h2.059V317.428z M267.891,296.833h-2.059
			v-10.297h2.059V296.833z M267.891,276.238h-2.059v-10.297h2.059V276.238z M267.891,255.644h-2.059v-10.298h2.059V255.644z
			 M267.891,235.05h-2.059v-10.298h2.059V235.05z M267.891,214.454h-2.059v-10.297h2.059V214.454z M267.891,193.86h-2.059v-10.297
			h2.059V193.86z M267.891,173.266h-2.059v-10.298h2.059V173.266z M267.891,152.671h-2.059v-10.297h2.059V152.671z M267.891,132.076
			h-2.059v-10.297h2.059V132.076z M267.891,111.481h-2.059v-10.297h2.059V111.481z M267.891,90.887h-2.059V80.59h2.059V90.887z
			 M267.891,70.292h-2.059V59.995h2.059V70.292z M267.891,49.698h-2.059V39.4h2.059V49.698z M267.891,29.103h-2.059V18.806h2.059
			V29.103z M267.891,8.509h-2.059V-1.788h2.059V8.509z"/>
		<path d="M533.723,441.856h-2.059v-10.296h2.059V441.856z M533.723,421.263h-2.059v-10.297h2.059V421.263z M533.723,400.668h-2.059
			v-10.296h2.059V400.668z M533.723,380.074h-2.059v-10.297h2.059V380.074z M533.723,359.48h-2.059v-10.298h2.059V359.48z
			 M533.723,338.885h-2.059v-10.297h2.059V338.885z M533.723,318.29h-2.059v-10.297h2.059V318.29z M533.723,297.696h-2.059v-10.297
			h2.059V297.696z M533.723,277.102h-2.059v-10.297h2.059V277.102z M533.723,256.507h-2.059V246.21h2.059V256.507z M533.723,235.911
			h-2.059v-10.297h2.059V235.911z M533.723,215.317h-2.059v-10.297h2.059V215.317z M533.723,194.723h-2.059v-10.298h2.059V194.723z
			 M533.723,174.128h-2.059v-10.297h2.059V174.128z M533.723,153.533h-2.059v-10.297h2.059V153.533z M533.723,132.938h-2.059
			v-10.297h2.059V132.938z M533.723,112.345h-2.059v-10.297h2.059V112.345z M533.723,91.749h-2.059V81.452h2.059V91.749z
			 M533.723,71.155h-2.059V60.858h2.059V71.155z M533.723,50.561h-2.059V40.263h2.059V50.561z M533.723,29.966h-2.059V19.669h2.059
			V29.966z M533.723,9.372h-2.059V-0.926h2.059V9.372z"/>
		<rect x="1.031" y="295.212" width="797.496" height="4.119"/>
		<path d="M793.926,148.771h-10.297v-2.06h10.297V148.771z M773.33,148.771h-10.297v-2.06h10.297V148.771z M752.734,148.771h-10.295
			v-2.06h10.295V148.771z M732.141,148.771h-10.297v-2.06h10.297V148.771z M711.547,148.771H701.25v-2.06h10.297V148.771z
			 M690.951,148.771h-10.297v-2.06h10.297V148.771z M670.355,148.771h-10.295v-2.06h10.295V148.771z M649.762,148.771h-10.297v-2.06
			h10.297V148.771z M629.166,148.771h-10.297v-2.06h10.297V148.771z M608.572,148.771h-10.297v-2.06h10.297V148.771z
			 M587.979,148.771h-10.297v-2.06h10.297V148.771z M567.383,148.771h-10.297v-2.06h10.297V148.771z M546.789,148.771h-10.297v-2.06
			h10.297V148.771z M526.195,148.771h-10.297v-2.06h10.297V148.771z M505.6,148.771h-10.297v-2.06H505.6V148.771z M485.004,148.771
			h-10.297v-2.06h10.297V148.771z M464.41,148.771h-10.297v-2.06h10.297V148.771z M443.816,148.771H433.52v-2.06h10.297V148.771z
			 M423.221,148.771h-10.297v-2.06h10.297V148.771z M402.627,148.771h-10.298v-2.06h10.298V148.771z M382.032,148.771h-10.298v-2.06
			h10.298V148.771z M361.438,148.771h-10.297v-2.06h10.297V148.771z M340.843,148.771h-10.298v-2.06h10.298V148.771z
			 M320.248,148.771h-10.297v-2.06h10.297V148.771z M299.653,148.771h-10.298v-2.06h10.298V148.771z M279.059,148.771h-10.297v-2.06
			h10.297V148.771z M258.464,148.771h-10.297v-2.06h10.297V148.771z M237.869,148.771h-10.297v-2.06h10.297V148.771z
			 M217.275,148.771h-10.297v-2.06h10.297V148.771z M196.68,148.771h-10.297v-2.06h10.297V148.771z M176.086,148.771h-10.297v-2.06
			h10.297V148.771z M155.49,148.771h-10.296v-2.06h10.296V148.771z M134.896,148.771h-10.298v-2.06h10.298V148.771z
			 M114.302,148.771h-10.298v-2.06h10.298V148.771z M93.707,148.771H83.409v-2.06h10.298V148.771z M73.112,148.771H62.814v-2.06
			h10.298V148.771z M52.518,148.771H42.221v-2.06h10.297V148.771z M31.924,148.771H21.625v-2.06h10.299V148.771z M11.328,148.771
			H1.031v-2.06h10.297V148.771z"/>
	</g>
</g>
</svg>
