<?xml version="1.0" encoding="utf-8"?>
<!-- Generator: Adobe Illustrator 15.0.2, SVG Export Plug-In . SVG Version: 6.00 Build 0)  -->
<!DOCTYPE svg PUBLIC "-//W3C//DTD SVG 1.1//EN" "http://www.w3.org/Graphics/SVG/1.1/DTD/svg11.dtd">
<svg version="1.1" id="Layer_3" xmlns="http://www.w3.org/2000/svg" xmlns:xlink="http://www.w3.org/1999/xlink" x="0px" y="0px"
	 width="800px" height="450px" viewBox="0 0 800 450" enable-background="new 0 0 800 450" xml:space="preserve">
<g>
	<g>
		<path fill="#FFFFFF" d="M265.307,430.112h2.06v10.297h-2.06V430.112z M265.307,409.519h2.06v10.3h-2.06V409.519z M265.307,388.925
			h2.06v10.297h-2.06V388.925z M265.307,368.329h2.06v10.297h-2.06V368.329z M265.307,347.735h2.06v10.295h-2.06V347.735z
			 M265.307,327.14h2.06v10.3h-2.06V327.14z M265.307,306.546h2.06v10.297h-2.06V306.546z M265.307,285.95h2.06v10.297h-2.06V285.95
			z M265.307,265.355h2.06v10.297h-2.06V265.355z M265.307,244.761h2.06v10.298h-2.06V244.761z M265.307,224.167h2.06v10.297h-2.06
			V224.167z M265.307,203.571h2.06v10.299h-2.06V203.571z M265.307,182.978h2.06v10.297h-2.06V182.978z M265.307,162.384h2.06
			v10.297h-2.06V162.384z M265.307,141.788h2.06v10.297h-2.06V141.788z M265.307,121.194h2.06v10.297h-2.06V121.194z
			 M265.307,100.599h2.06v10.297h-2.06V100.599z M265.307,80.005h2.06v10.297h-2.06V80.005z M265.307,59.409h2.06v10.299h-2.06
			V59.409z M265.307,38.815h2.06v10.297h-2.06V38.815z M265.307,18.222h2.06v10.297h-2.06V18.222z M265.307-2.374h2.06V7.923h-2.06
			V-2.374z"/>
		<rect x="531.139" y="-1.511" fill="#FFFFFF" width="2.062" height="10.297"/>
		<polygon fill="#FFFFFF" points="434.297,299.182 434.312,293.003 0.516,292.571 0.499,298.751 		"/>
		<rect x="679.176" y="293.598" fill="#FFFFFF" width="118.822" height="6.178"/>
		<rect x="0.505" y="144.067" fill="#FFFFFF" width="482.146" height="6.18"/>
		<rect x="627.582" y="144.067" fill="#FFFFFF" width="170.416" height="6.18"/>
	</g>
	<g>
		<path fill="#FFFFFF" d="M550.383,270.104c10.91,0,24.119-2.498,38.635-10.39l-0.981-1.812c-38.347,20.841-67.09,3.181-67.375,3
			l-1.104,1.738C519.744,262.761,531.688,270.104,550.383,270.104z"/>
		<path fill="#FFFFFF" d="M464.482,445.505c2.434-18.262,4.366-43.932,10.131-122.317l-2.058-0.148
			c-5.754,78.344-7.688,103.994-10.114,122.195L464.482,445.505z"/>
		<path fill="#FFFFFF" d="M412.508,446.976c5.998-42.893,31.551-210.436,34.627-217.676l0.178-0.428
			c1.802-4.291,6.009-14.342,26.494-14.742c8.439-0.166,35.037-4.082,44.642-10.77c-0.312,7.621-1.154,32.316,0.104,49.833
			c1.91,26.646,0.437,133.472-2.633,190.497l2.057,0.108c3.068-57.084,4.544-164.051,2.628-190.756
			c-1.486-20.721-0.013-51.604,0.006-51.912l0.133-2.746l-1.904,1.98c-6.486,6.748-34.836,11.502-45.063,11.703
			c-21.83,0.428-26.568,11.744-28.354,16.006l-0.176,0.418c-3.353,7.881-29.543,180.777-34.771,218.193L412.508,446.976z"/>
		<path fill="#FFFFFF" d="M644.15,446.048l2.039-0.271c-2.229-16.724-14.33-127.203-14.449-128.316l-2.047,0.223
			C629.812,318.794,641.916,429.302,644.15,446.048z"/>
		<path fill="#FFFFFF" d="M694.691,446.456l2.004-0.482c-5.853-24.303-10.049-73.571-14.115-121.225
			c-5.318-62.383-8.943-100.605-14.404-105.4c-10.188-8.947-17.531-9.221-25.301-9.51c-4.492-0.166-9.137-0.338-14.674-2.217
			l-0.664,1.951c5.824,1.975,10.623,2.152,15.26,2.324c7.715,0.285,14.381,0.533,24.021,8.998
			c5.231,4.594,9.545,55.145,13.713,104.027C684.598,372.649,688.809,422.003,694.691,446.456z"/>
		<path fill="#FFFFFF" d="M587.514,447.948l2.023-0.379c-7.381-39.615-3.613-112.23-1.357-155.617
			c0.771-14.806,1.375-26.498,1.375-33.144c0-30.444-7.623-60.33-7.701-60.626l-1.991,0.516c0.073,0.295,7.637,29.936,7.637,60.11
			c0,6.592-0.604,18.26-1.373,33.033C583.865,335.323,580.084,408.093,587.514,447.948z"/>
		<path fill="#FFFFFF" d="M611.822,235.382c2.514,0,4.733-0.555,6.699-1.659c9.131-5.154,10.25-21.216,11.334-36.747
			c0.233-3.381,0.479-6.879,0.803-10.119c1.131-11.295,0.645-12.936-0.162-15.65c-0.941-3.166-2.361-7.949-1.91-34.432
			c0.756-43.92-3.865-51.506-17.584-74.031c-1.406-2.303-2.902-4.764-4.498-7.436c-17.145-28.676-29.006-31.049-40.635-31.049
			c-4.26,0-7.219,0.738-9.383,1.279c-3.601,0.895-4.799,1.195-7.441-2.562c-5.137-7.34-19.592-4.834-20.201-4.727
			c-0.278,0.076-0.594,0.121-1.043,0.191c-14.137,2.248-23.434,8.322-27.629,18.057c-1.918,4.441-3.637,7.598-5.146,10.381
			c-3.826,7.035-6.14,11.281-5.531,25.779c0.432,10.283-1.037,15.965-2.588,21.979c-1.375,5.33-2.8,10.844-2.8,19.719
			c0,5.033-0.635,9.871-1.245,14.549c-1.621,12.389-3.304,25.201,6.771,42.332l0.238,0.408l0.467,0.084
			c0.023,0.004,2.986,0.598,4.617,3.43c1.562,2.717,1.475,6.584-0.256,11.496c-5.365,15.215,6.807,22.85,6.93,22.924l0.332,0.203
			l0.383-0.068c0.271-0.047,27.021-5.01,26.713-26.488l-2.059,0.029c0.262,18.379-21.416,23.674-24.619,24.354
			c-1.812-1.258-10.121-7.838-5.736-20.268c1.947-5.525,1.976-9.98,0.078-13.246c-1.694-2.918-4.424-3.959-5.528-4.272
			c-9.476-16.328-7.927-28.146-6.287-40.648c0.621-4.744,1.264-9.65,1.264-14.816c0-8.615,1.387-13.998,2.73-19.205
			c1.521-5.895,3.096-11.99,2.647-22.58c-0.578-13.928,1.506-17.756,5.285-24.709c1.533-2.822,3.275-6.021,5.23-10.551
			c3.896-9.043,12.666-14.707,26.061-16.836c0.648-0.104,1.076-0.184,1.238-0.238l0,0c0.069-0.002,13.629-2.32,17.996,3.92
			c3.457,4.918,5.905,4.307,9.627,3.379c2.174-0.543,4.879-1.219,8.885-1.219c11.014,0,22.277,2.299,38.865,30.045
			c1.6,2.68,3.102,5.145,4.51,7.453c13.486,22.143,18.027,29.602,17.283,72.924c-0.455,26.799,1.02,31.766,1.994,35.053
			c0.733,2.473,1.178,3.967,0.088,14.859c-0.326,3.271-0.572,6.783-0.81,10.18c-1.047,14.988-2.129,30.488-10.293,35.097
			c-4.467,2.521-10.756,1.637-19.227-2.705c-5.854-3.007-10.521-15.423-14.273-25.396c-1.846-4.914-3.59-9.553-5.309-12.756
			c-5.06-9.418,3.246-39.564,3.328-39.867l-1.982-0.553c-0.354,1.271-8.604,31.25-3.16,41.395c1.652,3.082,3.375,7.66,5.197,12.504
			c4.076,10.848,8.695,23.141,15.256,26.51C602.977,233.941,607.773,235.382,611.822,235.382z"/>
		<path fill="#FFFFFF" d="M532.293,183.896c0.475,0.002,0.955-0.012,1.445-0.035c11.313-0.564,29.041-8.07,44.854-27.447
			c6.314-7.738,10.394-22.445,10.908-39.338l-2.059-0.064c-0.504,16.457-4.408,30.699-10.445,38.1
			c-15.402,18.877-32.984,26.176-43.361,26.693c-5.242,0.258-9.385-0.98-11.985-3.59c-15.521-15.57-30.099-55.322-30.099-62.572
			c0-3.082,1.318-5.326,2.717-7.705c1.902-3.236,4.06-6.904,3.064-13.111c-1.34-8.355,0.107-16.236,2.5-29.295
			c0.508-2.777,1.061-5.789,1.639-9.088c3.156-18.025,30.117-23.635,30.392-23.689c28.854-6.414,41.155,21.826,50.426,48.801
			c0.957,2.789,2.059,7.174,2.373,8.451l1.998-0.492c-0.41-1.664-1.465-5.838-2.426-8.629c-7.392-21.504-19.759-57.482-52.8-50.145
			c-1.146,0.229-28.596,5.949-31.991,25.348c-0.574,3.293-1.125,6.301-1.636,9.072c-2.434,13.275-3.899,21.289-2.51,29.992
			c0.879,5.477-0.912,8.52-2.807,11.742c-1.478,2.51-3,5.105-3,8.748c0,7.666,14.514,47.787,30.701,64.027
			C522.959,182.446,527.125,183.896,532.293,183.896z"/>
		<path fill="#FFFFFF" d="M541.645,92.921c0.109-0.033,10.923-3.268,16.248-0.102l1.058-1.77c-6.117-3.633-17.427-0.246-17.904-0.1
			L541.645,92.921z"/>
		<path fill="#FFFFFF" d="M501.758,99.231c4.008-3.182,13.312-2.785,13.406-2.781l0.096-2.057
			c-0.414-0.021-10.172-0.436-14.781,3.225L501.758,99.231z"/>
		<path fill="#FFFFFF" d="M510.646,99.083c0.239,1.945-0.8,3.688-2.308,3.883c-1.516,0.201-2.934-1.217-3.168-3.164
			c-0.233-1.949,0.803-3.689,2.312-3.887C508.996,95.716,510.414,97.136,510.646,99.083z"/>
		<ellipse fill="#FFFFFF" cx="551.105" cy="93.909" rx="2.899" ry="3.506"/>
		<path fill="#FFFFFF" d="M519.113,127.142l1.328-1.574c-3.849-3.244-3.83-4.025,0.252-11.939
			c4.229-8.199,2.662-25.641,2.592-26.381l-2.051,0.191c0.018,0.176,1.582,17.58-2.371,25.248
			C514.805,120.554,513.957,122.79,519.113,127.142z"/>
		<path fill="#FFFFFF" d="M533.963,123.19c1.74-6.213-2.729-9.359-5.342-10.154l-0.602,1.967c0.571,0.18,5.562,1.92,3.959,7.631
			L533.963,123.19z"/>
		<path fill="#FFFFFF" d="M512.59,145.253c0,0,10.719-5.41,14.354-4.287c3.641,1.131,7.145-1.689,11.836,0.723
			c4.694,2.408,8.592,2.436,8.592,2.436s-6.072,6.77-18.492,6.996C528.877,151.12,513.693,150.218,512.59,145.253z"/>
		<path fill="#FFFFFF" d="M511.586,145.474l-0.119-0.541l0.387-0.396c0.314-0.326,7.814-7.957,16.388-8.656
			c1.233-0.102,2.354-0.15,3.416-0.15c6.41,0,10.953,1.738,17.996,6.887l0.541,0.395l-0.146,0.652
			c-0.02,0.107-2.455,10.723-16.871,12.092c-1.395,0.133-2.766,0.199-4.078,0.199c0,0,0,0-0.002,0
			C519.289,155.954,513.07,152.231,511.586,145.474z M528.404,137.933c-6.738,0.551-13.047,6.111-14.672,7.646
			c1.862,6.854,9.34,8.314,15.364,8.314c1.248,0,2.558-0.062,3.886-0.189c11.03-1.047,14.151-7.73,14.868-9.846
			C540.416,138.522,535.963,137.312,528.404,137.933z"/>
		<path fill="#FFFFFF" d="M539.613,77.304c0,0-2.101,1.291,1.729,3.012c3.824,1.723,13.881-6.705,20.188-2.049
			c4.42,3.26,3.651,1.621,0.34-3.115C558.555,70.421,543.586,74.722,539.613,77.304z"/>
		<path fill="#FFFFFF" d="M516.385,81.636c0,0,1.863,1.129-1.188,3.131c-3.066,2.002-12.189-5.635-17.072-0.523
			c-3.434,3.588-2.922,1.896-0.543-3.07C499.957,76.208,512.842,79.362,516.385,81.636z"/>
		<path fill="#FFFFFF" d="M586.861,118.384c0.854,0,1.59-0.197,2.188-0.455c4.574-1.979,6.99-9.936,7.355-16.943
			c0.125-2.393,0.235-10.373-3.541-12.5c-7.404-4.164-14.756,7.203-15.066,7.688l1.738,1.105c0.062-0.102,6.6-10.207,12.313-6.996
			c1.771,0.994,2.775,5.254,2.496,10.598c-0.332,6.361-2.541,13.611-6.117,15.158c-1.532,0.664-3.28,0.172-5.215-1.461l-1.328,1.574
			C583.689,117.843,585.439,118.384,586.861,118.384z"/>
		<path fill="#FFFFFF" d="M593.367,402.097c-0.15-2.006,0.504-3.955,1.838-5.496c1.404-1.616,3.379-2.596,5.564-2.743
			c4.422-0.289,8.221,2.94,8.53,7.139c0.148,2.006-0.506,3.961-1.846,5.502c-1.404,1.617-3.379,2.588-5.555,2.736
			c-0.197,0.012-0.394,0.02-0.584,0.02l0,0C597.16,409.251,593.664,406.106,593.367,402.097z M600.91,395.911
			c-1.633,0.106-3.107,0.836-4.148,2.037c-0.975,1.125-1.449,2.541-1.34,3.996c0.229,3.08,3.014,5.481,6.338,5.229
			c1.631-0.104,3.103-0.83,4.146-2.029c0.975-1.12,1.45-2.545,1.346-4c-0.221-2.94-2.816-5.25-5.908-5.25
			C601.197,395.896,601.053,395.901,600.91,395.911z"/>
		<path fill="#FFFFFF" d="M596.018,433.503c-0.146-1.998,0.498-3.947,1.83-5.486c1.404-1.625,3.386-2.604,5.574-2.758
			c4.426-0.285,8.217,2.941,8.535,7.142c0.146,2.006-0.51,3.957-1.846,5.493c-1.404,1.617-3.375,2.597-5.558,2.746
			c-0.188,0.015-0.379,0.021-0.562,0.021c-0.002,0-0.002,0-0.002,0C599.82,440.657,596.318,437.515,596.018,433.503z
			 M603.562,427.312c-1.64,0.114-3.113,0.846-4.158,2.051c-0.972,1.123-1.443,2.537-1.332,3.983c0.229,3.08,3.147,5.455,6.342,5.234
			c1.629-0.113,3.1-0.838,4.141-2.039c0.979-1.123,1.455-2.543,1.354-3.994c-0.228-2.94-2.822-5.25-5.914-5.25
			C603.85,427.3,603.705,427.304,603.562,427.312z"/>
	</g>
	<g>
		<path fill="#FFFFFF" d="M446.188,228.896c-0.112,0.271-0.262,0.773-0.436,1.453L11.907,149.905l420.739,157.229
			c-0.109,0.689-0.224,1.383-0.328,2.076L12.599,152.36l408.47,229.68c-0.109,0.723-0.222,1.453-0.328,2.176L0,147.642l0.505-0.898
			l0.188-1.012l445.714,82.645C446.332,228.555,446.254,228.739,446.188,228.896z"/>
		<path fill="#FFFFFF" d="M676.928,273.214c-0.07-0.715-0.143-1.428-0.213-2.135l121.473,22.524l-0.377,2.023L676.928,273.214z"/>
		<path fill="#FFFFFF" d="M688.918,402.899l109.441,40.896l-0.724,1.93L689.188,405.2
			C689.098,404.435,689.006,403.673,688.918,402.899z"/>
		<polygon fill="#FFFFFF" points="531.789,446.358 531.662,446.585 531.264,446.36 		"/>
	</g>
	<g>
		<path fill="#FFFFFF" d="M0.317,293.604l495.767-91.928c0.33,0.68,0.688,1.318,1.066,1.898L0.692,295.63L0.317,293.604z"/>
		<path fill="#FFFFFF" d="M667.498,220.122c-0.285-0.248-0.561-0.475-0.84-0.711l119.248-67.051l-153.688,57.434
			c-1.108-0.238-2.262-0.539-3.449-0.91l157.828-58.979l-156.35,28.99c0.031-0.793,0.047-1.492,0.043-2.104l167.521-31.061
			l0.188,1.012l0.506,0.898l-130.35,73.293C667.938,220.604,667.719,220.317,667.498,220.122z"/>
		<path fill="#FFFFFF" d="M436.891,280.587c-0.123,0.777-0.25,1.554-0.377,2.343L0.865,445.728l-0.72-1.93L436.891,280.587z"/>
		<path fill="#FFFFFF" d="M424.768,357.788l-157.927,88.797l-1.009-1.793L425.164,355.2
			C425.031,356.062,424.898,356.927,424.768,357.788z"/>
	</g>
</g>
</svg>
