<?xml version="1.0" encoding="utf-8"?>
<!-- Generator: Adobe Illustrator 15.0.2, SVG Export Plug-In . SVG Version: 6.00 Build 0)  -->
<!DOCTYPE svg PUBLIC "-//W3C//DTD SVG 1.1//EN" "http://www.w3.org/Graphics/SVG/1.1/DTD/svg11.dtd">
<svg version="1.1" id="Layer_3" xmlns="http://www.w3.org/2000/svg" xmlns:xlink="http://www.w3.org/1999/xlink" x="0px" y="0px"
	 width="800px" height="450px" viewBox="0 0 800 450" enable-background="new 0 0 800 450" xml:space="preserve">
<g>
	<g>
		<path fill="#FFFFFF" d="M721.689,333.297c-0.273-0.527-6.765-13.229-7.677-41.957c-0.942-29.777,1.802-61.705,6.673-77.645
			l1.969,0.601c-4.812,15.749-7.521,47.403-6.58,76.979c0.895,28.182,7.375,40.938,7.438,41.065L721.689,333.297z"/>
		<path fill="#FFFFFF" d="M516.334,448.256c0,0-4.039-20.885-6.324-32.32c-2.19-10.979-11.971-20.646-12.065-20.741l1.438-1.474
			c0.418,0.408,10.326,10.197,12.646,21.812c2.287,11.438,6.328,32.334,6.328,32.334L516.334,448.256z"/>
		<path fill="#FFFFFF" d="M735.279,123.177c-0.23-11.418-7.414-33.816-7.488-34.042c-5.973-21.722-32.824-62.946-61.832-87.44
			l1.328-1.572c29.293,24.734,56.439,66.453,62.477,88.425c0.287,0.887,7.336,22.871,7.574,34.587L735.279,123.177z"/>
		<path fill="#FFFFFF" d="M509.752,395.842c-4.547,0-8.734-0.145-12.52-0.276c-4.763-0.164-8.869-0.308-12.351-0.138
			c-23.803,1.244-35.319-41.176-42.196-66.477c-1.388-5.094-2.58-9.492-3.582-12.355c-5.625-16.066-17.646-74.127-21.599-93.206
			l-0.326-1.579c-1.762-8.516-1.155-16.724-0.625-23.968c0.611-8.312,1.144-15.488-1.672-21.551
			c-5.771-12.452-12.018-43.861-10.256-57.728c1.799-14.136,9.877-36.035,9.955-36.255l0.072,0.026
			c2.021-4.544,26.875-54.323,79.194-82.336l0.976,1.815c-53.494,28.64-78.101,80.761-78.34,81.284
			c-0.054,0.144-8.046,21.823-9.812,35.724c-1.727,13.575,4.41,44.375,10.08,56.602c3.035,6.548,2.463,14.33,1.855,22.568
			c-0.55,7.457-1.115,15.166,0.59,23.398l0.325,1.58c3.941,19.045,15.939,77.004,21.521,92.942
			c1.027,2.934,2.232,7.365,3.625,12.496c6.195,22.793,17.662,64.979,39.287,64.979c0.272,0,0.547-0.006,0.824-0.021
			c3.562-0.174,7.717-0.029,12.521,0.139c23.535,0.822,62.935,2.191,106.188-35.326c47.459-41.164,54.512-70.815,59.657-92.471
			c0.689-2.903,1.345-5.646,2.056-8.233l0.178-0.355c0.287-0.371,7.246-9.174,28.269-18.512
			c17.739-7.877,33.399-29.795,46.549-65.147c6.99-18.797,6.176-37.416-2.076-47.432c-4.859-5.896-11.886-8.274-20.314-6.883
			c-23.518,3.893-25.197,9.688-25.215,9.746l-2.029-0.338c0.104-0.732,1.736-7.273,26.908-11.439
			c9.197-1.521,16.892,1.108,22.238,7.604c8.715,10.572,9.664,29.987,2.42,49.461c-13.539,36.396-29.121,58.088-47.645,66.313
			c-19.015,8.441-26.353,16.557-27.354,17.738c-0.68,2.494-1.311,5.147-1.979,7.955c-5.215,21.925-12.354,51.95-60.312,93.551
			C567.938,391.744,533.84,395.842,509.752,395.842z"/>
		<path fill="#FFFFFF" d="M503.773,149.211l-1.716-1.142c0.267-0.396,6.574-9.701,16.24-10.42c8.277-0.609,20.103,2.471,27.17,4.313
			c1.008,0.264,1.918,0.5,2.699,0.696l-0.498,1.996c-0.787-0.195-1.703-0.435-2.721-0.699c-6.945-1.81-18.558-4.837-26.498-4.254
			C509.779,140.348,503.832,149.122,503.773,149.211z"/>
		<path fill="#FFFFFF" d="M511.281,140.956c0,0-1.494,13.197,8.812,13.54c10.308,0.343,13.646-5.024,12.318-14.544
			C532.412,139.952,522.74,136.36,511.281,140.956z"/>
		<path fill="#FFFFFF" d="M516.938,155.892c-6.608,0-10.401-1.724-10.68-1.854l0.875-1.864c0.111,0.055,11.539,5.169,29.713-3.097
			l0.854,1.875C529.234,154.802,522.193,155.892,516.938,155.892z"/>
		<path fill="#FFFFFF" d="M418.326,164.89l-1.531-1.377c12.184-13.541,30.574-8.678,30.76-8.628l-0.547,1.985
			C446.836,156.821,429.646,152.305,418.326,164.89z"/>
		<path fill="#FFFFFF" d="M422.941,159.594c0,0-1.021,11.341,9.479,11.739c0,0,10.109-0.975,6.938-16.337
			C439.359,154.996,431.889,153.801,422.941,159.594z"/>
		<path fill="#FFFFFF" d="M426.402,172.645c-2.207,0-3.56-0.272-3.703-0.304l0.428-2.016c0.092,0.019,9.078,1.793,19.658-4.627
			l1.068,1.761C436.672,171.817,430.24,172.645,426.402,172.645z"/>
		<path fill="#FFFFFF" d="M446.949,248.367c-18.322-6.227-14.467-25.642-12.851-31.444c1.029-3.692,3.537-12.11,6.189-21.021
			c3.221-10.828,6.875-23.102,8.33-28.427c2.598-9.519,4.646-18.869,4.67-18.962l2.01,0.44c-0.02,0.093-2.08,9.493-4.69,19.065
			c-1.461,5.348-5.117,17.631-8.347,28.47c-2.646,8.903-5.149,17.312-6.178,20.987c-1.496,5.363-5.086,23.298,11.525,28.94
			L446.949,248.367z"/>
		<path fill="#FFFFFF" d="M494.836,242.795l-1.021-1.789c5.354-3.061,8.321-9.205,7.938-16.435
			c-0.412-7.859-16.014-12.284-16.172-12.328l0.551-1.984c0.703,0.195,17.191,4.881,17.683,14.203
			C504.236,232.486,500.881,239.338,494.836,242.795z"/>
		<path fill="#FFFFFF" d="M485.861,241.9c0,0-10.066-7.318-16.931-4.574C462.074,240.072,468.479,247.391,485.861,241.9z"/>
		<path fill="#FFFFFF" d="M456.584,246.984c0,0-4.803-6.16-9.254-3.498C442.877,246.148,446.133,251.25,456.584,246.984z"/>
		<path fill="#FFFFFF" d="M491.203,448.783c-3.375-23.51,0.457-53.91,0.498-54.215l2.043,0.264
			c-0.041,0.303-3.836,30.43-0.502,53.656L491.203,448.783z"/>
		<path fill="#FFFFFF" d="M724.934,448.777l-1.479-1.438c31.42-32.342,42.104-66.156,41.707-85.285
			c-0.107-5.215-1.119-7.993-2.029-8.854c-3.879-3.676-5.68-6.371-9.625-12.279c-2.146-3.213-4.813-7.213-8.809-12.885
			c-6.229-8.854-8.666-14.148-10.279-17.654c-1.4-3.041-2.244-4.875-4.502-6.864c-3.812-3.367-10.598-3.722-13.268-3.722
			c-0.021,0-0.039,0-0.06,0c0.156,1.604,0.445,4.517,0.584,5.656c0.31,2.537,1.775,4.197,3.478,6.121
			c2.791,3.16,5.953,6.74,4.774,14.979c-1.871,13.078-23.959,49.16-40.75,66.564c-6.955,7.209-23.881,22.352-65.01,53.555
			c-0.98,0.746-1.631,1.236-1.889,1.438l-1.267-1.627c0.263-0.203,0.916-0.699,1.906-1.451
			c41.023-31.123,57.869-46.188,64.775-53.346c16.576-17.187,38.364-52.648,40.188-65.429c1.043-7.297-1.662-10.358-4.279-13.324
			c-1.768-2-3.592-4.062-3.975-7.233c-0.197-1.621-0.699-6.811-0.699-6.811l-0.102-1.062l1.062-0.063
			c0.421-0.023,10.439-0.601,15.884,4.205c2.584,2.278,3.551,4.374,5.012,7.549c1.676,3.645,3.971,8.633,10.094,17.329
			c4.004,5.693,6.686,9.703,8.834,12.929c3.977,5.946,5.619,8.41,9.33,11.928c1.617,1.531,2.566,5.193,2.672,10.307
			C767.625,381.539,756.797,415.98,724.934,448.777z"/>
		<path fill="#FFFFFF" d="M796.109,376.723c-9.111-1.776-23.188-18.215-27.015-23.678c-1.291-1.842-2.635-2.836-3.989-2.959
			c-1.535-0.125-2.67,0.93-2.683,0.941l-1.451-1.463c0.072-0.07,1.81-1.759,4.316-1.529c1.99,0.178,3.838,1.467,5.492,3.83
			c4.252,6.069,17.69,21.27,25.721,22.836L796.109,376.723z"/>
		<path fill="#FFFFFF" d="M758.584,449.422l-1.33-1.572c0.188-0.157,19.01-16.268,38.168-48.948l1.775,1.041
			C777.848,432.955,758.773,449.26,758.584,449.422z"/>
		<path fill="#FFFFFF" d="M466.193,447.51l-1.229-1.656c7.576-5.604,24.688-15.807,24.861-15.907l1.055,1.77
			C490.711,431.812,473.686,441.965,466.193,447.51z"/>
		<path fill="#FFFFFF" d="M682.098,227.979c-1.562,0-2.569-0.41-2.676-0.453l0.795-1.897c0.217,0.084,5.318,2.034,10.666-5.37
			c2.973-4.117,7.516-6.156,12.33-8.315c5.357-2.405,10.898-4.892,15.521-10.492c8.746-10.605,18.151-53.797,17.694-62.78
			c-0.149-3.049-1.498-5.377-3.887-6.734c-4.062-2.303-10.49-1.555-17.199,2.004c-7.84,4.156-16.815,21.266-21.873,32.058
			c2.021-2.292,4.148-4.164,5.957-4.083c0.699,0.02,1.672,0.312,2.349,1.588c0.512,0.963,1.312,2.223,2.244,3.682
			c4.112,6.444,10.332,16.185,5.434,22.299c-3.176,3.969-7.393,6.184-11.463,8.326c-3.187,1.674-6.478,3.406-9.23,5.967
			c-3.479,3.228-8.362,6.381-10.692,4.631c-1.582-1.184-1.31-3.844,0.838-8.133c4.842-9.686,4.928-20.192,1.975-23.566l1.552-1.355
			c3.454,3.947,3.602,15.273-1.685,25.843c-1.981,3.968-1.717,5.361-1.445,5.562c0.64,0.482,3.88-0.611,8.062-4.492
			c2.955-2.746,6.369-4.543,9.674-6.279c4.064-2.139,7.904-4.158,10.814-7.791c3.979-4.964-1.765-13.955-5.562-19.904
			c-0.957-1.496-1.781-2.789-2.33-3.825c-0.254-0.483-0.479-0.491-0.584-0.493c-2.056-0.033-7.211,6.657-9.976,11.22l-1.837-0.92
			c0.591-1.453,14.55-35.646,26.817-42.153c7.336-3.891,14.508-4.627,19.183-1.975c2.989,1.699,4.739,4.688,4.932,8.421
			c0.477,9.414-8.951,53.021-18.166,64.196c-4.932,5.972-10.951,8.675-16.27,11.06c-4.75,2.132-8.854,3.973-11.503,7.642
			C688.621,226.902,684.635,227.979,682.098,227.979z"/>
		<path fill="#FFFFFF" d="M498.701,93.103c0,0-6.961,4.888-4.359,7.709c2.596,2.822,5.066,6.35,6.125,5.998
			c1.062-0.354,10.324-3.177,14.863-7.057c4.541-3.881,20.062-8.819,25.707-9.879c5.645-1.057,22.932-6.35,28.928-3.881
			c5.996,2.471-4.234-8.466-17.287-6.35C539.625,81.761,507.971,85.993,498.701,93.103z"/>
		<path fill="#FFFFFF" d="M432.959,115.276c0,0,3.438,5.288,2.135,8.111c-1.305,2.824-6.244-3.527-15.414-2.468
			c-9.174,1.058-14.19,3.2-14.19,3.2s1.262-10.865,1.729-12.59C407.686,109.804,426.486,110.688,432.959,115.276z"/>
		<path fill="#FFFFFF" d="M501.814,279.252c-20.232-6.615-24.75,2.207-33.287,1.615c-8.539-0.592-12.084,9.975-12.084,9.975
			c-2.699,5.023-0.441,5.234,6.653,13.049c7.104,7.812,37.304,7.175,51.699-1.729s16.652-14.287,16.652-14.287
			S522.049,285.869,501.814,279.252z M508.729,283.305c-17.055,4.947-51.09,9.746-51.09,9.746s3.545-10.562,12.084-9.971
			s13.06-8.232,33.287-1.617c2.025,0.662,3.91,1.268,5.719,1.84V283.305z"/>
		<path fill="#FFFFFF" d="M489.156,324.096c-12.631,0-23.785-4.174-29.844-11.166c-4.5-5.192-6.228-11.707-5.125-19.354
			c0.647-3.428,4.139-20.346,9.87-21.34c1.423-0.244,2.687-0.736,4.148-1.312c2.945-1.146,6.609-2.573,13.348-2.573
			c1.816,0,3.806,0.104,5.906,0.312c14.723,1.453,43.289,17.623,44.498,18.312l0.688,0.393l-0.199,0.764
			c-0.238,0.914-6.025,22.479-23.496,31.723C503.852,322.547,496.637,324.096,489.156,324.096z M481.557,270.412
			c-6.35,0-9.67,1.291-12.602,2.434c-1.502,0.586-2.92,1.137-4.543,1.42c-3.184,0.553-6.707,11.822-8.193,19.648
			c-1.004,6.984,0.56,12.943,4.65,17.666c5.67,6.547,16.246,10.457,28.287,10.457c7.151,0,14.018-1.461,18.832-4.008
			c14.869-7.867,21.049-25.762,22.244-29.662c-4.562-2.535-29.935-16.367-42.976-17.654
			C485.225,270.514,483.307,270.412,481.557,270.412z"/>
		<path fill="#FFFFFF" d="M546.926,287.023c-0.063-0.248-6.699-25.004-19.729-38.931c-13.258-14.161-35.574-44.239-35.799-44.54
			l1.653-1.227c0.226,0.301,22.474,30.277,35.646,44.355c13.391,14.312,19.94,38.777,20.217,39.812L546.926,287.023z"/>
		<path fill="#FFFFFF" d="M444.504,296.738c-9.527-15.971,1.336-48.312,1.803-49.682l1.947,0.668
			c-0.109,0.323-11.021,32.805-1.982,47.957L444.504,296.738z"/>
		<path fill="#FFFFFF" d="M724.195,336.594"/>
	</g>
	<g>
		<path fill="#FFFFFF" d="M266.861,442.83H264.8v-10.299h2.061V442.83z M266.861,422.234H264.8v-10.302h2.061V422.234z
			 M266.861,401.639H264.8v-10.295h2.061V401.639z M266.861,381.047H264.8v-10.299h2.061V381.047z M266.861,360.451H264.8v-10.297
			h2.061V360.451z M266.861,339.857H264.8v-10.302h2.061V339.857z M266.861,319.262H264.8v-10.297h2.061V319.262z M266.861,298.668
			H264.8v-10.299h2.061V298.668z M266.861,278.072H264.8v-10.297h2.061V278.072z M266.861,257.479H264.8v-10.297h2.061V257.479z
			 M266.861,236.885H264.8v-10.299h2.061V236.885z M266.861,216.288H264.8v-10.297h2.061V216.288z M266.861,195.694H264.8v-10.297
			h2.061V195.694z M266.861,175.099H264.8v-10.297h2.061V175.099z M266.861,154.505H264.8v-10.298h2.061V154.505z M266.861,133.91
			H264.8v-10.298h2.061V133.91z M266.861,113.315H264.8v-10.297h2.061V113.315z M266.861,92.721H264.8V82.423h2.061V92.721z
			 M266.861,72.126H264.8V61.829h2.061V72.126z M266.861,51.531H264.8V41.233h2.061V51.531z M266.861,30.937H264.8V20.64h2.061
			V30.937z M266.861,10.343H264.8V0.045h2.061V10.343z"/>
		<rect x="528.57" y="0.907" fill="#FFFFFF" width="6.18" height="447.148"/>
		<rect y="146.487" fill="#FFFFFF" width="797.492" height="6.178"/>
		<g>
			<rect y="298.076" fill="#FFFFFF" width="5.148" height="2.059"/>
			<path fill="#FFFFFF" d="M782.121,300.135h-10.223v-2.059h10.223V300.135z M761.674,300.135h-10.225v-2.059h10.225V300.135z
				 M741.227,300.135h-10.223v-2.059h10.223V300.135z M720.781,300.135h-10.226v-2.059h10.226V300.135z M700.334,300.135h-10.223
				v-2.059h10.223V300.135z M679.889,300.135h-10.225v-2.059h10.225V300.135z M659.439,300.135h-10.226v-2.059h10.226V300.135z
				 M638.994,300.135h-10.223v-2.059h10.223V300.135z M618.549,300.135h-10.227v-2.059h10.227V300.135z M598.1,300.135h-10.223
				v-2.059H598.1V300.135z M577.654,300.135H567.43v-2.059h10.228L577.654,300.135L577.654,300.135z M557.207,300.135h-10.223
				v-2.059h10.223V300.135z M536.762,300.135h-10.223v-2.059h10.223V300.135z M516.312,300.135H506.09v-2.059h10.223V300.135
				L516.312,300.135z M495.867,300.135h-10.223v-2.059h10.223V300.135z M475.42,300.135h-10.225v-2.059h10.225V300.135z
				 M454.973,300.135H444.75v-2.059h10.223V300.135z M434.527,300.135H424.3v-2.059h10.228V300.135z M414.08,300.135h-10.223v-2.059
				h10.223V300.135z M393.635,300.135H383.41v-2.059h10.225V300.135z M373.188,300.135h-10.223v-2.059h10.223V300.135z
				 M352.74,300.135h-10.223v-2.059h10.223V300.135z M332.293,300.135H322.07v-2.059h10.223V300.135z M311.848,300.135h-10.223
				v-2.059h10.223V300.135z M291.402,300.135h-10.227v-2.059h10.227V300.135z M270.953,300.135H260.73v-2.059h10.223V300.135z
				 M250.508,300.135h-10.225v-2.059h10.225V300.135z M230.061,300.135h-10.223v-2.059h10.223V300.135z M209.615,300.135h-10.223
				v-2.059h10.223V300.135z M189.166,300.135h-10.223v-2.059h10.223V300.135z M168.721,300.135h-10.223v-2.059h10.223
				L168.721,300.135L168.721,300.135z M148.275,300.135H138.05v-2.059h10.225V300.135L148.275,300.135z M127.828,300.135h-10.223
				v-2.059h10.223V300.135z M107.381,300.135H97.156v-2.059h10.225V300.135z M86.934,300.135H76.711v-2.059h10.223V300.135z
				 M66.488,300.135H56.266v-2.059h10.223v2.059H66.488z M46.041,300.135H35.818v-2.059h10.223V300.135z M25.594,300.135H15.371
				v-2.059h10.223V300.135z"/>
			<rect x="792.344" y="298.076" fill="#FFFFFF" width="5.148" height="2.059"/>
		</g>
	</g>
</g>
</svg>
