<?xml version="1.0" encoding="utf-8"?>
<!-- Generator: Adobe Illustrator 15.0.2, SVG Export Plug-In . SVG Version: 6.00 Build 0)  -->
<!DOCTYPE svg PUBLIC "-//W3C//DTD SVG 1.1//EN" "http://www.w3.org/Graphics/SVG/1.1/DTD/svg11.dtd">
<svg version="1.1" id="Layer_3" xmlns="http://www.w3.org/2000/svg" xmlns:xlink="http://www.w3.org/1999/xlink" x="0px" y="0px"
	 width="800px" height="450px" viewBox="0 0 800 450" enable-background="new 0 0 800 450" xml:space="preserve">
<g>
	<g>
		<path fill="#FFFFFF" d="M75.803,332.297l-1.826-0.953c0.066-0.127,6.547-12.887,7.443-41.07c0.938-29.57-1.77-61.229-6.582-76.978
			l1.969-0.601c4.871,15.938,7.615,47.868,6.67,77.643C82.562,319.064,76.078,331.77,75.803,332.297z"/>
		<path fill="#FFFFFF" d="M281.156,447.256l-2.021-0.391c0,0,4.039-20.896,6.326-32.334c2.32-11.613,12.229-21.402,12.648-21.812
			l1.439,1.475c-0.098,0.098-9.875,9.764-12.068,20.74C285.197,426.371,281.156,447.256,281.156,447.256z"/>
		<path fill="#FFFFFF" d="M62.215,122.177l-2.061-0.043c0.238-11.716,7.287-33.7,7.586-34.631
			c6.025-21.928,33.172-63.646,62.465-88.381l1.33,1.572c-29.008,24.494-55.861,65.719-61.82,87.397
			C69.627,88.36,62.443,110.762,62.215,122.177z"/>
		<path fill="#FFFFFF" d="M287.742,394.842c-24.09,0.002-58.184-4.096-95.092-36.104c-47.959-41.602-55.1-71.627-60.312-93.551
			c-0.668-2.809-1.299-5.461-1.979-7.955c-1.002-1.186-8.34-9.297-27.354-17.738c-18.521-8.227-34.104-29.917-47.643-66.313
			c-7.244-19.474-6.295-38.889,2.42-49.461c5.354-6.495,13.043-9.132,22.238-7.604c25.172,4.166,26.805,10.707,26.908,11.439
			l-2.041,0.288l1.021-0.144l-1.01,0.193c-0.014-0.058-1.697-5.854-25.215-9.746c-8.432-1.391-15.455,0.986-20.312,6.883
			c-8.254,10.016-9.07,28.635-2.078,47.432c13.146,35.353,28.809,57.271,46.547,65.148c21.021,9.336,27.982,18.14,28.268,18.511
			l0.18,0.356c0.711,2.588,1.363,5.33,2.053,8.231c5.148,21.649,12.199,51.307,59.658,92.471
			c43.256,37.52,82.648,36.145,106.188,35.326c4.807-0.168,8.959-0.312,12.521-0.139c22.242,1.146,33.836-41.877,40.111-64.959
			c1.393-5.131,2.598-9.562,3.625-12.496c5.58-15.938,17.578-73.896,21.521-92.942l0.326-1.58c1.705-8.232,1.137-15.941,0.59-23.398
			c-0.607-8.238-1.182-16.021,1.855-22.568c5.67-12.227,11.807-43.026,10.08-56.602c-1.768-13.9-9.762-35.58-9.842-35.797
			c-0.213-0.45-24.816-52.571-78.309-81.211L303.639-1c52.322,28.013,77.176,77.792,79.197,82.336l0.07-0.026
			c0.082,0.22,8.158,22.119,9.957,36.255c1.762,13.866-4.482,45.275-10.256,57.728c-2.812,6.062-2.283,13.239-1.672,21.551
			c0.533,7.244,1.137,15.452-0.625,23.968l-0.326,1.579c-3.949,19.079-15.971,77.14-21.594,93.206
			c-1.004,2.863-2.199,7.266-3.584,12.355c-6.781,24.955-18.076,66.494-41.238,66.498c-0.316,0-0.637-0.006-0.961-0.021
			c-3.48-0.174-7.59-0.025-12.348,0.139C296.477,394.697,292.285,394.842,287.742,394.842z"/>
		<path fill="#FFFFFF" d="M293.721,148.212c-0.061-0.088-6.031-8.865-14.682-9.51c-7.924-0.586-19.553,2.444-26.498,4.254
			c-1.018,0.265-1.932,0.504-2.721,0.699l-0.498-1.996c0.781-0.196,1.691-0.433,2.701-0.696c7.068-1.843,18.904-4.933,27.166-4.313
			c9.668,0.719,15.979,10.023,16.242,10.42L293.721,148.212z"/>
		<path fill="#FFFFFF" d="M286.211,139.956c0,0,1.494,13.197-8.812,13.54c-10.306,0.343-13.645-5.024-12.318-14.544
			C265.08,138.952,274.752,135.36,286.211,139.956z"/>
		<path fill="#FFFFFF" d="M280.555,154.892c-5.256,0-12.293-1.09-20.762-4.939l0.854-1.875c18.176,8.263,29.602,3.148,29.713,3.097
			l0.877,1.864C290.959,153.168,287.164,154.892,280.555,154.892z"/>
		<path fill="#FFFFFF" d="M379.166,163.89c-11.34-12.607-28.51-8.068-28.682-8.02l-0.547-1.985c0.186-0.05,18.578-4.916,30.76,8.628
			L379.166,163.89z"/>
		<path fill="#FFFFFF" d="M374.551,158.594c0,0,1.021,11.341-9.48,11.739c0,0-10.107-0.975-6.938-16.337
			C358.133,153.996,365.605,152.801,374.551,158.594z"/>
		<path fill="#FFFFFF" d="M371.09,171.645c-3.838,0-10.268-0.825-17.449-5.186l1.068-1.761c10.576,6.421,19.566,4.646,19.656,4.627
			l0.426,2.016C374.646,171.372,373.295,171.645,371.09,171.645z"/>
		<path fill="#FFFFFF" d="M350.543,247.367l-0.662-1.951c16.611-5.643,13.021-23.577,11.527-28.94
			c-1.025-3.675-3.531-12.084-6.18-20.987c-3.225-10.839-6.881-23.122-8.344-28.47c-2.613-9.572-4.674-18.973-4.695-19.065
			l2.012-0.44c0.021,0.093,2.072,9.443,4.67,18.962c1.455,5.325,5.109,17.599,8.33,28.427c2.654,8.911,5.16,17.329,6.189,21.021
			C365.01,221.726,368.865,241.141,350.543,247.367z"/>
		<path fill="#FFFFFF" d="M302.656,241.795c-6.043-3.457-9.4-10.311-8.979-18.333c0.49-9.322,16.979-14.008,17.68-14.203
			l0.551,1.984c-0.156,0.044-15.76,4.479-16.172,12.328c-0.383,7.229,2.588,13.375,7.941,16.435L302.656,241.795z"/>
		<path fill="#FFFFFF" d="M311.633,240.9c0,0,10.066-7.318,16.926-4.574C335.42,239.072,329.016,246.391,311.633,240.9z"/>
		<path fill="#FFFFFF" d="M340.908,245.984c0,0,4.803-6.16,9.254-3.498C354.615,245.148,351.359,250.25,340.908,245.984z"/>
		<path fill="#FFFFFF" d="M306.289,447.783l-2.039-0.295c3.334-23.229-0.461-53.354-0.502-53.656l2.043-0.264
			C305.832,393.873,309.664,424.273,306.289,447.783z"/>
		<path fill="#FFFFFF" d="M72.561,447.777c-31.863-32.797-42.693-67.238-42.287-86.77c0.104-5.109,1.053-8.771,2.67-10.307
			c3.711-3.518,5.355-5.979,9.33-11.928c2.152-3.227,4.828-7.232,8.836-12.93c6.121-8.695,8.416-13.688,10.094-17.33
			c1.461-3.174,2.424-5.27,5.01-7.549c5.439-4.805,15.465-4.229,15.883-4.205l1.062,0.066l-0.102,1.059c0,0-0.5,5.188-0.697,6.812
			c-0.385,3.17-2.209,5.23-3.975,7.23c-2.619,2.966-5.324,6.027-4.283,13.324c1.826,12.777,23.613,48.242,40.193,65.43
			c6.906,7.154,23.75,22.223,64.773,53.346c0.99,0.752,1.648,1.248,1.906,1.45l-1.262,1.628c-0.258-0.201-0.91-0.691-1.889-1.438
			c-41.129-31.203-58.057-46.346-65.012-53.555c-16.789-17.404-38.879-53.486-40.75-66.564c-1.176-8.237,1.988-11.816,4.777-14.979
			c1.699-1.925,3.168-3.584,3.473-6.119c0.141-1.144,0.43-4.054,0.586-5.658c-0.018,0-0.037,0-0.057,0
			c-2.67,0-9.453,0.354-13.266,3.722c-2.258,1.989-3.104,3.823-4.502,6.864c-1.613,3.506-4.051,8.801-10.283,17.654
			c-3.99,5.672-6.66,9.672-8.807,12.885c-3.945,5.908-5.746,8.604-9.625,12.279c-0.91,0.858-1.92,3.641-2.029,8.854
			c-0.394,19.134,10.289,52.948,41.709,85.29L72.561,447.777z"/>
		<path fill="#FFFFFF" d="M1.381,375.723l-0.393-2.021c8.027-1.566,21.469-16.765,25.721-22.836c1.654-2.363,3.504-3.652,5.492-3.83
			c2.51-0.229,4.246,1.459,4.316,1.529l-1.451,1.463c-0.006-0.012-1.168-1.102-2.705-0.939c-1.35,0.133-2.682,1.127-3.965,2.957
			C24.57,357.508,10.494,373.943,1.381,375.723z"/>
		<path fill="#FFFFFF" d="M38.908,448.422c-0.189-0.162-19.264-16.467-38.611-49.479l1.775-1.041
			c19.156,32.684,37.979,48.791,38.166,48.947L38.908,448.422z"/>
		<path fill="#FFFFFF" d="M331.301,446.51c-7.494-5.545-24.52-15.693-24.689-15.797l1.053-1.77
			c0.174,0.104,17.285,10.303,24.861,15.91L331.301,446.51z"/>
		<path fill="#FFFFFF" d="M115.395,226.979c-2.535,0-6.521-1.071-10.455-6.52c-2.648-3.668-6.752-5.509-11.502-7.641
			c-5.314-2.385-11.338-5.088-16.268-11.06c-9.215-11.175-18.643-54.782-18.166-64.196c0.189-3.732,1.939-6.722,4.93-8.421
			c4.672-2.656,11.844-1.916,19.182,1.975c12.27,6.508,26.229,40.7,26.818,42.153l-1.836,0.92c-2.832-4.675-7.773-11.22-9.943-11.22
			c-0.01,0-0.02,0-0.029,0c-0.107,0.002-0.33,0.01-0.586,0.493c-0.549,1.036-1.373,2.329-2.328,3.825
			c-3.801,5.949-9.541,14.94-5.564,19.904c2.91,3.633,6.75,5.652,10.816,7.791c3.303,1.736,6.719,3.533,9.674,6.279
			c4.18,3.881,7.422,4.973,8.059,4.492c0.271-0.202,0.537-1.596-1.445-5.563c-5.283-10.569-5.137-21.896-1.684-25.843l1.551,1.355
			c-2.953,3.374-2.865,13.881,1.975,23.566c2.146,4.289,2.42,6.949,0.84,8.133c-2.332,1.75-7.219-1.403-10.697-4.631
			c-2.756-2.561-6.047-4.293-9.23-5.967c-4.072-2.143-8.285-4.357-11.465-8.326c-4.898-6.114,1.32-15.854,5.436-22.299
			c0.932-1.459,1.734-2.719,2.244-3.682c0.674-1.275,1.646-1.568,2.346-1.588c1.77-0.086,3.936,1.791,5.955,4.082
			c-5.055-10.793-14.033-27.902-21.869-32.057c-6.711-3.561-13.143-4.307-17.201-2.004c-2.389,1.357-3.734,3.688-3.887,6.734
			c-0.457,8.983,8.949,52.175,17.695,62.78c4.623,5.601,10.164,8.087,15.523,10.492c4.812,2.159,9.355,4.198,12.328,8.313
			c5.348,7.406,10.453,5.456,10.668,5.372l0.793,1.899C117.967,226.568,116.957,226.979,115.395,226.979z"/>
		<path fill="#FFFFFF" d="M298.791,92.103c0,0,6.961,4.888,4.361,7.709c-2.598,2.822-5.07,6.35-6.127,5.998
			c-1.059-0.354-10.324-3.177-14.863-7.057c-4.541-3.881-20.061-8.819-25.707-9.879c-5.643-1.057-22.932-6.35-28.93-3.881
			c-5.994,2.471,4.236-8.466,17.289-6.35C257.867,80.761,289.521,84.993,298.791,92.103z"/>
		<path fill="#FFFFFF" d="M364.533,114.276c0,0-3.438,5.288-2.135,8.111c1.305,2.824,6.244-3.527,15.414-2.468
			c9.176,1.058,14.193,3.2,14.193,3.2s-1.262-10.865-1.729-12.59C389.812,108.806,371.008,109.688,364.533,114.276z"/>
		<path fill="#FFFFFF" d="M341.049,289.842c0,0-3.543-10.566-12.084-9.975c-8.537,0.592-13.055-8.23-33.287-1.615
			c-20.234,6.617-29.637,8.619-29.637,8.619s2.256,5.383,16.652,14.287c14.398,8.9,44.598,9.543,51.699,1.732
			C341.49,295.076,343.75,294.865,341.049,289.842z M288.764,282.305v-0.002c1.809-0.572,3.693-1.178,5.719-1.84
			c20.23-6.615,24.748,2.209,33.287,1.617s12.084,9.971,12.084,9.971S305.818,287.252,288.764,282.305z"/>
		<path fill="#FFFFFF" d="M308.34,323.096c-0.002,0-0.002,0-0.004,0c-7.479,0-14.695-1.549-19.795-4.244
			c-17.471-9.24-23.258-30.809-23.496-31.723l-0.199-0.764l0.688-0.391c1.209-0.688,29.773-16.857,44.5-18.312
			c2.102-0.207,4.09-0.312,5.906-0.312c6.736,0,10.4,1.428,13.348,2.573c1.465,0.572,2.727,1.063,4.146,1.312
			c5.734,0.994,9.223,17.912,9.865,21.293c1.107,7.693-0.615,14.208-5.117,19.399C332.123,318.922,320.967,323.096,308.34,323.096z
			 M267.26,287.367c1.195,3.9,7.375,21.795,22.246,29.662c4.811,2.545,11.674,4.008,18.83,4.008c0,0,0.002,0,0.004,0
			c12.039,0,22.609-3.908,28.285-10.455c4.092-4.725,5.652-10.684,4.641-17.715c-1.479-7.779-5.002-19.049-8.186-19.602
			c-1.623-0.283-3.041-0.834-4.543-1.424c-2.932-1.143-6.252-2.434-12.6-2.434c-1.75,0-3.67,0.104-5.705,0.301
			C297.189,271,271.818,284.832,267.26,287.367z"/>
		<path fill="#FFFFFF" d="M250.566,286.023l-1.99-0.523c0.273-1.035,6.826-25.502,20.219-39.812
			c13.176-14.078,35.422-44.058,35.646-44.354l1.654,1.227c-0.223,0.301-22.541,30.375-35.797,44.542
			C257.266,261.02,250.633,285.775,250.566,286.023z"/>
		<path fill="#FFFFFF" d="M352.988,295.738l-1.771-1.057c9.039-15.152-1.873-47.635-1.979-47.957l1.949-0.668
			C351.654,247.428,362.516,279.768,352.988,295.738z"/>
		<path fill="#FFFFFF" d="M73.299,335.594"/>
	</g>
	<g>
		<path fill="#FFFFFF" d="M532.691,441.83h-2.062v-10.299h2.062V441.83z M532.691,421.234h-2.062v-10.303h2.062V421.234z
			 M532.691,400.639h-2.062v-10.295h2.062V400.639z M532.691,380.047h-2.062v-10.299h2.062V380.047z M532.691,359.451h-2.062
			v-10.297h2.062V359.451z M532.691,338.857h-2.062v-10.303h2.062V338.857z M532.691,318.262h-2.062v-10.297h2.062V318.262z
			 M532.691,297.668h-2.062v-10.299h2.062V297.668z M532.691,277.072h-2.062v-10.297h2.062V277.072z M532.691,256.479h-2.062
			v-10.297h2.062V256.479z M532.691,235.884h-2.062v-10.298h2.062V235.884z M532.691,215.288h-2.062v-10.297h2.062V215.288z
			 M532.691,194.694h-2.062v-10.297h2.062V194.694z M532.691,174.099h-2.062v-10.297h2.062V174.099z M532.691,153.505h-2.062
			v-10.298h2.062V153.505z M532.691,132.91h-2.062v-10.298h2.062V132.91z M532.691,112.315h-2.062v-10.297h2.062V112.315z
			 M532.691,91.721h-2.062V81.423h2.062V91.721z M532.691,71.126h-2.062V60.829h2.062V71.126z M532.691,50.531h-2.062V40.233h2.062
			V50.531z M532.691,29.937h-2.062V19.64h2.062V29.937z M532.691,9.343h-2.062V-0.955h2.062V9.343z"/>
		<rect x="262.742" y="-0.093" fill="#FFFFFF" width="6.178" height="447.147"/>
		<rect y="145.487" fill="#FFFFFF" width="797.492" height="6.178"/>
		<g>
			<rect x="792.344" y="297.076" fill="#FFFFFF" width="5.148" height="2.059"/>
			<path fill="#FFFFFF" d="M782.121,299.135h-10.223v-2.059h10.223V299.135z M761.674,299.135h-10.221v-2.059h10.221V299.135z
				 M741.227,299.135h-10.223v-2.059h10.223V299.135z M720.781,299.135h-10.227v-2.059h10.227V299.135z M700.336,299.135h-10.225
				v-2.059h10.225V299.135z M679.889,299.135h-10.225v-2.059h10.225V299.135z M659.441,299.135h-10.229v-2.059h10.229V299.135z
				 M638.994,299.135h-10.223v-2.059h10.223V299.135z M618.549,299.135h-10.225v-2.059h10.225V299.135z M598.1,299.135h-10.223
				v-2.059H598.1V299.135z M577.654,299.135H567.43v-2.059h10.227L577.654,299.135L577.654,299.135z M557.209,299.135h-10.225
				v-2.059h10.225V299.135z M536.762,299.135h-10.223v-2.059h10.223V299.135z M516.314,299.135H506.09v-2.059h10.227
				L516.314,299.135L516.314,299.135z M495.867,299.135h-10.223v-2.059h10.223V299.135z M475.422,299.135h-10.223v-2.059h10.223
				V299.135z M454.973,299.135H444.75v-2.059h10.223V299.135z M434.527,299.135h-10.227v-2.059h10.227V299.135z M414.082,299.135
				h-10.225v-2.059h10.225V299.135z M393.635,299.135h-10.223v-2.059h10.223V299.135z M373.189,299.135h-10.223v-2.059h10.223
				V299.135z M352.74,299.135h-10.223v-2.059h10.223V299.135z M332.295,299.135h-10.223v-2.059h10.223V299.135z M311.848,299.135
				h-10.223v-2.059h10.223V299.135z M291.402,299.135H281.18v-2.059h10.223L291.402,299.135L291.402,299.135z M270.953,299.135
				H260.73v-2.059h10.223V299.135z M250.508,299.135h-10.223v-2.059h10.223V299.135z M230.062,299.135h-10.225v-2.059h10.225
				V299.135z M209.615,299.135h-10.223v-2.059h10.223V299.135z M189.17,299.135h-10.227v-2.059h10.227V299.135z M168.721,299.135
				h-10.223v-2.059h10.223L168.721,299.135L168.721,299.135z M148.275,299.135h-10.223v-2.059h10.223V299.135z M127.828,299.135
				h-10.223v-2.059h10.223V299.135z M107.381,299.135H97.158v-2.059h10.223V299.135z M86.934,299.135H76.711v-2.059h10.223V299.135z
				 M66.488,299.135H56.266v-2.059h10.223v2.059H66.488z M46.043,299.135H35.818v-2.059h10.225V299.135z M25.594,299.135H15.371
				v-2.059h10.223V299.135z"/>
			<rect y="297.076" fill="#FFFFFF" width="5.148" height="2.059"/>
		</g>
	</g>
</g>
</svg>
