<?xml version="1.0" encoding="utf-8"?>
<!-- Generator: Adobe Illustrator 15.0.2, SVG Export Plug-In . SVG Version: 6.00 Build 0)  -->
<!DOCTYPE svg PUBLIC "-//W3C//DTD SVG 1.1//EN" "http://www.w3.org/Graphics/SVG/1.1/DTD/svg11.dtd">
<svg version="1.1" id="Layer_3" xmlns="http://www.w3.org/2000/svg" xmlns:xlink="http://www.w3.org/1999/xlink" x="0px" y="0px"
	 width="800px" height="450px" viewBox="0 0 800 450" enable-background="new 0 0 800 450" xml:space="preserve">
<g>
	<g>
		<path fill="#FFFFFF" d="M266.861,441.689h-2.06v-10.302h2.06V441.689z M266.861,421.094h-2.06v-10.297h2.06V421.094z
			 M266.861,400.5h-2.06v-10.297h2.06V400.5z M266.861,379.906h-2.06v-10.299h2.06V379.906z M266.861,359.311h-2.06v-10.297h2.06
			V359.311z M266.861,338.717h-2.06v-10.299h2.06V338.717z M266.861,318.121h-2.06v-10.297h2.06V318.121z M266.861,297.527h-2.06
			v-10.299h2.06V297.527z M266.861,276.932h-2.06v-10.297h2.06V276.932z M266.861,256.338h-2.06v-10.297h2.06V256.338z
			 M266.861,235.744h-2.06v-10.298h2.06V235.744z M266.861,215.149h-2.06v-10.298h2.06V215.149z M266.861,194.554h-2.06v-10.298
			h2.06V194.554z M266.861,173.958h-2.06v-10.297h2.06V173.958z M266.861,153.364h-2.06v-10.297h2.06V153.364z M266.861,132.77
			h-2.06v-10.298h2.06V132.77z M266.861,112.174h-2.06v-10.297h2.06V112.174z M266.861,91.581h-2.06V81.284h2.06V91.581z
			 M266.861,70.986h-2.06V60.688h2.06V70.986z M266.861,50.391h-2.06V40.094h2.06V50.391z M266.861,29.797h-2.06V19.5h2.06V29.797z
			 M266.861,9.202h-2.06V-1.095h2.06V9.202z"/>
		<rect x="528.573" y="-0.233" fill="#FFFFFF" width="6.179" height="447.153"/>
		<g>
			<rect y="296.936" fill="#FFFFFF" width="5.148" height="2.062"/>
			<path fill="#FFFFFF" d="M782.122,298.994h-10.224v-2.059h10.224V298.994z M761.676,298.994h-10.224v-2.059h10.224V298.994z
				 M741.229,298.994h-10.225v-2.059h10.225V298.994z M720.781,298.994h-10.226v-2.059h10.226V298.994z M700.335,298.994h-10.223
				v-2.059h10.223V298.994z M679.888,298.994h-10.223v-2.059h10.223V298.994z M659.441,298.994h-10.226v-2.059h10.226V298.994z
				 M638.995,298.994h-10.224v-2.059h10.224V298.994z M618.549,298.994h-10.224v-2.059h10.224V298.994z M598.104,298.994h-10.225
				v-2.059h10.225V298.994z M577.655,298.994H567.43v-2.059h10.228L577.655,298.994L577.655,298.994z M557.208,298.994h-10.224
				v-2.059h10.224V298.994z M536.762,298.994h-10.224v-2.059h10.224V298.994z M516.314,298.994H506.09v-2.059h10.226
				L516.314,298.994L516.314,298.994z M495.868,298.994h-10.224v-2.059h10.224V298.994z M475.421,298.994h-10.223v-2.059h10.223
				V298.994z M454.975,298.994h-10.223v-2.059h10.223V298.994z M434.529,298.994h-10.229v-2.059h10.229V298.994z M414.081,298.994
				h-10.224v-2.059h10.224V298.994z M393.635,298.994h-10.224v-2.059h10.224V298.994z M373.188,298.994h-10.225v-2.059h10.225
				V298.994z M352.741,298.994h-10.223v-2.059h10.223V298.994z M332.295,298.994h-10.223v-2.059h10.223V298.994z M311.848,298.994
				h-10.223v-2.059h10.223V298.994z M291.402,298.994h-10.225v-2.059h10.225V298.994z M270.955,298.994h-10.224v-2.059h10.224
				V298.994z M250.509,298.994h-10.225v-2.059h10.225V298.994z M230.062,298.994h-10.223v-2.059h10.223V298.994z M209.614,298.994
				h-10.222v-2.059h10.222V298.994z M189.168,298.994h-10.223v-2.059h10.223V298.994z M168.722,298.994h-10.224v-2.059h10.224
				V298.994z M148.275,298.994h-10.224v-2.059h10.224V298.994z M127.829,298.994h-10.224v-2.059h10.224V298.994z M107.382,298.994
				H97.158v-2.059h10.224V298.994L107.382,298.994z M86.935,298.994H76.712v-2.059h10.223V298.994z M66.488,298.994H56.266v-2.059
				h10.223v2.059H66.488z M46.042,298.994H35.818v-2.059h10.224V298.994z M25.595,298.994H15.371v-2.059h10.224V298.994z"/>
			<rect x="792.346" y="296.936" fill="#FFFFFF" width="5.148" height="2.062"/>
		</g>
		<rect y="145.348" fill="#FFFFFF" width="800" height="6.178"/>
	</g>
	<g>
		<path fill="#FFFFFF" d="M470.819,354.455c-14.619,0-26.248-1.262-32.216-2.754c-25.047-6.269-29.907-19.797-33.017-34.293
			c-1.662-7.754,0.355-15.285,2.31-22.57c1.651-6.17,3.215-12,2.106-17.02l-0.104-0.486c-1.771-8.023-1.806-8.178-0.784-9.561
			c0.251-0.345,0.562-0.769,0.938-1.72c1.296-3.288,11.407-5.194,18.416-6.133c-6.11-1.756-15.635-4.733-18.138-6.933
			c-3.429-3.006-1.328-18.149-0.513-23.233c-1.912-0.321-6.354-1.405-15.021-5.016c-3.961-1.651-6.333-3.812-7.249-6.604
			c-1.702-5.189,2.08-11.466,6.083-18.113l0.68-1.128c2.223-3.709,7.938-10.215,14.556-17.749
			c10.584-12.051,25.081-28.553,23.905-33.253c-2.048-8.191-0.11-33.762-0.027-34.847l2.053,0.157
			c-0.021,0.264-1.992,26.321-0.025,34.19c1.336,5.334-9.254,17.918-24.355,35.111c-6.278,7.148-12.209,13.9-14.337,17.447
			l-0.682,1.133c-3.752,6.232-7.297,12.117-5.89,16.408c0.718,2.191,2.708,3.938,6.084,5.345
			c11.673,4.866,15.396,4.999,15.433,4.999l1.191,0.022l-0.188,1.179c-1.401,8.194-2.436,20.563-0.335,22.403
			c2.696,2.365,17.105,6.508,22.431,7.9l5.608,1.471l-5.772,0.551c-9.916,0.945-21.142,3.3-21.987,5.445
			c-0.475,1.199-0.91,1.791-1.197,2.187c-0.445,0.604-0.466,0.631,1.14,7.896l0.104,0.485c1.217,5.508-0.408,11.573-2.13,17.993
			c-1.89,7.05-3.842,14.339-2.284,21.604c2.968,13.836,7.604,26.75,31.5,32.729c22.056,5.516,122.469,7.922,162.381-46.314
			l1.655,1.223C573.45,344.955,510.909,354.455,470.819,354.455z"/>
		<path fill="#FFFFFF" d="M476.291,377.615l-1.779-1.039c6.714-11.512,0.083-22.371,0.019-22.48l1.746-1.09
			C476.576,353.49,483.625,365.041,476.291,377.615z"/>
		<path fill="#FFFFFF" d="M796.739,179.252c-12.879-13.895-13.694-27.926-13.726-28.515c0.03-0.869,2.812-78.533-16.158-121.464
			c-1.852-4.188-7.618-11.862-12.709-18.634c-2.688-3.573-5.229-6.951-7.051-9.618l1.697-1.162c1.798,2.629,4.322,5.988,6.997,9.543
			c5.408,7.194,11.001,14.633,12.949,19.039c19.162,43.369,16.36,121.502,16.332,122.285c0.007,0.047,0.835,13.81,13.176,27.125
			L796.739,179.252z"/>
		<path fill="#FFFFFF" d="M797.134,200.734c-131.391-49.142-411.479-97.281-414.294-97.762c-1.065-0.205-3.24-0.624-3.209-2.194
			c0.026-1.295,0.064-3.254,27.938-8.461c11.396-2.128,22.911-3.934,26.167-4.436c-0.156-6.888-0.047-50.449,25.669-88.689
			l1.71,1.15c-27.479,40.857-25.317,87.894-25.292,88.365l0.049,0.932l-0.924,0.139c-23.521,3.557-48.728,8.45-52.831,10.899
			c0.248,0.081,0.599,0.173,1.092,0.267c2.795,0.478,283.078,48.651,414.646,97.859L797.134,200.734z"/>
		<path fill="#FFFFFF" d="M593.54,270.361c-0.781,0-1.552-0.041-2.306-0.129c-7.091-0.816-11.809-5.34-13.285-12.736l2.019-0.402
			c1.654,8.264,7.168,10.594,11.503,11.094c8.608,0.979,20.053-4.612,23.104-11.317c2.04-4.488,5.854-6.789,10.272-9.453
			c7.114-4.289,15.973-9.625,22.184-27.016c9.101-25.479,5.171-39.667-13.142-47.438c-15.925-6.758-36.732,13.785-36.941,13.992
			l-1.456-1.456c0.891-0.892,22.007-21.729,39.204-14.431c19.303,8.191,23.706,23.619,14.271,50.024
			c-6.457,18.083-15.661,23.633-23.057,28.088c-4.295,2.592-7.688,4.639-9.464,8.547
			C613.294,264.656,602.651,270.361,593.54,270.361z"/>
		<path fill="#FFFFFF" d="M685.593,280.385c-0.479,0-0.978-0.037-1.494-0.111c-10.394-1.491-27.981-18.84-27.962-30.092
			c0.013-4.521-0.095-9.524-0.205-14.828c-0.239-11.696-0.518-24.958,0.18-40.56c0.307-6.921-1.789-12.783-6.229-17.426
			c-10.153-10.613-28.632-11.438-34.055-11.438c-12.537,0-28.149,10.184-40.692,18.366c-5.068,3.306-9.447,6.162-12.972,7.924
			c-5.533,2.765-10.854,5.047-15.076,2.603c-5.007-2.896-7.703-12.103-8.749-29.861c-1.947-33.091-19.802-34.562-20.562-34.609
			l0.111-2.056c0.834,0.045,20.441,1.509,22.503,36.544c0.986,16.764,3.441,25.723,7.728,28.199c3.342,1.93,8.112-0.158,13.123-2.66
			c3.418-1.709,7.751-4.536,12.768-7.809c12.774-8.33,28.669-18.699,41.818-18.699c5.63,0,24.826,0.87,35.542,12.072
			c4.846,5.064,7.133,11.438,6.8,18.941c-0.692,15.535-0.416,28.758-0.175,40.426c0.107,5.312,0.214,10.332,0.205,14.875
			c-0.021,10.246,16.689,26.686,26.19,28.051c3.112,0.449,5.043-0.728,5.874-3.586c3.457-11.863,15.903-26.195,29.081-41.367
			c13.97-16.082,28.414-32.712,32.798-47.279l1.976,0.596c-4.515,14.989-19.104,31.788-33.214,48.035
			c-13.026,14.996-25.33,29.162-28.66,40.594C691.263,278.592,688.927,280.385,685.593,280.385z"/>
		<path fill="#FFFFFF" d="M414.192,449.902c-0.479,0-0.648-0.205-0.812-0.396c-0.806-0.955-0.146-1.963,3.353-5.061
			c1.562-3.728,18.609-44.004,29.481-55.861c8.373-9.135,20.54-10.486,42.628-12.938c8.289-0.925,17.687-1.968,28.835-3.63
			c40.724-6.077,96.741-29.577,128.778-48.604c8.938-5.307,23.204-12.748,38.311-20.625c34.946-18.229,82.811-43.192,85.422-53.381
			c0.178-0.689,0.111-1.229-0.199-1.699c-7.812-11.719-42.729-20.824-43.079-20.916l0.513-1.996
			c1.469,0.379,36.034,9.4,44.279,21.771c0.644,0.966,0.806,2.091,0.48,3.351c-2.842,11.08-47.268,34.252-86.465,54.694
			c-15.079,7.862-29.32,15.294-38.211,20.571c-32.205,19.122-88.545,42.75-129.521,48.866c-11.191,1.67-20.606,2.715-28.913,3.64
			c-21.592,2.396-33.487,3.719-41.337,12.282c-10.921,11.908-29.017,55.046-29.194,55.48l-0.092,0.219l-0.178,0.156
			c-0.229,0.203-0.441,0.393-0.643,0.572c10.403-5.681,41.396-26.496,60.281-41.688c9.675-7.781,18.689-11.022,26.787-9.678
			c9.281,1.559,13.812,8.615,14.004,8.918l0.345,0.545l-0.346,0.551c-0.102,0.16-2.406,3.933-0.33,7.789
			c2.035,3.783,8.741,8.4,29.14,8.91c40.479,1.014,148.461-6.971,188.17-15.211c26.588-5.51,43.351,1.131,52.353,4.697
			c3.681,1.454,6.588,2.608,7.441,1.754l1.456,1.455c-1.81,1.813-4.765,0.646-9.656-1.296c-8.805-3.487-25.188-9.983-51.175-4.598
			c-39.812,8.267-148.049,16.277-188.642,15.256c-17.195-0.432-27.599-3.803-30.915-10.021c-2.106-3.947-0.651-7.754,0.075-9.215
			c-1.156-1.545-5.268-6.347-12.294-7.513c-7.488-1.233-15.939,1.873-25.121,9.261c-10.211,8.213-25.241,19.082-40.208,29.076
			C420.601,447.689,415.758,449.902,414.192,449.902z"/>
		<path fill="#FFFFFF" d="M796.487,365.537c-3.255-15.354-10.703-17.281-17.278-18.982c-3.401-0.883-6.613-1.715-8.701-4.354
			c-3.931-4.971-0.674-11.338,4.256-20.978c2.812-5.493,6.312-12.338,9.328-20.631c7.357-20.229-3.035-44.526-8.031-56.202
			c-0.405-0.957-0.773-1.82-1.091-2.576c-3.181-7.668-31.587-18.507-42.264-22.04l0.646-1.955
			c1.604,0.529,39.329,13.099,43.521,23.206c0.312,0.75,0.676,1.604,1.081,2.553c5.099,11.922,15.711,36.725,8.072,57.723
			c-3.062,8.414-6.591,15.316-9.432,20.863c-4.565,8.928-7.584,14.826-4.475,18.758c1.658,2.098,4.413,2.812,7.604,3.639
			c6.798,1.763,15.261,3.953,18.775,20.554L796.487,365.537z"/>
		<path fill="#FFFFFF" d="M506.241,450l-1.248-1.637c19.021-14.517,18.938-29.013,18.938-29.154l2.062-0.045
			C526.003,419.797,526.089,434.859,506.241,450z"/>
		<path fill="#FFFFFF" d="M385.608,449.814l-1.625-1.269c3.718-4.77,8.342-10.877,13.238-17.346
			c23.017-30.404,41.09-53.769,47.013-55.111c5.835-1.322,11.428-16.922,13.092-22.817l1.98,0.559
			c-0.646,2.291-6.546,22.438-14.618,24.27c-5.657,1.287-29.827,33.22-45.821,54.349
			C393.963,438.92,389.334,445.033,385.608,449.814z"/>
		<path fill="#FFFFFF" d="M449.007,146.12c1.522,0,19.799,4.062,22.335,8.633c2.536,4.571-13.198,1.647-18.272,0
			C447.866,153.061,449.007,146.12,449.007,146.12z"/>
		<path fill="#FFFFFF" d="M442.912,126.831c0,0,3.389,7.105,6.01,8.63c2.622,1.522,24.957,5.583,34.604,10.659
			c9.644,5.077,11.751,1.523,11.713,0C495.198,144.597,450.529,120.739,442.912,126.831z"/>
		<path fill="#FFFFFF" d="M424.133,213.635c0,0-14.726-4.568-17.261,0C404.333,218.206,420.071,223.789,424.133,213.635z"/>
		<path fill="#FFFFFF" d="M443.913,282.92l-2.001-0.484c0.074-0.311,7.419-31.139,0.165-41.211
			c-7.782-10.803-4.386-30.01-4.237-30.823c0.355-5.091-10.05-10.435-14.09-12.055l0.766-1.911
			c0.649,0.26,15.917,6.464,15.364,14.223c-0.049,0.305-3.396,19.272,3.868,29.364C451.551,250.859,444.229,281.617,443.913,282.92z
			"/>
		<path fill="#FFFFFF" d="M690.448,300.629c-0.177-1.047-4.244-25.68,3.104-32.068l1.354,1.556
			c-5.381,4.678-3.575,23.362-2.427,30.174L690.448,300.629z"/>
		<path fill="#FFFFFF" d="M768.35,162.509c-30.673-7.107-52.08-12.56-72.778-17.833c-44.575-11.354-90.667-23.092-232.149-52.205
			l0.413-2.015c141.532,29.12,187.646,40.865,232.245,52.225c20.688,5.269,42.086,10.72,72.734,17.821L768.35,162.509z"/>
	</g>
</g>
</svg>
