<?xml version="1.0" encoding="utf-8"?>
<!-- Generator: Adobe Illustrator 15.0.2, SVG Export Plug-In . SVG Version: 6.00 Build 0)  -->
<!DOCTYPE svg PUBLIC "-//W3C//DTD SVG 1.1//EN" "http://www.w3.org/Graphics/SVG/1.1/DTD/svg11.dtd">
<svg version="1.1" id="Layer_3" xmlns="http://www.w3.org/2000/svg" xmlns:xlink="http://www.w3.org/1999/xlink" x="0px" y="0px"
	 width="800px" height="450px" viewBox="0 0 800 450" enable-background="new 0 0 800 450" xml:space="preserve">
<g>
	<g>
		<path fill="#FFFFFF" d="M297.232,386.479c-54.407,0-133.891-68.06-165.376-102.847c-27.146-29.995-42.417-79.367-45.391-146.747
			c-1.389-31.455,6.42-53.019,12.694-70.345c3.321-9.168,6.188-17.084,7.251-24.922c3.114-22.937,6.27-42.625,6.302-42.822
			l2.048,0.329c-0.032,0.196-3.183,19.861-6.292,42.773c-1.095,8.056-3.997,16.07-7.356,25.349
			c-6.213,17.155-13.944,38.504-12.573,69.546c2.953,66.884,18.043,115.82,44.854,145.445
			c32.753,36.188,117.699,108.675,171.197,101.704c52.323-6.802,87.088-50.448,90.411-67.575
			c2.214-11.419,15.676-25.781,27.556-38.455c5.292-5.645,10.288-10.977,13.562-15.312c10.605-14.062,42.893-63.661,45.979-80.727
			c3.043-16.79,16.396-44.624,26.144-64.948l1.229-2.567c9.27-19.338,21.82-114.574,21.944-115.534l2.059,0.271
			c-0.516,3.932-12.722,96.525-22.13,116.16l-1.229,2.569c-9.148,19.075-22.979,47.903-25.968,64.418
			c-3.146,17.386-35.685,67.443-46.364,81.605c-3.339,4.428-8.371,9.797-13.7,15.48c-11.688,12.468-24.938,26.602-27.035,37.428
			c-3.406,17.567-38.878,62.315-92.18,69.241C302.381,386.323,299.83,386.479,297.232,386.479z"/>
		<path fill="#FFFFFF" d="M92.679,83.899c-0.456,0-0.933-0.058-1.431-0.173c-9.83-2.285-25.92-27.056-31.959-39.187
			C52.061,30.021,53.18,2.411,55.47-1.287c0.403-0.653,0.902-0.791,1.25-0.791v2.075c0.299,0,0.484-0.157,0.526-0.21
			c-1.491,1.963-3.571,28.819,3.9,43.83c7.112,14.285,22.556,36.226,30.571,38.088c1.04,0.241,1.867,0.113,2.527-0.392l1.26,1.65
			C94.687,83.586,93.741,83.899,92.679,83.899z"/>
		<path fill="#FFFFFF" d="M94.107,49.416c-3.441-3.784-6.561-6.377-9.578-8.887c-4.251-3.533-8.267-6.871-12.255-12.881
			c-6.89-10.38-0.381-27.152-0.101-27.859l1.93,0.761c-0.065,0.165-6.389,16.476-0.102,25.951
			c3.821,5.758,7.543,8.851,11.854,12.435c3.072,2.552,6.25,5.195,9.786,9.082L94.107,49.416z"/>
		<g>
			<path fill="#FFFFFF" d="M302.202,133.642c-6.325,3.535-13.891,6.086-22.491,7.588c-1.829,0.317-3.75,0.48-5.711,0.48
				c-0.002,0-0.003,0-0.004,0c-24.324,0-50.496-24.695-50.756-24.944l-1.549,1.37c0.81,1.088,20.026,26.676,37.023,29.791
				c2.266,0.413,4.216,0.894,6.1,1.356c3.222,0.792,6.007,1.475,9.056,1.475c6.226,0,13.337-2.575,29.491-15.385
				c8.911-5.014,12.243-10.126,12.381-10.341l3.797-5.941l-5.348,4.595C309.687,127.556,305.764,130.814,302.202,133.642z"/>
			<path fill="#FFFFFF" d="M481.171,112.84c-0.157,0.273-16.108,27.498-37.118,32.471c-1.561,0.368-3.181,0.557-4.812,0.557
				c-19.006,0-36.599-25.117-36.771-25.369l-1.751,1.108c0.788,1.363,19.536,33.384,39.208,33.386h0.002
				c0.677,0,1.354-0.038,2.033-0.116c20.246-2.357,40.185-39.453,41.022-41.031L481.171,112.84z"/>
		</g>
		<path fill="#FFFFFF" d="M320.023,110.94c-0.395,0-0.801-0.051-1.204-0.151c-1.559-0.381-4.303-1.383-7.777-2.652
			c-10.056-3.671-26.887-9.817-39.29-9.817c-1.034,0-2.031,0.043-2.962,0.13c-6.882,0.634-14.824,2.157-22.503,3.629
			c-8.095,1.552-15.741,3.017-20.399,3.017c-1.642,0-2.873-0.178-3.761-0.544c-2.681-1.107-4.107-2.825-4.013-4.84
			c0.205-4.37,7.706-8.856,22.292-13.335l1.577-0.484c14.448-4.438,21.701-6.665,29.035-6.665c4.944,0,9.836,1.005,16.125,2.626
			c17.369,4.478,40.499,14.511,40.731,14.612l0.73,0.319l-0.118,0.785C328.28,98.94,326.289,110.94,320.023,110.94z M271.752,96.246
			c12.77,0,29.816,6.224,40.002,9.942c3.414,1.249,6.11,2.233,7.558,2.589c3.978,0.962,6.283-7.01,6.987-10.731
			c-4.1-1.748-24.216-10.198-39.674-14.182c-6.134-1.582-10.883-2.562-15.607-2.562c-7.023,0-14.176,2.197-28.425,6.573
			l-1.579,0.482c-19.103,5.866-20.771,10.247-20.828,11.451c-0.07,1.503,1.887,2.476,2.731,2.825
			c0.623,0.258,1.624,0.387,2.969,0.387c4.462,0,12.014-1.447,20.01-2.98c7.728-1.481,15.72-3.016,22.703-3.657
			C269.593,96.292,270.654,96.246,271.752,96.246z"/>
		<path fill="#FFFFFF" d="M431.779,104.748L431.779,104.748c-6.027-0.002-10.622-3.301-12.942-9.289
			c-0.331-0.856-0.248-1.742,0.24-2.56c2.796-4.689,20.612-7.076,22.636-7.334c6.111-1.196,14.05-3.684,21.727-6.088
			c8.938-2.803,17.385-5.447,23.388-6.275c3.6-0.499,6.271,0.374,8.287,2.493c3.692,3.884,3.397,10.666,3.385,10.953l-0.069,1.409
			l-1.326-0.489c-0.01-0.003-1.812-0.622-6.063-0.622c-2.603,0-5.569,0.226-8.824,0.676c-9.511,1.313-21.971,6.762-34.02,12.031
			c-1.979,0.865-3.962,1.732-5.938,2.584C438.391,103.902,434.866,104.748,431.779,104.748z M488.639,75.145
			c-0.479,0-0.986,0.035-1.527,0.11c-5.833,0.804-14.194,3.426-23.053,6.201c-7.729,2.42-15.725,4.927-22.018,6.157
			c-7.32,0.933-19.464,3.467-21.182,6.346c-0.161,0.273-0.188,0.49-0.086,0.75c1.401,3.633,4.454,7.962,11.006,7.964l0,0
			c2.804,0,6.051-0.789,9.648-2.343c1.978-0.851,3.952-1.716,5.931-2.579c12.736-5.571,24.771-10.833,34.565-12.185
			c3.351-0.461,6.413-0.697,9.107-0.697c2.533,0,4.285,0.21,5.374,0.407c-0.099-1.979-0.581-5.824-2.808-8.158
			C492.337,75.789,490.713,75.145,488.639,75.145z"/>
		<path fill="#FFFFFF" d="M379.733,255.705l-1.201-1.689l13.389-9.521c2.619-1.862,4.024-4.187,4.297-7.104
			c0.854-9.125-9.932-20.448-10.041-20.562l1.495-1.438c0.472,0.49,11.552,12.117,10.612,22.192
			c-0.327,3.505-2.063,6.399-5.161,8.603L379.733,255.705z"/>
		<path fill="#FFFFFF" d="M657.861,452.393c-0.513-7.069-10.976-37.49-21.935-58.83C624.634,371.573,553.1,290.3,540.842,283.257
			c-13.699-7.873-30.422-31.503-31.983-40.235c-1.45-8.108-9.233-14.164-22.505-17.506c-13.567-3.417-18.189-11.14-18.382-11.468
			l1.791-1.045c0.043,0.073,4.438,7.312,17.1,10.502c14.121,3.554,22.433,10.179,24.038,19.152
			c1.467,8.186,17.961,31.321,30.978,38.801c12.378,7.112,84.525,89.016,95.899,111.157c11.264,21.931,21.617,52.224,22.15,59.628
			L657.861,452.393z"/>
		<path fill="#FFFFFF" d="M243.772,408.943c-48.672,0.004-82.046-17.501-149.78-127.008C26.592,172.97,2.206,98.247,21.513,59.846
			c0.65-1.291,4.133-1.996,21.927-4.438c9.023-1.242,19.25-2.645,21.049-3.623l0.989,1.824c-1.986,1.079-9.544,2.174-21.754,3.853
			c-7.979,1.096-18.849,2.59-20.437,3.477c-18.545,37.237,6.51,113.269,72.47,219.907
			c81.33,131.484,112.594,129.266,181.109,124.396c8.196-0.583,16.67-1.188,25.915-1.612c43.64-2.021,72.497-52.604,84.82-74.209
			c4.074-7.138,5.778-10.06,7.105-10.668l0.866,1.884l-0.434-0.938l0.442,0.938c-0.847,0.478-3.436,5.015-6.177,9.818
			c-12.493,21.896-41.747,73.177-86.529,75.25c-9.216,0.427-17.678,1.029-25.861,1.609
			C264.95,408.168,254.018,408.943,243.772,408.943z"/>
		<path fill="#FFFFFF" d="M49.713,56.618c-1.376,0-33.917-0.079-50.713-6.941l0.784-1.921c16.418,6.71,49.597,6.789,49.929,6.789
			V56.618z"/>
		<path fill="#FFFFFF" d="M346.604,278.124c-1.884,0-3.871-0.106-5.965-0.34c-18.493-2.044-53.02-10.279-65.119-28.187
			c-4.067-6.021-5.148-12.58-3.214-19.508c8.09-28.981,22.989-30.098,23.619-30.13l0.11,2.07c-0.135,0.01-14.08,1.212-21.731,28.618
			c-1.763,6.311-0.774,12.293,2.935,17.783c10.163,15.039,40.107,24.688,63.627,27.284c17.245,1.909,26.761-5.008,30.905-9.298
			c5.204-5.389,6.981-11.593,6.433-15.354c-0.459-3.147-1.542-8.97-2.914-16.34c-2.766-14.863-6.944-37.327-9.927-59.104
			c-4.288-31.334,6.38-63.855,8.729-66.327c0.377-0.396,0.759-0.45,1.029-0.43l-0.181,2.067c0.365,0.024,0.598-0.145,0.657-0.21
			c-1.583,1.746-12.497,33.074-8.179,64.62c2.973,21.729,7.147,44.16,9.91,59.003c1.375,7.394,2.463,13.23,2.926,16.419
			c0.759,5.201-1.987,11.912-6.993,17.096C369.365,271.9,361.012,278.121,346.604,278.124z"/>
		<path fill="#FFFFFF" d="M338.711,317.43c-2.18,0-4.151-0.349-5.91-1.154c-7.888-3.628-13.742-2.027-18.91-0.616
			c-3.253,0.893-6.329,1.729-9.525,1.22c-9.52-1.521-33.759-7.562-34.004-7.626l0.503-2.015c0.243,0.062,24.398,6.083,33.83,7.59
			c2.753,0.443,5.487-0.308,8.649-1.171c5.506-1.505,11.747-3.211,20.324,0.731c5.453,2.504,13.95-0.248,24.71-3.737
			c3.444-1.117,7.004-2.272,10.876-3.402l0.583,1.993c-3.844,1.121-7.389,2.271-10.818,3.382
			C351.009,315.222,344.205,317.43,338.711,317.43z"/>
		<path fill="#FFFFFF" d="M324.208,330.612c-16.799,0-33.271-10.046-34.054-10.53l1.09-1.768
			c0.211,0.131,21.317,12.982,39.382,9.655c18.029-3.341,22.106-9.279,22.145-9.344l1.736,1.14
			c-0.182,0.273-4.611,6.743-23.503,10.242C328.758,330.429,326.479,330.612,324.208,330.612z"/>
	</g>
	<g>
		<path fill="#FFFFFF" d="M536.091,444.77h-2.076v-10.371h2.076V444.77z M536.091,424.021h-2.076v-10.375h2.076V424.021z
			 M536.091,403.271h-2.076v-10.375h2.076V403.271z M536.091,382.521h-2.076v-10.374h2.076V382.521z M536.091,361.772h-2.076
			v-10.375h2.076V361.772z M536.091,341.022h-2.076v-10.375h2.076V341.022z M536.091,320.272h-2.076v-10.376h2.076V320.272z
			 M536.091,299.523h-2.076v-10.375h2.076V299.523z M536.091,278.773h-2.076v-10.375h2.076V278.773z M536.091,258.023h-2.076
			v-10.375h2.076V258.023z M536.091,237.273h-2.076V226.9h2.076V237.273z M536.091,216.525h-2.076V206.15h2.076V216.525z
			 M536.091,195.775h-2.076v-10.374h2.076V195.775z M536.091,175.027h-2.076v-10.375h2.076V175.027z M536.091,154.276h-2.076
			v-10.375h2.076V154.276z M536.091,133.528h-2.076v-10.375h2.076V133.528z M536.091,112.777h-2.076v-10.375h2.076V112.777z
			 M536.091,92.028h-2.076V81.653h2.076V92.028z M536.091,71.279h-2.076V60.904h2.076V71.279z M536.091,50.529h-2.076V40.155h2.076
			V50.529z M536.091,29.78h-2.076V19.404h2.076V29.78z M536.091,9.03h-2.076V-1.344h2.076V9.03z"/>
		<rect x="264.11" y="-0.474" fill="#FFFFFF" width="6.226" height="450.514"/>
		<g>
			<rect x="797.695" y="298.928" fill="#FFFFFF" width="5.188" height="2.074"/>
			<path fill="#FFFFFF" d="M787.396,301.002h-10.303v-2.074h10.303V301.002z M766.795,301.002h-10.299v-2.074h10.299V301.002z
				 M746.194,301.002h-10.3v-2.074h10.3V301.002z M725.595,301.002h-10.301v-2.074h10.301V301.002z M704.994,301.002h-10.302v-2.074
				h10.302V301.002z M684.393,301.002h-10.299v-2.074h10.299V301.002z M663.792,301.002h-10.3v-2.074h10.3V301.002z
				 M643.193,301.002h-10.303v-2.074h10.303V301.002z M622.594,301.002h-10.302v-2.074h10.302V301.002z M601.991,301.002h-10.298
				v-2.074h10.298V301.002z M581.392,301.002h-10.3v-2.074h10.3V301.002z M560.791,301.002h-10.3v-2.074h10.3V301.002z
				 M540.191,301.002H529.89v-2.074h10.304L540.191,301.002L540.191,301.002z M519.591,301.002h-10.3v-2.074h10.3V301.002z
				 M498.989,301.002H488.69v-2.074h10.299V301.002z M478.391,301.002h-10.302v-2.074h10.302V301.002z M457.789,301.002H447.49
				v-2.074h10.299V301.002z M437.19,301.002h-10.305v-2.074h10.305V301.002z M416.588,301.002h-10.3v-2.074h10.3V301.002z
				 M395.988,301.002h-10.3v-2.074h10.3V301.002z M375.387,301.002h-10.299v-2.074h10.299V301.002z M354.787,301.002h-10.299v-2.074
				h10.299V301.002z M334.188,301.002h-10.301v-2.074h10.301V301.002z M313.586,301.002h-10.301v-2.074h10.301V301.002z
				 M292.985,301.002h-10.299v-2.074h10.299V301.002z M272.385,301.002h-10.299v-2.074h10.299V301.002z M251.785,301.002h-10.3
				v-2.074h10.3V301.002z M231.185,301.002h-10.301v-2.074h10.301V301.002z M210.584,301.002h-10.3v-2.074h10.3V301.002z
				 M189.984,301.002h-10.3v-2.074h10.3V301.002z M169.383,301.002h-10.299v-2.074h10.299V301.002z M148.782,301.002h-10.3v-2.074
				h10.3V301.002z M128.182,301.002h-10.3v-2.074h10.3V301.002z M107.582,301.002H97.281v-2.074h10.301V301.002z M86.981,301.002
				h-10.3v-2.074h10.3V301.002z M66.38,301.002H56.082v-2.074H66.38V301.002z M45.781,301.002h-10.3v-2.074h10.3V301.002z
				 M25.181,301.002H14.879v-2.074H25.18L25.181,301.002L25.181,301.002z"/>
			<rect x="-0.607" y="298.928" fill="#FFFFFF" width="5.187" height="2.074"/>
		</g>
		<rect x="-0.607" y="146.201" fill="#FFFFFF" width="803.49" height="6.224"/>
	</g>
</g>
</svg>
