<?xml version="1.0" encoding="utf-8"?>
<!-- Generator: Adobe Illustrator 15.0.2, SVG Export Plug-In . SVG Version: 6.00 Build 0)  -->
<!DOCTYPE svg PUBLIC "-//W3C//DTD SVG 1.0//EN" "http://www.w3.org/TR/2001/REC-SVG-20010904/DTD/svg10.dtd">
<svg version="1.0" id="Layer_3" xmlns="http://www.w3.org/2000/svg" xmlns:xlink="http://www.w3.org/1999/xlink" x="0px" y="0px"
	 width="800px" height="450px" viewBox="0 0 800 450" enable-background="new 0 0 800 450" xml:space="preserve">
<g>
	<rect x="265.824" y="350.46" fill="#FFFFFF" width="2.067" height="10.338"/>
	<rect x="265.824" y="267.764" fill="#FFFFFF" width="2.067" height="10.337"/>
	<rect x="265.824" y="412.481" fill="#FFFFFF" width="2.067" height="10.34"/>
	<rect x="265.824" y="247.09" fill="#FFFFFF" width="2.067" height="10.337"/>
	<rect x="265.824" y="371.134" fill="#FFFFFF" width="2.067" height="10.337"/>
	<rect x="265.824" y="433.155" fill="#FFFFFF" width="2.067" height="10.339"/>
	<rect x="265.824" y="391.809" fill="#FFFFFF" width="2.067" height="10.337"/>
	<polygon fill="#FFFFFF" points="267.892,288.437 265.824,288.437 265.824,298.182 261.738,298.182 261.738,300.249 
		272.001,300.249 272.001,298.182 267.892,298.182 	"/>
	<rect x="265.824" y="329.785" fill="#FFFFFF" width="2.067" height="10.338"/>
	<rect x="265.824" y="185.067" fill="#FFFFFF" width="2.067" height="10.337"/>
	<rect x="265.824" y="205.741" fill="#FFFFFF" width="2.067" height="10.337"/>
	<rect x="265.824" y="226.416" fill="#FFFFFF" width="2.067" height="10.336"/>
	<rect x="265.824" y="164.393" fill="#FFFFFF" width="2.067" height="10.338"/>
	<rect x="265.824" y="309.112" fill="#FFFFFF" width="2.067" height="10.336"/>
	<rect x="265.824" y="102.371" fill="#FFFFFF" width="2.067" height="10.337"/>
	<rect x="265.824" y="123.045" fill="#FFFFFF" width="2.067" height="10.336"/>
	<rect x="265.824" y="61.022" fill="#FFFFFF" width="2.067" height="10.337"/>
	<rect x="265.824" y="81.697" fill="#FFFFFF" width="2.067" height="10.337"/>
	<rect x="265.824" y="19.674" fill="#FFFFFF" width="2.067" height="10.337"/>
	<rect x="265.824" y="40.349" fill="#FFFFFF" width="2.067" height="10.336"/>
	<rect x="265.824" y="-1" fill="#FFFFFF" width="2.067" height="10.337"/>
	<rect y="298.182" fill="#FFFFFF" width="5.169" height="2.067"/>
	<rect x="35.957" y="298.182" fill="#FFFFFF" width="10.262" height="2.067"/>
	<rect x="118.059" y="298.182" fill="#FFFFFF" width="10.263" height="2.067"/>
	<rect x="15.432" y="298.182" fill="#FFFFFF" width="10.262" height="2.067"/>
	<rect x="159.111" y="298.182" fill="#FFFFFF" width="10.262" height="2.067"/>
	<rect x="179.636" y="298.182" fill="#FFFFFF" width="10.262" height="2.067"/>
	<rect x="200.162" y="298.182" fill="#FFFFFF" width="10.263" height="2.067"/>
	<rect x="138.584" y="298.182" fill="#FFFFFF" width="10.264" height="2.067"/>
	<rect x="77.009" y="298.182" fill="#FFFFFF" width="10.262" height="2.067"/>
	<rect x="56.483" y="298.182" fill="#FFFFFF" width="10.262" height="2.067"/>
	<rect x="220.688" y="298.182" fill="#FFFFFF" width="10.263" height="2.067"/>
	<rect x="97.533" y="298.182" fill="#FFFFFF" width="10.263" height="2.067"/>
	<rect x="241.212" y="298.182" fill="#FFFFFF" width="10.264" height="2.067"/>
	<rect x="692.776" y="298.182" fill="#FFFFFF" width="10.263" height="2.067"/>
	<rect x="651.725" y="298.182" fill="#FFFFFF" width="10.262" height="2.067"/>
	<rect x="610.673" y="298.182" fill="#FFFFFF" width="10.265" height="2.067"/>
	<rect x="631.198" y="298.182" fill="#FFFFFF" width="10.264" height="2.067"/>
	<rect x="590.15" y="298.182" fill="#FFFFFF" width="10.261" height="2.067"/>
	<rect x="569.624" y="298.182" fill="#FFFFFF" width="10.26" height="2.067"/>
	<rect x="713.302" y="298.182" fill="#FFFFFF" width="10.264" height="2.067"/>
	<rect x="754.353" y="298.182" fill="#FFFFFF" width="10.263" height="2.067"/>
	<rect x="774.879" y="298.182" fill="#FFFFFF" width="10.263" height="2.067"/>
	<rect x="733.828" y="298.182" fill="#FFFFFF" width="10.263" height="2.067"/>
	<rect x="672.251" y="298.182" fill="#FFFFFF" width="10.261" height="2.067"/>
	<rect x="549.098" y="298.182" fill="#FFFFFF" width="10.262" height="2.067"/>
	<rect x="405.42" y="298.182" fill="#FFFFFF" width="10.26" height="2.067"/>
	<rect x="384.892" y="298.182" fill="#FFFFFF" width="10.263" height="2.067"/>
	<rect x="364.366" y="298.182" fill="#FFFFFF" width="10.263" height="2.067"/>
	<rect x="343.841" y="298.182" fill="#FFFFFF" width="10.263" height="2.067"/>
	<rect x="302.79" y="298.182" fill="#FFFFFF" width="10.262" height="2.067"/>
	<rect x="323.315" y="298.182" fill="#FFFFFF" width="10.262" height="2.067"/>
	<rect x="487.522" y="298.182" fill="#FFFFFF" width="10.258" height="2.067"/>
	<rect x="466.995" y="298.182" fill="#FFFFFF" width="10.261" height="2.067"/>
	<rect x="508.047" y="298.182" fill="#FFFFFF" width="10.261" height="2.067"/>
	<rect x="282.264" y="298.182" fill="#FFFFFF" width="10.262" height="2.067"/>
	<rect x="425.944" y="298.182" fill="#FFFFFF" width="10.261" height="2.067"/>
	<rect x="446.469" y="298.182" fill="#FFFFFF" width="10.265" height="2.067"/>
	<rect x="795.404" y="298.182" fill="#FFFFFF" width="5.168" height="2.067"/>
	<polygon fill="#FFFFFF" points="536.814,146.008 536.814,-0.135 530.613,-0.135 530.613,146.008 267.892,146.008 267.892,143.719 
		265.824,143.719 265.824,146.008 0,146.008 0,152.21 265.824,152.21 265.824,154.056 267.892,154.056 267.892,152.21 
		530.613,152.21 530.613,298.182 528.569,298.182 528.569,300.249 530.613,300.249 530.613,448.745 536.814,448.745 
		536.814,300.249 538.835,300.249 538.835,298.182 536.814,298.182 536.814,152.21 800.572,152.21 800.572,146.008 	"/>
</g>
<g>
	<path fill="#FFFFFF" d="M562.191,169.6c0,0-6.684,4.392-1.512,12c5.178,7.61,14.525,5.862,19.033-4.601
		C579.713,176.999,567.263,169.077,562.191,169.6z"/>
	<path fill="#FFFFFF" d="M472.224,148.958c0,0-1.423,11.605,7.882,10.721c9.303-0.886,9.346-8.159,9.346-8.159
		S485.705,145.917,472.224,148.958z"/>
	<path fill="#FFFFFF" d="M509.05,134.397c0,0-0.628-9.82-15.993-12.405c-15.364-2.583-25.955,2.292-31.645,8.27
		s3.617,1.55,7.236,0.259c3.616-1.292,20.128-1.292,25.182,3.876S504.999,135.949,509.05,134.397z"/>
	<path fill="#FFFFFF" d="M562.191,143.7c0,0-5.146,0.776-3.472,6.461c1.67,5.685,12.109,2.742,20.993,6.202
		c13.496,5.255,27.191,21.566,27.191,21.566s3.104-1.409,0-7.095C603.804,165.15,582.356,137.079,562.191,143.7z"/>
	<path fill="#FFFFFF" d="M498.024,227.689c0,0,7.061-4.394,13.781,0c6.72,4.395,3.876,4.276,3.876,4.276
		S498.97,231.565,498.024,227.689z"/>
	<g>
		<path fill="#FFFFFF" d="M603.094,214.853c13.77,4.373,19.218-2.825,19.218-2.825l11.254-13.35l2.628,5.284l-12.777,14.191
			c-4.105,7.413-19.991,6.034-23.199,4.581"/>
		<path fill="#FFFFFF" d="M520.08,197.631c0,0-22.021-3.212-32.223-8.898l-1.35,4.891c0,0,19.767,8.147,32.534,7.775L520.08,197.631
			z"/>
		<polyline fill="#FFFFFF" points="432.13,164.719 455.474,137.079 454.333,144.735 429.569,174.022 		"/>
	</g>
	<g>
		<path fill="#FFFFFF" d="M799.114,369.278c-18.012-2.762-58.36-39.515-60.015-41.026c-0.74-1.63-1.417-2.675-1.692-3.07
			c-7.608-26.68-5.968-58.933-3.359-86.974c2.614-28.108-5.026-133.494-33.283-170.933c-28.429-37.666-62.851-57.08-91.687-52.345
			l0.29-0.703c-1.286-0.526-32.087-12.63-90.396,12.754c-51.779,22.538-56.101,30.933-76.87,71.275
			c-2.88,5.595-6.08,11.813-9.772,18.775c-6.286,11.861-12.033,22.206-17.1,31.333c-19.271,34.712-30.902,55.665-35.388,93.764
			c-0.891,7.572-3.603,30.608,4.609,48.051c8.726,18.534,9.003,27.541,4.85,37.961c-4.88,1.868-53.192,20.405-68.818,27.566
			c-12.442,5.704-23.646,37.92-33.531,66.345c-3.673,10.56-7.14,20.532-10.409,28.419l1.911,0.79
			c3.291-7.939,6.769-17.941,10.452-28.528c9.748-28.034,20.799-59.81,32.439-65.146c14.358-6.582,56.537-22.847,66.829-26.799
			c-1.432,3.155-3.196,6.497-5.238,10.334l-0.223,0.419c-11.732,22.04-18.684,64.611-9.901,90.456
			c3.042,8.95,7.695,14.901,13.833,17.691l0.855-1.883c-5.598-2.543-9.88-8.085-12.731-16.475
			c-8.612-25.345-1.765-67.152,9.769-88.818l0.224-0.421c9.626-18.077,14.02-26.33,1.561-52.793
			c-7.96-16.907-5.301-39.502-4.426-46.925c4.436-37.697,15.342-57.341,35.143-93.004c5.072-9.135,10.82-19.49,17.116-31.368
			c3.695-6.971,6.901-13.196,9.783-18.796c20.977-40.741,24.757-48.083,75.862-70.329c48.852-21.261,78.609-15.652,86.592-13.43
			c-1.489,0.327-2.968,0.701-4.422,1.161l-5.231,1.65c-18.8,5.91-30.154,9.477-34.108,17.56c-2.326,4.752-1.936,10.722,1.268,19.348
			c0.94,2.534,1.784,4.649,2.573,6.475c-3.11,0.86-5.574,1.72-7.56,2.426c-7.294,2.591-9.747,3.461-24.79-2.977
			c-20.44-8.747-32.259-0.243-32.756,0.12l-0.181,0.176c-1.505,1.844-36.891,45.328-43.08,63.9
			c-2.054,6.163-3.743,11.862-5.234,16.891c-2.247,7.596-4.165,14.029-6.595,19.853c-1.013-0.44-2.029-0.875-3.003-1.361
			c-4.619-2.306-9.396-0.759-12.254,3.856c-3.304,5.327-3.331,13.008-0.071,19.567c1.092,2.193,2.249,4.035,3.502,5.626
			c-5.573,16.699-10.615,39.092-8.956,58.992c2.463,29.554,4.789,57.468,25.185,74.108c1.29,1.05,2.54,2.093,3.776,3.126
			c5.556,4.632,10.751,8.957,16.946,12.11c1.121,3.263,8.139,23.855,12.532,39.545c4.688,16.743-3.361,44.636-3.443,44.916
			l-0.16,0.554l0.388,0.43c12.679,14.016,14.196,25.263,14.214,25.372l2.051-0.248c-0.058-0.478-1.539-11.74-14.347-26.083
			c0.646-2.312,2.979-11.082,4.158-21.197c4.235,6.016,19.848,25.66,44.188,27.338c1.141,0.08,2.276,0.117,3.423,0.117
			c18.19,0,37.056-9.95,56.272-29.607c-8.179,12.208-15.223,26.88-12.622,38.701c1.325,6.021,5.071,10.694,11.142,13.89l0.962-1.829
			c-5.506-2.899-8.896-7.107-10.084-12.502c-2.367-10.761,4.027-26.751,18.005-45.029c1.851-2.415,3.494-4.806,4.991-7.179
			c0.004-0.006,0.01-0.012,0.016-0.019l-0.004-0.001c9.208-14.578,12.363-28.455,15.659-43.019
			c1.431-6.322,2.908-12.855,4.931-19.721c6.393-21.714,2.066-30.363,0.335-32.753c1.194-1.491,2.423-3.073,3.717-4.786
			c0.136-0.175,0.393-0.648,1.728-3.147c0.216-0.405,0.462-0.862,0.708-1.324c0.765,5.282,4.54,7.237,4.841,7.376
			c7.732,2.653,14.586-2.231,20.389-14.49c0.71-1.496,1.631-3.327,2.678-5.409c7.696-15.323,20.577-40.973,10.522-50.07
			c-6.15-5.562-13.41-5.14-18.794-3.578c-15.261-5.216-18.787-23.799-23.645-49.482c-1.329-7.034-2.705-14.305-4.454-22.031
			c-1.188-5.251-2.15-9.748-2.982-13.656c-5.04-23.575-5.568-26.041-23.492-43.369c-8.267-7.991-13.235-10.844-16.862-12.927
			c-5.266-3.025-7.234-4.155-12.523-18.389c-2.95-7.944-3.38-13.575-1.349-17.72c3.568-7.287,15.226-10.952,32.871-16.498
			l5.236-1.651c29.269-9.283,66.26,9.851,96.522,49.943c27.945,37.03,35.468,141.59,32.871,169.5
			c-2.631,28.292-4.275,60.862,3.48,87.9l0.178,0.348c0.157,0.208,15.57,21.039-14.408,53.058
			c-16.594,17.726-17.447,33.027-18.129,45.32c-0.594,10.684-1.024,18.404-11.854,23.153l0.83,1.895
			c11.992-5.262,12.479-13.943,13.086-24.933c0.668-11.96,1.494-26.846,17.575-44.021c20.646-22.053,20.427-39.188,17.854-48.351
			c9.947,8.862,41.994,36.451,58.2,38.936L799.114,369.278z M432.801,183.17c-3.352-6.746-2.428-13.679-0.025-17.558
			c1.58-2.552,3.78-3.958,6.194-3.958c1.097,0,2.235,0.289,3.38,0.861c1.009,0.502,2.059,0.952,3.101,1.407
			c-0.706,1.571-1.442,3.111-2.261,4.61c-2.162,3.963-5.071,10.588-7.924,18.782C434.396,186.086,433.577,184.73,432.801,183.17z
			 M482.49,200.188c-3.915,4.099-10.022,4.872-17.655,2.211c-2.695-0.938-5.186-1.756-7.49-2.515
			c-9.569-3.146-15.848-5.226-20.569-10.642c2.94-8.636,5.994-15.62,8.23-19.722c0.849-1.558,1.616-3.157,2.346-4.785
			c4.144,1.674,8.4,3.036,12.292,4.268c4.179,1.323,7.789,2.463,10.391,3.725c0.16,0.073,16.256,7.391,16.614,15.369
			C486.812,191.669,485.805,196.721,482.49,200.188z M621.688,321.897c-2.038,6.929-3.524,13.496-4.963,19.85
			c-3.246,14.345-6.354,28.009-15.339,42.283c-24.229,29.79-47.87,44.147-70.244,42.587c-27.55-1.891-43.593-27.832-43.75-28.092
			l-0.323,0.195c0.687-7.389,0.659-15.242-1.145-21.679c-3.878-13.847-9.791-31.494-11.923-37.771
			c5.479,2.373,11.803,3.833,19.801,3.833c11.878,0,27.442-3.205,49.372-11.333c9.306-3.447,17.271-6.314,24.163-8.79
			c32.896-11.829,41.688-14.998,55.299-31.559C624.18,293.985,627.448,302.326,621.688,321.897z M577.328,74.626
			c3.533,2.029,8.375,4.81,16.453,12.621c17.473,16.891,17.988,19.297,22.907,42.316c0.838,3.916,1.8,8.419,2.993,13.68
			c1.74,7.689,3.112,14.944,4.438,21.958c4.743,25.085,8.258,43.565,22.702,50.13c-2.903,1.175-4.782,2.422-4.834,2.457l1.16,1.712
			c0.562-0.381,13.936-9.247,24.051-0.089c8.892,8.042-4.037,33.782-10.982,47.609c-1.054,2.097-1.979,3.941-2.694,5.451
			c-5.355,11.308-11.194,15.694-17.72,13.477c-0.185-0.097-4.494-2.407-3.58-9.278l0.11-0.877l-0.819-0.264
			c-0.904-0.283-0.904-0.3-3.883,5.292c-0.678,1.267-1.443,2.701-1.553,2.875c-16.593,21.931-22.302,23.983-59.443,37.339
			c-6.895,2.479-14.867,5.344-24.178,8.798c-55.457,20.559-69.234,9.066-86.678-5.479c-1.238-1.034-2.5-2.086-3.791-3.141
			c-19.719-16.082-22.008-43.572-24.436-72.678c-1.595-19.162,3.119-40.687,8.462-57.018c4.891,5.119,11.253,7.23,20.686,10.331
			c2.294,0.756,4.771,1.569,7.458,2.504c3.188,1.113,6.176,1.676,8.879,1.676c3.041,0,5.773-0.743,8.089-2.14
			c-1.397,2.29-2.372,4.516-2.935,6.671c-1.026,0.545-3.581,2.165-4.497,5.236c-0.805,2.715-0.099,5.77,2.105,9.081l1.72-1.143
			c-1.842-2.771-2.462-5.235-1.848-7.331c0.391-1.323,1.225-2.3,2.013-2.983c-0.104,1.135-0.126,2.255,0.02,3.346
			c0.65,4.893,3.829,9.124,9.439,12.578l1.083-1.76c-5.058-3.114-7.908-6.844-8.475-11.091c-0.72-5.403,2.283-11.861,8.685-18.677
			c10.661-11.349,21.427-32.418,21.535-32.631l-1.846-0.937c-0.103,0.203-10.365,20.286-20.641,31.547
			c0.985-2.723,1.333-5.525,1.23-7.792c-0.42-9.235-17.126-16.842-17.812-17.15c-2.706-1.312-6.38-2.475-10.635-3.822
			c-3.839-1.215-8.033-2.558-12.091-4.193c2.471-5.921,4.405-12.415,6.676-20.078c1.486-5.013,3.17-10.695,5.213-16.825
			c5.921-17.766,40.585-60.62,42.628-63.135c1.138-0.763,12.271-7.666,30.612,0.187c15.79,6.757,18.65,5.742,26.295,3.025
			c2.125-0.758,4.549-1.606,7.717-2.468C570.693,70.792,573.05,72.169,577.328,74.626z"/>
		<path fill="#FFFFFF" d="M547.753,174.682l1.923,0.757c0.109-0.279,2.94-6.808,16.022-4.193
			c14.85,2.969,23.681,18.293,23.77,18.447l1.799-1.018c-0.377-0.664-9.371-16.299-25.16-19.457
			C551.227,166.25,547.887,174.338,547.753,174.682z"/>
		<path fill="#FFFFFF" d="M459.19,148.103l0.48,2.012c29.376-7.026,37.077,11.114,37.392,11.89l1.919-0.77
			C498.899,161.03,490.363,140.646,459.19,148.103z"/>
		<path fill="#FFFFFF" d="M496.017,256.719c-5.769-0.338-10.698-1.792-14.662-4.317c-1.449-0.923-3.133-1.39-4.999-1.39
			c-8.812,0-19.281,10.393-19.725,10.835l-0.352,0.353l0.058,0.495c2.001,17.681,16.405,27.389,41.659,28.077
			c0.803,0.022,1.587,0.033,2.354,0.033c21.499,0,28.88-8.25,29.184-8.602l0.565-0.654l-0.544-0.673
			C522.405,272.028,502.512,257.103,496.017,256.719z M498.052,288.704c-16.656-0.455-36.97-5.304-39.6-25.742
			c1.877-1.784,10.781-9.884,17.903-9.884c1.466,0,2.775,0.36,3.888,1.068c4.261,2.715,9.526,4.275,15.653,4.637
			c5.398,0.319,23.715,13.592,31.444,22.666C525.14,283.367,516.828,289.201,498.052,288.704z"/>
		<path fill="#FFFFFF" d="M477.301,259.155c-4.761,0-9.248,1.29-13.333,3.837l-0.668,0.412l0.22,0.754
			c0.134,0.457,3.515,11.258,25.755,15.114c7.485,1.3,13.312,1.958,17.312,1.958c3.921,0,6.019-0.654,6.237-1.942l0.082-0.482
			l-0.322-0.37C511.894,277.648,495.521,259.155,477.301,259.155z M506.587,279.163c-3.882,0-9.589-0.649-16.959-1.927
			c-17.552-3.044-22.631-10.587-23.812-12.94c3.55-2.041,7.407-3.074,11.485-3.074c15.005,0,29.267,13.875,32.859,17.643
			C509.531,279.014,508.442,279.163,506.587,279.163z"/>
		<path fill="#FFFFFF" d="M526.081,188.61c-5.089,0-7.638,3.2-7.789,9.782c-0.123,5.425,0.391,10.935,4.527,16.057l-0.278,0.357
			c0.418,0.33,10.197,8.2,1.823,21.729l1.76,1.087c4.775-7.714,4.087-13.903,2.265-18.125c5.356,3.709,13.466,7.092,25.738,9.928
			c14.255,3.293,23.127,4.698,29.674,4.698l0,0c11.106,0,16.579-4.147,19.447-14.603c0.403-0.796,3.887-7.885,2.079-11.754
			c-0.554-1.187-1.559-1.979-2.904-2.294c-2.693-0.626-65.99-15.362-71.441-16.295C529.359,188.899,527.679,188.61,526.081,188.61z
			 M603.452,208.636c1.176,2.513-1.081,8.034-2.123,10.142c-2.71,9.804-7.293,13.278-17.528,13.278l0,0
			c-6.382,0-15.117-1.392-29.209-4.646c-34.715-8.026-34.436-20.13-34.233-28.968c0.159-6.823,2.845-7.762,5.723-7.762
			c1.423,0,3.011,0.271,4.62,0.549c5.324,0.907,70.593,16.104,71.252,16.258C602.689,207.658,603.168,208.022,603.452,208.636z"/>
	</g>
</g>
</svg>
