<?xml version="1.0" encoding="utf-8"?>
<!-- Generator: Adobe Illustrator 15.0.2, SVG Export Plug-In . SVG Version: 6.00 Build 0)  -->
<!DOCTYPE svg PUBLIC "-//W3C//DTD SVG 1.0//EN" "http://www.w3.org/TR/2001/REC-SVG-20010904/DTD/svg10.dtd">
<svg version="1.0" id="Layer_3" xmlns="http://www.w3.org/2000/svg" xmlns:xlink="http://www.w3.org/1999/xlink" x="0px" y="0px"
	 width="800px" height="450px" viewBox="0 0 800 450" enable-background="new 0 0 800 450" xml:space="preserve">
<g>
	<rect x="532.681" y="350.46" fill="#FFFFFF" width="2.067" height="10.338"/>
	<rect x="532.681" y="267.764" fill="#FFFFFF" width="2.067" height="10.337"/>
	<rect x="532.681" y="412.481" fill="#FFFFFF" width="2.067" height="10.34"/>
	<rect x="532.681" y="247.09" fill="#FFFFFF" width="2.067" height="10.337"/>
	<rect x="532.681" y="371.134" fill="#FFFFFF" width="2.067" height="10.337"/>
	<rect x="532.681" y="433.155" fill="#FFFFFF" width="2.067" height="10.339"/>
	<rect x="532.681" y="391.809" fill="#FFFFFF" width="2.067" height="10.337"/>
	<polygon fill="#FFFFFF" points="532.681,288.437 534.748,288.437 534.748,298.182 538.834,298.182 538.834,300.249 
		528.571,300.249 528.571,298.182 532.681,298.182 	"/>
	<rect x="532.681" y="329.785" fill="#FFFFFF" width="2.067" height="10.338"/>
	<rect x="532.681" y="185.067" fill="#FFFFFF" width="2.067" height="10.337"/>
	<rect x="532.681" y="205.741" fill="#FFFFFF" width="2.067" height="10.337"/>
	<rect x="532.681" y="226.416" fill="#FFFFFF" width="2.067" height="10.336"/>
	<rect x="532.681" y="164.393" fill="#FFFFFF" width="2.067" height="10.338"/>
	<rect x="532.681" y="309.112" fill="#FFFFFF" width="2.067" height="10.336"/>
	<rect x="532.681" y="102.371" fill="#FFFFFF" width="2.067" height="10.337"/>
	<rect x="532.681" y="123.045" fill="#FFFFFF" width="2.067" height="10.336"/>
	<rect x="532.681" y="61.022" fill="#FFFFFF" width="2.067" height="10.337"/>
	<rect x="532.681" y="81.697" fill="#FFFFFF" width="2.067" height="10.337"/>
	<rect x="532.681" y="19.674" fill="#FFFFFF" width="2.067" height="10.337"/>
	<rect x="532.681" y="40.349" fill="#FFFFFF" width="2.067" height="10.336"/>
	<rect x="532.681" y="-1" fill="#FFFFFF" width="2.067" height="10.337"/>
	<rect x="795.403" y="298.182" fill="#FFFFFF" width="5.169" height="2.067"/>
	<rect x="754.354" y="298.182" fill="#FFFFFF" width="10.262" height="2.067"/>
	<rect x="672.25" y="298.182" fill="#FFFFFF" width="10.264" height="2.067"/>
	<rect x="774.879" y="298.182" fill="#FFFFFF" width="10.262" height="2.067"/>
	<rect x="631.199" y="298.182" fill="#FFFFFF" width="10.262" height="2.067"/>
	<rect x="610.674" y="298.182" fill="#FFFFFF" width="10.262" height="2.067"/>
	<rect x="590.148" y="298.182" fill="#FFFFFF" width="10.262" height="2.067"/>
	<rect x="651.725" y="298.182" fill="#FFFFFF" width="10.264" height="2.067"/>
	<rect x="713.301" y="298.182" fill="#FFFFFF" width="10.263" height="2.067"/>
	<rect x="733.828" y="298.182" fill="#FFFFFF" width="10.262" height="2.067"/>
	<rect x="569.622" y="298.182" fill="#FFFFFF" width="10.263" height="2.067"/>
	<rect x="692.775" y="298.182" fill="#FFFFFF" width="10.264" height="2.067"/>
	<rect x="549.096" y="298.182" fill="#FFFFFF" width="10.264" height="2.067"/>
	<rect x="97.533" y="298.182" fill="#FFFFFF" width="10.263" height="2.067"/>
	<rect x="138.586" y="298.182" fill="#FFFFFF" width="10.262" height="2.067"/>
	<rect x="179.635" y="298.182" fill="#FFFFFF" width="10.265" height="2.067"/>
	<rect x="159.11" y="298.182" fill="#FFFFFF" width="10.264" height="2.067"/>
	<rect x="200.161" y="298.182" fill="#FFFFFF" width="10.261" height="2.067"/>
	<rect x="220.688" y="298.182" fill="#FFFFFF" width="10.26" height="2.067"/>
	<rect x="77.007" y="298.182" fill="#FFFFFF" width="10.264" height="2.067"/>
	<rect x="35.957" y="298.182" fill="#FFFFFF" width="10.263" height="2.067"/>
	<rect x="15.431" y="298.182" fill="#FFFFFF" width="10.263" height="2.067"/>
	<rect x="56.481" y="298.182" fill="#FFFFFF" width="10.263" height="2.067"/>
	<rect x="118.061" y="298.182" fill="#FFFFFF" width="10.261" height="2.067"/>
	<rect x="241.213" y="298.182" fill="#FFFFFF" width="10.262" height="2.067"/>
	<rect x="384.893" y="298.182" fill="#FFFFFF" width="10.26" height="2.067"/>
	<rect x="405.418" y="298.182" fill="#FFFFFF" width="10.263" height="2.067"/>
	<rect x="425.943" y="298.182" fill="#FFFFFF" width="10.263" height="2.067"/>
	<rect x="446.469" y="298.182" fill="#FFFFFF" width="10.263" height="2.067"/>
	<rect x="487.52" y="298.182" fill="#FFFFFF" width="10.263" height="2.067"/>
	<rect x="466.994" y="298.182" fill="#FFFFFF" width="10.263" height="2.067"/>
	<rect x="302.792" y="298.182" fill="#FFFFFF" width="10.258" height="2.067"/>
	<rect x="323.316" y="298.182" fill="#FFFFFF" width="10.261" height="2.067"/>
	<rect x="282.265" y="298.182" fill="#FFFFFF" width="10.261" height="2.067"/>
	<rect x="508.047" y="298.182" fill="#FFFFFF" width="10.262" height="2.067"/>
	<rect x="364.367" y="298.182" fill="#FFFFFF" width="10.261" height="2.067"/>
	<rect x="343.839" y="298.182" fill="#FFFFFF" width="10.265" height="2.067"/>
	<rect y="298.182" fill="#FFFFFF" width="5.168" height="2.067"/>
	<polygon fill="#FFFFFF" points="263.758,146.008 263.758,-0.135 269.959,-0.135 269.959,146.008 532.681,146.008 532.681,143.719 
		534.748,143.719 534.748,146.008 800.572,146.008 800.572,152.21 534.748,152.21 534.748,154.056 532.681,154.056 532.681,152.21 
		269.959,152.21 269.959,298.182 272.003,298.182 272.003,300.249 269.959,300.249 269.959,448.745 263.758,448.745 
		263.758,300.249 261.737,300.249 261.737,298.182 263.758,298.182 263.758,152.21 0,152.21 0,146.008 	"/>
</g>
<g>
	<path fill="#FFFFFF" d="M238.381,169.6c0,0,6.684,4.392,1.512,12c-5.178,7.61-14.525,5.862-19.033-4.601
		C220.859,176.999,233.31,169.077,238.381,169.6z"/>
	<path fill="#FFFFFF" d="M328.349,148.958c0,0,1.423,11.605-7.882,10.721c-9.303-0.886-9.346-8.159-9.346-8.159
		S314.867,145.917,328.349,148.958z"/>
	<path fill="#FFFFFF" d="M291.522,134.397c0,0,0.628-9.82,15.993-12.405c15.364-2.583,25.955,2.292,31.645,8.27
		s-3.617,1.55-7.236,0.259c-3.616-1.292-20.128-1.292-25.182,3.876S295.573,135.949,291.522,134.397z"/>
	<path fill="#FFFFFF" d="M238.381,143.7c0,0,5.146,0.776,3.472,6.461c-1.67,5.685-12.109,2.742-20.993,6.202
		c-13.496,5.255-27.191,21.566-27.191,21.566s-3.104-1.409,0-7.095C196.769,165.15,218.216,137.079,238.381,143.7z"/>
	<path fill="#FFFFFF" d="M302.548,227.689c0,0-7.061-4.394-13.781,0c-6.72,4.395-3.876,4.276-3.876,4.276
		S301.603,231.565,302.548,227.689z"/>
	<g>
		<path fill="#FFFFFF" d="M197.479,214.853c-13.77,4.373-19.218-2.825-19.218-2.825l-11.254-13.35l-2.628,5.284l12.777,14.191
			c4.105,7.413,19.991,6.034,23.199,4.581"/>
		<path fill="#FFFFFF" d="M280.492,197.631c0,0,22.021-3.212,32.223-8.898l1.35,4.891c0,0-19.767,8.147-32.534,7.775
			L280.492,197.631z"/>
		<polyline fill="#FFFFFF" points="368.442,164.719 345.099,137.079 346.239,144.735 371.003,174.022 		"/>
	</g>
	<g>
		<path fill="#FFFFFF" d="M1.771,371.323c16.206-2.484,48.253-30.073,58.2-38.936c-2.572,9.162-2.792,26.298,17.854,48.351
			C93.906,397.914,94.732,412.8,95.4,424.76c0.607,10.989,1.094,19.671,13.086,24.933l0.83-1.895
			c-10.829-4.749-11.26-12.47-11.854-23.153c-0.682-12.293-1.535-27.595-18.129-45.32c-29.979-32.019-14.565-52.85-14.408-53.058
			l0.178-0.348c7.756-27.038,6.111-59.608,3.48-87.9c-2.597-27.91,4.926-132.47,32.871-169.5
			c30.263-40.092,67.254-59.226,96.522-49.943l5.236,1.651c17.646,5.546,29.303,9.21,32.871,16.498
			c2.031,4.145,1.602,9.775-1.349,17.72c-5.289,14.234-7.258,15.364-12.523,18.389c-3.627,2.083-8.596,4.937-16.862,12.927
			c-17.924,17.328-18.452,19.794-23.492,43.369c-0.832,3.908-1.794,8.405-2.982,13.656c-1.749,7.727-3.125,14.997-4.454,22.031
			c-4.857,25.683-8.384,44.266-23.645,49.482c-5.384-1.562-12.644-1.985-18.794,3.578c-10.055,9.098,2.826,34.747,10.522,50.07
			c1.047,2.082,1.968,3.913,2.678,5.409c5.803,12.259,12.656,17.144,20.389,14.49c0.301-0.139,4.076-2.094,4.841-7.376
			c0.246,0.462,0.492,0.919,0.708,1.324c1.335,2.499,1.592,2.973,1.728,3.147c1.294,1.713,2.522,3.295,3.717,4.786
			c-1.731,2.39-6.058,11.039,0.335,32.753c2.022,6.865,3.5,13.398,4.931,19.721c3.296,14.563,6.451,28.44,15.659,43.019
			l-0.004,0.001c0.006,0.007,0.012,0.013,0.016,0.019c1.497,2.373,3.141,4.764,4.991,7.179
			c13.978,18.278,20.372,34.269,18.005,45.029c-1.188,5.395-4.578,9.603-10.084,12.502l0.962,1.829
			c6.07-3.195,9.816-7.869,11.142-13.89c2.601-11.821-4.443-26.493-12.622-38.701c19.217,19.657,38.082,29.607,56.272,29.607
			c1.146,0,2.282-0.037,3.423-0.117c24.34-1.678,39.952-21.322,44.188-27.338c1.18,10.115,3.513,18.886,4.158,21.197
			c-12.808,14.343-14.289,25.605-14.347,26.083l2.051,0.248c0.018-0.109,1.535-11.356,14.214-25.372l0.388-0.43l-0.16-0.554
			c-0.082-0.28-8.131-28.173-3.443-44.916c4.394-15.689,11.411-36.282,12.532-39.545c6.195-3.153,11.391-7.479,16.946-12.11
			c1.236-1.033,2.486-2.076,3.776-3.126c20.396-16.641,22.722-44.555,25.185-74.108c1.659-19.899-3.383-42.292-8.956-58.992
			c1.253-1.592,2.41-3.434,3.502-5.626c3.26-6.56,3.232-14.24-0.071-19.567c-2.858-4.615-7.635-6.162-12.254-3.856
			c-0.974,0.486-1.99,0.92-3.003,1.361c-2.43-5.824-4.348-12.257-6.595-19.853c-1.491-5.029-3.181-10.728-5.234-16.891
			c-6.189-18.572-41.575-62.056-43.08-63.9l-0.181-0.176c-0.497-0.363-12.315-8.867-32.756-0.12
			c-15.043,6.438-17.496,5.568-24.79,2.977c-1.985-0.707-4.449-1.566-7.56-2.426c0.789-1.825,1.633-3.941,2.573-6.475
			c3.203-8.626,3.594-14.596,1.268-19.348c-3.954-8.083-15.309-11.65-34.108-17.56l-5.231-1.65c-1.454-0.46-2.933-0.834-4.422-1.161
			c7.982-2.223,37.74-7.832,86.592,13.43c51.105,22.246,54.886,29.588,75.862,70.329c2.882,5.601,6.088,11.825,9.783,18.796
			c6.296,11.878,12.044,22.233,17.116,31.368c19.801,35.664,30.707,55.308,35.143,93.004c0.875,7.423,3.534,30.018-4.426,46.925
			c-12.459,26.463-8.065,34.716,1.561,52.793l0.225,0.421c11.533,21.666,18.381,63.474,9.768,88.818
			c-2.851,8.39-7.133,13.932-12.73,16.475l0.855,1.883c6.138-2.79,10.791-8.741,13.832-17.691c8.783-25.845,1.832-68.416-9.9-90.456
			l-0.223-0.419c-2.043-3.837-3.807-7.179-5.238-10.334c10.292,3.952,52.471,20.217,66.828,26.799
			c11.641,5.337,22.691,37.112,32.439,65.146c3.684,10.587,7.162,20.589,10.452,28.528l1.911-0.79
			c-3.27-7.887-6.736-17.859-10.41-28.419c-9.884-28.425-21.088-60.641-33.53-66.345c-15.626-7.161-63.938-25.698-68.818-27.566
			c-4.153-10.42-3.876-19.427,4.851-37.961c8.211-17.442,5.5-40.479,4.608-48.051c-4.485-38.099-16.117-59.051-35.388-93.764
			c-5.066-9.128-10.813-19.473-17.1-31.333c-3.692-6.962-6.893-13.18-9.772-18.775C337.7,57.914,333.379,49.519,281.6,26.98
			C223.291,1.597,192.49,13.7,191.204,14.227l0.29,0.703c-28.836-4.735-63.258,14.68-91.687,52.345
			C71.551,104.714,63.91,210.1,66.524,238.208c2.608,28.041,4.249,60.294-3.359,86.974c-0.275,0.396-0.952,1.44-1.692,3.07
			c-1.654,1.512-42.003,38.265-60.015,41.026L1.771,371.323z M365.307,187.314c-2.853-8.193-5.762-14.819-7.924-18.782
			c-0.818-1.499-1.555-3.039-2.261-4.61c1.042-0.455,2.092-0.904,3.101-1.407c1.145-0.572,2.283-0.861,3.38-0.861
			c2.414,0,4.614,1.406,6.194,3.958c2.402,3.879,3.326,10.812-0.025,17.558C366.995,184.73,366.176,186.086,365.307,187.314z
			 M313.924,188.098c0.358-7.978,16.454-15.296,16.614-15.369c2.602-1.262,6.212-2.402,10.391-3.725
			c3.892-1.232,8.148-2.594,12.292-4.268c0.729,1.627,1.497,3.227,2.346,4.785c2.236,4.102,5.29,11.086,8.23,19.722
			c-4.722,5.416-11,7.496-20.569,10.642c-2.305,0.759-4.795,1.576-7.49,2.515c-7.633,2.661-13.74,1.888-17.655-2.211
			C314.768,196.721,313.761,191.669,313.924,188.098z M177.936,291.422c13.611,16.561,22.402,19.729,55.299,31.559
			c6.892,2.476,14.857,5.343,24.163,8.79c21.93,8.128,37.494,11.333,49.372,11.333c7.998,0,14.321-1.46,19.801-3.833
			c-2.132,6.277-8.045,23.925-11.923,37.771c-1.804,6.437-1.831,14.29-1.145,21.679l-0.323-0.195
			c-0.157,0.26-16.2,26.201-43.75,28.092c-22.374,1.561-46.016-12.797-70.244-42.587c-8.984-14.274-12.093-27.938-15.339-42.283
			c-1.438-6.354-2.925-12.921-4.963-19.85C173.124,302.326,176.393,293.985,177.936,291.422z M233.253,63.546
			c3.168,0.861,5.592,1.71,7.717,2.468c7.645,2.717,10.505,3.732,26.295-3.025c18.341-7.853,29.475-0.949,30.612-0.187
			c2.043,2.515,36.707,45.369,42.628,63.135c2.043,6.13,3.727,11.812,5.213,16.825c2.271,7.664,4.205,14.157,6.676,20.078
			c-4.058,1.635-8.252,2.978-12.091,4.193c-4.255,1.347-7.929,2.51-10.635,3.822c-0.686,0.308-17.392,7.915-17.812,17.15
			c-0.103,2.267,0.245,5.069,1.23,7.792c-10.275-11.261-20.538-31.344-20.641-31.547l-1.846,0.937
			c0.108,0.213,10.874,21.282,21.535,32.631c6.401,6.815,9.404,13.274,8.685,18.677c-0.566,4.247-3.417,7.977-8.475,11.091
			l1.083,1.76c5.61-3.454,8.789-7.686,9.439-12.578c0.146-1.09,0.124-2.21,0.02-3.346c0.788,0.683,1.622,1.66,2.013,2.983
			c0.614,2.096-0.006,4.56-1.848,7.331l1.72,1.143c2.204-3.312,2.91-6.366,2.105-9.081c-0.916-3.071-3.471-4.69-4.497-5.236
			c-0.562-2.156-1.537-4.381-2.935-6.671c2.315,1.396,5.048,2.14,8.089,2.14c2.703,0,5.69-0.563,8.879-1.676
			c2.688-0.935,5.164-1.749,7.458-2.504c9.433-3.101,15.795-5.211,20.686-10.331c5.343,16.332,10.057,37.856,8.462,57.018
			c-2.428,29.105-4.717,56.596-24.436,72.678c-1.291,1.055-2.553,2.106-3.791,3.141c-17.443,14.546-31.221,26.038-86.678,5.479
			c-9.311-3.454-17.283-6.319-24.178-8.798c-37.142-13.355-42.851-15.408-59.443-37.339c-0.109-0.174-0.875-1.608-1.553-2.875
			c-2.979-5.592-2.979-5.575-3.883-5.292l-0.819,0.264l0.11,0.877c0.914,6.871-3.396,9.182-3.58,9.278
			c-6.525,2.218-12.364-2.169-17.72-13.477c-0.715-1.51-1.641-3.354-2.694-5.451c-6.945-13.827-19.874-39.567-10.982-47.609
			c10.115-9.158,23.488-0.292,24.051,0.089l1.16-1.712c-0.052-0.035-1.931-1.282-4.834-2.457
			c14.444-6.565,17.959-25.045,22.702-50.13c1.326-7.014,2.698-14.269,4.438-21.958c1.193-5.261,2.155-9.764,2.993-13.68
			c4.919-23.019,5.435-25.425,22.907-42.316c8.078-7.811,12.92-10.592,16.453-12.621C227.522,72.169,229.879,70.792,233.253,63.546z
			"/>
		<path fill="#FFFFFF" d="M252.819,174.682l-1.923,0.757c-0.109-0.279-2.94-6.808-16.022-4.193
			c-14.85,2.969-23.681,18.293-23.77,18.447l-1.799-1.018c0.377-0.664,9.371-16.299,25.16-19.457
			C249.346,166.25,252.686,174.338,252.819,174.682z"/>
		<path fill="#FFFFFF" d="M341.382,148.103l-0.48,2.012c-29.376-7.026-37.077,11.114-37.392,11.89l-1.919-0.77
			C301.673,161.03,310.209,140.646,341.382,148.103z"/>
		<path fill="#FFFFFF" d="M271.018,280.876l-0.544,0.673l0.565,0.654c0.304,0.352,7.685,8.602,29.184,8.602
			c0.767,0,1.551-0.011,2.354-0.033c25.254-0.688,39.658-10.396,41.659-28.077l0.058-0.495l-0.352-0.353
			c-0.443-0.442-10.912-10.835-19.725-10.835c-1.866,0-3.55,0.467-4.999,1.39c-3.964,2.525-8.894,3.979-14.662,4.317
			C298.061,257.103,278.167,272.028,271.018,280.876z M273.231,281.449c7.729-9.074,26.046-22.347,31.444-22.666
			c6.127-0.361,11.393-1.922,15.653-4.637c1.112-0.708,2.422-1.068,3.888-1.068c7.122,0,16.026,8.1,17.903,9.884
			c-2.63,20.438-22.943,25.287-39.6,25.742C283.744,289.201,275.433,283.367,273.231,281.449z"/>
		<path fill="#FFFFFF" d="M287.988,278.436l-0.322,0.37l0.082,0.482c0.219,1.288,2.316,1.942,6.237,1.942
			c4,0,9.827-0.658,17.312-1.958c22.24-3.856,25.621-14.657,25.755-15.114l0.22-0.754l-0.668-0.412
			c-4.085-2.547-8.572-3.837-13.333-3.837C305.051,259.155,288.679,277.648,287.988,278.436z M290.412,278.864
			c3.593-3.768,17.854-17.643,32.859-17.643c4.078,0,7.936,1.033,11.485,3.074c-1.182,2.354-6.261,9.896-23.812,12.94
			c-7.37,1.277-13.077,1.927-16.959,1.927C292.13,279.163,291.041,279.014,290.412,278.864z"/>
		<path fill="#FFFFFF" d="M269.591,189.175c-5.451,0.933-68.748,15.669-71.441,16.295c-1.346,0.315-2.351,1.107-2.904,2.294
			c-1.808,3.87,1.676,10.958,2.079,11.754c2.868,10.456,8.341,14.603,19.447,14.603l0,0c6.547,0,15.419-1.405,29.674-4.698
			c12.272-2.836,20.382-6.219,25.738-9.928c-1.822,4.222-2.511,10.411,2.265,18.125l1.76-1.087
			c-8.374-13.529,1.405-21.398,1.823-21.729l-0.278-0.357c4.137-5.122,4.65-10.631,4.527-16.057c-0.151-6.582-2.7-9.782-7.789-9.782
			C272.894,188.61,271.213,188.899,269.591,189.175z M198.619,207.485c0.659-0.154,65.928-15.351,71.252-16.258
			c1.609-0.277,3.197-0.549,4.62-0.549c2.878,0,5.563,0.939,5.723,7.762c0.202,8.838,0.481,20.942-34.233,28.968
			c-14.092,3.255-22.827,4.646-29.209,4.646l0,0c-10.235,0-14.818-3.474-17.528-13.278c-1.042-2.108-3.299-7.628-2.123-10.142
			C197.404,208.022,197.883,207.658,198.619,207.485z"/>
	</g>
</g>
</svg>
